<?xml version="1.0" encoding="utf-8" standalone="no"?>
<!DOCTYPE svg PUBLIC "-//W3C//DTD SVG 1.1//EN"
  "http://www.w3.org/Graphics/SVG/1.1/DTD/svg11.dtd">
<svg xmlns:xlink="http://www.w3.org/1999/xlink" width="327.007698pt" height="314.995107pt" viewBox="0 0 327.007698 314.995107" xmlns="http://www.w3.org/2000/svg" version="1.1">
 <metadata>
  <rdf:RDF xmlns:dc="http://purl.org/dc/elements/1.1/" xmlns:cc="http://creativecommons.org/ns#" xmlns:rdf="http://www.w3.org/1999/02/22-rdf-syntax-ns#">
   <cc:Work>
    <dc:type rdf:resource="http://purl.org/dc/dcmitype/StillImage"/>
    <dc:date>2025-05-26T08:18:23.990392</dc:date>
    <dc:format>image/svg+xml</dc:format>
    <dc:creator>
     <cc:Agent>
      <dc:title>Matplotlib v3.9.2, https://matplotlib.org/</dc:title>
     </cc:Agent>
    </dc:creator>
   </cc:Work>
  </rdf:RDF>
 </metadata>
 <defs>
  <style type="text/css">*{stroke-linejoin: round; stroke-linecap: butt}</style>
 </defs>
 <g id="figure_1">
  <g id="patch_1">
   <path d="M 0 314.995107 
L 327.007698 314.995107 
L 327.007698 0 
L 0 0 
z
" style="fill: #ffffff"/>
  </g>
  <g id="axes_1">
   <g id="patch_2">
    <path d="M 15.928125 280.86167 
L 290.095041 280.86167 
L 290.095041 9.777422 
L 15.928125 9.777422 
z
" style="fill: #ffffff"/>
   </g>
   <g id="matplotlib.axis_1">
    <g id="xtick_1">
     <g id="text_1">
      <!-- 0.000 -->
      <g style="fill: #262626" transform="translate(7.2 295.516514) scale(0.07 -0.07)">
       <defs>
        <path id="CenturyGothic-30" d="M 203 2297 
Q 203 3206 398 3703 
Q 594 4200 950 4456 
Q 1306 4713 1747 4713 
Q 2194 4713 2556 4455 
Q 2919 4197 3130 3681 
Q 3341 3166 3341 2297 
Q 3341 1431 3133 918 
Q 2925 406 2559 145 
Q 2194 -116 1747 -116 
Q 1306 -116 953 137 
Q 600 391 401 892 
Q 203 1394 203 2297 
z
M 638 2288 
Q 638 1509 777 1111 
Q 916 713 1187 506 
Q 1459 300 1763 300 
Q 2069 300 2334 501 
Q 2600 703 2738 1106 
Q 2909 1597 2909 2288 
Q 2909 2981 2756 3423 
Q 2603 3866 2333 4070 
Q 2063 4275 1763 4275 
Q 1456 4275 1187 4070 
Q 919 3866 778 3467 
Q 638 3069 638 2288 
z
" transform="scale(0.015625)"/>
        <path id="CenturyGothic-2e" d="M 969 688 
Q 1128 688 1240 575 
Q 1353 463 1353 300 
Q 1353 141 1240 26 
Q 1128 -88 969 -88 
Q 809 -88 696 26 
Q 584 141 584 300 
Q 584 463 696 575 
Q 809 688 969 688 
z
" transform="scale(0.015625)"/>
       </defs>
       <use xlink:href="#CenturyGothic-30"/>
       <use xlink:href="#CenturyGothic-2e" x="55.419922"/>
       <use xlink:href="#CenturyGothic-30" x="83.105469"/>
       <use xlink:href="#CenturyGothic-30" x="138.525391"/>
       <use xlink:href="#CenturyGothic-30" x="193.945312"/>
      </g>
     </g>
    </g>
    <g id="xtick_2">
     <g id="text_2">
      <!-- 0.005 -->
      <g style="fill: #262626" transform="translate(38.156653 295.516514) scale(0.07 -0.07)">
       <defs>
        <path id="CenturyGothic-35" d="M 3147 4597 
L 3147 4159 
L 1509 4159 
L 1281 2906 
Q 1581 2994 1822 2994 
Q 2450 2994 2858 2573 
Q 3266 2153 3266 1497 
Q 3266 1044 3056 666 
Q 2847 288 2489 86 
Q 2131 -116 1663 -116 
Q 1103 -116 718 226 
Q 334 569 259 1113 
L 731 1113 
Q 784 847 911 681 
Q 1038 516 1248 414 
Q 1459 313 1691 313 
Q 2144 313 2469 656 
Q 2794 1000 2794 1516 
Q 2794 1981 2500 2272 
Q 2206 2563 1716 2563 
Q 1309 2563 731 2316 
L 1156 4597 
L 3147 4597 
z
" transform="scale(0.015625)"/>
       </defs>
       <use xlink:href="#CenturyGothic-30"/>
       <use xlink:href="#CenturyGothic-2e" x="55.419922"/>
       <use xlink:href="#CenturyGothic-30" x="83.105469"/>
       <use xlink:href="#CenturyGothic-30" x="138.525391"/>
       <use xlink:href="#CenturyGothic-35" x="193.945312"/>
      </g>
     </g>
    </g>
    <g id="xtick_3">
     <g id="text_3">
      <!-- 0.010 -->
      <g style="fill: #262626" transform="translate(69.113306 295.516514) scale(0.07 -0.07)">
       <defs>
        <path id="CenturyGothic-31" d="M 1184 4597 
L 2088 4597 
L 2088 0 
L 1631 0 
L 1631 4147 
L 909 4147 
L 1184 4597 
z
" transform="scale(0.015625)"/>
       </defs>
       <use xlink:href="#CenturyGothic-30"/>
       <use xlink:href="#CenturyGothic-2e" x="55.419922"/>
       <use xlink:href="#CenturyGothic-30" x="83.105469"/>
       <use xlink:href="#CenturyGothic-31" x="138.525391"/>
       <use xlink:href="#CenturyGothic-30" x="193.945312"/>
      </g>
     </g>
    </g>
    <g id="xtick_4">
     <g id="text_4">
      <!-- 0.015 -->
      <g style="fill: #262626" transform="translate(100.06996 295.516514) scale(0.07 -0.07)">
       <use xlink:href="#CenturyGothic-30"/>
       <use xlink:href="#CenturyGothic-2e" x="55.419922"/>
       <use xlink:href="#CenturyGothic-30" x="83.105469"/>
       <use xlink:href="#CenturyGothic-31" x="138.525391"/>
       <use xlink:href="#CenturyGothic-35" x="193.945312"/>
      </g>
     </g>
    </g>
    <g id="xtick_5">
     <g id="text_5">
      <!-- 0.020 -->
      <g style="fill: #262626" transform="translate(131.026613 295.516514) scale(0.07 -0.07)">
       <defs>
        <path id="CenturyGothic-32" d="M 741 3156 
L 300 3156 
Q 319 3838 755 4275 
Q 1191 4713 1831 4713 
Q 2466 4713 2858 4303 
Q 3250 3894 3250 3338 
Q 3250 2947 3062 2605 
Q 2875 2263 2334 1678 
L 1191 444 
L 3313 444 
L 3313 0 
L 191 0 
L 1947 1897 
Q 2481 2469 2642 2745 
Q 2803 3022 2803 3328 
Q 2803 3716 2514 3995 
Q 2225 4275 1806 4275 
Q 1366 4275 1073 3981 
Q 781 3688 741 3156 
z
" transform="scale(0.015625)"/>
       </defs>
       <use xlink:href="#CenturyGothic-30"/>
       <use xlink:href="#CenturyGothic-2e" x="55.419922"/>
       <use xlink:href="#CenturyGothic-30" x="83.105469"/>
       <use xlink:href="#CenturyGothic-32" x="138.525391"/>
       <use xlink:href="#CenturyGothic-30" x="193.945312"/>
      </g>
     </g>
    </g>
    <g id="xtick_6">
     <g id="text_6">
      <!-- 0.025 -->
      <g style="fill: #262626" transform="translate(161.983266 295.516514) scale(0.07 -0.07)">
       <use xlink:href="#CenturyGothic-30"/>
       <use xlink:href="#CenturyGothic-2e" x="55.419922"/>
       <use xlink:href="#CenturyGothic-30" x="83.105469"/>
       <use xlink:href="#CenturyGothic-32" x="138.525391"/>
       <use xlink:href="#CenturyGothic-35" x="193.945312"/>
      </g>
     </g>
    </g>
    <g id="xtick_7">
     <g id="text_7">
      <!-- 0.030 -->
      <g style="fill: #262626" transform="translate(192.939919 295.516514) scale(0.07 -0.07)">
       <defs>
        <path id="CenturyGothic-33" d="M 847 3531 
L 378 3531 
Q 506 4100 868 4406 
Q 1231 4713 1725 4713 
Q 2084 4713 2395 4548 
Q 2706 4384 2876 4106 
Q 3047 3828 3047 3525 
Q 3047 2931 2456 2584 
Q 2788 2450 3000 2191 
Q 3300 1825 3300 1372 
Q 3300 981 3094 626 
Q 2888 272 2531 78 
Q 2175 -116 1734 -116 
Q 1141 -116 744 226 
Q 347 569 225 1231 
L 675 1231 
Q 794 784 1016 584 
Q 1300 331 1741 331 
Q 2241 331 2544 631 
Q 2847 931 2847 1334 
Q 2847 1603 2695 1837 
Q 2544 2072 2289 2190 
Q 2034 2309 1500 2338 
L 1500 2759 
Q 1816 2759 2075 2870 
Q 2334 2981 2451 3153 
Q 2569 3325 2569 3528 
Q 2569 3828 2330 4047 
Q 2091 4266 1725 4266 
Q 1428 4266 1212 4098 
Q 997 3931 847 3531 
z
" transform="scale(0.015625)"/>
       </defs>
       <use xlink:href="#CenturyGothic-30"/>
       <use xlink:href="#CenturyGothic-2e" x="55.419922"/>
       <use xlink:href="#CenturyGothic-30" x="83.105469"/>
       <use xlink:href="#CenturyGothic-33" x="138.525391"/>
       <use xlink:href="#CenturyGothic-30" x="193.945312"/>
      </g>
     </g>
    </g>
    <g id="xtick_8">
     <g id="text_8">
      <!-- 0.035 -->
      <g style="fill: #262626" transform="translate(223.896573 295.516514) scale(0.07 -0.07)">
       <use xlink:href="#CenturyGothic-30"/>
       <use xlink:href="#CenturyGothic-2e" x="55.419922"/>
       <use xlink:href="#CenturyGothic-30" x="83.105469"/>
       <use xlink:href="#CenturyGothic-33" x="138.525391"/>
       <use xlink:href="#CenturyGothic-35" x="193.945312"/>
      </g>
     </g>
    </g>
    <g id="xtick_9">
     <g id="text_9">
      <!-- 0.040 -->
      <g style="fill: #262626" transform="translate(254.853226 295.516514) scale(0.07 -0.07)">
       <defs>
        <path id="CenturyGothic-34" d="M 2725 4713 
L 2819 4713 
L 2819 1509 
L 3375 1509 
L 3375 1069 
L 2819 1069 
L 2819 0 
L 2359 0 
L 2359 1069 
L 163 1069 
L 2725 4713 
z
M 2359 1509 
L 2359 3425 
L 1006 1509 
L 2359 1509 
z
" transform="scale(0.015625)"/>
       </defs>
       <use xlink:href="#CenturyGothic-30"/>
       <use xlink:href="#CenturyGothic-2e" x="55.419922"/>
       <use xlink:href="#CenturyGothic-30" x="83.105469"/>
       <use xlink:href="#CenturyGothic-34" x="138.525391"/>
       <use xlink:href="#CenturyGothic-30" x="193.945312"/>
      </g>
     </g>
    </g>
    <g id="text_10">
     <!-- Retornos Logarítmicos Diarios -->
     <g style="fill: #262626" transform="translate(103.76713 306.339326) scale(0.07 -0.07)">
      <defs>
       <path id="CenturyGothic-52" d="M 584 4597 
L 1500 4597 
Q 2266 4597 2538 4534 
Q 2947 4441 3203 4133 
Q 3459 3825 3459 3375 
Q 3459 3000 3282 2715 
Q 3106 2431 2778 2286 
Q 2450 2141 1872 2138 
L 3525 0 
L 2956 0 
L 1306 2138 
L 1044 2138 
L 1044 0 
L 584 0 
L 584 4597 
z
M 1044 4147 
L 1044 2584 
L 1834 2578 
Q 2294 2578 2514 2665 
Q 2734 2753 2857 2945 
Q 2981 3138 2981 3375 
Q 2981 3606 2856 3795 
Q 2731 3984 2528 4065 
Q 2325 4147 1853 4147 
L 1044 4147 
z
" transform="scale(0.015625)"/>
       <path id="CenturyGothic-65" d="M 3350 1128 
L 3719 934 
Q 3538 578 3300 359 
Q 3063 141 2766 26 
Q 2469 -88 2094 -88 
Q 1263 -88 794 457 
Q 325 1003 325 1691 
Q 325 2338 722 2844 
Q 1225 3488 2069 3488 
Q 2938 3488 3456 2828 
Q 3825 2363 3831 1666 
L 775 1666 
Q 788 1072 1153 692 
Q 1519 313 2056 313 
Q 2316 313 2561 403 
Q 2806 494 2978 644 
Q 3150 794 3350 1128 
z
M 3350 2044 
Q 3263 2394 3095 2603 
Q 2928 2813 2653 2941 
Q 2378 3069 2075 3069 
Q 1575 3069 1216 2747 
Q 953 2513 819 2044 
L 3350 2044 
z
" transform="scale(0.015625)"/>
       <path id="CenturyGothic-74" d="M 869 4663 
L 1309 4663 
L 1309 3400 
L 2003 3400 
L 2003 3025 
L 1309 3025 
L 1309 0 
L 869 0 
L 869 3025 
L 272 3025 
L 272 3400 
L 869 3400 
L 869 4663 
z
" transform="scale(0.015625)"/>
       <path id="CenturyGothic-6f" d="M 2097 3488 
Q 2881 3488 3397 2919 
Q 3866 2400 3866 1691 
Q 3866 978 3370 445 
Q 2875 -88 2097 -88 
Q 1316 -88 820 445 
Q 325 978 325 1691 
Q 325 2397 794 2916 
Q 1309 3488 2097 3488 
z
M 2097 3059 
Q 1553 3059 1162 2656 
Q 772 2253 772 1681 
Q 772 1313 950 994 
Q 1128 675 1431 501 
Q 1734 328 2097 328 
Q 2459 328 2762 501 
Q 3066 675 3244 994 
Q 3422 1313 3422 1681 
Q 3422 2253 3030 2656 
Q 2638 3059 2097 3059 
z
" transform="scale(0.015625)"/>
       <path id="CenturyGothic-72" d="M 322 3400 
L 769 3400 
L 769 2903 
Q 969 3197 1191 3342 
Q 1413 3488 1653 3488 
Q 1834 3488 2041 3372 
L 1813 3003 
Q 1675 3063 1581 3063 
Q 1363 3063 1159 2883 
Q 956 2703 850 2325 
Q 769 2034 769 1150 
L 769 0 
L 322 0 
L 322 3400 
z
" transform="scale(0.015625)"/>
       <path id="CenturyGothic-6e" d="M 488 3400 
L 925 3400 
L 925 2791 
Q 1188 3141 1506 3314 
Q 1825 3488 2200 3488 
Q 2581 3488 2876 3294 
Q 3172 3100 3312 2772 
Q 3453 2444 3453 1750 
L 3453 0 
L 3019 0 
L 3019 1622 
Q 3019 2209 2969 2406 
Q 2891 2744 2675 2914 
Q 2459 3084 2113 3084 
Q 1716 3084 1402 2821 
Q 1088 2559 988 2172 
Q 925 1919 925 1247 
L 925 0 
L 488 0 
L 488 3400 
z
" transform="scale(0.015625)"/>
       <path id="CenturyGothic-73" d="M 2197 3028 
L 1916 2738 
Q 1566 3078 1231 3078 
Q 1019 3078 867 2937 
Q 716 2797 716 2609 
Q 716 2444 841 2294 
Q 966 2141 1366 1934 
Q 1853 1681 2028 1447 
Q 2200 1209 2200 913 
Q 2200 494 1906 203 
Q 1613 -88 1172 -88 
Q 878 -88 611 40 
Q 344 169 169 394 
L 444 706 
Q 778 328 1153 328 
Q 1416 328 1600 497 
Q 1784 666 1784 894 
Q 1784 1081 1663 1228 
Q 1541 1372 1113 1591 
Q 653 1828 488 2059 
Q 322 2291 322 2588 
Q 322 2975 586 3231 
Q 850 3488 1253 3488 
Q 1722 3488 2197 3028 
z
" transform="scale(0.015625)"/>
       <path id="CenturyGothic-20" transform="scale(0.015625)"/>
       <path id="CenturyGothic-4c" d="M 559 4597 
L 1022 4597 
L 1022 444 
L 2788 444 
L 2788 0 
L 559 0 
L 559 4597 
z
" transform="scale(0.015625)"/>
       <path id="CenturyGothic-67" d="M 3416 3400 
L 3856 3400 
L 3856 691 
Q 3856 -25 3731 -356 
Q 3559 -825 3134 -1078 
Q 2709 -1331 2113 -1331 
Q 1675 -1331 1326 -1207 
Q 978 -1084 759 -876 
Q 541 -669 356 -269 
L 831 -269 
Q 1025 -606 1331 -768 
Q 1638 -931 2091 -931 
Q 2538 -931 2845 -764 
Q 3153 -597 3284 -344 
Q 3416 -91 3416 472 
L 3416 647 
Q 3169 334 2812 167 
Q 2456 0 2056 0 
Q 1588 0 1175 233 
Q 763 466 538 859 
Q 313 1253 313 1725 
Q 313 2197 547 2605 
Q 781 3013 1195 3250 
Q 1609 3488 2069 3488 
Q 2450 3488 2779 3330 
Q 3109 3172 3416 2809 
L 3416 3400 
z
M 2125 3066 
Q 1753 3066 1434 2886 
Q 1116 2706 934 2389 
Q 753 2072 753 1703 
Q 753 1144 1128 778 
Q 1503 413 2100 413 
Q 2703 413 3070 775 
Q 3438 1138 3438 1728 
Q 3438 2113 3269 2414 
Q 3100 2716 2790 2891 
Q 2481 3066 2125 3066 
z
" transform="scale(0.015625)"/>
       <path id="CenturyGothic-61" d="M 3875 3400 
L 3875 0 
L 3444 0 
L 3444 584 
Q 3169 250 2826 81 
Q 2484 -88 2078 -88 
Q 1356 -88 845 435 
Q 334 959 334 1709 
Q 334 2444 850 2966 
Q 1366 3488 2091 3488 
Q 2509 3488 2848 3309 
Q 3188 3131 3444 2775 
L 3444 3400 
L 3875 3400 
z
M 2125 3066 
Q 1759 3066 1450 2886 
Q 1141 2706 958 2381 
Q 775 2056 775 1694 
Q 775 1334 959 1006 
Q 1144 678 1455 495 
Q 1766 313 2122 313 
Q 2481 313 2803 494 
Q 3125 675 3298 984 
Q 3472 1294 3472 1681 
Q 3472 2272 3083 2669 
Q 2694 3066 2125 3066 
z
" transform="scale(0.015625)"/>
       <path id="CenturyGothic-ed" d="M 422 3400 
L 863 3400 
L 863 0 
L 422 0 
L 422 3400 
z
M 853 4994 
L 1525 4994 
L 603 4031 
L 172 4031 
L 853 4994 
z
" transform="scale(0.015625)"/>
       <path id="CenturyGothic-6d" d="M 484 3400 
L 919 3400 
L 919 2813 
Q 1147 3138 1388 3288 
Q 1719 3488 2084 3488 
Q 2331 3488 2553 3391 
Q 2775 3294 2915 3133 
Q 3056 2972 3159 2672 
Q 3378 3072 3706 3280 
Q 4034 3488 4413 3488 
Q 4766 3488 5036 3309 
Q 5306 3131 5437 2812 
Q 5569 2494 5569 1856 
L 5569 0 
L 5122 0 
L 5122 1856 
Q 5122 2403 5044 2608 
Q 4966 2813 4777 2938 
Q 4588 3063 4325 3063 
Q 4006 3063 3742 2875 
Q 3478 2688 3356 2375 
Q 3234 2063 3234 1331 
L 3234 0 
L 2800 0 
L 2800 1741 
Q 2800 2356 2723 2576 
Q 2647 2797 2456 2930 
Q 2266 3063 2003 3063 
Q 1700 3063 1436 2880 
Q 1172 2697 1045 2387 
Q 919 2078 919 1441 
L 919 0 
L 484 0 
L 484 3400 
z
" transform="scale(0.015625)"/>
       <path id="CenturyGothic-69" d="M 641 4800 
Q 791 4800 897 4694 
Q 1003 4588 1003 4438 
Q 1003 4291 897 4184 
Q 791 4078 641 4078 
Q 494 4078 387 4184 
Q 281 4291 281 4438 
Q 281 4588 387 4694 
Q 494 4800 641 4800 
z
M 422 3400 
L 863 3400 
L 863 0 
L 422 0 
L 422 3400 
z
" transform="scale(0.015625)"/>
       <path id="CenturyGothic-63" d="M 3788 2694 
L 3441 2478 
Q 2991 3075 2213 3075 
Q 1591 3075 1180 2675 
Q 769 2275 769 1703 
Q 769 1331 958 1003 
Q 1147 675 1476 494 
Q 1806 313 2216 313 
Q 2966 313 3441 909 
L 3788 681 
Q 3544 316 3133 114 
Q 2722 -88 2197 -88 
Q 1391 -88 859 425 
Q 328 938 328 1672 
Q 328 2166 576 2589 
Q 825 3013 1259 3250 
Q 1694 3488 2231 3488 
Q 2569 3488 2883 3384 
Q 3197 3281 3415 3115 
Q 3634 2950 3788 2694 
z
" transform="scale(0.015625)"/>
       <path id="CenturyGothic-44" d="M 559 0 
L 559 4597 
L 1513 4597 
Q 2544 4597 3009 4431 
Q 3678 4197 4054 3619 
Q 4431 3041 4431 2241 
Q 4431 1550 4132 1025 
Q 3834 500 3357 250 
Q 2881 0 2022 0 
L 559 0 
z
M 1000 434 
L 1531 434 
Q 2484 434 2853 553 
Q 3372 722 3669 1161 
Q 3966 1600 3966 2234 
Q 3966 2900 3644 3372 
Q 3322 3844 2747 4019 
Q 2316 4150 1325 4150 
L 1000 4150 
L 1000 434 
z
" transform="scale(0.015625)"/>
      </defs>
      <use xlink:href="#CenturyGothic-52"/>
      <use xlink:href="#CenturyGothic-65" x="60.693359"/>
      <use xlink:href="#CenturyGothic-74" x="125.683594"/>
      <use xlink:href="#CenturyGothic-6f" x="159.570312"/>
      <use xlink:href="#CenturyGothic-72" x="225.048828"/>
      <use xlink:href="#CenturyGothic-6e" x="255.126953"/>
      <use xlink:href="#CenturyGothic-6f" x="316.113281"/>
      <use xlink:href="#CenturyGothic-73" x="381.591797"/>
      <use xlink:href="#CenturyGothic-20" x="420.410156"/>
      <use xlink:href="#CenturyGothic-4c" x="448.095703"/>
      <use xlink:href="#CenturyGothic-6f" x="494.287109"/>
      <use xlink:href="#CenturyGothic-67" x="559.765625"/>
      <use xlink:href="#CenturyGothic-61" x="627.050781"/>
      <use xlink:href="#CenturyGothic-72" x="695.361328"/>
      <use xlink:href="#CenturyGothic-ed" x="725.439453"/>
      <use xlink:href="#CenturyGothic-74" x="745.458984"/>
      <use xlink:href="#CenturyGothic-6d" x="779.345703"/>
      <use xlink:href="#CenturyGothic-69" x="873.144531"/>
      <use xlink:href="#CenturyGothic-63" x="893.164062"/>
      <use xlink:href="#CenturyGothic-6f" x="957.861328"/>
      <use xlink:href="#CenturyGothic-73" x="1023.339844"/>
      <use xlink:href="#CenturyGothic-20" x="1062.158203"/>
      <use xlink:href="#CenturyGothic-44" x="1089.84375"/>
      <use xlink:href="#CenturyGothic-69" x="1164.257812"/>
      <use xlink:href="#CenturyGothic-61" x="1184.277344"/>
      <use xlink:href="#CenturyGothic-72" x="1252.587891"/>
      <use xlink:href="#CenturyGothic-69" x="1282.666016"/>
      <use xlink:href="#CenturyGothic-6f" x="1302.685547"/>
      <use xlink:href="#CenturyGothic-73" x="1368.164062"/>
     </g>
    </g>
   </g>
   <g id="matplotlib.axis_2">
    <g id="ytick_1">
     <g id="line2d_1">
      <defs>
       <path id="m92441d8abd" d="M 0 0 
L 6 0 
" style="stroke: #262626; stroke-width: 0.5"/>
      </defs>
      <g>
       <use xlink:href="#m92441d8abd" x="290.095041" y="270.02207" style="fill: #262626; stroke: #262626; stroke-width: 0.5"/>
      </g>
     </g>
     <g id="text_11">
      <!-- 0.0 -->
      <g style="fill: #262626" transform="translate(299.595041 272.599492) scale(0.07 -0.07)">
       <use xlink:href="#CenturyGothic-30"/>
       <use xlink:href="#CenturyGothic-2e" x="55.419922"/>
       <use xlink:href="#CenturyGothic-30" x="83.105469"/>
      </g>
     </g>
    </g>
    <g id="ytick_2">
     <g id="line2d_2">
      <g>
       <use xlink:href="#m92441d8abd" x="290.095041" y="246.363466" style="fill: #262626; stroke: #262626; stroke-width: 0.5"/>
      </g>
     </g>
     <g id="text_12">
      <!-- 0.1 -->
      <g style="fill: #262626" transform="translate(299.595041 248.940888) scale(0.07 -0.07)">
       <use xlink:href="#CenturyGothic-30"/>
       <use xlink:href="#CenturyGothic-2e" x="55.419922"/>
       <use xlink:href="#CenturyGothic-31" x="83.105469"/>
      </g>
     </g>
    </g>
    <g id="ytick_3">
     <g id="line2d_3">
      <g>
       <use xlink:href="#m92441d8abd" x="290.095041" y="222.704861" style="fill: #262626; stroke: #262626; stroke-width: 0.5"/>
      </g>
     </g>
     <g id="text_13">
      <!-- 0.2 -->
      <g style="fill: #262626" transform="translate(299.595041 225.282283) scale(0.07 -0.07)">
       <use xlink:href="#CenturyGothic-30"/>
       <use xlink:href="#CenturyGothic-2e" x="55.419922"/>
       <use xlink:href="#CenturyGothic-32" x="83.105469"/>
      </g>
     </g>
    </g>
    <g id="ytick_4">
     <g id="line2d_4">
      <g>
       <use xlink:href="#m92441d8abd" x="290.095041" y="199.046257" style="fill: #262626; stroke: #262626; stroke-width: 0.5"/>
      </g>
     </g>
     <g id="text_14">
      <!-- 0.3 -->
      <g style="fill: #262626" transform="translate(299.595041 201.623679) scale(0.07 -0.07)">
       <use xlink:href="#CenturyGothic-30"/>
       <use xlink:href="#CenturyGothic-2e" x="55.419922"/>
       <use xlink:href="#CenturyGothic-33" x="83.105469"/>
      </g>
     </g>
    </g>
    <g id="ytick_5">
     <g id="line2d_5">
      <g>
       <use xlink:href="#m92441d8abd" x="290.095041" y="175.387653" style="fill: #262626; stroke: #262626; stroke-width: 0.5"/>
      </g>
     </g>
     <g id="text_15">
      <!-- 0.4 -->
      <g style="fill: #262626" transform="translate(299.595041 177.965075) scale(0.07 -0.07)">
       <use xlink:href="#CenturyGothic-30"/>
       <use xlink:href="#CenturyGothic-2e" x="55.419922"/>
       <use xlink:href="#CenturyGothic-34" x="83.105469"/>
      </g>
     </g>
    </g>
    <g id="ytick_6">
     <g id="line2d_6">
      <g>
       <use xlink:href="#m92441d8abd" x="290.095041" y="151.729048" style="fill: #262626; stroke: #262626; stroke-width: 0.5"/>
      </g>
     </g>
     <g id="text_16">
      <!-- 0.5 -->
      <g style="fill: #262626" transform="translate(299.595041 154.30647) scale(0.07 -0.07)">
       <use xlink:href="#CenturyGothic-30"/>
       <use xlink:href="#CenturyGothic-2e" x="55.419922"/>
       <use xlink:href="#CenturyGothic-35" x="83.105469"/>
      </g>
     </g>
    </g>
    <g id="ytick_7">
     <g id="line2d_7">
      <g>
       <use xlink:href="#m92441d8abd" x="290.095041" y="128.070444" style="fill: #262626; stroke: #262626; stroke-width: 0.5"/>
      </g>
     </g>
     <g id="text_17">
      <!-- 0.6 -->
      <g style="fill: #262626" transform="translate(299.595041 130.647866) scale(0.07 -0.07)">
       <defs>
        <path id="CenturyGothic-36" d="M 2347 4713 
L 2725 4466 
L 1484 2584 
Q 1734 2669 1953 2669 
Q 2500 2669 2881 2273 
Q 3263 1878 3263 1300 
Q 3263 903 3078 583 
Q 2894 263 2555 73 
Q 2216 -116 1825 -116 
Q 1447 -116 1123 67 
Q 800 250 615 581 
Q 431 913 431 1291 
Q 431 1572 545 1883 
Q 659 2194 953 2631 
L 2347 4713 
z
M 1844 2266 
Q 1444 2266 1161 1983 
Q 878 1700 878 1297 
Q 878 897 1161 614 
Q 1444 331 1844 331 
Q 2244 331 2526 614 
Q 2809 897 2809 1297 
Q 2809 1700 2526 1983 
Q 2244 2266 1844 2266 
z
" transform="scale(0.015625)"/>
       </defs>
       <use xlink:href="#CenturyGothic-30"/>
       <use xlink:href="#CenturyGothic-2e" x="55.419922"/>
       <use xlink:href="#CenturyGothic-36" x="83.105469"/>
      </g>
     </g>
    </g>
    <g id="ytick_8">
     <g id="line2d_8">
      <g>
       <use xlink:href="#m92441d8abd" x="290.095041" y="104.411839" style="fill: #262626; stroke: #262626; stroke-width: 0.5"/>
      </g>
     </g>
     <g id="text_18">
      <!-- 0.7 -->
      <g style="fill: #262626" transform="translate(299.595041 106.989261) scale(0.07 -0.07)">
       <defs>
        <path id="CenturyGothic-37" d="M 459 4597 
L 3375 4597 
L 916 -116 
L 538 78 
L 2663 4163 
L 459 4163 
L 459 4597 
z
" transform="scale(0.015625)"/>
       </defs>
       <use xlink:href="#CenturyGothic-30"/>
       <use xlink:href="#CenturyGothic-2e" x="55.419922"/>
       <use xlink:href="#CenturyGothic-37" x="83.105469"/>
      </g>
     </g>
    </g>
    <g id="ytick_9">
     <g id="line2d_9">
      <g>
       <use xlink:href="#m92441d8abd" x="290.095041" y="80.753235" style="fill: #262626; stroke: #262626; stroke-width: 0.5"/>
      </g>
     </g>
     <g id="text_19">
      <!-- 0.8 -->
      <g style="fill: #262626" transform="translate(299.595041 83.330657) scale(0.07 -0.07)">
       <defs>
        <path id="CenturyGothic-38" d="M 2459 2522 
Q 2925 2291 3126 1994 
Q 3328 1697 3328 1319 
Q 3328 788 2981 381 
Q 2556 -116 1766 -116 
Q 1003 -116 609 320 
Q 216 756 216 1281 
Q 216 1666 422 1973 
Q 628 2281 1109 2522 
Q 772 2697 603 2956 
Q 434 3216 434 3513 
Q 434 3813 614 4098 
Q 794 4384 1111 4548 
Q 1428 4713 1797 4713 
Q 2156 4713 2462 4547 
Q 2769 4381 2942 4097 
Q 3116 3813 3116 3500 
Q 3116 3188 2952 2944 
Q 2788 2700 2459 2522 
z
M 1775 4266 
Q 1397 4266 1148 4042 
Q 900 3819 900 3509 
Q 900 3203 1167 2954 
Q 1434 2706 1791 2706 
Q 2019 2706 2222 2818 
Q 2425 2931 2539 3126 
Q 2653 3322 2653 3519 
Q 2653 3797 2428 4031 
Q 2203 4266 1775 4266 
z
M 1797 2291 
Q 1322 2291 1000 1983 
Q 678 1675 678 1266 
Q 678 1013 815 788 
Q 953 563 1200 441 
Q 1447 319 1772 319 
Q 2275 319 2572 616 
Q 2869 913 2869 1309 
Q 2869 1694 2555 1992 
Q 2241 2291 1797 2291 
z
" transform="scale(0.015625)"/>
       </defs>
       <use xlink:href="#CenturyGothic-30"/>
       <use xlink:href="#CenturyGothic-2e" x="55.419922"/>
       <use xlink:href="#CenturyGothic-38" x="83.105469"/>
      </g>
     </g>
    </g>
    <g id="ytick_10">
     <g id="line2d_10">
      <g>
       <use xlink:href="#m92441d8abd" x="290.095041" y="57.094631" style="fill: #262626; stroke: #262626; stroke-width: 0.5"/>
      </g>
     </g>
     <g id="text_20">
      <!-- 0.9 -->
      <g style="fill: #262626" transform="translate(299.595041 59.672053) scale(0.07 -0.07)">
       <defs>
        <path id="CenturyGothic-39" d="M 1228 -116 
L 850 128 
L 2091 2009 
Q 1841 1928 1622 1928 
Q 1075 1928 694 2323 
Q 313 2719 313 3297 
Q 313 3694 497 4012 
Q 681 4331 1020 4522 
Q 1359 4713 1747 4713 
Q 2128 4713 2451 4528 
Q 2775 4344 2959 4012 
Q 3144 3681 3144 3306 
Q 3144 3022 3030 2711 
Q 2916 2400 2622 1963 
L 1228 -116 
z
M 1728 2331 
Q 2131 2331 2414 2614 
Q 2697 2897 2697 3297 
Q 2697 3697 2414 3980 
Q 2131 4263 1728 4263 
Q 1328 4263 1045 3980 
Q 763 3697 763 3297 
Q 763 2897 1045 2614 
Q 1328 2331 1728 2331 
z
" transform="scale(0.015625)"/>
       </defs>
       <use xlink:href="#CenturyGothic-30"/>
       <use xlink:href="#CenturyGothic-2e" x="55.419922"/>
       <use xlink:href="#CenturyGothic-39" x="83.105469"/>
      </g>
     </g>
    </g>
    <g id="ytick_11">
     <g id="line2d_11">
      <g>
       <use xlink:href="#m92441d8abd" x="290.095041" y="33.436026" style="fill: #262626; stroke: #262626; stroke-width: 0.5"/>
      </g>
     </g>
     <g id="text_21">
      <!-- 1.0 -->
      <g style="fill: #262626" transform="translate(299.595041 36.013448) scale(0.07 -0.07)">
       <use xlink:href="#CenturyGothic-31"/>
       <use xlink:href="#CenturyGothic-2e" x="55.419922"/>
       <use xlink:href="#CenturyGothic-30" x="83.105469"/>
      </g>
     </g>
    </g>
    <g id="ytick_12">
     <g id="line2d_12">
      <g>
       <use xlink:href="#m92441d8abd" x="290.095041" y="9.777422" style="fill: #262626; stroke: #262626; stroke-width: 0.5"/>
      </g>
     </g>
     <g id="text_22">
      <!-- 1.1 -->
      <g style="fill: #262626" transform="translate(299.595041 12.354844) scale(0.07 -0.07)">
       <use xlink:href="#CenturyGothic-31"/>
       <use xlink:href="#CenturyGothic-2e" x="55.419922"/>
       <use xlink:href="#CenturyGothic-31" x="83.105469"/>
      </g>
     </g>
    </g>
    <g id="text_23">
     <!-- Probabilidad Acumulada -->
     <g style="fill: #262626" transform="translate(318.447073 188.430796) rotate(-90) scale(0.07 -0.07)">
      <defs>
       <path id="CenturyGothic-50" d="M 556 4597 
L 1472 4597 
Q 2259 4597 2534 4528 
Q 2928 4431 3178 4129 
Q 3428 3828 3428 3372 
Q 3428 2913 3184 2614 
Q 2941 2316 2513 2213 
Q 2200 2138 1344 2138 
L 1016 2138 
L 1016 0 
L 556 0 
L 556 4597 
z
M 1016 4150 
L 1016 2588 
L 1794 2578 
Q 2266 2578 2484 2664 
Q 2703 2750 2828 2942 
Q 2953 3134 2953 3372 
Q 2953 3603 2828 3795 
Q 2703 3988 2498 4069 
Q 2294 4150 1828 4150 
L 1016 4150 
z
" transform="scale(0.015625)"/>
       <path id="CenturyGothic-62" d="M 516 0 
L 516 4713 
L 950 4713 
L 950 2816 
Q 1225 3153 1565 3320 
Q 1906 3488 2313 3488 
Q 3034 3488 3545 2964 
Q 4056 2441 4056 1694 
Q 4056 956 3540 434 
Q 3025 -88 2300 -88 
Q 1884 -88 1546 90 
Q 1209 269 950 625 
L 950 0 
L 516 0 
z
M 2266 334 
Q 2631 334 2940 514 
Q 3250 694 3433 1019 
Q 3616 1344 3616 1706 
Q 3616 2069 3431 2397 
Q 3247 2725 2936 2908 
Q 2625 3091 2272 3091 
Q 1913 3091 1589 2908 
Q 1266 2725 1092 2415 
Q 919 2106 919 1719 
Q 919 1128 1308 731 
Q 1697 334 2266 334 
z
" transform="scale(0.015625)"/>
       <path id="CenturyGothic-6c" d="M 422 4713 
L 859 4713 
L 859 0 
L 422 0 
L 422 4713 
z
" transform="scale(0.015625)"/>
       <path id="CenturyGothic-64" d="M 3881 4713 
L 3881 0 
L 3450 0 
L 3450 584 
Q 3175 250 2833 81 
Q 2491 -88 2084 -88 
Q 1363 -88 852 435 
Q 341 959 341 1709 
Q 341 2444 856 2966 
Q 1372 3488 2097 3488 
Q 2516 3488 2855 3309 
Q 3194 3131 3450 2775 
L 3450 4713 
L 3881 4713 
z
M 2131 3066 
Q 1766 3066 1456 2886 
Q 1147 2706 964 2381 
Q 781 2056 781 1694 
Q 781 1334 965 1006 
Q 1150 678 1461 495 
Q 1772 313 2128 313 
Q 2488 313 2809 494 
Q 3131 675 3304 984 
Q 3478 1294 3478 1681 
Q 3478 2272 3089 2669 
Q 2700 3066 2131 3066 
z
" transform="scale(0.015625)"/>
       <path id="CenturyGothic-41" d="M 2438 4597 
L 4581 0 
L 4088 0 
L 3366 1513 
L 1384 1513 
L 666 0 
L 153 0 
L 2325 4597 
L 2438 4597 
z
M 2381 3622 
L 1591 1956 
L 3163 1956 
L 2381 3622 
z
" transform="scale(0.015625)"/>
       <path id="CenturyGothic-75" d="M 431 3400 
L 872 3400 
L 872 1813 
Q 872 1231 934 1013 
Q 1028 700 1292 519 
Q 1556 338 1922 338 
Q 2288 338 2542 514 
Q 2797 691 2894 978 
Q 2959 1175 2959 1813 
L 2959 3400 
L 3406 3400 
L 3406 1731 
Q 3406 1028 3242 672 
Q 3078 316 2748 114 
Q 2419 -88 1922 -88 
Q 1425 -88 1092 114 
Q 759 316 595 677 
Q 431 1038 431 1763 
L 431 3400 
z
" transform="scale(0.015625)"/>
      </defs>
      <use xlink:href="#CenturyGothic-50"/>
      <use xlink:href="#CenturyGothic-72" x="59.179688"/>
      <use xlink:href="#CenturyGothic-6f" x="89.257812"/>
      <use xlink:href="#CenturyGothic-62" x="154.736328"/>
      <use xlink:href="#CenturyGothic-61" x="222.949219"/>
      <use xlink:href="#CenturyGothic-62" x="291.259766"/>
      <use xlink:href="#CenturyGothic-69" x="359.472656"/>
      <use xlink:href="#CenturyGothic-6c" x="379.492188"/>
      <use xlink:href="#CenturyGothic-69" x="399.511719"/>
      <use xlink:href="#CenturyGothic-64" x="419.53125"/>
      <use xlink:href="#CenturyGothic-61" x="488.037109"/>
      <use xlink:href="#CenturyGothic-64" x="556.347656"/>
      <use xlink:href="#CenturyGothic-20" x="624.853516"/>
      <use xlink:href="#CenturyGothic-41" x="652.539062"/>
      <use xlink:href="#CenturyGothic-63" x="726.513672"/>
      <use xlink:href="#CenturyGothic-75" x="791.210938"/>
      <use xlink:href="#CenturyGothic-6d" x="852.001953"/>
      <use xlink:href="#CenturyGothic-75" x="945.800781"/>
      <use xlink:href="#CenturyGothic-6c" x="1006.591797"/>
      <use xlink:href="#CenturyGothic-61" x="1026.611328"/>
      <use xlink:href="#CenturyGothic-64" x="1094.921875"/>
      <use xlink:href="#CenturyGothic-61" x="1163.427734"/>
     </g>
    </g>
   </g>
   <g id="line2d_13">
    <path d="M -1 205.229544 
L -0.848633 204.984473 
L 0.269307 204.041899 
L 2.241366 203.099325 
L 3.02617 202.156751 
L 3.182093 200.271603 
L 3.899264 197.443881 
L 4.001198 196.501308 
L 4.341267 195.558734 
L 4.394223 194.61616 
L 4.632397 193.673586 
L 5.509282 192.731012 
L 5.653918 191.788438 
L 6.248676 189.90329 
L 6.273786 188.960717 
L 7.240163 187.075569 
L 8.164389 186.132995 
L 8.976076 184.247847 
L 9.019261 183.305273 
L 10.050074 182.362699 
L 10.569693 181.420125 
L 11.771953 180.477552 
L 11.891317 179.534978 
L 12.208136 178.592404 
L 12.987222 177.64983 
L 13.416248 176.707256 
L 13.607877 174.822108 
L 14.434253 172.936961 
L 14.868323 171.051813 
L 15.684549 170.109239 
L 15.892321 168.224091 
L 16.194579 166.338943 
L 17.246705 164.453796 
L 17.565568 161.626074 
L 18.722585 159.740926 
L 19.459666 158.798352 
L 20.514777 157.855778 
L 20.576121 156.913205 
L 20.953375 155.970631 
L 20.961617 155.028057 
L 21.542861 154.085483 
L 21.59936 153.142909 
L 22.834148 149.372614 
L 22.836961 148.43004 
L 23.135518 147.487466 
L 23.703644 146.544892 
L 23.750212 145.602318 
L 24.240208 144.659744 
L 24.871166 143.71717 
L 25.65581 141.832023 
L 26.13157 139.004301 
L 26.48322 138.061727 
L 27.221169 137.119153 
L 29.199138 135.234005 
L 29.498884 134.291431 
L 30.216241 133.348858 
L 30.427161 132.406284 
L 31.06878 131.46371 
L 31.3589 130.521136 
L 31.51907 127.693414 
L 32.322468 125.808267 
L 32.686539 123.923119 
L 33.296856 122.980545 
L 33.401271 122.037971 
L 34.600448 120.152823 
L 35.575791 119.210249 
L 35.934621 118.267676 
L 37.362383 117.325102 
L 39.144401 116.382528 
L 39.55719 114.49738 
L 40.137217 113.554806 
L 40.468932 110.727084 
L 41.214921 108.841937 
L 42.102554 107.899363 
L 42.121901 106.956789 
L 43.557933 106.014215 
L 44.784556 105.071641 
L 44.83022 104.129067 
L 45.808106 103.186493 
L 47.327559 102.24392 
L 47.367718 101.301346 
L 47.677018 100.358772 
L 48.218517 99.416198 
L 48.410979 98.473624 
L 49.318571 96.588476 
L 49.571744 95.645902 
L 49.99192 94.703328 
L 50.551154 93.760755 
L 50.805643 92.818181 
L 50.908771 91.875607 
L 51.254224 90.933033 
L 51.379533 89.990459 
L 51.865085 89.047885 
L 53.281189 88.105311 
L 53.284211 87.162737 
L 54.922171 85.27759 
L 55.361042 84.335016 
L 59.122432 83.392442 
L 59.813539 82.449868 
L 60.88273 81.507294 
L 61.767155 80.56472 
L 61.850693 79.622146 
L 62.538776 77.736999 
L 63.200086 76.794425 
L 63.465539 75.851851 
L 65.309714 74.909277 
L 65.433168 73.966703 
L 66.280124 73.024129 
L 66.744505 72.081555 
L 68.354624 71.138981 
L 69.133733 70.196408 
L 69.751391 69.253834 
L 70.205817 68.31126 
L 70.8124 67.368686 
L 71.218416 66.426112 
L 72.18883 65.483538 
L 74.957071 64.540964 
L 75.629374 63.59839 
L 75.831276 62.655817 
L 78.104361 61.713243 
L 78.809035 60.770669 
L 78.815783 59.828095 
L 79.397826 58.885521 
L 79.704437 57.000373 
L 81.609353 56.057799 
L 81.728264 55.115226 
L 82.387039 54.172652 
L 82.859358 53.230078 
L 83.92254 52.287504 
L 84.215049 51.34493 
L 84.268482 50.402356 
L 84.896436 49.459782 
L 86.620653 48.517208 
L 87.212355 47.574634 
L 89.565487 44.746913 
L 91.407016 43.804339 
L 91.699387 42.861765 
L 92.801407 41.919191 
L 93.187193 40.976617 
L 112.946309 39.09147 
L 115.01693 38.148896 
L 119.368089 37.206322 
L 120.154788 36.263748 
L 145.344839 35.321174 
L 156.973625 34.3786 
L 170.595204 33.436026 
L 170.595204 33.436026 
" clip-path="url(#p9d2673d759)" style="fill: none; stroke-dasharray: 7.4,3.2; stroke-dashoffset: 0; stroke: #d3c7a5; stroke-width: 2"/>
   </g>
   <g id="line2d_14">
    <path d="M -1 174.054072 
L -0.636299 173.879534 
L 2.531046 171.994387 
L 3.721931 171.051813 
L 4.518218 170.109239 
L 4.893323 169.166665 
L 4.995262 168.224091 
L 5.210751 167.281517 
L 6.555473 166.338943 
L 6.789112 165.39637 
L 7.618508 164.453796 
L 10.316172 162.568648 
L 10.923791 161.626074 
L 11.824166 160.6835 
L 12.291016 159.740926 
L 12.407274 158.798352 
L 12.845855 157.855778 
L 12.891632 156.913205 
L 13.718037 155.970631 
L 15.140148 155.028057 
L 15.838883 154.085483 
L 16.988447 153.142909 
L 17.332302 152.200335 
L 18.093232 151.257761 
L 18.302476 150.315187 
L 18.394506 149.372614 
L 18.611949 148.43004 
L 19.849522 147.487466 
L 20.868212 146.544892 
L 21.682057 145.602318 
L 23.225627 144.659744 
L 23.842304 143.71717 
L 24.222539 142.774596 
L 24.987988 141.832023 
L 27.005208 140.889449 
L 29.864295 139.004301 
L 30.019258 138.061727 
L 30.401763 137.119153 
L 30.630116 135.234005 
L 33.465723 134.291431 
L 34.424543 133.348858 
L 35.129113 132.406284 
L 35.158162 131.46371 
L 35.777008 130.521136 
L 36.756072 129.578562 
L 37.318376 128.635988 
L 38.505083 127.693414 
L 41.019819 126.75084 
L 42.89604 124.865693 
L 43.110374 123.923119 
L 44.078711 122.980545 
L 44.308755 121.095397 
L 45.234503 120.152823 
L 45.940243 118.267676 
L 48.13409 115.439954 
L 48.79065 114.49738 
L 49.062551 113.554806 
L 51.249142 112.612232 
L 51.36013 111.669658 
L 51.603438 110.727084 
L 52.115527 109.784511 
L 53.515574 108.841937 
L 54.536125 107.899363 
L 54.651474 106.956789 
L 55.896489 105.071641 
L 55.996765 104.129067 
L 56.944361 103.186493 
L 56.96623 102.24392 
L 57.587299 100.358772 
L 60.210745 99.416198 
L 61.285702 97.53105 
L 62.401525 96.588476 
L 62.615834 95.645902 
L 63.157749 94.703328 
L 63.910132 93.760755 
L 64.130489 92.818181 
L 64.81962 91.875607 
L 65.466751 89.990459 
L 65.976796 89.047885 
L 67.371063 88.105311 
L 67.681869 87.162737 
L 68.125946 86.220164 
L 70.161356 85.27759 
L 70.390179 84.335016 
L 71.778896 83.392442 
L 71.986455 82.449868 
L 74.678017 81.507294 
L 74.7655 80.56472 
L 75.442871 79.622146 
L 75.549958 77.736999 
L 77.465705 76.794425 
L 78.745449 75.851851 
L 80.70353 74.909277 
L 83.955445 73.966703 
L 83.991596 73.024129 
L 84.960411 72.081555 
L 86.397158 71.138981 
L 86.657299 70.196408 
L 90.589872 69.253834 
L 100.402888 68.31126 
L 101.583837 67.368686 
L 101.706279 66.426112 
L 102.057925 65.483538 
L 102.587882 64.540964 
L 102.751847 62.655817 
L 103.977962 61.713243 
L 104.366643 60.770669 
L 107.065618 59.828095 
L 109.173878 58.885521 
L 114.291058 57.000373 
L 115.420412 56.057799 
L 117.909358 55.115226 
L 118.343325 54.172652 
L 119.407845 52.287504 
L 121.969212 51.34493 
L 122.85547 50.402356 
L 123.474744 49.459782 
L 124.507269 48.517208 
L 126.207514 47.574634 
L 128.683828 46.632061 
L 135.193624 45.689487 
L 143.363409 44.746913 
L 147.591157 43.804339 
L 159.772744 42.861765 
L 160.0848 41.919191 
L 169.800247 40.034043 
L 180.988069 39.09147 
L 183.373733 38.148896 
L 187.839117 37.206322 
L 195.729131 36.263748 
L 206.990764 35.321174 
L 211.542133 34.3786 
L 267.705804 33.436026 
L 267.705804 33.436026 
" clip-path="url(#p9d2673d759)" style="fill: none; stroke: #0b559f; stroke-width: 2; stroke-linecap: round"/>
   </g>
   <g id="patch_3">
    <path d="M 290.095041 280.86167 
L 290.095041 9.777422 
" style="fill: none; stroke: #262626; stroke-width: 0.5; stroke-linejoin: miter; stroke-linecap: square"/>
   </g>
   <g id="patch_4">
    <path d="M 15.928125 280.86167 
L 290.095041 280.86167 
" style="fill: none; stroke: #262626; stroke-width: 0.5; stroke-linejoin: miter; stroke-linecap: square"/>
   </g>
   <g id="legend_1">
    <g id="line2d_15">
     <path d="M 22.228125 18.782266 
L 29.228125 18.782266 
L 36.228125 18.782266 
" style="fill: none; stroke-dasharray: 7.4,3.2; stroke-dashoffset: 0; stroke: #d3c7a5; stroke-width: 2"/>
    </g>
    <g id="text_24">
     <!-- SPX - Reales -->
     <g style="fill: #262626" transform="translate(41.828125 21.232266) scale(0.07 -0.07)">
      <defs>
       <path id="CenturyGothic-53" d="M 84 856 
L 475 1091 
Q 888 331 1428 331 
Q 1659 331 1862 439 
Q 2066 547 2172 728 
Q 2278 909 2278 1113 
Q 2278 1344 2122 1566 
Q 1906 1872 1334 2303 
Q 759 2738 619 2931 
Q 375 3256 375 3634 
Q 375 3934 519 4181 
Q 663 4428 923 4570 
Q 1184 4713 1491 4713 
Q 1816 4713 2098 4552 
Q 2381 4391 2697 3959 
L 2322 3675 
Q 2063 4019 1880 4128 
Q 1697 4238 1481 4238 
Q 1203 4238 1026 4069 
Q 850 3900 850 3653 
Q 850 3503 912 3362 
Q 975 3222 1141 3056 
Q 1231 2969 1734 2597 
Q 2331 2156 2553 1812 
Q 2775 1469 2775 1122 
Q 2775 622 2395 253 
Q 2016 -116 1472 -116 
Q 1053 -116 712 107 
Q 372 331 84 856 
z
" transform="scale(0.015625)"/>
       <path id="CenturyGothic-58" d="M 316 4597 
L 853 4597 
L 1953 2803 
L 3063 4597 
L 3594 4597 
L 2225 2369 
L 3684 0 
L 3147 0 
L 1953 1928 
L 753 0 
L 216 0 
L 1681 2369 
L 316 4597 
z
" transform="scale(0.015625)"/>
       <path id="CenturyGothic-2d" d="M 203 1919 
L 1922 1919 
L 1922 1538 
L 203 1538 
L 203 1919 
z
" transform="scale(0.015625)"/>
      </defs>
      <use xlink:href="#CenturyGothic-53"/>
      <use xlink:href="#CenturyGothic-50" x="49.804688"/>
      <use xlink:href="#CenturyGothic-58" x="108.984375"/>
      <use xlink:href="#CenturyGothic-20" x="169.873047"/>
      <use xlink:href="#CenturyGothic-2d" x="197.558594"/>
      <use xlink:href="#CenturyGothic-20" x="230.761719"/>
      <use xlink:href="#CenturyGothic-52" x="258.447266"/>
      <use xlink:href="#CenturyGothic-65" x="319.140625"/>
      <use xlink:href="#CenturyGothic-61" x="384.130859"/>
      <use xlink:href="#CenturyGothic-6c" x="452.441406"/>
      <use xlink:href="#CenturyGothic-65" x="472.460938"/>
      <use xlink:href="#CenturyGothic-73" x="537.451172"/>
     </g>
    </g>
    <g id="line2d_16">
     <path d="M 22.228125 28.797734 
L 29.228125 28.797734 
L 36.228125 28.797734 
" style="fill: none; stroke: #0b559f; stroke-width: 2; stroke-linecap: round"/>
    </g>
    <g id="text_25">
     <!-- SPX - Simulados -->
     <g style="fill: #262626" transform="translate(41.828125 31.247734) scale(0.07 -0.07)">
      <use xlink:href="#CenturyGothic-53"/>
      <use xlink:href="#CenturyGothic-50" x="49.804688"/>
      <use xlink:href="#CenturyGothic-58" x="108.984375"/>
      <use xlink:href="#CenturyGothic-20" x="169.873047"/>
      <use xlink:href="#CenturyGothic-2d" x="197.558594"/>
      <use xlink:href="#CenturyGothic-20" x="230.761719"/>
      <use xlink:href="#CenturyGothic-53" x="258.447266"/>
      <use xlink:href="#CenturyGothic-69" x="308.251953"/>
      <use xlink:href="#CenturyGothic-6d" x="328.271484"/>
      <use xlink:href="#CenturyGothic-75" x="422.070312"/>
      <use xlink:href="#CenturyGothic-6c" x="482.861328"/>
      <use xlink:href="#CenturyGothic-61" x="502.880859"/>
      <use xlink:href="#CenturyGothic-64" x="571.191406"/>
      <use xlink:href="#CenturyGothic-6f" x="639.697266"/>
      <use xlink:href="#CenturyGothic-73" x="705.175781"/>
     </g>
    </g>
   </g>
  </g>
 </g>
 <defs>
  <clipPath id="p9d2673d759">
   <rect x="15.928125" y="9.777422" width="274.166916" height="271.084248"/>
  </clipPath>
 </defs>
</svg>
