<?xml version="1.0" encoding="utf-8" standalone="no"?>
<!DOCTYPE svg PUBLIC "-//W3C//DTD SVG 1.1//EN"
  "http://www.w3.org/Graphics/SVG/1.1/DTD/svg11.dtd">
<svg xmlns:xlink="http://www.w3.org/1999/xlink" width="356.006132pt" height="159.089619pt" viewBox="0 0 356.006132 159.089619" xmlns="http://www.w3.org/2000/svg" version="1.1">
 <metadata>
  <rdf:RDF xmlns:dc="http://purl.org/dc/elements/1.1/" xmlns:cc="http://creativecommons.org/ns#" xmlns:rdf="http://www.w3.org/1999/02/22-rdf-syntax-ns#">
   <cc:Work>
    <dc:type rdf:resource="http://purl.org/dc/dcmitype/StillImage"/>
    <dc:date>2025-05-26T08:15:20.427070</dc:date>
    <dc:format>image/svg+xml</dc:format>
    <dc:creator>
     <cc:Agent>
      <dc:title>Matplotlib v3.9.2, https://matplotlib.org/</dc:title>
     </cc:Agent>
    </dc:creator>
   </cc:Work>
  </rdf:RDF>
 </metadata>
 <defs>
  <style type="text/css">*{stroke-linejoin: round; stroke-linecap: butt}</style>
 </defs>
 <g id="figure_1">
  <g id="patch_1">
   <path d="M 0 159.089619 
L 356.006132 159.089619 
L 356.006132 0 
L 0 0 
z
" style="fill: #ffffff"/>
  </g>
  <g id="axes_1">
   <g id="patch_2">
    <path d="M 15.928125 124.956182 
L 319.093476 124.956182 
L 319.093476 9.777422 
L 15.928125 9.777422 
z
" style="fill: #ffffff"/>
   </g>
   <g id="matplotlib.axis_1">
    <g id="xtick_1">
     <g id="text_1">
      <!-- 0.000 -->
      <g style="fill: #262626" transform="translate(7.2 139.611026) scale(0.07 -0.07)">
       <defs>
        <path id="CenturyGothic-30" d="M 203 2297 
Q 203 3206 398 3703 
Q 594 4200 950 4456 
Q 1306 4713 1747 4713 
Q 2194 4713 2556 4455 
Q 2919 4197 3130 3681 
Q 3341 3166 3341 2297 
Q 3341 1431 3133 918 
Q 2925 406 2559 145 
Q 2194 -116 1747 -116 
Q 1306 -116 953 137 
Q 600 391 401 892 
Q 203 1394 203 2297 
z
M 638 2288 
Q 638 1509 777 1111 
Q 916 713 1187 506 
Q 1459 300 1763 300 
Q 2069 300 2334 501 
Q 2600 703 2738 1106 
Q 2909 1597 2909 2288 
Q 2909 2981 2756 3423 
Q 2603 3866 2333 4070 
Q 2063 4275 1763 4275 
Q 1456 4275 1187 4070 
Q 919 3866 778 3467 
Q 638 3069 638 2288 
z
" transform="scale(0.015625)"/>
        <path id="CenturyGothic-2e" d="M 969 688 
Q 1128 688 1240 575 
Q 1353 463 1353 300 
Q 1353 141 1240 26 
Q 1128 -88 969 -88 
Q 809 -88 696 26 
Q 584 141 584 300 
Q 584 463 696 575 
Q 809 688 969 688 
z
" transform="scale(0.015625)"/>
       </defs>
       <use xlink:href="#CenturyGothic-30"/>
       <use xlink:href="#CenturyGothic-2e" x="55.419922"/>
       <use xlink:href="#CenturyGothic-30" x="83.105469"/>
       <use xlink:href="#CenturyGothic-30" x="138.525391"/>
       <use xlink:href="#CenturyGothic-30" x="193.945312"/>
      </g>
     </g>
    </g>
    <g id="xtick_2">
     <g id="text_2">
      <!-- 0.005 -->
      <g style="fill: #262626" transform="translate(41.430916 139.611026) scale(0.07 -0.07)">
       <defs>
        <path id="CenturyGothic-35" d="M 3147 4597 
L 3147 4159 
L 1509 4159 
L 1281 2906 
Q 1581 2994 1822 2994 
Q 2450 2994 2858 2573 
Q 3266 2153 3266 1497 
Q 3266 1044 3056 666 
Q 2847 288 2489 86 
Q 2131 -116 1663 -116 
Q 1103 -116 718 226 
Q 334 569 259 1113 
L 731 1113 
Q 784 847 911 681 
Q 1038 516 1248 414 
Q 1459 313 1691 313 
Q 2144 313 2469 656 
Q 2794 1000 2794 1516 
Q 2794 1981 2500 2272 
Q 2206 2563 1716 2563 
Q 1309 2563 731 2316 
L 1156 4597 
L 3147 4597 
z
" transform="scale(0.015625)"/>
       </defs>
       <use xlink:href="#CenturyGothic-30"/>
       <use xlink:href="#CenturyGothic-2e" x="55.419922"/>
       <use xlink:href="#CenturyGothic-30" x="83.105469"/>
       <use xlink:href="#CenturyGothic-30" x="138.525391"/>
       <use xlink:href="#CenturyGothic-35" x="193.945312"/>
      </g>
     </g>
    </g>
    <g id="xtick_3">
     <g id="text_3">
      <!-- 0.010 -->
      <g style="fill: #262626" transform="translate(75.661832 139.611026) scale(0.07 -0.07)">
       <defs>
        <path id="CenturyGothic-31" d="M 1184 4597 
L 2088 4597 
L 2088 0 
L 1631 0 
L 1631 4147 
L 909 4147 
L 1184 4597 
z
" transform="scale(0.015625)"/>
       </defs>
       <use xlink:href="#CenturyGothic-30"/>
       <use xlink:href="#CenturyGothic-2e" x="55.419922"/>
       <use xlink:href="#CenturyGothic-30" x="83.105469"/>
       <use xlink:href="#CenturyGothic-31" x="138.525391"/>
       <use xlink:href="#CenturyGothic-30" x="193.945312"/>
      </g>
     </g>
    </g>
    <g id="xtick_4">
     <g id="text_4">
      <!-- 0.015 -->
      <g style="fill: #262626" transform="translate(109.892747 139.611026) scale(0.07 -0.07)">
       <use xlink:href="#CenturyGothic-30"/>
       <use xlink:href="#CenturyGothic-2e" x="55.419922"/>
       <use xlink:href="#CenturyGothic-30" x="83.105469"/>
       <use xlink:href="#CenturyGothic-31" x="138.525391"/>
       <use xlink:href="#CenturyGothic-35" x="193.945312"/>
      </g>
     </g>
    </g>
    <g id="xtick_5">
     <g id="text_5">
      <!-- 0.020 -->
      <g style="fill: #262626" transform="translate(144.123663 139.611026) scale(0.07 -0.07)">
       <defs>
        <path id="CenturyGothic-32" d="M 741 3156 
L 300 3156 
Q 319 3838 755 4275 
Q 1191 4713 1831 4713 
Q 2466 4713 2858 4303 
Q 3250 3894 3250 3338 
Q 3250 2947 3062 2605 
Q 2875 2263 2334 1678 
L 1191 444 
L 3313 444 
L 3313 0 
L 191 0 
L 1947 1897 
Q 2481 2469 2642 2745 
Q 2803 3022 2803 3328 
Q 2803 3716 2514 3995 
Q 2225 4275 1806 4275 
Q 1366 4275 1073 3981 
Q 781 3688 741 3156 
z
" transform="scale(0.015625)"/>
       </defs>
       <use xlink:href="#CenturyGothic-30"/>
       <use xlink:href="#CenturyGothic-2e" x="55.419922"/>
       <use xlink:href="#CenturyGothic-30" x="83.105469"/>
       <use xlink:href="#CenturyGothic-32" x="138.525391"/>
       <use xlink:href="#CenturyGothic-30" x="193.945312"/>
      </g>
     </g>
    </g>
    <g id="xtick_6">
     <g id="text_6">
      <!-- 0.025 -->
      <g style="fill: #262626" transform="translate(178.354579 139.611026) scale(0.07 -0.07)">
       <use xlink:href="#CenturyGothic-30"/>
       <use xlink:href="#CenturyGothic-2e" x="55.419922"/>
       <use xlink:href="#CenturyGothic-30" x="83.105469"/>
       <use xlink:href="#CenturyGothic-32" x="138.525391"/>
       <use xlink:href="#CenturyGothic-35" x="193.945312"/>
      </g>
     </g>
    </g>
    <g id="xtick_7">
     <g id="text_7">
      <!-- 0.030 -->
      <g style="fill: #262626" transform="translate(212.585495 139.611026) scale(0.07 -0.07)">
       <defs>
        <path id="CenturyGothic-33" d="M 847 3531 
L 378 3531 
Q 506 4100 868 4406 
Q 1231 4713 1725 4713 
Q 2084 4713 2395 4548 
Q 2706 4384 2876 4106 
Q 3047 3828 3047 3525 
Q 3047 2931 2456 2584 
Q 2788 2450 3000 2191 
Q 3300 1825 3300 1372 
Q 3300 981 3094 626 
Q 2888 272 2531 78 
Q 2175 -116 1734 -116 
Q 1141 -116 744 226 
Q 347 569 225 1231 
L 675 1231 
Q 794 784 1016 584 
Q 1300 331 1741 331 
Q 2241 331 2544 631 
Q 2847 931 2847 1334 
Q 2847 1603 2695 1837 
Q 2544 2072 2289 2190 
Q 2034 2309 1500 2338 
L 1500 2759 
Q 1816 2759 2075 2870 
Q 2334 2981 2451 3153 
Q 2569 3325 2569 3528 
Q 2569 3828 2330 4047 
Q 2091 4266 1725 4266 
Q 1428 4266 1212 4098 
Q 997 3931 847 3531 
z
" transform="scale(0.015625)"/>
       </defs>
       <use xlink:href="#CenturyGothic-30"/>
       <use xlink:href="#CenturyGothic-2e" x="55.419922"/>
       <use xlink:href="#CenturyGothic-30" x="83.105469"/>
       <use xlink:href="#CenturyGothic-33" x="138.525391"/>
       <use xlink:href="#CenturyGothic-30" x="193.945312"/>
      </g>
     </g>
    </g>
    <g id="xtick_8">
     <g id="text_8">
      <!-- 0.035 -->
      <g style="fill: #262626" transform="translate(246.816411 139.611026) scale(0.07 -0.07)">
       <use xlink:href="#CenturyGothic-30"/>
       <use xlink:href="#CenturyGothic-2e" x="55.419922"/>
       <use xlink:href="#CenturyGothic-30" x="83.105469"/>
       <use xlink:href="#CenturyGothic-33" x="138.525391"/>
       <use xlink:href="#CenturyGothic-35" x="193.945312"/>
      </g>
     </g>
    </g>
    <g id="xtick_9">
     <g id="text_9">
      <!-- 0.040 -->
      <g style="fill: #262626" transform="translate(281.047326 139.611026) scale(0.07 -0.07)">
       <defs>
        <path id="CenturyGothic-34" d="M 2725 4713 
L 2819 4713 
L 2819 1509 
L 3375 1509 
L 3375 1069 
L 2819 1069 
L 2819 0 
L 2359 0 
L 2359 1069 
L 163 1069 
L 2725 4713 
z
M 2359 1509 
L 2359 3425 
L 1006 1509 
L 2359 1509 
z
" transform="scale(0.015625)"/>
       </defs>
       <use xlink:href="#CenturyGothic-30"/>
       <use xlink:href="#CenturyGothic-2e" x="55.419922"/>
       <use xlink:href="#CenturyGothic-30" x="83.105469"/>
       <use xlink:href="#CenturyGothic-34" x="138.525391"/>
       <use xlink:href="#CenturyGothic-30" x="193.945312"/>
      </g>
     </g>
    </g>
    <g id="text_10">
     <!-- Retornos Logarítmicos Diarios -->
     <g style="fill: #262626" transform="translate(118.266347 150.433838) scale(0.07 -0.07)">
      <defs>
       <path id="CenturyGothic-52" d="M 584 4597 
L 1500 4597 
Q 2266 4597 2538 4534 
Q 2947 4441 3203 4133 
Q 3459 3825 3459 3375 
Q 3459 3000 3282 2715 
Q 3106 2431 2778 2286 
Q 2450 2141 1872 2138 
L 3525 0 
L 2956 0 
L 1306 2138 
L 1044 2138 
L 1044 0 
L 584 0 
L 584 4597 
z
M 1044 4147 
L 1044 2584 
L 1834 2578 
Q 2294 2578 2514 2665 
Q 2734 2753 2857 2945 
Q 2981 3138 2981 3375 
Q 2981 3606 2856 3795 
Q 2731 3984 2528 4065 
Q 2325 4147 1853 4147 
L 1044 4147 
z
" transform="scale(0.015625)"/>
       <path id="CenturyGothic-65" d="M 3350 1128 
L 3719 934 
Q 3538 578 3300 359 
Q 3063 141 2766 26 
Q 2469 -88 2094 -88 
Q 1263 -88 794 457 
Q 325 1003 325 1691 
Q 325 2338 722 2844 
Q 1225 3488 2069 3488 
Q 2938 3488 3456 2828 
Q 3825 2363 3831 1666 
L 775 1666 
Q 788 1072 1153 692 
Q 1519 313 2056 313 
Q 2316 313 2561 403 
Q 2806 494 2978 644 
Q 3150 794 3350 1128 
z
M 3350 2044 
Q 3263 2394 3095 2603 
Q 2928 2813 2653 2941 
Q 2378 3069 2075 3069 
Q 1575 3069 1216 2747 
Q 953 2513 819 2044 
L 3350 2044 
z
" transform="scale(0.015625)"/>
       <path id="CenturyGothic-74" d="M 869 4663 
L 1309 4663 
L 1309 3400 
L 2003 3400 
L 2003 3025 
L 1309 3025 
L 1309 0 
L 869 0 
L 869 3025 
L 272 3025 
L 272 3400 
L 869 3400 
L 869 4663 
z
" transform="scale(0.015625)"/>
       <path id="CenturyGothic-6f" d="M 2097 3488 
Q 2881 3488 3397 2919 
Q 3866 2400 3866 1691 
Q 3866 978 3370 445 
Q 2875 -88 2097 -88 
Q 1316 -88 820 445 
Q 325 978 325 1691 
Q 325 2397 794 2916 
Q 1309 3488 2097 3488 
z
M 2097 3059 
Q 1553 3059 1162 2656 
Q 772 2253 772 1681 
Q 772 1313 950 994 
Q 1128 675 1431 501 
Q 1734 328 2097 328 
Q 2459 328 2762 501 
Q 3066 675 3244 994 
Q 3422 1313 3422 1681 
Q 3422 2253 3030 2656 
Q 2638 3059 2097 3059 
z
" transform="scale(0.015625)"/>
       <path id="CenturyGothic-72" d="M 322 3400 
L 769 3400 
L 769 2903 
Q 969 3197 1191 3342 
Q 1413 3488 1653 3488 
Q 1834 3488 2041 3372 
L 1813 3003 
Q 1675 3063 1581 3063 
Q 1363 3063 1159 2883 
Q 956 2703 850 2325 
Q 769 2034 769 1150 
L 769 0 
L 322 0 
L 322 3400 
z
" transform="scale(0.015625)"/>
       <path id="CenturyGothic-6e" d="M 488 3400 
L 925 3400 
L 925 2791 
Q 1188 3141 1506 3314 
Q 1825 3488 2200 3488 
Q 2581 3488 2876 3294 
Q 3172 3100 3312 2772 
Q 3453 2444 3453 1750 
L 3453 0 
L 3019 0 
L 3019 1622 
Q 3019 2209 2969 2406 
Q 2891 2744 2675 2914 
Q 2459 3084 2113 3084 
Q 1716 3084 1402 2821 
Q 1088 2559 988 2172 
Q 925 1919 925 1247 
L 925 0 
L 488 0 
L 488 3400 
z
" transform="scale(0.015625)"/>
       <path id="CenturyGothic-73" d="M 2197 3028 
L 1916 2738 
Q 1566 3078 1231 3078 
Q 1019 3078 867 2937 
Q 716 2797 716 2609 
Q 716 2444 841 2294 
Q 966 2141 1366 1934 
Q 1853 1681 2028 1447 
Q 2200 1209 2200 913 
Q 2200 494 1906 203 
Q 1613 -88 1172 -88 
Q 878 -88 611 40 
Q 344 169 169 394 
L 444 706 
Q 778 328 1153 328 
Q 1416 328 1600 497 
Q 1784 666 1784 894 
Q 1784 1081 1663 1228 
Q 1541 1372 1113 1591 
Q 653 1828 488 2059 
Q 322 2291 322 2588 
Q 322 2975 586 3231 
Q 850 3488 1253 3488 
Q 1722 3488 2197 3028 
z
" transform="scale(0.015625)"/>
       <path id="CenturyGothic-20" transform="scale(0.015625)"/>
       <path id="CenturyGothic-4c" d="M 559 4597 
L 1022 4597 
L 1022 444 
L 2788 444 
L 2788 0 
L 559 0 
L 559 4597 
z
" transform="scale(0.015625)"/>
       <path id="CenturyGothic-67" d="M 3416 3400 
L 3856 3400 
L 3856 691 
Q 3856 -25 3731 -356 
Q 3559 -825 3134 -1078 
Q 2709 -1331 2113 -1331 
Q 1675 -1331 1326 -1207 
Q 978 -1084 759 -876 
Q 541 -669 356 -269 
L 831 -269 
Q 1025 -606 1331 -768 
Q 1638 -931 2091 -931 
Q 2538 -931 2845 -764 
Q 3153 -597 3284 -344 
Q 3416 -91 3416 472 
L 3416 647 
Q 3169 334 2812 167 
Q 2456 0 2056 0 
Q 1588 0 1175 233 
Q 763 466 538 859 
Q 313 1253 313 1725 
Q 313 2197 547 2605 
Q 781 3013 1195 3250 
Q 1609 3488 2069 3488 
Q 2450 3488 2779 3330 
Q 3109 3172 3416 2809 
L 3416 3400 
z
M 2125 3066 
Q 1753 3066 1434 2886 
Q 1116 2706 934 2389 
Q 753 2072 753 1703 
Q 753 1144 1128 778 
Q 1503 413 2100 413 
Q 2703 413 3070 775 
Q 3438 1138 3438 1728 
Q 3438 2113 3269 2414 
Q 3100 2716 2790 2891 
Q 2481 3066 2125 3066 
z
" transform="scale(0.015625)"/>
       <path id="CenturyGothic-61" d="M 3875 3400 
L 3875 0 
L 3444 0 
L 3444 584 
Q 3169 250 2826 81 
Q 2484 -88 2078 -88 
Q 1356 -88 845 435 
Q 334 959 334 1709 
Q 334 2444 850 2966 
Q 1366 3488 2091 3488 
Q 2509 3488 2848 3309 
Q 3188 3131 3444 2775 
L 3444 3400 
L 3875 3400 
z
M 2125 3066 
Q 1759 3066 1450 2886 
Q 1141 2706 958 2381 
Q 775 2056 775 1694 
Q 775 1334 959 1006 
Q 1144 678 1455 495 
Q 1766 313 2122 313 
Q 2481 313 2803 494 
Q 3125 675 3298 984 
Q 3472 1294 3472 1681 
Q 3472 2272 3083 2669 
Q 2694 3066 2125 3066 
z
" transform="scale(0.015625)"/>
       <path id="CenturyGothic-ed" d="M 422 3400 
L 863 3400 
L 863 0 
L 422 0 
L 422 3400 
z
M 853 4994 
L 1525 4994 
L 603 4031 
L 172 4031 
L 853 4994 
z
" transform="scale(0.015625)"/>
       <path id="CenturyGothic-6d" d="M 484 3400 
L 919 3400 
L 919 2813 
Q 1147 3138 1388 3288 
Q 1719 3488 2084 3488 
Q 2331 3488 2553 3391 
Q 2775 3294 2915 3133 
Q 3056 2972 3159 2672 
Q 3378 3072 3706 3280 
Q 4034 3488 4413 3488 
Q 4766 3488 5036 3309 
Q 5306 3131 5437 2812 
Q 5569 2494 5569 1856 
L 5569 0 
L 5122 0 
L 5122 1856 
Q 5122 2403 5044 2608 
Q 4966 2813 4777 2938 
Q 4588 3063 4325 3063 
Q 4006 3063 3742 2875 
Q 3478 2688 3356 2375 
Q 3234 2063 3234 1331 
L 3234 0 
L 2800 0 
L 2800 1741 
Q 2800 2356 2723 2576 
Q 2647 2797 2456 2930 
Q 2266 3063 2003 3063 
Q 1700 3063 1436 2880 
Q 1172 2697 1045 2387 
Q 919 2078 919 1441 
L 919 0 
L 484 0 
L 484 3400 
z
" transform="scale(0.015625)"/>
       <path id="CenturyGothic-69" d="M 641 4800 
Q 791 4800 897 4694 
Q 1003 4588 1003 4438 
Q 1003 4291 897 4184 
Q 791 4078 641 4078 
Q 494 4078 387 4184 
Q 281 4291 281 4438 
Q 281 4588 387 4694 
Q 494 4800 641 4800 
z
M 422 3400 
L 863 3400 
L 863 0 
L 422 0 
L 422 3400 
z
" transform="scale(0.015625)"/>
       <path id="CenturyGothic-63" d="M 3788 2694 
L 3441 2478 
Q 2991 3075 2213 3075 
Q 1591 3075 1180 2675 
Q 769 2275 769 1703 
Q 769 1331 958 1003 
Q 1147 675 1476 494 
Q 1806 313 2216 313 
Q 2966 313 3441 909 
L 3788 681 
Q 3544 316 3133 114 
Q 2722 -88 2197 -88 
Q 1391 -88 859 425 
Q 328 938 328 1672 
Q 328 2166 576 2589 
Q 825 3013 1259 3250 
Q 1694 3488 2231 3488 
Q 2569 3488 2883 3384 
Q 3197 3281 3415 3115 
Q 3634 2950 3788 2694 
z
" transform="scale(0.015625)"/>
       <path id="CenturyGothic-44" d="M 559 0 
L 559 4597 
L 1513 4597 
Q 2544 4597 3009 4431 
Q 3678 4197 4054 3619 
Q 4431 3041 4431 2241 
Q 4431 1550 4132 1025 
Q 3834 500 3357 250 
Q 2881 0 2022 0 
L 559 0 
z
M 1000 434 
L 1531 434 
Q 2484 434 2853 553 
Q 3372 722 3669 1161 
Q 3966 1600 3966 2234 
Q 3966 2900 3644 3372 
Q 3322 3844 2747 4019 
Q 2316 4150 1325 4150 
L 1000 4150 
L 1000 434 
z
" transform="scale(0.015625)"/>
      </defs>
      <use xlink:href="#CenturyGothic-52"/>
      <use xlink:href="#CenturyGothic-65" x="60.693359"/>
      <use xlink:href="#CenturyGothic-74" x="125.683594"/>
      <use xlink:href="#CenturyGothic-6f" x="159.570312"/>
      <use xlink:href="#CenturyGothic-72" x="225.048828"/>
      <use xlink:href="#CenturyGothic-6e" x="255.126953"/>
      <use xlink:href="#CenturyGothic-6f" x="316.113281"/>
      <use xlink:href="#CenturyGothic-73" x="381.591797"/>
      <use xlink:href="#CenturyGothic-20" x="420.410156"/>
      <use xlink:href="#CenturyGothic-4c" x="448.095703"/>
      <use xlink:href="#CenturyGothic-6f" x="494.287109"/>
      <use xlink:href="#CenturyGothic-67" x="559.765625"/>
      <use xlink:href="#CenturyGothic-61" x="627.050781"/>
      <use xlink:href="#CenturyGothic-72" x="695.361328"/>
      <use xlink:href="#CenturyGothic-ed" x="725.439453"/>
      <use xlink:href="#CenturyGothic-74" x="745.458984"/>
      <use xlink:href="#CenturyGothic-6d" x="779.345703"/>
      <use xlink:href="#CenturyGothic-69" x="873.144531"/>
      <use xlink:href="#CenturyGothic-63" x="893.164062"/>
      <use xlink:href="#CenturyGothic-6f" x="957.861328"/>
      <use xlink:href="#CenturyGothic-73" x="1023.339844"/>
      <use xlink:href="#CenturyGothic-20" x="1062.158203"/>
      <use xlink:href="#CenturyGothic-44" x="1089.84375"/>
      <use xlink:href="#CenturyGothic-69" x="1164.257812"/>
      <use xlink:href="#CenturyGothic-61" x="1184.277344"/>
      <use xlink:href="#CenturyGothic-72" x="1252.587891"/>
      <use xlink:href="#CenturyGothic-69" x="1282.666016"/>
      <use xlink:href="#CenturyGothic-6f" x="1302.685547"/>
      <use xlink:href="#CenturyGothic-73" x="1368.164062"/>
     </g>
    </g>
   </g>
   <g id="matplotlib.axis_2">
    <g id="ytick_1">
     <g id="line2d_1">
      <defs>
       <path id="m4d9b44bfaf" d="M 0 0 
L 6 0 
" style="stroke: #262626; stroke-width: 0.5"/>
      </defs>
      <g>
       <use xlink:href="#m4d9b44bfaf" x="319.093476" y="120.350633" style="fill: #262626; stroke: #262626; stroke-width: 0.5"/>
      </g>
     </g>
     <g id="text_11">
      <!-- 0.0 -->
      <g style="fill: #262626" transform="translate(328.593476 122.928055) scale(0.07 -0.07)">
       <use xlink:href="#CenturyGothic-30"/>
       <use xlink:href="#CenturyGothic-2e" x="55.419922"/>
       <use xlink:href="#CenturyGothic-30" x="83.105469"/>
      </g>
     </g>
    </g>
    <g id="ytick_2">
     <g id="line2d_2">
      <g>
       <use xlink:href="#m4d9b44bfaf" x="319.093476" y="110.298523" style="fill: #262626; stroke: #262626; stroke-width: 0.5"/>
      </g>
     </g>
     <g id="text_12">
      <!-- 0.1 -->
      <g style="fill: #262626" transform="translate(328.593476 112.875945) scale(0.07 -0.07)">
       <use xlink:href="#CenturyGothic-30"/>
       <use xlink:href="#CenturyGothic-2e" x="55.419922"/>
       <use xlink:href="#CenturyGothic-31" x="83.105469"/>
      </g>
     </g>
    </g>
    <g id="ytick_3">
     <g id="line2d_3">
      <g>
       <use xlink:href="#m4d9b44bfaf" x="319.093476" y="100.246413" style="fill: #262626; stroke: #262626; stroke-width: 0.5"/>
      </g>
     </g>
     <g id="text_13">
      <!-- 0.2 -->
      <g style="fill: #262626" transform="translate(328.593476 102.823835) scale(0.07 -0.07)">
       <use xlink:href="#CenturyGothic-30"/>
       <use xlink:href="#CenturyGothic-2e" x="55.419922"/>
       <use xlink:href="#CenturyGothic-32" x="83.105469"/>
      </g>
     </g>
    </g>
    <g id="ytick_4">
     <g id="line2d_4">
      <g>
       <use xlink:href="#m4d9b44bfaf" x="319.093476" y="90.194303" style="fill: #262626; stroke: #262626; stroke-width: 0.5"/>
      </g>
     </g>
     <g id="text_14">
      <!-- 0.3 -->
      <g style="fill: #262626" transform="translate(328.593476 92.771725) scale(0.07 -0.07)">
       <use xlink:href="#CenturyGothic-30"/>
       <use xlink:href="#CenturyGothic-2e" x="55.419922"/>
       <use xlink:href="#CenturyGothic-33" x="83.105469"/>
      </g>
     </g>
    </g>
    <g id="ytick_5">
     <g id="line2d_5">
      <g>
       <use xlink:href="#m4d9b44bfaf" x="319.093476" y="80.142193" style="fill: #262626; stroke: #262626; stroke-width: 0.5"/>
      </g>
     </g>
     <g id="text_15">
      <!-- 0.4 -->
      <g style="fill: #262626" transform="translate(328.593476 82.719615) scale(0.07 -0.07)">
       <use xlink:href="#CenturyGothic-30"/>
       <use xlink:href="#CenturyGothic-2e" x="55.419922"/>
       <use xlink:href="#CenturyGothic-34" x="83.105469"/>
      </g>
     </g>
    </g>
    <g id="ytick_6">
     <g id="line2d_6">
      <g>
       <use xlink:href="#m4d9b44bfaf" x="319.093476" y="70.090083" style="fill: #262626; stroke: #262626; stroke-width: 0.5"/>
      </g>
     </g>
     <g id="text_16">
      <!-- 0.5 -->
      <g style="fill: #262626" transform="translate(328.593476 72.667505) scale(0.07 -0.07)">
       <use xlink:href="#CenturyGothic-30"/>
       <use xlink:href="#CenturyGothic-2e" x="55.419922"/>
       <use xlink:href="#CenturyGothic-35" x="83.105469"/>
      </g>
     </g>
    </g>
    <g id="ytick_7">
     <g id="line2d_7">
      <g>
       <use xlink:href="#m4d9b44bfaf" x="319.093476" y="60.037973" style="fill: #262626; stroke: #262626; stroke-width: 0.5"/>
      </g>
     </g>
     <g id="text_17">
      <!-- 0.6 -->
      <g style="fill: #262626" transform="translate(328.593476 62.615394) scale(0.07 -0.07)">
       <defs>
        <path id="CenturyGothic-36" d="M 2347 4713 
L 2725 4466 
L 1484 2584 
Q 1734 2669 1953 2669 
Q 2500 2669 2881 2273 
Q 3263 1878 3263 1300 
Q 3263 903 3078 583 
Q 2894 263 2555 73 
Q 2216 -116 1825 -116 
Q 1447 -116 1123 67 
Q 800 250 615 581 
Q 431 913 431 1291 
Q 431 1572 545 1883 
Q 659 2194 953 2631 
L 2347 4713 
z
M 1844 2266 
Q 1444 2266 1161 1983 
Q 878 1700 878 1297 
Q 878 897 1161 614 
Q 1444 331 1844 331 
Q 2244 331 2526 614 
Q 2809 897 2809 1297 
Q 2809 1700 2526 1983 
Q 2244 2266 1844 2266 
z
" transform="scale(0.015625)"/>
       </defs>
       <use xlink:href="#CenturyGothic-30"/>
       <use xlink:href="#CenturyGothic-2e" x="55.419922"/>
       <use xlink:href="#CenturyGothic-36" x="83.105469"/>
      </g>
     </g>
    </g>
    <g id="ytick_8">
     <g id="line2d_8">
      <g>
       <use xlink:href="#m4d9b44bfaf" x="319.093476" y="49.985862" style="fill: #262626; stroke: #262626; stroke-width: 0.5"/>
      </g>
     </g>
     <g id="text_18">
      <!-- 0.7 -->
      <g style="fill: #262626" transform="translate(328.593476 52.563284) scale(0.07 -0.07)">
       <defs>
        <path id="CenturyGothic-37" d="M 459 4597 
L 3375 4597 
L 916 -116 
L 538 78 
L 2663 4163 
L 459 4163 
L 459 4597 
z
" transform="scale(0.015625)"/>
       </defs>
       <use xlink:href="#CenturyGothic-30"/>
       <use xlink:href="#CenturyGothic-2e" x="55.419922"/>
       <use xlink:href="#CenturyGothic-37" x="83.105469"/>
      </g>
     </g>
    </g>
    <g id="ytick_9">
     <g id="line2d_9">
      <g>
       <use xlink:href="#m4d9b44bfaf" x="319.093476" y="39.933752" style="fill: #262626; stroke: #262626; stroke-width: 0.5"/>
      </g>
     </g>
     <g id="text_19">
      <!-- 0.8 -->
      <g style="fill: #262626" transform="translate(328.593476 42.511174) scale(0.07 -0.07)">
       <defs>
        <path id="CenturyGothic-38" d="M 2459 2522 
Q 2925 2291 3126 1994 
Q 3328 1697 3328 1319 
Q 3328 788 2981 381 
Q 2556 -116 1766 -116 
Q 1003 -116 609 320 
Q 216 756 216 1281 
Q 216 1666 422 1973 
Q 628 2281 1109 2522 
Q 772 2697 603 2956 
Q 434 3216 434 3513 
Q 434 3813 614 4098 
Q 794 4384 1111 4548 
Q 1428 4713 1797 4713 
Q 2156 4713 2462 4547 
Q 2769 4381 2942 4097 
Q 3116 3813 3116 3500 
Q 3116 3188 2952 2944 
Q 2788 2700 2459 2522 
z
M 1775 4266 
Q 1397 4266 1148 4042 
Q 900 3819 900 3509 
Q 900 3203 1167 2954 
Q 1434 2706 1791 2706 
Q 2019 2706 2222 2818 
Q 2425 2931 2539 3126 
Q 2653 3322 2653 3519 
Q 2653 3797 2428 4031 
Q 2203 4266 1775 4266 
z
M 1797 2291 
Q 1322 2291 1000 1983 
Q 678 1675 678 1266 
Q 678 1013 815 788 
Q 953 563 1200 441 
Q 1447 319 1772 319 
Q 2275 319 2572 616 
Q 2869 913 2869 1309 
Q 2869 1694 2555 1992 
Q 2241 2291 1797 2291 
z
" transform="scale(0.015625)"/>
       </defs>
       <use xlink:href="#CenturyGothic-30"/>
       <use xlink:href="#CenturyGothic-2e" x="55.419922"/>
       <use xlink:href="#CenturyGothic-38" x="83.105469"/>
      </g>
     </g>
    </g>
    <g id="ytick_10">
     <g id="line2d_10">
      <g>
       <use xlink:href="#m4d9b44bfaf" x="319.093476" y="29.881642" style="fill: #262626; stroke: #262626; stroke-width: 0.5"/>
      </g>
     </g>
     <g id="text_20">
      <!-- 0.9 -->
      <g style="fill: #262626" transform="translate(328.593476 32.459064) scale(0.07 -0.07)">
       <defs>
        <path id="CenturyGothic-39" d="M 1228 -116 
L 850 128 
L 2091 2009 
Q 1841 1928 1622 1928 
Q 1075 1928 694 2323 
Q 313 2719 313 3297 
Q 313 3694 497 4012 
Q 681 4331 1020 4522 
Q 1359 4713 1747 4713 
Q 2128 4713 2451 4528 
Q 2775 4344 2959 4012 
Q 3144 3681 3144 3306 
Q 3144 3022 3030 2711 
Q 2916 2400 2622 1963 
L 1228 -116 
z
M 1728 2331 
Q 2131 2331 2414 2614 
Q 2697 2897 2697 3297 
Q 2697 3697 2414 3980 
Q 2131 4263 1728 4263 
Q 1328 4263 1045 3980 
Q 763 3697 763 3297 
Q 763 2897 1045 2614 
Q 1328 2331 1728 2331 
z
" transform="scale(0.015625)"/>
       </defs>
       <use xlink:href="#CenturyGothic-30"/>
       <use xlink:href="#CenturyGothic-2e" x="55.419922"/>
       <use xlink:href="#CenturyGothic-39" x="83.105469"/>
      </g>
     </g>
    </g>
    <g id="ytick_11">
     <g id="line2d_11">
      <g>
       <use xlink:href="#m4d9b44bfaf" x="319.093476" y="19.829532" style="fill: #262626; stroke: #262626; stroke-width: 0.5"/>
      </g>
     </g>
     <g id="text_21">
      <!-- 1.0 -->
      <g style="fill: #262626" transform="translate(328.593476 22.406954) scale(0.07 -0.07)">
       <use xlink:href="#CenturyGothic-31"/>
       <use xlink:href="#CenturyGothic-2e" x="55.419922"/>
       <use xlink:href="#CenturyGothic-30" x="83.105469"/>
      </g>
     </g>
    </g>
    <g id="ytick_12">
     <g id="line2d_12">
      <g>
       <use xlink:href="#m4d9b44bfaf" x="319.093476" y="9.777422" style="fill: #262626; stroke: #262626; stroke-width: 0.5"/>
      </g>
     </g>
     <g id="text_22">
      <!-- 1.1 -->
      <g style="fill: #262626" transform="translate(328.593476 12.354844) scale(0.07 -0.07)">
       <use xlink:href="#CenturyGothic-31"/>
       <use xlink:href="#CenturyGothic-2e" x="55.419922"/>
       <use xlink:href="#CenturyGothic-31" x="83.105469"/>
      </g>
     </g>
    </g>
    <g id="text_23">
     <!-- Probabilidad Acumulada -->
     <g style="fill: #262626" transform="translate(347.445507 110.478052) rotate(-90) scale(0.07 -0.07)">
      <defs>
       <path id="CenturyGothic-50" d="M 556 4597 
L 1472 4597 
Q 2259 4597 2534 4528 
Q 2928 4431 3178 4129 
Q 3428 3828 3428 3372 
Q 3428 2913 3184 2614 
Q 2941 2316 2513 2213 
Q 2200 2138 1344 2138 
L 1016 2138 
L 1016 0 
L 556 0 
L 556 4597 
z
M 1016 4150 
L 1016 2588 
L 1794 2578 
Q 2266 2578 2484 2664 
Q 2703 2750 2828 2942 
Q 2953 3134 2953 3372 
Q 2953 3603 2828 3795 
Q 2703 3988 2498 4069 
Q 2294 4150 1828 4150 
L 1016 4150 
z
" transform="scale(0.015625)"/>
       <path id="CenturyGothic-62" d="M 516 0 
L 516 4713 
L 950 4713 
L 950 2816 
Q 1225 3153 1565 3320 
Q 1906 3488 2313 3488 
Q 3034 3488 3545 2964 
Q 4056 2441 4056 1694 
Q 4056 956 3540 434 
Q 3025 -88 2300 -88 
Q 1884 -88 1546 90 
Q 1209 269 950 625 
L 950 0 
L 516 0 
z
M 2266 334 
Q 2631 334 2940 514 
Q 3250 694 3433 1019 
Q 3616 1344 3616 1706 
Q 3616 2069 3431 2397 
Q 3247 2725 2936 2908 
Q 2625 3091 2272 3091 
Q 1913 3091 1589 2908 
Q 1266 2725 1092 2415 
Q 919 2106 919 1719 
Q 919 1128 1308 731 
Q 1697 334 2266 334 
z
" transform="scale(0.015625)"/>
       <path id="CenturyGothic-6c" d="M 422 4713 
L 859 4713 
L 859 0 
L 422 0 
L 422 4713 
z
" transform="scale(0.015625)"/>
       <path id="CenturyGothic-64" d="M 3881 4713 
L 3881 0 
L 3450 0 
L 3450 584 
Q 3175 250 2833 81 
Q 2491 -88 2084 -88 
Q 1363 -88 852 435 
Q 341 959 341 1709 
Q 341 2444 856 2966 
Q 1372 3488 2097 3488 
Q 2516 3488 2855 3309 
Q 3194 3131 3450 2775 
L 3450 4713 
L 3881 4713 
z
M 2131 3066 
Q 1766 3066 1456 2886 
Q 1147 2706 964 2381 
Q 781 2056 781 1694 
Q 781 1334 965 1006 
Q 1150 678 1461 495 
Q 1772 313 2128 313 
Q 2488 313 2809 494 
Q 3131 675 3304 984 
Q 3478 1294 3478 1681 
Q 3478 2272 3089 2669 
Q 2700 3066 2131 3066 
z
" transform="scale(0.015625)"/>
       <path id="CenturyGothic-41" d="M 2438 4597 
L 4581 0 
L 4088 0 
L 3366 1513 
L 1384 1513 
L 666 0 
L 153 0 
L 2325 4597 
L 2438 4597 
z
M 2381 3622 
L 1591 1956 
L 3163 1956 
L 2381 3622 
z
" transform="scale(0.015625)"/>
       <path id="CenturyGothic-75" d="M 431 3400 
L 872 3400 
L 872 1813 
Q 872 1231 934 1013 
Q 1028 700 1292 519 
Q 1556 338 1922 338 
Q 2288 338 2542 514 
Q 2797 691 2894 978 
Q 2959 1175 2959 1813 
L 2959 3400 
L 3406 3400 
L 3406 1731 
Q 3406 1028 3242 672 
Q 3078 316 2748 114 
Q 2419 -88 1922 -88 
Q 1425 -88 1092 114 
Q 759 316 595 677 
Q 431 1038 431 1763 
L 431 3400 
z
" transform="scale(0.015625)"/>
      </defs>
      <use xlink:href="#CenturyGothic-50"/>
      <use xlink:href="#CenturyGothic-72" x="59.179688"/>
      <use xlink:href="#CenturyGothic-6f" x="89.257812"/>
      <use xlink:href="#CenturyGothic-62" x="154.736328"/>
      <use xlink:href="#CenturyGothic-61" x="222.949219"/>
      <use xlink:href="#CenturyGothic-62" x="291.259766"/>
      <use xlink:href="#CenturyGothic-69" x="359.472656"/>
      <use xlink:href="#CenturyGothic-6c" x="379.492188"/>
      <use xlink:href="#CenturyGothic-69" x="399.511719"/>
      <use xlink:href="#CenturyGothic-64" x="419.53125"/>
      <use xlink:href="#CenturyGothic-61" x="488.037109"/>
      <use xlink:href="#CenturyGothic-64" x="556.347656"/>
      <use xlink:href="#CenturyGothic-20" x="624.853516"/>
      <use xlink:href="#CenturyGothic-41" x="652.539062"/>
      <use xlink:href="#CenturyGothic-63" x="726.513672"/>
      <use xlink:href="#CenturyGothic-75" x="791.210938"/>
      <use xlink:href="#CenturyGothic-6d" x="852.001953"/>
      <use xlink:href="#CenturyGothic-75" x="945.800781"/>
      <use xlink:href="#CenturyGothic-6c" x="1006.591797"/>
      <use xlink:href="#CenturyGothic-61" x="1026.611328"/>
      <use xlink:href="#CenturyGothic-64" x="1094.921875"/>
      <use xlink:href="#CenturyGothic-61" x="1163.427734"/>
     </g>
    </g>
   </g>
   <g id="line2d_13">
    <path d="M -1 92.245802 
L 0.793728 91.916378 
L 1.66154 91.515895 
L 1.833955 90.71493 
L 2.626981 89.513483 
L 2.739695 89.113 
L 3.115734 88.712518 
L 3.174291 88.312035 
L 3.437656 87.911553 
L 4.407289 87.51107 
L 4.567223 87.110588 
L 5.224888 86.309623 
L 5.252654 85.90914 
L 6.321243 85.108176 
L 7.343224 84.707693 
L 8.240763 83.906728 
L 8.288516 83.506246 
L 9.428357 83.105763 
L 10.002935 82.705281 
L 11.332357 82.304798 
L 11.464347 81.904316 
L 11.814676 81.503833 
L 12.676165 81.103351 
L 13.150569 80.702868 
L 13.362467 79.901903 
L 14.276247 79.100938 
L 14.756229 78.299973 
L 15.658786 77.899491 
L 15.888534 77.098526 
L 16.222762 76.297561 
L 17.38617 75.496596 
L 17.738759 74.295149 
L 19.018153 73.494184 
L 19.833195 73.093701 
L 20.999904 72.693219 
L 21.067736 72.292736 
L 21.484892 71.892254 
L 21.494006 71.491771 
L 22.136728 71.091289 
L 22.199202 70.690806 
L 23.564593 69.088877 
L 23.567704 68.688394 
L 23.897838 68.287912 
L 24.526055 67.887429 
L 24.577549 67.486947 
L 26.6847 65.885017 
L 27.210781 64.683569 
L 27.599625 64.283087 
L 28.415626 63.882604 
L 30.602803 63.081639 
L 30.934254 62.681157 
L 31.727484 62.280674 
L 31.960713 61.880192 
L 32.670196 61.479709 
L 32.991002 61.079227 
L 33.168113 59.87778 
L 34.056486 59.076815 
L 34.459064 58.27585 
L 35.133934 57.875367 
L 35.249393 57.474885 
L 36.575406 56.67392 
L 37.65391 56.273437 
L 38.050693 55.872955 
L 41.599969 55.07199 
L 42.056419 54.271025 
L 42.697795 53.870542 
L 43.064595 52.669095 
L 43.889487 51.86813 
L 44.871004 51.467648 
L 44.892397 51.067165 
L 47.83668 50.2662 
L 47.887174 49.865718 
L 48.96849 49.465235 
L 50.648654 49.064753 
L 50.693061 48.66427 
L 51.035075 48.263788 
L 51.633848 47.863305 
L 51.846667 47.462823 
L 52.850254 46.661858 
L 53.130205 46.261375 
L 54.494613 45.059928 
L 54.608648 44.659446 
L 54.99064 44.258963 
L 55.129203 43.858481 
L 55.66611 43.457998 
L 57.231995 43.057516 
L 57.235337 42.657033 
L 59.046543 41.856068 
L 59.531833 41.455586 
L 63.691062 41.055103 
L 64.455267 40.654621 
L 66.615515 39.853656 
L 66.707889 39.453173 
L 67.468751 38.652208 
L 68.200006 38.251726 
L 68.493537 37.851243 
L 70.532769 37.450761 
L 70.669281 37.050278 
L 71.605818 36.649796 
L 72.119316 36.249314 
L 73.899736 35.848831 
L 75.444239 35.047866 
L 77.06643 33.846419 
L 78.139483 33.445936 
L 81.200519 33.045454 
L 81.943931 32.644971 
L 82.167189 32.244489 
L 84.680696 31.844006 
L 85.459903 31.443524 
L 85.467365 31.043041 
L 86.11097 30.642559 
L 86.450011 29.841594 
L 88.556409 29.441111 
L 88.687897 29.040629 
L 89.938625 28.239664 
L 91.114259 27.839182 
L 91.437707 27.438699 
L 91.496792 27.038217 
L 92.191164 26.637734 
L 94.09775 26.237252 
L 94.752036 25.836769 
L 97.354057 24.635322 
L 99.390364 24.234839 
L 99.713658 23.834357 
L 100.932238 23.433874 
L 101.358828 23.033392 
L 123.207851 22.232427 
L 125.49748 21.831944 
L 130.308859 21.431462 
L 131.178766 21.030979 
L 159.03315 20.630497 
L 186.954227 19.829532 
L 186.954227 19.829532 
" clip-path="url(#p291a32dd0b)" style="fill: none; stroke-dasharray: 7.4,3.2; stroke-dashoffset: 0; stroke: #d3c7a5; stroke-width: 2"/>
   </g>
   <g id="line2d_14">
    <path d="M -1 79.196678 
L 1.114047 78.700456 
L 2.430891 78.299973 
L 3.311401 77.899491 
L 3.72618 77.499009 
L 3.838901 77.098526 
L 4.077182 76.698044 
L 5.564135 76.297561 
L 5.822486 75.897079 
L 6.739606 75.496596 
L 9.7226 74.695631 
L 10.394487 74.295149 
L 11.390093 73.894666 
L 11.906321 73.494184 
L 12.034876 73.093701 
L 12.519846 72.693219 
L 12.570465 72.292736 
L 13.484277 71.892254 
L 15.056805 71.491771 
L 15.829443 71.091289 
L 17.100597 70.690806 
L 17.480821 70.290324 
L 18.322234 69.889841 
L 18.553609 69.489359 
L 18.655373 69.088877 
L 18.895815 68.688394 
L 21.390721 67.887429 
L 22.290646 67.486947 
L 23.997479 67.086464 
L 24.679381 66.685982 
L 25.099833 66.285499 
L 25.946243 65.885017 
L 29.867588 65.084052 
L 31.338313 64.683569 
L 31.509667 64.283087 
L 31.93263 63.882604 
L 32.185135 63.081639 
L 35.320662 62.681157 
L 37.159987 61.880192 
L 37.192109 61.479709 
L 37.87641 61.079227 
L 38.959029 60.678745 
L 39.580807 60.278262 
L 40.893032 59.87778 
L 43.673749 59.477297 
L 45.748417 58.676332 
L 45.985421 58.27585 
L 47.056178 57.875367 
L 47.310553 57.074402 
L 48.334218 56.67392 
L 49.114603 55.872955 
L 52.266496 54.271025 
L 52.567155 53.870542 
L 54.98502 53.47006 
L 55.107747 53.069577 
L 55.37679 52.669095 
L 55.943042 52.268613 
L 58.619665 51.467648 
L 58.747214 51.067165 
L 60.123914 50.2662 
L 60.234795 49.865718 
L 61.282618 49.465235 
L 61.3068 49.064753 
L 61.99356 48.263788 
L 64.894485 47.863305 
L 66.08314 47.06234 
L 67.316983 46.661858 
L 67.553959 46.261375 
L 68.153192 45.860893 
L 68.985154 45.46041 
L 69.228818 45.059928 
L 69.990838 44.659446 
L 70.706415 43.858481 
L 71.270407 43.457998 
L 72.812145 43.057516 
L 73.155824 42.657033 
L 73.646871 42.256551 
L 75.897565 41.856068 
L 76.150591 41.455586 
L 77.686191 41.055103 
L 77.915703 40.654621 
L 80.89195 40.254138 
L 80.988686 39.853656 
L 81.737702 39.453173 
L 81.856116 38.652208 
L 83.97449 38.251726 
L 85.389591 37.851243 
L 87.554777 37.450761 
L 91.150645 37.050278 
L 91.190619 36.649796 
L 92.261906 36.249314 
L 93.850616 35.848831 
L 94.138272 35.448349 
L 98.48679 35.047866 
L 109.337721 34.647384 
L 110.643579 34.246901 
L 110.778972 33.846419 
L 111.16781 33.445936 
L 111.753821 33.045454 
L 111.935128 32.244489 
L 113.290929 31.844006 
L 113.72072 31.443524 
L 119.036413 30.642559 
L 124.694833 29.841594 
L 125.943638 29.441111 
L 128.695838 29.040629 
L 129.793215 28.239664 
L 130.352819 27.839182 
L 133.185101 27.438699 
L 134.165098 27.038217 
L 134.849871 26.637734 
L 135.991606 26.237252 
L 137.871684 25.836769 
L 140.609917 25.436287 
L 161.51706 24.234839 
L 174.987084 23.834357 
L 175.332146 23.433874 
L 186.075189 22.632909 
L 198.446339 22.232427 
L 201.084333 21.831944 
L 206.022017 21.431462 
L 214.746552 21.030979 
L 227.199319 20.630497 
L 232.232084 20.230014 
L 294.336145 19.829532 
L 294.336145 19.829532 
" clip-path="url(#p291a32dd0b)" style="fill: none; stroke: #0b559f; stroke-width: 2; stroke-linecap: round"/>
   </g>
   <g id="patch_3">
    <path d="M 319.093476 124.956182 
L 319.093476 9.777422 
" style="fill: none; stroke: #262626; stroke-width: 0.5; stroke-linejoin: miter; stroke-linecap: square"/>
   </g>
   <g id="patch_4">
    <path d="M 15.928125 124.956182 
L 319.093476 124.956182 
" style="fill: none; stroke: #262626; stroke-width: 0.5; stroke-linejoin: miter; stroke-linecap: square"/>
   </g>
   <g id="legend_1">
    <g id="line2d_15">
     <path d="M 22.228125 104.830088 
L 29.228125 104.830088 
L 36.228125 104.830088 
" style="fill: none; stroke-dasharray: 7.4,3.2; stroke-dashoffset: 0; stroke: #d3c7a5; stroke-width: 2"/>
    </g>
    <g id="text_24">
     <!-- AAPL - Reales -->
     <g style="fill: #262626" transform="translate(41.828125 107.280088) scale(0.07 -0.07)">
      <defs>
       <path id="CenturyGothic-2d" d="M 203 1919 
L 1922 1919 
L 1922 1538 
L 203 1538 
L 203 1919 
z
" transform="scale(0.015625)"/>
      </defs>
      <use xlink:href="#CenturyGothic-41"/>
      <use xlink:href="#CenturyGothic-41" x="73.974609"/>
      <use xlink:href="#CenturyGothic-50" x="147.949219"/>
      <use xlink:href="#CenturyGothic-4c" x="207.128906"/>
      <use xlink:href="#CenturyGothic-20" x="253.320312"/>
      <use xlink:href="#CenturyGothic-2d" x="281.005859"/>
      <use xlink:href="#CenturyGothic-20" x="314.208984"/>
      <use xlink:href="#CenturyGothic-52" x="341.894531"/>
      <use xlink:href="#CenturyGothic-65" x="402.587891"/>
      <use xlink:href="#CenturyGothic-61" x="467.578125"/>
      <use xlink:href="#CenturyGothic-6c" x="535.888672"/>
      <use xlink:href="#CenturyGothic-65" x="555.908203"/>
      <use xlink:href="#CenturyGothic-73" x="620.898438"/>
     </g>
    </g>
    <g id="line2d_16">
     <path d="M 22.228125 114.845557 
L 29.228125 114.845557 
L 36.228125 114.845557 
" style="fill: none; stroke: #0b559f; stroke-width: 2; stroke-linecap: round"/>
    </g>
    <g id="text_25">
     <!-- AAPL - Simulados -->
     <g style="fill: #262626" transform="translate(41.828125 117.295557) scale(0.07 -0.07)">
      <defs>
       <path id="CenturyGothic-53" d="M 84 856 
L 475 1091 
Q 888 331 1428 331 
Q 1659 331 1862 439 
Q 2066 547 2172 728 
Q 2278 909 2278 1113 
Q 2278 1344 2122 1566 
Q 1906 1872 1334 2303 
Q 759 2738 619 2931 
Q 375 3256 375 3634 
Q 375 3934 519 4181 
Q 663 4428 923 4570 
Q 1184 4713 1491 4713 
Q 1816 4713 2098 4552 
Q 2381 4391 2697 3959 
L 2322 3675 
Q 2063 4019 1880 4128 
Q 1697 4238 1481 4238 
Q 1203 4238 1026 4069 
Q 850 3900 850 3653 
Q 850 3503 912 3362 
Q 975 3222 1141 3056 
Q 1231 2969 1734 2597 
Q 2331 2156 2553 1812 
Q 2775 1469 2775 1122 
Q 2775 622 2395 253 
Q 2016 -116 1472 -116 
Q 1053 -116 712 107 
Q 372 331 84 856 
z
" transform="scale(0.015625)"/>
      </defs>
      <use xlink:href="#CenturyGothic-41"/>
      <use xlink:href="#CenturyGothic-41" x="73.974609"/>
      <use xlink:href="#CenturyGothic-50" x="147.949219"/>
      <use xlink:href="#CenturyGothic-4c" x="207.128906"/>
      <use xlink:href="#CenturyGothic-20" x="253.320312"/>
      <use xlink:href="#CenturyGothic-2d" x="281.005859"/>
      <use xlink:href="#CenturyGothic-20" x="314.208984"/>
      <use xlink:href="#CenturyGothic-53" x="341.894531"/>
      <use xlink:href="#CenturyGothic-69" x="391.699219"/>
      <use xlink:href="#CenturyGothic-6d" x="411.71875"/>
      <use xlink:href="#CenturyGothic-75" x="505.517578"/>
      <use xlink:href="#CenturyGothic-6c" x="566.308594"/>
      <use xlink:href="#CenturyGothic-61" x="586.328125"/>
      <use xlink:href="#CenturyGothic-64" x="654.638672"/>
      <use xlink:href="#CenturyGothic-6f" x="723.144531"/>
      <use xlink:href="#CenturyGothic-73" x="788.623047"/>
     </g>
    </g>
   </g>
  </g>
 </g>
 <defs>
  <clipPath id="p291a32dd0b">
   <rect x="15.928125" y="9.777422" width="303.165351" height="115.17876"/>
  </clipPath>
 </defs>
</svg>
