<?xml version="1.0" encoding="utf-8" standalone="no"?>
<!DOCTYPE svg PUBLIC "-//W3C//DTD SVG 1.1//EN"
  "http://www.w3.org/Graphics/SVG/1.1/DTD/svg11.dtd">
<svg xmlns:xlink="http://www.w3.org/1999/xlink" width="491.28125pt" height="253.551875pt" viewBox="0 0 491.28125 253.551875" xmlns="http://www.w3.org/2000/svg" version="1.1">
 <metadata>
  <rdf:RDF xmlns:dc="http://purl.org/dc/elements/1.1/" xmlns:cc="http://creativecommons.org/ns#" xmlns:rdf="http://www.w3.org/1999/02/22-rdf-syntax-ns#">
   <cc:Work>
    <dc:type rdf:resource="http://purl.org/dc/dcmitype/StillImage"/>
    <dc:date>2025-05-26T11:45:27.749513</dc:date>
    <dc:format>image/svg+xml</dc:format>
    <dc:creator>
     <cc:Agent>
      <dc:title>Matplotlib v3.9.2, https://matplotlib.org/</dc:title>
     </cc:Agent>
    </dc:creator>
   </cc:Work>
  </rdf:RDF>
 </metadata>
 <defs>
  <style type="text/css">*{stroke-linejoin: round; stroke-linecap: butt}</style>
 </defs>
 <g id="figure_1">
  <g id="patch_1">
   <path d="M 0 253.551875 
L 491.28125 253.551875 
L 491.28125 0 
L 0 0 
z
" style="fill: #ffffff"/>
  </g>
  <g id="axes_1">
   <g id="patch_2">
    <path d="M 19.59875 231.905625 
L 465.99875 231.905625 
L 465.99875 10.145625 
L 19.59875 10.145625 
z
" style="fill: #ffffff"/>
   </g>
   <g id="matplotlib.axis_1">
    <g id="xtick_1">
     <g id="line2d_1">
      <defs>
       <path id="mda0cc85380" d="M 0 0 
L 0 3.5 
" style="stroke: #000000; stroke-width: 0.8"/>
      </defs>
      <g>
       <use xlink:href="#mda0cc85380" x="19.59875" y="231.905625" style="stroke: #000000; stroke-width: 0.8"/>
      </g>
     </g>
     <g id="text_1">
      <!-- −0.100 -->
      <g transform="translate(7.2 244.796875) scale(0.08 -0.08)">
       <defs>
        <path id="CenturyGothic-2212" d="M 359 2513 
L 3522 2513 
L 3522 2084 
L 359 2084 
L 359 2513 
z
" transform="scale(0.015625)"/>
        <path id="CenturyGothic-30" d="M 203 2297 
Q 203 3206 398 3703 
Q 594 4200 950 4456 
Q 1306 4713 1747 4713 
Q 2194 4713 2556 4455 
Q 2919 4197 3130 3681 
Q 3341 3166 3341 2297 
Q 3341 1431 3133 918 
Q 2925 406 2559 145 
Q 2194 -116 1747 -116 
Q 1306 -116 953 137 
Q 600 391 401 892 
Q 203 1394 203 2297 
z
M 638 2288 
Q 638 1509 777 1111 
Q 916 713 1187 506 
Q 1459 300 1763 300 
Q 2069 300 2334 501 
Q 2600 703 2738 1106 
Q 2909 1597 2909 2288 
Q 2909 2981 2756 3423 
Q 2603 3866 2333 4070 
Q 2063 4275 1763 4275 
Q 1456 4275 1187 4070 
Q 919 3866 778 3467 
Q 638 3069 638 2288 
z
" transform="scale(0.015625)"/>
        <path id="CenturyGothic-2e" d="M 969 688 
Q 1128 688 1240 575 
Q 1353 463 1353 300 
Q 1353 141 1240 26 
Q 1128 -88 969 -88 
Q 809 -88 696 26 
Q 584 141 584 300 
Q 584 463 696 575 
Q 809 688 969 688 
z
" transform="scale(0.015625)"/>
        <path id="CenturyGothic-31" d="M 1184 4597 
L 2088 4597 
L 2088 0 
L 1631 0 
L 1631 4147 
L 909 4147 
L 1184 4597 
z
" transform="scale(0.015625)"/>
       </defs>
       <use xlink:href="#CenturyGothic-2212"/>
       <use xlink:href="#CenturyGothic-30" x="60.595703"/>
       <use xlink:href="#CenturyGothic-2e" x="116.015625"/>
       <use xlink:href="#CenturyGothic-31" x="143.701172"/>
       <use xlink:href="#CenturyGothic-30" x="199.121094"/>
       <use xlink:href="#CenturyGothic-30" x="254.541016"/>
      </g>
     </g>
    </g>
    <g id="xtick_2">
     <g id="line2d_2">
      <g>
       <use xlink:href="#mda0cc85380" x="72.238423" y="231.905625" style="stroke: #000000; stroke-width: 0.8"/>
      </g>
     </g>
     <g id="text_2">
      <!-- −0.075 -->
      <g transform="translate(59.839673 244.796875) scale(0.08 -0.08)">
       <defs>
        <path id="CenturyGothic-37" d="M 459 4597 
L 3375 4597 
L 916 -116 
L 538 78 
L 2663 4163 
L 459 4163 
L 459 4597 
z
" transform="scale(0.015625)"/>
        <path id="CenturyGothic-35" d="M 3147 4597 
L 3147 4159 
L 1509 4159 
L 1281 2906 
Q 1581 2994 1822 2994 
Q 2450 2994 2858 2573 
Q 3266 2153 3266 1497 
Q 3266 1044 3056 666 
Q 2847 288 2489 86 
Q 2131 -116 1663 -116 
Q 1103 -116 718 226 
Q 334 569 259 1113 
L 731 1113 
Q 784 847 911 681 
Q 1038 516 1248 414 
Q 1459 313 1691 313 
Q 2144 313 2469 656 
Q 2794 1000 2794 1516 
Q 2794 1981 2500 2272 
Q 2206 2563 1716 2563 
Q 1309 2563 731 2316 
L 1156 4597 
L 3147 4597 
z
" transform="scale(0.015625)"/>
       </defs>
       <use xlink:href="#CenturyGothic-2212"/>
       <use xlink:href="#CenturyGothic-30" x="60.595703"/>
       <use xlink:href="#CenturyGothic-2e" x="116.015625"/>
       <use xlink:href="#CenturyGothic-30" x="143.701172"/>
       <use xlink:href="#CenturyGothic-37" x="199.121094"/>
       <use xlink:href="#CenturyGothic-35" x="254.541016"/>
      </g>
     </g>
    </g>
    <g id="xtick_3">
     <g id="line2d_3">
      <g>
       <use xlink:href="#mda0cc85380" x="124.878096" y="231.905625" style="stroke: #000000; stroke-width: 0.8"/>
      </g>
     </g>
     <g id="text_3">
      <!-- −0.050 -->
      <g transform="translate(112.479346 244.796875) scale(0.08 -0.08)">
       <use xlink:href="#CenturyGothic-2212"/>
       <use xlink:href="#CenturyGothic-30" x="60.595703"/>
       <use xlink:href="#CenturyGothic-2e" x="116.015625"/>
       <use xlink:href="#CenturyGothic-30" x="143.701172"/>
       <use xlink:href="#CenturyGothic-35" x="199.121094"/>
       <use xlink:href="#CenturyGothic-30" x="254.541016"/>
      </g>
     </g>
    </g>
    <g id="xtick_4">
     <g id="line2d_4">
      <g>
       <use xlink:href="#mda0cc85380" x="177.517769" y="231.905625" style="stroke: #000000; stroke-width: 0.8"/>
      </g>
     </g>
     <g id="text_4">
      <!-- −0.025 -->
      <g transform="translate(165.119019 244.796875) scale(0.08 -0.08)">
       <defs>
        <path id="CenturyGothic-32" d="M 741 3156 
L 300 3156 
Q 319 3838 755 4275 
Q 1191 4713 1831 4713 
Q 2466 4713 2858 4303 
Q 3250 3894 3250 3338 
Q 3250 2947 3062 2605 
Q 2875 2263 2334 1678 
L 1191 444 
L 3313 444 
L 3313 0 
L 191 0 
L 1947 1897 
Q 2481 2469 2642 2745 
Q 2803 3022 2803 3328 
Q 2803 3716 2514 3995 
Q 2225 4275 1806 4275 
Q 1366 4275 1073 3981 
Q 781 3688 741 3156 
z
" transform="scale(0.015625)"/>
       </defs>
       <use xlink:href="#CenturyGothic-2212"/>
       <use xlink:href="#CenturyGothic-30" x="60.595703"/>
       <use xlink:href="#CenturyGothic-2e" x="116.015625"/>
       <use xlink:href="#CenturyGothic-30" x="143.701172"/>
       <use xlink:href="#CenturyGothic-32" x="199.121094"/>
       <use xlink:href="#CenturyGothic-35" x="254.541016"/>
      </g>
     </g>
    </g>
    <g id="xtick_5">
     <g id="line2d_5">
      <g>
       <use xlink:href="#mda0cc85380" x="230.157442" y="231.905625" style="stroke: #000000; stroke-width: 0.8"/>
      </g>
     </g>
     <g id="text_5">
      <!-- 0.000 -->
      <g transform="translate(220.182442 244.796875) scale(0.08 -0.08)">
       <use xlink:href="#CenturyGothic-30"/>
       <use xlink:href="#CenturyGothic-2e" x="55.419922"/>
       <use xlink:href="#CenturyGothic-30" x="83.105469"/>
       <use xlink:href="#CenturyGothic-30" x="138.525391"/>
       <use xlink:href="#CenturyGothic-30" x="193.945312"/>
      </g>
     </g>
    </g>
    <g id="xtick_6">
     <g id="line2d_6">
      <g>
       <use xlink:href="#mda0cc85380" x="282.797116" y="231.905625" style="stroke: #000000; stroke-width: 0.8"/>
      </g>
     </g>
     <g id="text_6">
      <!-- 0.025 -->
      <g transform="translate(272.822116 244.796875) scale(0.08 -0.08)">
       <use xlink:href="#CenturyGothic-30"/>
       <use xlink:href="#CenturyGothic-2e" x="55.419922"/>
       <use xlink:href="#CenturyGothic-30" x="83.105469"/>
       <use xlink:href="#CenturyGothic-32" x="138.525391"/>
       <use xlink:href="#CenturyGothic-35" x="193.945312"/>
      </g>
     </g>
    </g>
    <g id="xtick_7">
     <g id="line2d_7">
      <g>
       <use xlink:href="#mda0cc85380" x="335.436789" y="231.905625" style="stroke: #000000; stroke-width: 0.8"/>
      </g>
     </g>
     <g id="text_7">
      <!-- 0.050 -->
      <g transform="translate(325.461789 244.796875) scale(0.08 -0.08)">
       <use xlink:href="#CenturyGothic-30"/>
       <use xlink:href="#CenturyGothic-2e" x="55.419922"/>
       <use xlink:href="#CenturyGothic-30" x="83.105469"/>
       <use xlink:href="#CenturyGothic-35" x="138.525391"/>
       <use xlink:href="#CenturyGothic-30" x="193.945312"/>
      </g>
     </g>
    </g>
    <g id="xtick_8">
     <g id="line2d_8">
      <g>
       <use xlink:href="#mda0cc85380" x="388.076462" y="231.905625" style="stroke: #000000; stroke-width: 0.8"/>
      </g>
     </g>
     <g id="text_8">
      <!-- 0.075 -->
      <g transform="translate(378.101462 244.796875) scale(0.08 -0.08)">
       <use xlink:href="#CenturyGothic-30"/>
       <use xlink:href="#CenturyGothic-2e" x="55.419922"/>
       <use xlink:href="#CenturyGothic-30" x="83.105469"/>
       <use xlink:href="#CenturyGothic-37" x="138.525391"/>
       <use xlink:href="#CenturyGothic-35" x="193.945312"/>
      </g>
     </g>
    </g>
    <g id="xtick_9">
     <g id="line2d_9">
      <g>
       <use xlink:href="#mda0cc85380" x="440.716135" y="231.905625" style="stroke: #000000; stroke-width: 0.8"/>
      </g>
     </g>
     <g id="text_9">
      <!-- 0.100 -->
      <g transform="translate(430.741135 244.796875) scale(0.08 -0.08)">
       <use xlink:href="#CenturyGothic-30"/>
       <use xlink:href="#CenturyGothic-2e" x="55.419922"/>
       <use xlink:href="#CenturyGothic-31" x="83.105469"/>
       <use xlink:href="#CenturyGothic-30" x="138.525391"/>
       <use xlink:href="#CenturyGothic-30" x="193.945312"/>
      </g>
     </g>
    </g>
   </g>
   <g id="matplotlib.axis_2">
    <g id="ytick_1">
     <g id="line2d_10">
      <defs>
       <path id="mc06a7e5a43" d="M 0 0 
L 3.5 0 
" style="stroke: #000000; stroke-width: 0.8"/>
      </defs>
      <g>
       <use xlink:href="#mc06a7e5a43" x="465.99875" y="223.038309" style="stroke: #000000; stroke-width: 0.8"/>
      </g>
     </g>
     <g id="text_10">
      <!-- 0.0 -->
      <g transform="translate(472.99875 225.983934) scale(0.08 -0.08)">
       <use xlink:href="#CenturyGothic-30"/>
       <use xlink:href="#CenturyGothic-2e" x="55.419922"/>
       <use xlink:href="#CenturyGothic-30" x="83.105469"/>
      </g>
     </g>
    </g>
    <g id="ytick_2">
     <g id="line2d_11">
      <g>
       <use xlink:href="#mc06a7e5a43" x="465.99875" y="203.684429" style="stroke: #000000; stroke-width: 0.8"/>
      </g>
     </g>
     <g id="text_11">
      <!-- 0.1 -->
      <g transform="translate(472.99875 206.630054) scale(0.08 -0.08)">
       <use xlink:href="#CenturyGothic-30"/>
       <use xlink:href="#CenturyGothic-2e" x="55.419922"/>
       <use xlink:href="#CenturyGothic-31" x="83.105469"/>
      </g>
     </g>
    </g>
    <g id="ytick_3">
     <g id="line2d_12">
      <g>
       <use xlink:href="#mc06a7e5a43" x="465.99875" y="184.330549" style="stroke: #000000; stroke-width: 0.8"/>
      </g>
     </g>
     <g id="text_12">
      <!-- 0.2 -->
      <g transform="translate(472.99875 187.276174) scale(0.08 -0.08)">
       <use xlink:href="#CenturyGothic-30"/>
       <use xlink:href="#CenturyGothic-2e" x="55.419922"/>
       <use xlink:href="#CenturyGothic-32" x="83.105469"/>
      </g>
     </g>
    </g>
    <g id="ytick_4">
     <g id="line2d_13">
      <g>
       <use xlink:href="#mc06a7e5a43" x="465.99875" y="164.976668" style="stroke: #000000; stroke-width: 0.8"/>
      </g>
     </g>
     <g id="text_13">
      <!-- 0.3 -->
      <g transform="translate(472.99875 167.922293) scale(0.08 -0.08)">
       <defs>
        <path id="CenturyGothic-33" d="M 847 3531 
L 378 3531 
Q 506 4100 868 4406 
Q 1231 4713 1725 4713 
Q 2084 4713 2395 4548 
Q 2706 4384 2876 4106 
Q 3047 3828 3047 3525 
Q 3047 2931 2456 2584 
Q 2788 2450 3000 2191 
Q 3300 1825 3300 1372 
Q 3300 981 3094 626 
Q 2888 272 2531 78 
Q 2175 -116 1734 -116 
Q 1141 -116 744 226 
Q 347 569 225 1231 
L 675 1231 
Q 794 784 1016 584 
Q 1300 331 1741 331 
Q 2241 331 2544 631 
Q 2847 931 2847 1334 
Q 2847 1603 2695 1837 
Q 2544 2072 2289 2190 
Q 2034 2309 1500 2338 
L 1500 2759 
Q 1816 2759 2075 2870 
Q 2334 2981 2451 3153 
Q 2569 3325 2569 3528 
Q 2569 3828 2330 4047 
Q 2091 4266 1725 4266 
Q 1428 4266 1212 4098 
Q 997 3931 847 3531 
z
" transform="scale(0.015625)"/>
       </defs>
       <use xlink:href="#CenturyGothic-30"/>
       <use xlink:href="#CenturyGothic-2e" x="55.419922"/>
       <use xlink:href="#CenturyGothic-33" x="83.105469"/>
      </g>
     </g>
    </g>
    <g id="ytick_5">
     <g id="line2d_14">
      <g>
       <use xlink:href="#mc06a7e5a43" x="465.99875" y="145.622788" style="stroke: #000000; stroke-width: 0.8"/>
      </g>
     </g>
     <g id="text_14">
      <!-- 0.4 -->
      <g transform="translate(472.99875 148.568413) scale(0.08 -0.08)">
       <defs>
        <path id="CenturyGothic-34" d="M 2725 4713 
L 2819 4713 
L 2819 1509 
L 3375 1509 
L 3375 1069 
L 2819 1069 
L 2819 0 
L 2359 0 
L 2359 1069 
L 163 1069 
L 2725 4713 
z
M 2359 1509 
L 2359 3425 
L 1006 1509 
L 2359 1509 
z
" transform="scale(0.015625)"/>
       </defs>
       <use xlink:href="#CenturyGothic-30"/>
       <use xlink:href="#CenturyGothic-2e" x="55.419922"/>
       <use xlink:href="#CenturyGothic-34" x="83.105469"/>
      </g>
     </g>
    </g>
    <g id="ytick_6">
     <g id="line2d_15">
      <g>
       <use xlink:href="#mc06a7e5a43" x="465.99875" y="126.268907" style="stroke: #000000; stroke-width: 0.8"/>
      </g>
     </g>
     <g id="text_15">
      <!-- 0.5 -->
      <g transform="translate(472.99875 129.214532) scale(0.08 -0.08)">
       <use xlink:href="#CenturyGothic-30"/>
       <use xlink:href="#CenturyGothic-2e" x="55.419922"/>
       <use xlink:href="#CenturyGothic-35" x="83.105469"/>
      </g>
     </g>
    </g>
    <g id="ytick_7">
     <g id="line2d_16">
      <g>
       <use xlink:href="#mc06a7e5a43" x="465.99875" y="106.915027" style="stroke: #000000; stroke-width: 0.8"/>
      </g>
     </g>
     <g id="text_16">
      <!-- 0.6 -->
      <g transform="translate(472.99875 109.860652) scale(0.08 -0.08)">
       <defs>
        <path id="CenturyGothic-36" d="M 2347 4713 
L 2725 4466 
L 1484 2584 
Q 1734 2669 1953 2669 
Q 2500 2669 2881 2273 
Q 3263 1878 3263 1300 
Q 3263 903 3078 583 
Q 2894 263 2555 73 
Q 2216 -116 1825 -116 
Q 1447 -116 1123 67 
Q 800 250 615 581 
Q 431 913 431 1291 
Q 431 1572 545 1883 
Q 659 2194 953 2631 
L 2347 4713 
z
M 1844 2266 
Q 1444 2266 1161 1983 
Q 878 1700 878 1297 
Q 878 897 1161 614 
Q 1444 331 1844 331 
Q 2244 331 2526 614 
Q 2809 897 2809 1297 
Q 2809 1700 2526 1983 
Q 2244 2266 1844 2266 
z
" transform="scale(0.015625)"/>
       </defs>
       <use xlink:href="#CenturyGothic-30"/>
       <use xlink:href="#CenturyGothic-2e" x="55.419922"/>
       <use xlink:href="#CenturyGothic-36" x="83.105469"/>
      </g>
     </g>
    </g>
    <g id="ytick_8">
     <g id="line2d_17">
      <g>
       <use xlink:href="#mc06a7e5a43" x="465.99875" y="87.561147" style="stroke: #000000; stroke-width: 0.8"/>
      </g>
     </g>
     <g id="text_17">
      <!-- 0.7 -->
      <g transform="translate(472.99875 90.506772) scale(0.08 -0.08)">
       <use xlink:href="#CenturyGothic-30"/>
       <use xlink:href="#CenturyGothic-2e" x="55.419922"/>
       <use xlink:href="#CenturyGothic-37" x="83.105469"/>
      </g>
     </g>
    </g>
    <g id="ytick_9">
     <g id="line2d_18">
      <g>
       <use xlink:href="#mc06a7e5a43" x="465.99875" y="68.207266" style="stroke: #000000; stroke-width: 0.8"/>
      </g>
     </g>
     <g id="text_18">
      <!-- 0.8 -->
      <g transform="translate(472.99875 71.152891) scale(0.08 -0.08)">
       <defs>
        <path id="CenturyGothic-38" d="M 2459 2522 
Q 2925 2291 3126 1994 
Q 3328 1697 3328 1319 
Q 3328 788 2981 381 
Q 2556 -116 1766 -116 
Q 1003 -116 609 320 
Q 216 756 216 1281 
Q 216 1666 422 1973 
Q 628 2281 1109 2522 
Q 772 2697 603 2956 
Q 434 3216 434 3513 
Q 434 3813 614 4098 
Q 794 4384 1111 4548 
Q 1428 4713 1797 4713 
Q 2156 4713 2462 4547 
Q 2769 4381 2942 4097 
Q 3116 3813 3116 3500 
Q 3116 3188 2952 2944 
Q 2788 2700 2459 2522 
z
M 1775 4266 
Q 1397 4266 1148 4042 
Q 900 3819 900 3509 
Q 900 3203 1167 2954 
Q 1434 2706 1791 2706 
Q 2019 2706 2222 2818 
Q 2425 2931 2539 3126 
Q 2653 3322 2653 3519 
Q 2653 3797 2428 4031 
Q 2203 4266 1775 4266 
z
M 1797 2291 
Q 1322 2291 1000 1983 
Q 678 1675 678 1266 
Q 678 1013 815 788 
Q 953 563 1200 441 
Q 1447 319 1772 319 
Q 2275 319 2572 616 
Q 2869 913 2869 1309 
Q 2869 1694 2555 1992 
Q 2241 2291 1797 2291 
z
" transform="scale(0.015625)"/>
       </defs>
       <use xlink:href="#CenturyGothic-30"/>
       <use xlink:href="#CenturyGothic-2e" x="55.419922"/>
       <use xlink:href="#CenturyGothic-38" x="83.105469"/>
      </g>
     </g>
    </g>
    <g id="ytick_10">
     <g id="line2d_19">
      <g>
       <use xlink:href="#mc06a7e5a43" x="465.99875" y="48.853386" style="stroke: #000000; stroke-width: 0.8"/>
      </g>
     </g>
     <g id="text_19">
      <!-- 0.9 -->
      <g transform="translate(472.99875 51.799011) scale(0.08 -0.08)">
       <defs>
        <path id="CenturyGothic-39" d="M 1228 -116 
L 850 128 
L 2091 2009 
Q 1841 1928 1622 1928 
Q 1075 1928 694 2323 
Q 313 2719 313 3297 
Q 313 3694 497 4012 
Q 681 4331 1020 4522 
Q 1359 4713 1747 4713 
Q 2128 4713 2451 4528 
Q 2775 4344 2959 4012 
Q 3144 3681 3144 3306 
Q 3144 3022 3030 2711 
Q 2916 2400 2622 1963 
L 1228 -116 
z
M 1728 2331 
Q 2131 2331 2414 2614 
Q 2697 2897 2697 3297 
Q 2697 3697 2414 3980 
Q 2131 4263 1728 4263 
Q 1328 4263 1045 3980 
Q 763 3697 763 3297 
Q 763 2897 1045 2614 
Q 1328 2331 1728 2331 
z
" transform="scale(0.015625)"/>
       </defs>
       <use xlink:href="#CenturyGothic-30"/>
       <use xlink:href="#CenturyGothic-2e" x="55.419922"/>
       <use xlink:href="#CenturyGothic-39" x="83.105469"/>
      </g>
     </g>
    </g>
    <g id="ytick_11">
     <g id="line2d_20">
      <g>
       <use xlink:href="#mc06a7e5a43" x="465.99875" y="29.499505" style="stroke: #000000; stroke-width: 0.8"/>
      </g>
     </g>
     <g id="text_20">
      <!-- 1.0 -->
      <g transform="translate(472.99875 32.44513) scale(0.08 -0.08)">
       <use xlink:href="#CenturyGothic-31"/>
       <use xlink:href="#CenturyGothic-2e" x="55.419922"/>
       <use xlink:href="#CenturyGothic-30" x="83.105469"/>
      </g>
     </g>
    </g>
    <g id="ytick_12">
     <g id="line2d_21">
      <g>
       <use xlink:href="#mc06a7e5a43" x="465.99875" y="10.145625" style="stroke: #000000; stroke-width: 0.8"/>
      </g>
     </g>
     <g id="text_21">
      <!-- 1.1 -->
      <g transform="translate(472.99875 13.09125) scale(0.08 -0.08)">
       <use xlink:href="#CenturyGothic-31"/>
       <use xlink:href="#CenturyGothic-2e" x="55.419922"/>
       <use xlink:href="#CenturyGothic-31" x="83.105469"/>
      </g>
     </g>
    </g>
   </g>
   <g id="line2d_22">
    <path d="M 167.055524 222.267238 
L 168.05759 221.496167 
L 181.415145 220.725096 
L 185.621916 219.954026 
L 190.962473 219.182955 
L 191.452881 218.411884 
L 196.245529 216.869742 
L 197.035471 216.098671 
L 199.519664 215.3276 
L 200.831854 214.556529 
L 201.324441 213.785458 
L 201.365077 213.014387 
L 202.356278 212.243316 
L 204.186534 211.472245 
L 204.84557 210.701174 
L 206.87863 209.930103 
L 207.623426 209.159033 
L 208.695102 208.387962 
L 209.973197 207.616891 
L 210.80441 205.303678 
L 211.348629 204.532607 
L 211.706167 203.761536 
L 211.715615 202.990465 
L 213.278403 202.219394 
L 213.699391 201.448323 
L 214.135169 199.906181 
L 214.616518 199.13511 
L 214.645424 198.364039 
L 215.122934 196.821898 
L 216.411047 196.050827 
L 216.507152 195.279756 
L 217.220239 194.508685 
L 217.51274 192.966543 
L 217.576571 191.424401 
L 220.521355 186.026905 
L 221.135444 185.255834 
L 222.02154 183.713692 
L 222.184117 182.17155 
L 222.300824 181.400479 
L 222.923746 180.629408 
L 222.938635 179.858337 
L 223.448249 178.316195 
L 223.517004 177.545124 
L 223.703456 176.774053 
L 223.802618 175.231912 
L 224.066648 172.918699 
L 224.262175 170.605486 
L 224.45962 169.834415 
L 224.838821 169.063344 
L 225.507904 168.292273 
L 225.774233 167.521202 
L 225.978745 164.436918 
L 226.238572 161.352635 
L 226.319422 160.581564 
L 226.617116 159.810493 
L 226.876692 156.726209 
L 227.204857 155.184067 
L 227.518757 154.412996 
L 227.809143 152.099784 
L 228.159346 151.328713 
L 228.335901 150.557642 
L 228.744459 149.786571 
L 228.892705 148.244429 
L 229.157519 147.473358 
L 229.303361 146.702287 
L 229.368506 145.160145 
L 229.736642 142.846932 
L 229.797049 142.075861 
L 230.074607 141.304791 
L 230.248062 138.220507 
L 230.605921 136.678365 
L 230.714388 134.365152 
L 231.108015 132.82301 
L 231.717878 131.280868 
L 231.86996 128.967656 
L 232.067804 128.196585 
L 232.197869 126.654443 
L 233.201046 119.714804 
L 233.516281 117.401592 
L 233.630356 115.85945 
L 233.750148 115.088379 
L 234.347178 113.546237 
L 234.675573 112.775166 
L 234.777734 112.004095 
L 235.022247 111.233024 
L 235.094144 110.461953 
L 235.312873 109.690882 
L 235.425248 108.14874 
L 235.591733 105.835528 
L 235.791128 104.293386 
L 235.86447 103.522315 
L 236.072604 102.751244 
L 236.108214 101.980173 
L 236.51723 100.438031 
L 236.849958 99.66696 
L 236.972383 98.895889 
L 238.067802 97.353747 
L 238.774722 91.18518 
L 239.077851 90.414109 
L 239.084458 89.643038 
L 239.994026 88.100896 
L 240.009628 87.329825 
L 240.343776 86.558754 
L 240.863085 85.787683 
L 240.982539 84.245542 
L 241.16765 83.474471 
L 241.402213 81.932329 
L 242.052282 78.076974 
L 242.248566 75.763761 
L 242.41465 74.99269 
L 242.899106 74.221619 
L 242.90014 73.450549 
L 243.460633 71.908407 
L 243.610836 71.137336 
L 244.898597 70.366265 
L 245.135292 69.595194 
L 245.804522 68.053052 
L 245.939497 66.51091 
L 246.386491 64.197697 
L 247.018598 63.426626 
L 247.06092 62.655555 
L 247.35129 61.884485 
L 247.510515 61.113414 
L 248.062679 60.342343 
L 248.541794 58.800201 
L 249.045125 56.486988 
L 249.378136 55.715917 
L 250.328383 54.944846 
L 250.559227 54.173775 
L 250.628558 53.402704 
L 251.409262 52.631633 
L 251.651345 51.860562 
L 251.653663 51.089491 
L 251.853638 50.318421 
L 251.95899 48.776279 
L 252.613634 48.005208 
L 252.654506 47.234137 
L 253.509435 44.149853 
L 253.527808 43.378782 
L 253.743748 42.607711 
L 254.336782 41.83664 
L 254.826458 40.294498 
L 255.350021 38.752357 
L 255.983888 37.981286 
L 256.084541 37.210215 
L 256.463972 36.439144 
L 256.596815 35.668073 
L 263.411869 34.125931 
L 264.1273 33.35486 
L 265.631472 32.583789 
L 265.903542 31.812718 
L 274.633518 31.041647 
L 278.67564 30.270576 
L 283.420116 29.499505 
L 283.420116 29.499505 
" clip-path="url(#pd0311600af)" style="fill: none; stroke: #444444; stroke-width: 2; stroke-linecap: square"/>
   </g>
   <g id="line2d_23">
    <path d="M 83.197773 222.267238 
L 98.877296 221.496167 
L 118.183798 220.725096 
L 147.890573 219.954026 
L 155.294441 219.182955 
L 170.787333 218.411884 
L 171.240445 217.640813 
L 175.733234 216.869742 
L 178.967484 216.098671 
L 183.89346 215.3276 
L 184.891298 214.556529 
L 189.810905 213.785458 
L 190.364444 213.014387 
L 192.442234 211.472245 
L 192.539419 210.701174 
L 194.770081 209.930103 
L 195.424785 209.159033 
L 198.201299 208.387962 
L 199.365775 207.616891 
L 204.169836 206.84582 
L 205.452375 206.074749 
L 205.637926 205.303678 
L 206.590664 204.532607 
L 208.460721 203.761536 
L 208.513906 202.990465 
L 209.034327 202.219394 
L 210.564919 201.448323 
L 211.234146 200.677252 
L 212.132514 199.906181 
L 212.502003 199.13511 
L 213.956144 197.592969 
L 214.47038 196.050827 
L 215.012891 195.279756 
L 215.474195 193.737614 
L 215.503535 192.966543 
L 216.454268 192.195472 
L 216.79854 190.65333 
L 217.961848 189.882259 
L 218.27729 186.026905 
L 218.508333 185.255834 
L 218.932494 184.484763 
L 218.959487 183.713692 
L 219.167921 182.942621 
L 219.859846 182.17155 
L 220.054846 181.400479 
L 220.061945 180.629408 
L 220.440219 179.858337 
L 220.868423 177.545124 
L 220.883915 176.774053 
L 221.311199 176.002982 
L 221.911827 175.231912 
L 222.320218 174.460841 
L 222.708273 172.918699 
L 222.941322 171.376557 
L 223.258032 169.063344 
L 223.431094 168.292273 
L 223.749237 167.521202 
L 223.769714 166.750131 
L 224.088392 165.207989 
L 224.251533 163.665848 
L 224.806223 158.268351 
L 225.123539 157.49728 
L 225.40306 155.955138 
L 225.509727 154.412996 
L 225.610669 152.870854 
L 226.205537 152.099784 
L 226.511935 151.328713 
L 226.710754 147.473358 
L 227.068347 146.702287 
L 227.458189 144.389074 
L 227.537672 142.846932 
L 228.03893 140.53372 
L 228.469324 138.220507 
L 228.753906 134.365152 
L 228.781894 132.82301 
L 228.980265 132.051939 
L 229.705921 125.112301 
L 230.358019 124.34123 
L 230.462254 122.799088 
L 230.646985 120.485875 
L 230.849839 119.714804 
L 231.005588 118.172663 
L 231.158416 116.630521 
L 231.36281 114.317308 
L 231.924027 113.546237 
L 232.552917 103.522315 
L 233.193375 102.751244 
L 233.900261 101.209102 
L 233.904701 100.438031 
L 234.072946 99.66696 
L 234.22359 97.353747 
L 234.3709 95.811606 
L 234.65543 95.040535 
L 234.824808 93.498393 
L 235.138583 92.727322 
L 235.19633 91.956251 
L 235.498795 91.18518 
L 235.565008 90.414109 
L 235.82523 89.643038 
L 236.266805 88.871967 
L 236.330445 88.100896 
L 236.838807 87.329825 
L 237.035805 85.787683 
L 237.379332 85.016612 
L 237.544297 83.474471 
L 237.821828 82.7034 
L 238.009626 81.161258 
L 238.284226 78.848045 
L 238.330208 78.076974 
L 238.555517 77.305903 
L 238.888538 73.450549 
L 239.06987 71.908407 
L 239.130683 69.595194 
L 239.883796 68.053052 
L 239.913851 67.281981 
L 240.157751 66.51091 
L 240.469085 64.197697 
L 240.868653 63.426626 
L 241.100083 62.655555 
L 241.452906 61.884485 
L 241.565487 60.342343 
L 241.593147 59.571272 
L 241.983307 58.800201 
L 242.012519 58.02913 
L 242.413139 57.258059 
L 243.548521 53.402704 
L 244.154391 52.631633 
L 244.618894 51.860562 
L 245.716915 51.089491 
L 245.782381 50.318421 
L 246.347849 49.54735 
L 247.250195 48.005208 
L 247.468447 46.463066 
L 248.652683 45.691995 
L 250.374083 44.920924 
L 250.96991 42.607711 
L 251.528648 41.83664 
L 253.770672 41.065569 
L 259.536559 40.294498 
L 260.497422 39.523428 
L 261.638864 38.752357 
L 264.142285 37.981286 
L 269.734119 37.210215 
L 270.547537 36.439144 
L 280.500624 35.668073 
L 282.27243 34.897002 
L 284.424017 34.125931 
L 288.303833 33.35486 
L 297.258468 32.583789 
L 320.66019 31.812718 
L 322.879707 31.041647 
L 370.667047 30.270576 
L 447.770132 29.499505 
L 447.770132 29.499505 
" clip-path="url(#pd0311600af)" style="fill: none; stroke-dasharray: 7.4,3.2; stroke-dashoffset: 0; stroke: #1f77b4; stroke-width: 2"/>
   </g>
   <g id="patch_3">
    <path d="M 465.99875 231.905625 
L 465.99875 10.145625 
" style="fill: none; stroke: #000000; stroke-width: 0.8; stroke-linejoin: miter; stroke-linecap: square"/>
   </g>
   <g id="patch_4">
    <path d="M 19.59875 231.905625 
L 465.99875 231.905625 
" style="fill: none; stroke: #000000; stroke-width: 0.8; stroke-linejoin: miter; stroke-linecap: square"/>
   </g>
  </g>
 </g>
 <defs>
  <clipPath id="pd0311600af">
   <rect x="19.59875" y="10.145625" width="446.4" height="221.76"/>
  </clipPath>
 </defs>
</svg>
