<?xml version="1.0" encoding="utf-8" standalone="no"?>
<!DOCTYPE svg PUBLIC "-//W3C//DTD SVG 1.1//EN"
  "http://www.w3.org/Graphics/SVG/1.1/DTD/svg11.dtd">
<svg xmlns:xlink="http://www.w3.org/1999/xlink" width="489.064375pt" height="253.551875pt" viewBox="0 0 489.064375 253.551875" xmlns="http://www.w3.org/2000/svg" version="1.1">
 <metadata>
  <rdf:RDF xmlns:dc="http://purl.org/dc/elements/1.1/" xmlns:cc="http://creativecommons.org/ns#" xmlns:rdf="http://www.w3.org/1999/02/22-rdf-syntax-ns#">
   <cc:Work>
    <dc:type rdf:resource="http://purl.org/dc/dcmitype/StillImage"/>
    <dc:date>2025-05-26T11:57:20.366745</dc:date>
    <dc:format>image/svg+xml</dc:format>
    <dc:creator>
     <cc:Agent>
      <dc:title>Matplotlib v3.9.2, https://matplotlib.org/</dc:title>
     </cc:Agent>
    </dc:creator>
   </cc:Work>
  </rdf:RDF>
 </metadata>
 <defs>
  <style type="text/css">*{stroke-linejoin: round; stroke-linecap: butt}</style>
 </defs>
 <g id="figure_1">
  <g id="patch_1">
   <path d="M 0 253.551875 
L 489.064375 253.551875 
L 489.064375 0 
L 0 0 
z
" style="fill: #ffffff"/>
  </g>
  <g id="axes_1">
   <g id="patch_2">
    <path d="M 17.381875 231.905625 
L 463.781875 231.905625 
L 463.781875 10.145625 
L 17.381875 10.145625 
z
" style="fill: #ffffff"/>
   </g>
   <g id="matplotlib.axis_1">
    <g id="xtick_1">
     <g id="line2d_1">
      <defs>
       <path id="m62916167a0" d="M 0 0 
L 0 3.5 
" style="stroke: #000000; stroke-width: 0.8"/>
      </defs>
      <g>
       <use xlink:href="#m62916167a0" x="17.381875" y="231.905625" style="stroke: #000000; stroke-width: 0.8"/>
      </g>
     </g>
     <g id="text_1">
      <!-- −0.06 -->
      <g transform="translate(7.2 244.796875) scale(0.08 -0.08)">
       <defs>
        <path id="CenturyGothic-2212" d="M 359 2513 
L 3522 2513 
L 3522 2084 
L 359 2084 
L 359 2513 
z
" transform="scale(0.015625)"/>
        <path id="CenturyGothic-30" d="M 203 2297 
Q 203 3206 398 3703 
Q 594 4200 950 4456 
Q 1306 4713 1747 4713 
Q 2194 4713 2556 4455 
Q 2919 4197 3130 3681 
Q 3341 3166 3341 2297 
Q 3341 1431 3133 918 
Q 2925 406 2559 145 
Q 2194 -116 1747 -116 
Q 1306 -116 953 137 
Q 600 391 401 892 
Q 203 1394 203 2297 
z
M 638 2288 
Q 638 1509 777 1111 
Q 916 713 1187 506 
Q 1459 300 1763 300 
Q 2069 300 2334 501 
Q 2600 703 2738 1106 
Q 2909 1597 2909 2288 
Q 2909 2981 2756 3423 
Q 2603 3866 2333 4070 
Q 2063 4275 1763 4275 
Q 1456 4275 1187 4070 
Q 919 3866 778 3467 
Q 638 3069 638 2288 
z
" transform="scale(0.015625)"/>
        <path id="CenturyGothic-2e" d="M 969 688 
Q 1128 688 1240 575 
Q 1353 463 1353 300 
Q 1353 141 1240 26 
Q 1128 -88 969 -88 
Q 809 -88 696 26 
Q 584 141 584 300 
Q 584 463 696 575 
Q 809 688 969 688 
z
" transform="scale(0.015625)"/>
        <path id="CenturyGothic-36" d="M 2347 4713 
L 2725 4466 
L 1484 2584 
Q 1734 2669 1953 2669 
Q 2500 2669 2881 2273 
Q 3263 1878 3263 1300 
Q 3263 903 3078 583 
Q 2894 263 2555 73 
Q 2216 -116 1825 -116 
Q 1447 -116 1123 67 
Q 800 250 615 581 
Q 431 913 431 1291 
Q 431 1572 545 1883 
Q 659 2194 953 2631 
L 2347 4713 
z
M 1844 2266 
Q 1444 2266 1161 1983 
Q 878 1700 878 1297 
Q 878 897 1161 614 
Q 1444 331 1844 331 
Q 2244 331 2526 614 
Q 2809 897 2809 1297 
Q 2809 1700 2526 1983 
Q 2244 2266 1844 2266 
z
" transform="scale(0.015625)"/>
       </defs>
       <use xlink:href="#CenturyGothic-2212"/>
       <use xlink:href="#CenturyGothic-30" x="60.595703"/>
       <use xlink:href="#CenturyGothic-2e" x="116.015625"/>
       <use xlink:href="#CenturyGothic-30" x="143.701172"/>
       <use xlink:href="#CenturyGothic-36" x="199.121094"/>
      </g>
     </g>
    </g>
    <g id="xtick_2">
     <g id="line2d_2">
      <g>
       <use xlink:href="#m62916167a0" x="98.545511" y="231.905625" style="stroke: #000000; stroke-width: 0.8"/>
      </g>
     </g>
     <g id="text_2">
      <!-- −0.04 -->
      <g transform="translate(88.363636 244.796875) scale(0.08 -0.08)">
       <defs>
        <path id="CenturyGothic-34" d="M 2725 4713 
L 2819 4713 
L 2819 1509 
L 3375 1509 
L 3375 1069 
L 2819 1069 
L 2819 0 
L 2359 0 
L 2359 1069 
L 163 1069 
L 2725 4713 
z
M 2359 1509 
L 2359 3425 
L 1006 1509 
L 2359 1509 
z
" transform="scale(0.015625)"/>
       </defs>
       <use xlink:href="#CenturyGothic-2212"/>
       <use xlink:href="#CenturyGothic-30" x="60.595703"/>
       <use xlink:href="#CenturyGothic-2e" x="116.015625"/>
       <use xlink:href="#CenturyGothic-30" x="143.701172"/>
       <use xlink:href="#CenturyGothic-34" x="199.121094"/>
      </g>
     </g>
    </g>
    <g id="xtick_3">
     <g id="line2d_3">
      <g>
       <use xlink:href="#m62916167a0" x="179.709148" y="231.905625" style="stroke: #000000; stroke-width: 0.8"/>
      </g>
     </g>
     <g id="text_3">
      <!-- −0.02 -->
      <g transform="translate(169.527273 244.796875) scale(0.08 -0.08)">
       <defs>
        <path id="CenturyGothic-32" d="M 741 3156 
L 300 3156 
Q 319 3838 755 4275 
Q 1191 4713 1831 4713 
Q 2466 4713 2858 4303 
Q 3250 3894 3250 3338 
Q 3250 2947 3062 2605 
Q 2875 2263 2334 1678 
L 1191 444 
L 3313 444 
L 3313 0 
L 191 0 
L 1947 1897 
Q 2481 2469 2642 2745 
Q 2803 3022 2803 3328 
Q 2803 3716 2514 3995 
Q 2225 4275 1806 4275 
Q 1366 4275 1073 3981 
Q 781 3688 741 3156 
z
" transform="scale(0.015625)"/>
       </defs>
       <use xlink:href="#CenturyGothic-2212"/>
       <use xlink:href="#CenturyGothic-30" x="60.595703"/>
       <use xlink:href="#CenturyGothic-2e" x="116.015625"/>
       <use xlink:href="#CenturyGothic-30" x="143.701172"/>
       <use xlink:href="#CenturyGothic-32" x="199.121094"/>
      </g>
     </g>
    </g>
    <g id="xtick_4">
     <g id="line2d_4">
      <g>
       <use xlink:href="#m62916167a0" x="260.872784" y="231.905625" style="stroke: #000000; stroke-width: 0.8"/>
      </g>
     </g>
     <g id="text_4">
      <!-- 0.00 -->
      <g transform="translate(253.114659 244.796875) scale(0.08 -0.08)">
       <use xlink:href="#CenturyGothic-30"/>
       <use xlink:href="#CenturyGothic-2e" x="55.419922"/>
       <use xlink:href="#CenturyGothic-30" x="83.105469"/>
       <use xlink:href="#CenturyGothic-30" x="138.525391"/>
      </g>
     </g>
    </g>
    <g id="xtick_5">
     <g id="line2d_5">
      <g>
       <use xlink:href="#m62916167a0" x="342.03642" y="231.905625" style="stroke: #000000; stroke-width: 0.8"/>
      </g>
     </g>
     <g id="text_5">
      <!-- 0.02 -->
      <g transform="translate(334.278295 244.796875) scale(0.08 -0.08)">
       <use xlink:href="#CenturyGothic-30"/>
       <use xlink:href="#CenturyGothic-2e" x="55.419922"/>
       <use xlink:href="#CenturyGothic-30" x="83.105469"/>
       <use xlink:href="#CenturyGothic-32" x="138.525391"/>
      </g>
     </g>
    </g>
    <g id="xtick_6">
     <g id="line2d_6">
      <g>
       <use xlink:href="#m62916167a0" x="423.200057" y="231.905625" style="stroke: #000000; stroke-width: 0.8"/>
      </g>
     </g>
     <g id="text_6">
      <!-- 0.04 -->
      <g transform="translate(415.441932 244.796875) scale(0.08 -0.08)">
       <use xlink:href="#CenturyGothic-30"/>
       <use xlink:href="#CenturyGothic-2e" x="55.419922"/>
       <use xlink:href="#CenturyGothic-30" x="83.105469"/>
       <use xlink:href="#CenturyGothic-34" x="138.525391"/>
      </g>
     </g>
    </g>
   </g>
   <g id="matplotlib.axis_2">
    <g id="ytick_1">
     <g id="line2d_7">
      <defs>
       <path id="m559a2ccda4" d="M 0 0 
L 3.5 0 
" style="stroke: #000000; stroke-width: 0.8"/>
      </defs>
      <g>
       <use xlink:href="#m559a2ccda4" x="463.781875" y="223.038309" style="stroke: #000000; stroke-width: 0.8"/>
      </g>
     </g>
     <g id="text_7">
      <!-- 0.0 -->
      <g transform="translate(470.781875 225.983934) scale(0.08 -0.08)">
       <use xlink:href="#CenturyGothic-30"/>
       <use xlink:href="#CenturyGothic-2e" x="55.419922"/>
       <use xlink:href="#CenturyGothic-30" x="83.105469"/>
      </g>
     </g>
    </g>
    <g id="ytick_2">
     <g id="line2d_8">
      <g>
       <use xlink:href="#m559a2ccda4" x="463.781875" y="203.684429" style="stroke: #000000; stroke-width: 0.8"/>
      </g>
     </g>
     <g id="text_8">
      <!-- 0.1 -->
      <g transform="translate(470.781875 206.630054) scale(0.08 -0.08)">
       <defs>
        <path id="CenturyGothic-31" d="M 1184 4597 
L 2088 4597 
L 2088 0 
L 1631 0 
L 1631 4147 
L 909 4147 
L 1184 4597 
z
" transform="scale(0.015625)"/>
       </defs>
       <use xlink:href="#CenturyGothic-30"/>
       <use xlink:href="#CenturyGothic-2e" x="55.419922"/>
       <use xlink:href="#CenturyGothic-31" x="83.105469"/>
      </g>
     </g>
    </g>
    <g id="ytick_3">
     <g id="line2d_9">
      <g>
       <use xlink:href="#m559a2ccda4" x="463.781875" y="184.330549" style="stroke: #000000; stroke-width: 0.8"/>
      </g>
     </g>
     <g id="text_9">
      <!-- 0.2 -->
      <g transform="translate(470.781875 187.276174) scale(0.08 -0.08)">
       <use xlink:href="#CenturyGothic-30"/>
       <use xlink:href="#CenturyGothic-2e" x="55.419922"/>
       <use xlink:href="#CenturyGothic-32" x="83.105469"/>
      </g>
     </g>
    </g>
    <g id="ytick_4">
     <g id="line2d_10">
      <g>
       <use xlink:href="#m559a2ccda4" x="463.781875" y="164.976668" style="stroke: #000000; stroke-width: 0.8"/>
      </g>
     </g>
     <g id="text_10">
      <!-- 0.3 -->
      <g transform="translate(470.781875 167.922293) scale(0.08 -0.08)">
       <defs>
        <path id="CenturyGothic-33" d="M 847 3531 
L 378 3531 
Q 506 4100 868 4406 
Q 1231 4713 1725 4713 
Q 2084 4713 2395 4548 
Q 2706 4384 2876 4106 
Q 3047 3828 3047 3525 
Q 3047 2931 2456 2584 
Q 2788 2450 3000 2191 
Q 3300 1825 3300 1372 
Q 3300 981 3094 626 
Q 2888 272 2531 78 
Q 2175 -116 1734 -116 
Q 1141 -116 744 226 
Q 347 569 225 1231 
L 675 1231 
Q 794 784 1016 584 
Q 1300 331 1741 331 
Q 2241 331 2544 631 
Q 2847 931 2847 1334 
Q 2847 1603 2695 1837 
Q 2544 2072 2289 2190 
Q 2034 2309 1500 2338 
L 1500 2759 
Q 1816 2759 2075 2870 
Q 2334 2981 2451 3153 
Q 2569 3325 2569 3528 
Q 2569 3828 2330 4047 
Q 2091 4266 1725 4266 
Q 1428 4266 1212 4098 
Q 997 3931 847 3531 
z
" transform="scale(0.015625)"/>
       </defs>
       <use xlink:href="#CenturyGothic-30"/>
       <use xlink:href="#CenturyGothic-2e" x="55.419922"/>
       <use xlink:href="#CenturyGothic-33" x="83.105469"/>
      </g>
     </g>
    </g>
    <g id="ytick_5">
     <g id="line2d_11">
      <g>
       <use xlink:href="#m559a2ccda4" x="463.781875" y="145.622788" style="stroke: #000000; stroke-width: 0.8"/>
      </g>
     </g>
     <g id="text_11">
      <!-- 0.4 -->
      <g transform="translate(470.781875 148.568413) scale(0.08 -0.08)">
       <use xlink:href="#CenturyGothic-30"/>
       <use xlink:href="#CenturyGothic-2e" x="55.419922"/>
       <use xlink:href="#CenturyGothic-34" x="83.105469"/>
      </g>
     </g>
    </g>
    <g id="ytick_6">
     <g id="line2d_12">
      <g>
       <use xlink:href="#m559a2ccda4" x="463.781875" y="126.268907" style="stroke: #000000; stroke-width: 0.8"/>
      </g>
     </g>
     <g id="text_12">
      <!-- 0.5 -->
      <g transform="translate(470.781875 129.214532) scale(0.08 -0.08)">
       <defs>
        <path id="CenturyGothic-35" d="M 3147 4597 
L 3147 4159 
L 1509 4159 
L 1281 2906 
Q 1581 2994 1822 2994 
Q 2450 2994 2858 2573 
Q 3266 2153 3266 1497 
Q 3266 1044 3056 666 
Q 2847 288 2489 86 
Q 2131 -116 1663 -116 
Q 1103 -116 718 226 
Q 334 569 259 1113 
L 731 1113 
Q 784 847 911 681 
Q 1038 516 1248 414 
Q 1459 313 1691 313 
Q 2144 313 2469 656 
Q 2794 1000 2794 1516 
Q 2794 1981 2500 2272 
Q 2206 2563 1716 2563 
Q 1309 2563 731 2316 
L 1156 4597 
L 3147 4597 
z
" transform="scale(0.015625)"/>
       </defs>
       <use xlink:href="#CenturyGothic-30"/>
       <use xlink:href="#CenturyGothic-2e" x="55.419922"/>
       <use xlink:href="#CenturyGothic-35" x="83.105469"/>
      </g>
     </g>
    </g>
    <g id="ytick_7">
     <g id="line2d_13">
      <g>
       <use xlink:href="#m559a2ccda4" x="463.781875" y="106.915027" style="stroke: #000000; stroke-width: 0.8"/>
      </g>
     </g>
     <g id="text_13">
      <!-- 0.6 -->
      <g transform="translate(470.781875 109.860652) scale(0.08 -0.08)">
       <use xlink:href="#CenturyGothic-30"/>
       <use xlink:href="#CenturyGothic-2e" x="55.419922"/>
       <use xlink:href="#CenturyGothic-36" x="83.105469"/>
      </g>
     </g>
    </g>
    <g id="ytick_8">
     <g id="line2d_14">
      <g>
       <use xlink:href="#m559a2ccda4" x="463.781875" y="87.561147" style="stroke: #000000; stroke-width: 0.8"/>
      </g>
     </g>
     <g id="text_14">
      <!-- 0.7 -->
      <g transform="translate(470.781875 90.506772) scale(0.08 -0.08)">
       <defs>
        <path id="CenturyGothic-37" d="M 459 4597 
L 3375 4597 
L 916 -116 
L 538 78 
L 2663 4163 
L 459 4163 
L 459 4597 
z
" transform="scale(0.015625)"/>
       </defs>
       <use xlink:href="#CenturyGothic-30"/>
       <use xlink:href="#CenturyGothic-2e" x="55.419922"/>
       <use xlink:href="#CenturyGothic-37" x="83.105469"/>
      </g>
     </g>
    </g>
    <g id="ytick_9">
     <g id="line2d_15">
      <g>
       <use xlink:href="#m559a2ccda4" x="463.781875" y="68.207266" style="stroke: #000000; stroke-width: 0.8"/>
      </g>
     </g>
     <g id="text_15">
      <!-- 0.8 -->
      <g transform="translate(470.781875 71.152891) scale(0.08 -0.08)">
       <defs>
        <path id="CenturyGothic-38" d="M 2459 2522 
Q 2925 2291 3126 1994 
Q 3328 1697 3328 1319 
Q 3328 788 2981 381 
Q 2556 -116 1766 -116 
Q 1003 -116 609 320 
Q 216 756 216 1281 
Q 216 1666 422 1973 
Q 628 2281 1109 2522 
Q 772 2697 603 2956 
Q 434 3216 434 3513 
Q 434 3813 614 4098 
Q 794 4384 1111 4548 
Q 1428 4713 1797 4713 
Q 2156 4713 2462 4547 
Q 2769 4381 2942 4097 
Q 3116 3813 3116 3500 
Q 3116 3188 2952 2944 
Q 2788 2700 2459 2522 
z
M 1775 4266 
Q 1397 4266 1148 4042 
Q 900 3819 900 3509 
Q 900 3203 1167 2954 
Q 1434 2706 1791 2706 
Q 2019 2706 2222 2818 
Q 2425 2931 2539 3126 
Q 2653 3322 2653 3519 
Q 2653 3797 2428 4031 
Q 2203 4266 1775 4266 
z
M 1797 2291 
Q 1322 2291 1000 1983 
Q 678 1675 678 1266 
Q 678 1013 815 788 
Q 953 563 1200 441 
Q 1447 319 1772 319 
Q 2275 319 2572 616 
Q 2869 913 2869 1309 
Q 2869 1694 2555 1992 
Q 2241 2291 1797 2291 
z
" transform="scale(0.015625)"/>
       </defs>
       <use xlink:href="#CenturyGothic-30"/>
       <use xlink:href="#CenturyGothic-2e" x="55.419922"/>
       <use xlink:href="#CenturyGothic-38" x="83.105469"/>
      </g>
     </g>
    </g>
    <g id="ytick_10">
     <g id="line2d_16">
      <g>
       <use xlink:href="#m559a2ccda4" x="463.781875" y="48.853386" style="stroke: #000000; stroke-width: 0.8"/>
      </g>
     </g>
     <g id="text_16">
      <!-- 0.9 -->
      <g transform="translate(470.781875 51.799011) scale(0.08 -0.08)">
       <defs>
        <path id="CenturyGothic-39" d="M 1228 -116 
L 850 128 
L 2091 2009 
Q 1841 1928 1622 1928 
Q 1075 1928 694 2323 
Q 313 2719 313 3297 
Q 313 3694 497 4012 
Q 681 4331 1020 4522 
Q 1359 4713 1747 4713 
Q 2128 4713 2451 4528 
Q 2775 4344 2959 4012 
Q 3144 3681 3144 3306 
Q 3144 3022 3030 2711 
Q 2916 2400 2622 1963 
L 1228 -116 
z
M 1728 2331 
Q 2131 2331 2414 2614 
Q 2697 2897 2697 3297 
Q 2697 3697 2414 3980 
Q 2131 4263 1728 4263 
Q 1328 4263 1045 3980 
Q 763 3697 763 3297 
Q 763 2897 1045 2614 
Q 1328 2331 1728 2331 
z
" transform="scale(0.015625)"/>
       </defs>
       <use xlink:href="#CenturyGothic-30"/>
       <use xlink:href="#CenturyGothic-2e" x="55.419922"/>
       <use xlink:href="#CenturyGothic-39" x="83.105469"/>
      </g>
     </g>
    </g>
    <g id="ytick_11">
     <g id="line2d_17">
      <g>
       <use xlink:href="#m559a2ccda4" x="463.781875" y="29.499505" style="stroke: #000000; stroke-width: 0.8"/>
      </g>
     </g>
     <g id="text_17">
      <!-- 1.0 -->
      <g transform="translate(470.781875 32.44513) scale(0.08 -0.08)">
       <use xlink:href="#CenturyGothic-31"/>
       <use xlink:href="#CenturyGothic-2e" x="55.419922"/>
       <use xlink:href="#CenturyGothic-30" x="83.105469"/>
      </g>
     </g>
    </g>
    <g id="ytick_12">
     <g id="line2d_18">
      <g>
       <use xlink:href="#m559a2ccda4" x="463.781875" y="10.145625" style="stroke: #000000; stroke-width: 0.8"/>
      </g>
     </g>
     <g id="text_18">
      <!-- 1.1 -->
      <g transform="translate(470.781875 13.09125) scale(0.08 -0.08)">
       <use xlink:href="#CenturyGothic-31"/>
       <use xlink:href="#CenturyGothic-2e" x="55.419922"/>
       <use xlink:href="#CenturyGothic-31" x="83.105469"/>
      </g>
     </g>
    </g>
   </g>
   <g id="line2d_19">
    <path d="M 139.253935 222.267238 
L 141.185257 221.496167 
L 166.929806 220.725096 
L 175.037684 219.954026 
L 185.330754 219.182955 
L 186.275935 218.411884 
L 195.512999 216.869742 
L 197.035485 216.098671 
L 201.823369 215.3276 
L 204.352405 214.556529 
L 205.301788 213.785458 
L 205.380107 213.014387 
L 207.290489 212.243316 
L 210.818015 211.472245 
L 212.088202 210.701174 
L 216.006598 209.930103 
L 217.442074 209.159033 
L 219.507558 208.387962 
L 221.970882 207.616891 
L 223.572911 205.303678 
L 224.621806 204.532607 
L 225.310903 203.761536 
L 225.329113 202.990465 
L 228.341137 202.219394 
L 229.152523 201.448323 
L 229.484012 200.677252 
L 229.992416 199.906181 
L 230.92014 199.13511 
L 230.97585 198.364039 
L 231.896175 196.821898 
L 234.378806 196.050827 
L 234.564034 195.279756 
L 235.938395 194.508685 
L 236.321834 193.737614 
L 236.620931 192.195472 
L 236.625168 191.424401 
L 238.901657 189.111188 
L 240.002848 188.340117 
L 242.300767 186.026905 
L 243.484325 185.255834 
L 245.192133 183.713692 
L 245.446432 182.942621 
L 245.505475 182.17155 
L 245.73041 181.400479 
L 246.930992 180.629408 
L 246.959688 179.858337 
L 247.941888 178.316195 
L 248.074402 177.545124 
L 248.433759 176.774053 
L 248.624876 175.231912 
L 249.118664 173.68977 
L 249.221434 172.147628 
L 249.460742 171.376557 
L 249.5106 170.605486 
L 249.891142 169.834415 
L 250.621993 169.063344 
L 251.911543 168.292273 
L 252.424849 167.521202 
L 252.526839 165.97906 
L 252.995978 163.665848 
L 253.062662 162.894777 
L 253.285142 162.123706 
L 253.319788 161.352635 
L 253.475614 160.581564 
L 254.049372 159.810493 
L 254.144017 159.039422 
L 254.53323 157.49728 
L 254.549663 156.726209 
L 255.182149 155.184067 
L 255.78714 154.412996 
L 256.318538 152.870854 
L 256.346812 152.099784 
L 257.021774 151.328713 
L 257.362055 150.557642 
L 258.149485 149.786571 
L 258.227672 149.0155 
L 258.435205 148.244429 
L 258.945592 147.473358 
L 259.226678 146.702287 
L 259.352235 145.160145 
L 259.893726 143.618003 
L 260.178184 142.075861 
L 260.713133 141.304791 
L 260.961945 138.991578 
L 261.047439 138.220507 
L 261.737155 136.678365 
L 261.946208 134.365152 
L 262.70486 132.82301 
L 263.188235 132.051939 
L 263.880274 131.280868 
L 263.920512 130.509797 
L 264.167982 129.738727 
L 264.173388 128.967656 
L 264.554699 128.196585 
L 264.591766 127.425514 
L 265.401945 124.34123 
L 265.403791 123.570159 
L 265.599707 122.799088 
L 265.972543 122.028017 
L 266.003105 121.256946 
L 267.253923 118.172663 
L 267.566269 115.85945 
L 267.797148 115.088379 
L 268.2817 114.317308 
L 269.580758 112.775166 
L 269.777657 112.004095 
L 270.248916 111.233024 
L 270.387487 110.461953 
L 270.809052 109.690882 
L 270.999685 108.919811 
L 271.104934 106.606599 
L 271.730811 104.293386 
L 271.872167 103.522315 
L 272.273311 102.751244 
L 272.341944 101.980173 
L 273.130256 100.438031 
L 273.771538 99.66696 
L 274.007491 98.895889 
L 274.946472 98.124818 
L 276.118737 97.353747 
L 276.39033 95.811606 
L 276.771988 95.040535 
L 276.990271 92.727322 
L 277.48121 91.18518 
L 278.065443 90.414109 
L 278.078178 89.643038 
L 279.831224 88.100896 
L 279.861295 87.329825 
L 280.505312 86.558754 
L 281.506196 85.787683 
L 281.532653 85.016612 
L 281.736424 84.245542 
L 282.093197 83.474471 
L 282.22001 82.7034 
L 282.818075 81.161258 
L 283.261841 79.619116 
L 283.630436 78.848045 
L 284.093883 76.534832 
L 284.176489 75.763761 
L 284.496589 74.99269 
L 285.430302 74.221619 
L 285.432295 73.450549 
L 286.512556 71.908407 
L 286.802047 71.137336 
L 289.284001 70.366265 
L 289.740192 69.595194 
L 291.030026 68.053052 
L 291.085189 67.281981 
L 291.539584 65.739839 
L 291.976346 64.968768 
L 292.151678 64.197697 
L 293.369963 63.426626 
L 293.451532 62.655555 
L 294.011174 61.884485 
L 294.318055 61.113414 
L 295.382263 60.342343 
L 296.30568 58.800201 
L 297.27577 56.486988 
L 297.917595 55.715917 
L 299.749045 54.944846 
L 300.193959 54.173775 
L 300.327583 53.402704 
L 301.832266 52.631633 
L 302.298841 51.860562 
L 302.303309 51.089491 
L 302.688729 50.318421 
L 302.891777 48.776279 
L 304.153499 48.005208 
L 304.232273 47.234137 
L 304.981652 45.691995 
L 305.686162 44.920924 
L 305.880012 44.149853 
L 305.915424 43.378782 
L 306.331614 42.607711 
L 307.474591 41.83664 
L 307.866902 41.065569 
L 309.427448 38.752357 
L 310.649124 37.981286 
L 310.843117 37.210215 
L 311.574409 36.439144 
L 311.830444 35.668073 
L 324.965369 34.125931 
L 326.344247 33.35486 
L 329.243298 32.583789 
L 329.76767 31.812718 
L 346.593301 31.041647 
L 354.383845 30.270576 
L 363.528062 29.499505 
L 363.528062 29.499505 
" clip-path="url(#p27f12d9513)" style="fill: none; stroke: #444444; stroke-width: 2; stroke-linecap: square"/>
   </g>
   <g id="line2d_20">
    <path d="M 139.519413 222.267238 
L 142.14401 221.496167 
L 143.537553 220.725096 
L 171.297402 219.182955 
L 174.488443 218.411884 
L 175.862152 217.640813 
L 176.063729 216.869742 
L 176.934376 216.098671 
L 182.288585 215.3276 
L 183.485334 214.556529 
L 183.554378 213.785458 
L 183.763046 213.014387 
L 183.841774 212.243316 
L 185.360725 211.472245 
L 189.199036 210.701174 
L 189.699857 209.930103 
L 191.66069 209.159033 
L 193.22935 208.387962 
L 195.697704 207.616891 
L 198.866858 206.84582 
L 200.338942 206.074749 
L 201.22293 205.303678 
L 201.298836 204.532607 
L 201.997385 203.761536 
L 205.552476 202.990465 
L 205.961266 202.219394 
L 208.275868 201.448323 
L 209.142397 200.677252 
L 209.761476 199.13511 
L 211.372671 198.364039 
L 212.214235 197.592969 
L 212.294297 196.821898 
L 212.640466 196.050827 
L 213.759389 195.279756 
L 214.15598 192.966543 
L 215.856992 192.195472 
L 215.991585 191.424401 
L 216.451683 190.65333 
L 216.582227 189.882259 
L 218.060047 189.111188 
L 218.881145 188.340117 
L 218.939436 187.569046 
L 219.915138 186.797975 
L 224.425042 186.026905 
L 225.729854 185.255834 
L 227.561137 184.484763 
L 227.777396 183.713692 
L 228.667894 182.942621 
L 229.037119 180.629408 
L 229.442019 179.858337 
L 229.48585 179.087266 
L 229.863564 178.316195 
L 231.760568 177.545124 
L 232.401382 176.774053 
L 232.48714 176.002982 
L 233.540489 175.231912 
L 234.161411 174.460841 
L 235.352854 173.68977 
L 235.532951 172.918699 
L 237.831371 172.147628 
L 237.986687 170.605486 
L 238.203235 169.834415 
L 238.578851 169.063344 
L 238.782987 167.521202 
L 239.525748 166.750131 
L 239.871552 165.97906 
L 239.971544 165.207989 
L 240.738563 163.665848 
L 242.028745 162.123706 
L 242.556287 161.352635 
L 243.430787 160.581564 
L 243.577172 159.810493 
L 244.061396 159.039422 
L 244.954487 158.268351 
L 245.440037 155.955138 
L 245.803686 155.184067 
L 246.378773 154.412996 
L 246.810874 153.641925 
L 247.575046 152.870854 
L 247.911385 152.099784 
L 248.857933 151.328713 
L 249.417254 149.786571 
L 249.433881 149.0155 
L 250.564627 148.244429 
L 250.612595 147.473358 
L 251.449145 145.931216 
L 252.796373 145.160145 
L 253.558174 144.389074 
L 253.573952 143.618003 
L 253.72646 142.846932 
L 254.279507 142.075861 
L 254.327911 141.304791 
L 256.963835 138.991578 
L 256.973808 138.220507 
L 257.987571 136.678365 
L 258.814954 135.907294 
L 259.241948 134.365152 
L 259.25785 133.594081 
L 260.169069 132.82301 
L 260.756308 131.280868 
L 262.055571 130.509797 
L 262.604814 129.738727 
L 262.708646 128.967656 
L 264.771317 126.654443 
L 265.164557 125.883372 
L 265.198998 125.112301 
L 266.44461 124.34123 
L 267.243248 123.570159 
L 267.530323 122.799088 
L 268.569283 122.028017 
L 268.642298 121.256946 
L 268.861749 120.485875 
L 271.166343 118.172663 
L 271.17079 117.401592 
L 271.583307 115.85945 
L 272.776858 115.088379 
L 273.326135 114.317308 
L 274.162582 111.233024 
L 275.035713 109.690882 
L 275.66076 108.919811 
L 277.642062 108.14874 
L 278.271536 107.37767 
L 279.859737 105.835528 
L 280.312338 105.064457 
L 280.329493 104.293386 
L 281.242834 103.522315 
L 281.411558 102.751244 
L 281.74872 101.980173 
L 281.817649 101.209102 
L 282.022938 100.438031 
L 284.327417 99.66696 
L 286.174343 98.895889 
L 286.892883 98.124818 
L 286.980729 97.353747 
L 287.637134 96.582676 
L 288.11978 95.811606 
L 288.813237 92.727322 
L 289.465688 91.956251 
L 289.850373 91.18518 
L 291.111982 90.414109 
L 291.152585 89.643038 
L 291.807546 88.871967 
L 293.063901 88.100896 
L 295.245398 87.329825 
L 296.640538 86.558754 
L 297.800969 85.787683 
L 298.502907 84.245542 
L 299.346369 83.474471 
L 300.468369 82.7034 
L 301.066209 81.932329 
L 301.153368 81.161258 
L 301.508302 80.390187 
L 301.547522 79.619116 
L 302.04794 78.848045 
L 303.084609 75.763761 
L 304.354346 74.221619 
L 304.615792 73.450549 
L 305.657772 72.679478 
L 306.449552 69.595194 
L 308.248165 68.824123 
L 309.239596 68.053052 
L 309.348697 67.281981 
L 310.240639 66.51091 
L 310.396835 65.739839 
L 311.159893 64.968768 
L 311.578157 64.197697 
L 313.168715 63.426626 
L 313.644184 62.655555 
L 314.744512 61.884485 
L 316.696891 61.113414 
L 317.965202 60.342343 
L 318.583596 59.571272 
L 318.656335 58.800201 
L 321.075985 58.02913 
L 321.278945 57.258059 
L 322.216779 56.486988 
L 322.572312 55.715917 
L 323.730686 54.944846 
L 326.220427 54.173775 
L 327.868352 52.631633 
L 328.056305 51.860562 
L 328.127987 51.089491 
L 328.827622 49.54735 
L 328.8943 48.776279 
L 329.722696 48.005208 
L 330.054997 47.234137 
L 331.437815 45.691995 
L 331.979024 44.149853 
L 338.888299 43.378782 
L 339.236108 42.607711 
L 340.624746 41.83664 
L 340.908807 41.065569 
L 342.388398 40.294498 
L 343.27202 39.523428 
L 347.210639 38.752357 
L 350.451977 37.981286 
L 355.444284 37.210215 
L 356.803957 36.439144 
L 357.803486 35.668073 
L 358.38894 34.897002 
L 358.565416 34.125931 
L 362.13194 33.35486 
L 372.889101 32.583789 
L 373.105891 31.812718 
L 374.768157 31.041647 
L 388.006173 30.270576 
L 406.15241 29.499505 
L 406.15241 29.499505 
" clip-path="url(#p27f12d9513)" style="fill: none; stroke-dasharray: 7.4,3.2; stroke-dashoffset: 0; stroke: #1f77b4; stroke-width: 2"/>
   </g>
   <g id="patch_3">
    <path d="M 463.781875 231.905625 
L 463.781875 10.145625 
" style="fill: none; stroke: #000000; stroke-width: 0.8; stroke-linejoin: miter; stroke-linecap: square"/>
   </g>
   <g id="patch_4">
    <path d="M 17.381875 231.905625 
L 463.781875 231.905625 
" style="fill: none; stroke: #000000; stroke-width: 0.8; stroke-linejoin: miter; stroke-linecap: square"/>
   </g>
  </g>
 </g>
 <defs>
  <clipPath id="p27f12d9513">
   <rect x="17.381875" y="10.145625" width="446.4" height="221.76"/>
  </clipPath>
 </defs>
</svg>
