<?xml version="1.0" encoding="utf-8" standalone="no"?>
<!DOCTYPE svg PUBLIC "-//W3C//DTD SVG 1.1//EN"
  "http://www.w3.org/Graphics/SVG/1.1/DTD/svg11.dtd">
<svg xmlns:xlink="http://www.w3.org/1999/xlink" width="489.064375pt" height="253.551875pt" viewBox="0 0 489.064375 253.551875" xmlns="http://www.w3.org/2000/svg" version="1.1">
 <metadata>
  <rdf:RDF xmlns:dc="http://purl.org/dc/elements/1.1/" xmlns:cc="http://creativecommons.org/ns#" xmlns:rdf="http://www.w3.org/1999/02/22-rdf-syntax-ns#">
   <cc:Work>
    <dc:type rdf:resource="http://purl.org/dc/dcmitype/StillImage"/>
    <dc:date>2025-05-26T13:35:25.663328</dc:date>
    <dc:format>image/svg+xml</dc:format>
    <dc:creator>
     <cc:Agent>
      <dc:title>Matplotlib v3.9.2, https://matplotlib.org/</dc:title>
     </cc:Agent>
    </dc:creator>
   </cc:Work>
  </rdf:RDF>
 </metadata>
 <defs>
  <style type="text/css">*{stroke-linejoin: round; stroke-linecap: butt}</style>
 </defs>
 <g id="figure_1">
  <g id="patch_1">
   <path d="M 0 253.551875 
L 489.064375 253.551875 
L 489.064375 0 
L 0 0 
z
" style="fill: #ffffff"/>
  </g>
  <g id="axes_1">
   <g id="patch_2">
    <path d="M 17.381875 231.905625 
L 463.781875 231.905625 
L 463.781875 10.145625 
L 17.381875 10.145625 
z
" style="fill: #ffffff"/>
   </g>
   <g id="matplotlib.axis_1">
    <g id="xtick_1">
     <g id="line2d_1">
      <defs>
       <path id="ma78a343d9e" d="M 0 0 
L 0 3.5 
" style="stroke: #000000; stroke-width: 0.8"/>
      </defs>
      <g>
       <use xlink:href="#ma78a343d9e" x="17.381875" y="231.905625" style="stroke: #000000; stroke-width: 0.8"/>
      </g>
     </g>
     <g id="text_1">
      <!-- −0.04 -->
      <g transform="translate(7.2 244.796875) scale(0.08 -0.08)">
       <defs>
        <path id="CenturyGothic-2212" d="M 359 2513 
L 3522 2513 
L 3522 2084 
L 359 2084 
L 359 2513 
z
" transform="scale(0.015625)"/>
        <path id="CenturyGothic-30" d="M 203 2297 
Q 203 3206 398 3703 
Q 594 4200 950 4456 
Q 1306 4713 1747 4713 
Q 2194 4713 2556 4455 
Q 2919 4197 3130 3681 
Q 3341 3166 3341 2297 
Q 3341 1431 3133 918 
Q 2925 406 2559 145 
Q 2194 -116 1747 -116 
Q 1306 -116 953 137 
Q 600 391 401 892 
Q 203 1394 203 2297 
z
M 638 2288 
Q 638 1509 777 1111 
Q 916 713 1187 506 
Q 1459 300 1763 300 
Q 2069 300 2334 501 
Q 2600 703 2738 1106 
Q 2909 1597 2909 2288 
Q 2909 2981 2756 3423 
Q 2603 3866 2333 4070 
Q 2063 4275 1763 4275 
Q 1456 4275 1187 4070 
Q 919 3866 778 3467 
Q 638 3069 638 2288 
z
" transform="scale(0.015625)"/>
        <path id="CenturyGothic-2e" d="M 969 688 
Q 1128 688 1240 575 
Q 1353 463 1353 300 
Q 1353 141 1240 26 
Q 1128 -88 969 -88 
Q 809 -88 696 26 
Q 584 141 584 300 
Q 584 463 696 575 
Q 809 688 969 688 
z
" transform="scale(0.015625)"/>
        <path id="CenturyGothic-34" d="M 2725 4713 
L 2819 4713 
L 2819 1509 
L 3375 1509 
L 3375 1069 
L 2819 1069 
L 2819 0 
L 2359 0 
L 2359 1069 
L 163 1069 
L 2725 4713 
z
M 2359 1509 
L 2359 3425 
L 1006 1509 
L 2359 1509 
z
" transform="scale(0.015625)"/>
       </defs>
       <use xlink:href="#CenturyGothic-2212"/>
       <use xlink:href="#CenturyGothic-30" x="60.595703"/>
       <use xlink:href="#CenturyGothic-2e" x="116.015625"/>
       <use xlink:href="#CenturyGothic-30" x="143.701172"/>
       <use xlink:href="#CenturyGothic-34" x="199.121094"/>
      </g>
     </g>
    </g>
    <g id="xtick_2">
     <g id="line2d_2">
      <g>
       <use xlink:href="#ma78a343d9e" x="73.825623" y="231.905625" style="stroke: #000000; stroke-width: 0.8"/>
      </g>
     </g>
     <g id="text_2">
      <!-- −0.03 -->
      <g transform="translate(63.643748 244.796875) scale(0.08 -0.08)">
       <defs>
        <path id="CenturyGothic-33" d="M 847 3531 
L 378 3531 
Q 506 4100 868 4406 
Q 1231 4713 1725 4713 
Q 2084 4713 2395 4548 
Q 2706 4384 2876 4106 
Q 3047 3828 3047 3525 
Q 3047 2931 2456 2584 
Q 2788 2450 3000 2191 
Q 3300 1825 3300 1372 
Q 3300 981 3094 626 
Q 2888 272 2531 78 
Q 2175 -116 1734 -116 
Q 1141 -116 744 226 
Q 347 569 225 1231 
L 675 1231 
Q 794 784 1016 584 
Q 1300 331 1741 331 
Q 2241 331 2544 631 
Q 2847 931 2847 1334 
Q 2847 1603 2695 1837 
Q 2544 2072 2289 2190 
Q 2034 2309 1500 2338 
L 1500 2759 
Q 1816 2759 2075 2870 
Q 2334 2981 2451 3153 
Q 2569 3325 2569 3528 
Q 2569 3828 2330 4047 
Q 2091 4266 1725 4266 
Q 1428 4266 1212 4098 
Q 997 3931 847 3531 
z
" transform="scale(0.015625)"/>
       </defs>
       <use xlink:href="#CenturyGothic-2212"/>
       <use xlink:href="#CenturyGothic-30" x="60.595703"/>
       <use xlink:href="#CenturyGothic-2e" x="116.015625"/>
       <use xlink:href="#CenturyGothic-30" x="143.701172"/>
       <use xlink:href="#CenturyGothic-33" x="199.121094"/>
      </g>
     </g>
    </g>
    <g id="xtick_3">
     <g id="line2d_3">
      <g>
       <use xlink:href="#ma78a343d9e" x="130.26937" y="231.905625" style="stroke: #000000; stroke-width: 0.8"/>
      </g>
     </g>
     <g id="text_3">
      <!-- −0.02 -->
      <g transform="translate(120.087495 244.796875) scale(0.08 -0.08)">
       <defs>
        <path id="CenturyGothic-32" d="M 741 3156 
L 300 3156 
Q 319 3838 755 4275 
Q 1191 4713 1831 4713 
Q 2466 4713 2858 4303 
Q 3250 3894 3250 3338 
Q 3250 2947 3062 2605 
Q 2875 2263 2334 1678 
L 1191 444 
L 3313 444 
L 3313 0 
L 191 0 
L 1947 1897 
Q 2481 2469 2642 2745 
Q 2803 3022 2803 3328 
Q 2803 3716 2514 3995 
Q 2225 4275 1806 4275 
Q 1366 4275 1073 3981 
Q 781 3688 741 3156 
z
" transform="scale(0.015625)"/>
       </defs>
       <use xlink:href="#CenturyGothic-2212"/>
       <use xlink:href="#CenturyGothic-30" x="60.595703"/>
       <use xlink:href="#CenturyGothic-2e" x="116.015625"/>
       <use xlink:href="#CenturyGothic-30" x="143.701172"/>
       <use xlink:href="#CenturyGothic-32" x="199.121094"/>
      </g>
     </g>
    </g>
    <g id="xtick_4">
     <g id="line2d_4">
      <g>
       <use xlink:href="#ma78a343d9e" x="186.713118" y="231.905625" style="stroke: #000000; stroke-width: 0.8"/>
      </g>
     </g>
     <g id="text_4">
      <!-- −0.01 -->
      <g transform="translate(176.531243 244.796875) scale(0.08 -0.08)">
       <defs>
        <path id="CenturyGothic-31" d="M 1184 4597 
L 2088 4597 
L 2088 0 
L 1631 0 
L 1631 4147 
L 909 4147 
L 1184 4597 
z
" transform="scale(0.015625)"/>
       </defs>
       <use xlink:href="#CenturyGothic-2212"/>
       <use xlink:href="#CenturyGothic-30" x="60.595703"/>
       <use xlink:href="#CenturyGothic-2e" x="116.015625"/>
       <use xlink:href="#CenturyGothic-30" x="143.701172"/>
       <use xlink:href="#CenturyGothic-31" x="199.121094"/>
      </g>
     </g>
    </g>
    <g id="xtick_5">
     <g id="line2d_5">
      <g>
       <use xlink:href="#ma78a343d9e" x="243.156865" y="231.905625" style="stroke: #000000; stroke-width: 0.8"/>
      </g>
     </g>
     <g id="text_5">
      <!-- 0.00 -->
      <g transform="translate(235.39874 244.796875) scale(0.08 -0.08)">
       <use xlink:href="#CenturyGothic-30"/>
       <use xlink:href="#CenturyGothic-2e" x="55.419922"/>
       <use xlink:href="#CenturyGothic-30" x="83.105469"/>
       <use xlink:href="#CenturyGothic-30" x="138.525391"/>
      </g>
     </g>
    </g>
    <g id="xtick_6">
     <g id="line2d_6">
      <g>
       <use xlink:href="#ma78a343d9e" x="299.600613" y="231.905625" style="stroke: #000000; stroke-width: 0.8"/>
      </g>
     </g>
     <g id="text_6">
      <!-- 0.01 -->
      <g transform="translate(291.842488 244.796875) scale(0.08 -0.08)">
       <use xlink:href="#CenturyGothic-30"/>
       <use xlink:href="#CenturyGothic-2e" x="55.419922"/>
       <use xlink:href="#CenturyGothic-30" x="83.105469"/>
       <use xlink:href="#CenturyGothic-31" x="138.525391"/>
      </g>
     </g>
    </g>
    <g id="xtick_7">
     <g id="line2d_7">
      <g>
       <use xlink:href="#ma78a343d9e" x="356.04436" y="231.905625" style="stroke: #000000; stroke-width: 0.8"/>
      </g>
     </g>
     <g id="text_7">
      <!-- 0.02 -->
      <g transform="translate(348.286235 244.796875) scale(0.08 -0.08)">
       <use xlink:href="#CenturyGothic-30"/>
       <use xlink:href="#CenturyGothic-2e" x="55.419922"/>
       <use xlink:href="#CenturyGothic-30" x="83.105469"/>
       <use xlink:href="#CenturyGothic-32" x="138.525391"/>
      </g>
     </g>
    </g>
    <g id="xtick_8">
     <g id="line2d_8">
      <g>
       <use xlink:href="#ma78a343d9e" x="412.488108" y="231.905625" style="stroke: #000000; stroke-width: 0.8"/>
      </g>
     </g>
     <g id="text_8">
      <!-- 0.03 -->
      <g transform="translate(404.729983 244.796875) scale(0.08 -0.08)">
       <use xlink:href="#CenturyGothic-30"/>
       <use xlink:href="#CenturyGothic-2e" x="55.419922"/>
       <use xlink:href="#CenturyGothic-30" x="83.105469"/>
       <use xlink:href="#CenturyGothic-33" x="138.525391"/>
      </g>
     </g>
    </g>
   </g>
   <g id="matplotlib.axis_2">
    <g id="ytick_1">
     <g id="line2d_9">
      <defs>
       <path id="md374396074" d="M 0 0 
L 3.5 0 
" style="stroke: #000000; stroke-width: 0.8"/>
      </defs>
      <g>
       <use xlink:href="#md374396074" x="463.781875" y="222.190425" style="stroke: #000000; stroke-width: 0.8"/>
      </g>
     </g>
     <g id="text_9">
      <!-- 0.0 -->
      <g transform="translate(470.781875 225.13605) scale(0.08 -0.08)">
       <use xlink:href="#CenturyGothic-30"/>
       <use xlink:href="#CenturyGothic-2e" x="55.419922"/>
       <use xlink:href="#CenturyGothic-30" x="83.105469"/>
      </g>
     </g>
    </g>
    <g id="ytick_2">
     <g id="line2d_10">
      <g>
       <use xlink:href="#md374396074" x="463.781875" y="200.985945" style="stroke: #000000; stroke-width: 0.8"/>
      </g>
     </g>
     <g id="text_10">
      <!-- 0.1 -->
      <g transform="translate(470.781875 203.93157) scale(0.08 -0.08)">
       <use xlink:href="#CenturyGothic-30"/>
       <use xlink:href="#CenturyGothic-2e" x="55.419922"/>
       <use xlink:href="#CenturyGothic-31" x="83.105469"/>
      </g>
     </g>
    </g>
    <g id="ytick_3">
     <g id="line2d_11">
      <g>
       <use xlink:href="#md374396074" x="463.781875" y="179.781465" style="stroke: #000000; stroke-width: 0.8"/>
      </g>
     </g>
     <g id="text_11">
      <!-- 0.2 -->
      <g transform="translate(470.781875 182.72709) scale(0.08 -0.08)">
       <use xlink:href="#CenturyGothic-30"/>
       <use xlink:href="#CenturyGothic-2e" x="55.419922"/>
       <use xlink:href="#CenturyGothic-32" x="83.105469"/>
      </g>
     </g>
    </g>
    <g id="ytick_4">
     <g id="line2d_12">
      <g>
       <use xlink:href="#md374396074" x="463.781875" y="158.576985" style="stroke: #000000; stroke-width: 0.8"/>
      </g>
     </g>
     <g id="text_12">
      <!-- 0.3 -->
      <g transform="translate(470.781875 161.52261) scale(0.08 -0.08)">
       <use xlink:href="#CenturyGothic-30"/>
       <use xlink:href="#CenturyGothic-2e" x="55.419922"/>
       <use xlink:href="#CenturyGothic-33" x="83.105469"/>
      </g>
     </g>
    </g>
    <g id="ytick_5">
     <g id="line2d_13">
      <g>
       <use xlink:href="#md374396074" x="463.781875" y="137.372505" style="stroke: #000000; stroke-width: 0.8"/>
      </g>
     </g>
     <g id="text_13">
      <!-- 0.4 -->
      <g transform="translate(470.781875 140.31813) scale(0.08 -0.08)">
       <use xlink:href="#CenturyGothic-30"/>
       <use xlink:href="#CenturyGothic-2e" x="55.419922"/>
       <use xlink:href="#CenturyGothic-34" x="83.105469"/>
      </g>
     </g>
    </g>
    <g id="ytick_6">
     <g id="line2d_14">
      <g>
       <use xlink:href="#md374396074" x="463.781875" y="116.168025" style="stroke: #000000; stroke-width: 0.8"/>
      </g>
     </g>
     <g id="text_14">
      <!-- 0.5 -->
      <g transform="translate(470.781875 119.11365) scale(0.08 -0.08)">
       <defs>
        <path id="CenturyGothic-35" d="M 3147 4597 
L 3147 4159 
L 1509 4159 
L 1281 2906 
Q 1581 2994 1822 2994 
Q 2450 2994 2858 2573 
Q 3266 2153 3266 1497 
Q 3266 1044 3056 666 
Q 2847 288 2489 86 
Q 2131 -116 1663 -116 
Q 1103 -116 718 226 
Q 334 569 259 1113 
L 731 1113 
Q 784 847 911 681 
Q 1038 516 1248 414 
Q 1459 313 1691 313 
Q 2144 313 2469 656 
Q 2794 1000 2794 1516 
Q 2794 1981 2500 2272 
Q 2206 2563 1716 2563 
Q 1309 2563 731 2316 
L 1156 4597 
L 3147 4597 
z
" transform="scale(0.015625)"/>
       </defs>
       <use xlink:href="#CenturyGothic-30"/>
       <use xlink:href="#CenturyGothic-2e" x="55.419922"/>
       <use xlink:href="#CenturyGothic-35" x="83.105469"/>
      </g>
     </g>
    </g>
    <g id="ytick_7">
     <g id="line2d_15">
      <g>
       <use xlink:href="#md374396074" x="463.781875" y="94.963545" style="stroke: #000000; stroke-width: 0.8"/>
      </g>
     </g>
     <g id="text_15">
      <!-- 0.6 -->
      <g transform="translate(470.781875 97.90917) scale(0.08 -0.08)">
       <defs>
        <path id="CenturyGothic-36" d="M 2347 4713 
L 2725 4466 
L 1484 2584 
Q 1734 2669 1953 2669 
Q 2500 2669 2881 2273 
Q 3263 1878 3263 1300 
Q 3263 903 3078 583 
Q 2894 263 2555 73 
Q 2216 -116 1825 -116 
Q 1447 -116 1123 67 
Q 800 250 615 581 
Q 431 913 431 1291 
Q 431 1572 545 1883 
Q 659 2194 953 2631 
L 2347 4713 
z
M 1844 2266 
Q 1444 2266 1161 1983 
Q 878 1700 878 1297 
Q 878 897 1161 614 
Q 1444 331 1844 331 
Q 2244 331 2526 614 
Q 2809 897 2809 1297 
Q 2809 1700 2526 1983 
Q 2244 2266 1844 2266 
z
" transform="scale(0.015625)"/>
       </defs>
       <use xlink:href="#CenturyGothic-30"/>
       <use xlink:href="#CenturyGothic-2e" x="55.419922"/>
       <use xlink:href="#CenturyGothic-36" x="83.105469"/>
      </g>
     </g>
    </g>
    <g id="ytick_8">
     <g id="line2d_16">
      <g>
       <use xlink:href="#md374396074" x="463.781875" y="73.759065" style="stroke: #000000; stroke-width: 0.8"/>
      </g>
     </g>
     <g id="text_16">
      <!-- 0.7 -->
      <g transform="translate(470.781875 76.70469) scale(0.08 -0.08)">
       <defs>
        <path id="CenturyGothic-37" d="M 459 4597 
L 3375 4597 
L 916 -116 
L 538 78 
L 2663 4163 
L 459 4163 
L 459 4597 
z
" transform="scale(0.015625)"/>
       </defs>
       <use xlink:href="#CenturyGothic-30"/>
       <use xlink:href="#CenturyGothic-2e" x="55.419922"/>
       <use xlink:href="#CenturyGothic-37" x="83.105469"/>
      </g>
     </g>
    </g>
    <g id="ytick_9">
     <g id="line2d_17">
      <g>
       <use xlink:href="#md374396074" x="463.781875" y="52.554585" style="stroke: #000000; stroke-width: 0.8"/>
      </g>
     </g>
     <g id="text_17">
      <!-- 0.8 -->
      <g transform="translate(470.781875 55.50021) scale(0.08 -0.08)">
       <defs>
        <path id="CenturyGothic-38" d="M 2459 2522 
Q 2925 2291 3126 1994 
Q 3328 1697 3328 1319 
Q 3328 788 2981 381 
Q 2556 -116 1766 -116 
Q 1003 -116 609 320 
Q 216 756 216 1281 
Q 216 1666 422 1973 
Q 628 2281 1109 2522 
Q 772 2697 603 2956 
Q 434 3216 434 3513 
Q 434 3813 614 4098 
Q 794 4384 1111 4548 
Q 1428 4713 1797 4713 
Q 2156 4713 2462 4547 
Q 2769 4381 2942 4097 
Q 3116 3813 3116 3500 
Q 3116 3188 2952 2944 
Q 2788 2700 2459 2522 
z
M 1775 4266 
Q 1397 4266 1148 4042 
Q 900 3819 900 3509 
Q 900 3203 1167 2954 
Q 1434 2706 1791 2706 
Q 2019 2706 2222 2818 
Q 2425 2931 2539 3126 
Q 2653 3322 2653 3519 
Q 2653 3797 2428 4031 
Q 2203 4266 1775 4266 
z
M 1797 2291 
Q 1322 2291 1000 1983 
Q 678 1675 678 1266 
Q 678 1013 815 788 
Q 953 563 1200 441 
Q 1447 319 1772 319 
Q 2275 319 2572 616 
Q 2869 913 2869 1309 
Q 2869 1694 2555 1992 
Q 2241 2291 1797 2291 
z
" transform="scale(0.015625)"/>
       </defs>
       <use xlink:href="#CenturyGothic-30"/>
       <use xlink:href="#CenturyGothic-2e" x="55.419922"/>
       <use xlink:href="#CenturyGothic-38" x="83.105469"/>
      </g>
     </g>
    </g>
    <g id="ytick_10">
     <g id="line2d_18">
      <g>
       <use xlink:href="#md374396074" x="463.781875" y="31.350105" style="stroke: #000000; stroke-width: 0.8"/>
      </g>
     </g>
     <g id="text_18">
      <!-- 0.9 -->
      <g transform="translate(470.781875 34.29573) scale(0.08 -0.08)">
       <defs>
        <path id="CenturyGothic-39" d="M 1228 -116 
L 850 128 
L 2091 2009 
Q 1841 1928 1622 1928 
Q 1075 1928 694 2323 
Q 313 2719 313 3297 
Q 313 3694 497 4012 
Q 681 4331 1020 4522 
Q 1359 4713 1747 4713 
Q 2128 4713 2451 4528 
Q 2775 4344 2959 4012 
Q 3144 3681 3144 3306 
Q 3144 3022 3030 2711 
Q 2916 2400 2622 1963 
L 1228 -116 
z
M 1728 2331 
Q 2131 2331 2414 2614 
Q 2697 2897 2697 3297 
Q 2697 3697 2414 3980 
Q 2131 4263 1728 4263 
Q 1328 4263 1045 3980 
Q 763 3697 763 3297 
Q 763 2897 1045 2614 
Q 1328 2331 1728 2331 
z
" transform="scale(0.015625)"/>
       </defs>
       <use xlink:href="#CenturyGothic-30"/>
       <use xlink:href="#CenturyGothic-2e" x="55.419922"/>
       <use xlink:href="#CenturyGothic-39" x="83.105469"/>
      </g>
     </g>
    </g>
    <g id="ytick_11">
     <g id="line2d_19">
      <g>
       <use xlink:href="#md374396074" x="463.781875" y="10.145625" style="stroke: #000000; stroke-width: 0.8"/>
      </g>
     </g>
     <g id="text_19">
      <!-- 1.0 -->
      <g transform="translate(470.781875 13.09125) scale(0.08 -0.08)">
       <use xlink:href="#CenturyGothic-31"/>
       <use xlink:href="#CenturyGothic-2e" x="55.419922"/>
       <use xlink:href="#CenturyGothic-30" x="83.105469"/>
      </g>
     </g>
    </g>
   </g>
   <g id="line2d_20">
    <path d="M 74.001714 221.345625 
L 76.687918 220.500825 
L 112.495056 219.656025 
L 123.772004 218.811225 
L 138.088253 217.966425 
L 139.402872 217.121625 
L 152.250361 215.432025 
L 154.367931 214.587225 
L 161.027221 213.742425 
L 164.544764 212.897625 
L 165.865226 212.052825 
L 165.974156 211.208025 
L 168.631236 210.363225 
L 173.537541 209.518425 
L 175.304197 208.673625 
L 180.754149 207.828825 
L 182.7507 206.984025 
L 185.623504 206.139225 
L 189.04965 205.294425 
L 191.277853 202.760025 
L 192.736723 201.915225 
L 193.695162 201.070425 
L 193.72049 200.225625 
L 197.909802 199.380825 
L 199.03833 198.536025 
L 199.499384 197.691225 
L 200.206505 196.846425 
L 201.496842 196.001625 
L 201.574327 195.156825 
L 202.296861 194.312025 
L 202.854373 193.467225 
L 206.307373 192.622425 
L 206.564999 191.777625 
L 208.476547 190.932825 
L 209.009859 190.088025 
L 209.425862 188.398425 
L 209.431754 187.553625 
L 212.598039 185.019225 
L 214.129645 184.174425 
L 217.325734 181.640025 
L 218.971902 180.795225 
L 221.347229 179.105625 
L 221.700924 178.260825 
L 221.783044 177.416025 
L 222.095897 176.571225 
L 223.765742 175.726425 
L 223.805655 174.881625 
L 225.17176 173.192025 
L 225.35607 172.347225 
L 225.855886 171.502425 
L 225.913753 170.657625 
L 226.427542 168.968025 
L 226.808496 168.123225 
L 226.951434 166.433625 
L 227.284278 165.588825 
L 227.353624 164.744025 
L 227.882906 163.899225 
L 228.899419 163.054425 
L 230.693006 162.209625 
L 231.406945 161.364825 
L 231.548799 159.675225 
L 232.201307 157.140825 
L 232.294056 156.296025 
L 232.603495 155.451225 
L 232.651682 154.606425 
L 232.868415 153.761625 
L 233.666434 152.916825 
L 233.798072 152.072025 
L 234.339415 150.382425 
L 234.362271 149.537625 
L 235.241971 147.848025 
L 236.083431 147.003225 
L 236.822533 145.313625 
L 236.861859 144.468825 
L 237.800637 143.624025 
L 238.273922 142.779225 
L 239.36913 141.934425 
L 239.477877 141.089625 
L 239.766527 140.244825 
L 240.476405 139.400025 
L 240.867357 138.555225 
L 241.04199 136.865625 
L 241.795129 135.176025 
L 242.190771 133.486425 
L 242.934812 132.641625 
L 243.124224 130.952025 
L 243.399786 129.262425 
L 244.359087 127.572825 
L 244.64985 125.038425 
L 245.705031 123.348825 
L 246.377341 122.504025 
L 247.339872 121.659225 
L 247.395838 120.814425 
L 247.740033 119.969625 
L 247.747553 119.124825 
L 248.277905 118.280025 
L 248.329459 117.435225 
L 249.456307 114.056025 
L 249.458875 113.211225 
L 249.731367 112.366425 
L 250.249931 111.521625 
L 250.292439 110.676825 
L 250.739729 109.832025 
L 251.315749 108.987225 
L 252.032155 107.297625 
L 252.466585 104.763225 
L 252.787707 103.918425 
L 253.461652 103.073625 
L 255.268463 101.384025 
L 255.542322 100.539225 
L 256.197779 99.694425 
L 256.390513 98.849625 
L 256.976852 98.004825 
L 257.241996 97.160025 
L 257.388383 94.625625 
L 258.122701 92.936025 
L 258.455499 91.246425 
L 259.013435 90.401625 
L 259.108894 89.556825 
L 260.205329 87.867225 
L 261.097264 87.022425 
L 261.425443 86.177625 
L 262.731437 85.332825 
L 264.361896 84.488025 
L 264.739645 82.798425 
L 265.270478 81.953625 
L 265.574081 79.419225 
L 266.25691 77.729625 
L 267.069498 76.884825 
L 267.08721 76.040025 
L 269.525457 74.350425 
L 269.567281 73.505625 
L 270.463021 72.660825 
L 271.855113 71.816025 
L 271.891911 70.971225 
L 272.17533 70.126425 
L 272.671551 69.281625 
L 272.847931 68.436825 
L 273.679758 66.747225 
L 273.911818 65.902425 
L 274.296974 65.057625 
L 274.80964 64.212825 
L 275.042954 63.368025 
L 275.137502 62.523225 
L 275.454231 61.678425 
L 275.569125 60.833625 
L 276.014341 59.988825 
L 277.313007 59.144025 
L 277.315779 58.299225 
L 278.818273 56.609625 
L 279.220916 55.764825 
L 282.672974 54.920025 
L 283.307474 54.075225 
L 285.101455 52.385625 
L 285.17818 51.540825 
L 285.810182 49.851225 
L 286.417658 49.006425 
L 286.661521 48.161625 
L 288.355988 47.316825 
L 288.469438 46.472025 
L 289.247824 45.627225 
L 289.674653 44.782425 
L 291.154821 43.937625 
L 291.871187 43.092825 
L 292.439168 42.248025 
L 292.857081 41.403225 
L 293.414974 40.558425 
L 293.78843 39.713625 
L 294.68112 38.868825 
L 297.228416 38.024025 
L 297.847231 37.179225 
L 298.033084 36.334425 
L 300.125891 35.489625 
L 300.774833 34.644825 
L 300.781048 33.800025 
L 301.317114 32.955225 
L 301.599526 31.265625 
L 303.354409 30.420825 
L 303.463972 29.576025 
L 304.070999 28.731225 
L 304.506255 27.886425 
L 305.486132 27.041625 
L 305.755752 26.196825 
L 305.805005 25.352025 
L 306.383868 24.507225 
L 307.973592 23.662425 
L 308.519243 22.817625 
L 310.689749 20.283225 
L 312.388933 19.438425 
L 312.65875 18.593625 
L 313.675877 17.748825 
L 314.031987 16.904025 
L 332.300867 15.214425 
L 334.218698 14.369625 
L 338.25088 13.524825 
L 338.98021 12.680025 
L 362.382357 11.835225 
L 373.217936 10.990425 
L 385.936289 10.145625 
L 385.936289 10.145625 
" clip-path="url(#paa2dc83cb8)" style="fill: none; stroke: #444444; stroke-width: 2; stroke-linecap: square"/>
   </g>
   <g id="line2d_21">
    <path d="M 74.370957 221.345625 
L 78.021412 220.500825 
L 79.959639 219.656025 
L 118.569785 217.966425 
L 123.008086 217.121625 
L 124.918727 216.276825 
L 125.199092 215.432025 
L 126.410043 214.587225 
L 133.857014 213.742425 
L 135.521527 212.897625 
L 135.617559 212.052825 
L 135.907787 211.208025 
L 136.017287 210.363225 
L 138.12994 209.518425 
L 143.468504 208.673625 
L 144.165077 207.828825 
L 146.892328 206.984025 
L 149.074119 206.139225 
L 152.50726 205.294425 
L 156.915119 204.449625 
L 158.962587 203.604825 
L 160.192094 202.760025 
L 160.297667 201.915225 
L 161.269254 201.070425 
L 166.213898 200.225625 
L 166.782469 199.380825 
L 170.001763 198.536025 
L 171.206986 197.691225 
L 172.06804 196.001625 
L 174.308992 195.156825 
L 175.479492 194.312025 
L 175.590847 193.467225 
L 176.072321 192.622425 
L 177.628589 191.777625 
L 178.166925 190.088025 
L 178.180194 189.243225 
L 180.546068 188.398425 
L 180.733268 187.553625 
L 181.373202 186.708825 
L 181.55477 185.864025 
L 183.610215 185.019225 
L 184.75225 184.174425 
L 184.833324 183.329625 
L 186.190393 182.484825 
L 192.463051 181.640025 
L 194.277865 180.795225 
L 196.824929 179.950425 
L 197.125716 179.105625 
L 198.364277 178.260825 
L 198.524122 177.416025 
L 198.8056 176.571225 
L 198.877818 175.726425 
L 199.440978 174.881625 
L 199.501941 174.036825 
L 200.02729 173.192025 
L 202.665762 172.347225 
L 203.557047 171.502425 
L 203.676325 170.657625 
L 205.141388 169.812825 
L 206.005006 168.968025 
L 207.662139 168.123225 
L 207.91263 167.278425 
L 211.109418 166.433625 
L 211.325441 164.744025 
L 211.62663 163.899225 
L 212.149059 163.054425 
L 212.216627 162.209625 
L 212.432984 161.364825 
L 213.466064 160.520025 
L 213.947029 159.675225 
L 214.086105 158.830425 
L 215.152922 157.140825 
L 216.94739 155.451225 
L 217.681128 154.606425 
L 218.897438 153.761625 
L 219.101039 152.916825 
L 219.774528 152.072025 
L 221.016695 151.227225 
L 221.692029 148.692825 
L 222.197815 147.848025 
L 222.997682 147.003225 
L 223.598676 146.158425 
L 224.661534 145.313625 
L 225.129335 144.468825 
L 226.445854 143.624025 
L 226.901559 142.779225 
L 227.223792 141.934425 
L 227.246919 141.089625 
L 228.819631 140.244825 
L 228.886348 139.400025 
L 230.049875 137.710425 
L 231.923684 136.865625 
L 232.983244 136.020825 
L 233.00519 135.176025 
L 233.217307 134.331225 
L 233.986521 133.486425 
L 234.053844 132.641625 
L 235.268815 131.796825 
L 236.685217 130.952025 
L 237.720053 130.107225 
L 237.733924 129.262425 
L 239.143929 127.572825 
L 240.294705 126.728025 
L 240.888595 125.038425 
L 240.910713 124.193625 
L 242.178094 123.348825 
L 242.525162 122.504025 
L 242.994864 121.659225 
L 244.80196 120.814425 
L 245.565881 119.969625 
L 245.710297 119.124825 
L 248.57919 116.590425 
L 249.126133 115.745625 
L 249.174036 114.900825 
L 250.906512 114.056025 
L 252.017308 113.211225 
L 252.41659 112.366425 
L 253.861641 111.521625 
L 253.963195 110.676825 
L 254.26842 109.832025 
L 257.473794 107.297625 
L 257.47998 106.452825 
L 258.053735 104.763225 
L 259.713801 103.918425 
L 260.47777 103.073625 
L 261.641153 99.694425 
L 262.855559 98.004825 
L 263.724913 97.160025 
L 266.480632 96.315225 
L 267.356145 95.470425 
L 269.565115 93.780825 
L 270.19462 92.936025 
L 270.218481 92.091225 
L 271.488813 91.246425 
L 271.723485 90.401625 
L 272.192431 89.556825 
L 272.288302 88.712025 
L 272.573831 87.867225 
L 275.779045 87.022425 
L 278.347866 86.177625 
L 279.347257 85.332825 
L 279.469439 84.488025 
L 280.382408 83.643225 
L 281.053703 82.798425 
L 282.018207 79.419225 
L 282.925676 78.574425 
L 283.46072 77.729625 
L 285.215445 76.884825 
L 285.271918 76.040025 
L 286.182879 75.195225 
L 287.930297 74.350425 
L 290.964461 73.505625 
L 292.904909 72.660825 
L 294.518909 71.816025 
L 295.495209 70.126425 
L 296.668349 69.281625 
L 298.228897 68.436825 
L 299.060411 67.592025 
L 299.181637 66.747225 
L 299.675302 65.902425 
L 299.729852 65.057625 
L 300.425864 64.212825 
L 300.792743 63.368025 
L 301.319881 62.523225 
L 301.391385 61.678425 
L 301.867729 60.833625 
L 303.633758 59.144025 
L 303.997394 58.299225 
L 305.446646 57.454425 
L 306.547903 54.075225 
L 309.049528 53.230425 
L 310.428473 52.385625 
L 310.580217 51.540825 
L 311.820785 50.696025 
L 312.038033 49.851225 
L 313.099342 49.006425 
L 313.68109 48.161625 
L 315.893339 47.316825 
L 316.554651 46.472025 
L 318.085055 45.627225 
L 320.800548 44.782425 
L 322.564594 43.937625 
L 323.424696 43.092825 
L 323.525866 42.248025 
L 326.891267 41.403225 
L 327.173556 40.558425 
L 328.477956 39.713625 
L 328.972453 38.868825 
L 330.583593 38.024025 
L 334.046481 37.179225 
L 336.338519 35.489625 
L 336.599935 34.644825 
L 336.699636 33.800025 
L 337.27115 32.955225 
L 337.672732 32.110425 
L 337.765472 31.265625 
L 338.917657 30.420825 
L 339.379842 29.576025 
L 341.303153 27.886425 
L 341.749562 27.041625 
L 342.055899 26.196825 
L 351.665755 25.352025 
L 352.149509 24.507225 
L 354.080915 23.662425 
L 354.476004 22.817625 
L 356.533912 21.972825 
L 357.76291 21.128025 
L 363.240989 20.283225 
L 367.749246 19.438425 
L 374.69286 18.593625 
L 376.58398 17.748825 
L 377.974187 16.904025 
L 378.788474 16.059225 
L 379.033928 15.214425 
L 383.994473 14.369625 
L 398.956211 13.524825 
L 399.257736 12.680025 
L 401.56972 11.835225 
L 419.981986 10.990425 
L 445.220915 10.145625 
L 445.220915 10.145625 
" clip-path="url(#paa2dc83cb8)" style="fill: none; stroke-dasharray: 7.4,3.2; stroke-dashoffset: 0; stroke: #1f77b4; stroke-width: 2"/>
   </g>
   <g id="patch_3">
    <path d="M 463.781875 231.905625 
L 463.781875 10.145625 
" style="fill: none; stroke: #000000; stroke-width: 0.8; stroke-linejoin: miter; stroke-linecap: square"/>
   </g>
   <g id="patch_4">
    <path d="M 17.381875 231.905625 
L 463.781875 231.905625 
" style="fill: none; stroke: #000000; stroke-width: 0.8; stroke-linejoin: miter; stroke-linecap: square"/>
   </g>
  </g>
 </g>
 <defs>
  <clipPath id="paa2dc83cb8">
   <rect x="17.381875" y="10.145625" width="446.4" height="221.76"/>
  </clipPath>
 </defs>
</svg>
