<?xml version="1.0" encoding="utf-8" standalone="no"?>
<!DOCTYPE svg PUBLIC "-//W3C//DTD SVG 1.1//EN"
  "http://www.w3.org/Graphics/SVG/1.1/DTD/svg11.dtd">
<svg xmlns:xlink="http://www.w3.org/1999/xlink" width="385.142852pt" height="158.646338pt" viewBox="0 0 385.142852 158.646338" xmlns="http://www.w3.org/2000/svg" version="1.1">
 <metadata>
  <rdf:RDF xmlns:dc="http://purl.org/dc/elements/1.1/" xmlns:cc="http://creativecommons.org/ns#" xmlns:rdf="http://www.w3.org/1999/02/22-rdf-syntax-ns#">
   <cc:Work>
    <dc:type rdf:resource="http://purl.org/dc/dcmitype/StillImage"/>
    <dc:date>2025-05-23T12:01:19.382615</dc:date>
    <dc:format>image/svg+xml</dc:format>
    <dc:creator>
     <cc:Agent>
      <dc:title>Matplotlib v3.9.2, https://matplotlib.org/</dc:title>
     </cc:Agent>
    </dc:creator>
   </cc:Work>
  </rdf:RDF>
 </metadata>
 <defs>
  <style type="text/css">*{stroke-linejoin: round; stroke-linecap: butt}</style>
 </defs>
 <g id="figure_1">
  <g id="patch_1">
   <path d="M -0 158.646338 
L 385.142852 158.646338 
L 385.142852 0 
L -0 0 
z
" style="fill: #ffffff"/>
  </g>
  <g id="axes_1">
   <g id="patch_2">
    <path d="M 10.457734 117.896182 
L 313.623085 117.896182 
L 313.623085 9.777422 
L 10.457734 9.777422 
z
" style="fill: #ffffff"/>
   </g>
   <g id="matplotlib.axis_1">
    <g id="xtick_1">
     <g id="line2d_1">
      <defs>
       <path id="me016e6b77b" d="M 0 0 
L 0 5 
" style="stroke: #262626; stroke-width: 0.5"/>
      </defs>
      <g>
       <use xlink:href="#me016e6b77b" x="10.457734" y="117.896182" style="fill: #262626; stroke: #262626; stroke-width: 0.5"/>
      </g>
     </g>
     <g id="text_1">
      <!-- 29-Dic -->
      <g style="fill: #262626" transform="translate(12.354844 147.619307) rotate(-90) scale(0.07 -0.07)">
       <defs>
        <path id="CenturyGothic-32" d="M 741 3156 
L 300 3156 
Q 319 3838 755 4275 
Q 1191 4713 1831 4713 
Q 2466 4713 2858 4303 
Q 3250 3894 3250 3338 
Q 3250 2947 3062 2605 
Q 2875 2263 2334 1678 
L 1191 444 
L 3313 444 
L 3313 0 
L 191 0 
L 1947 1897 
Q 2481 2469 2642 2745 
Q 2803 3022 2803 3328 
Q 2803 3716 2514 3995 
Q 2225 4275 1806 4275 
Q 1366 4275 1073 3981 
Q 781 3688 741 3156 
z
" transform="scale(0.015625)"/>
        <path id="CenturyGothic-39" d="M 1228 -116 
L 850 128 
L 2091 2009 
Q 1841 1928 1622 1928 
Q 1075 1928 694 2323 
Q 313 2719 313 3297 
Q 313 3694 497 4012 
Q 681 4331 1020 4522 
Q 1359 4713 1747 4713 
Q 2128 4713 2451 4528 
Q 2775 4344 2959 4012 
Q 3144 3681 3144 3306 
Q 3144 3022 3030 2711 
Q 2916 2400 2622 1963 
L 1228 -116 
z
M 1728 2331 
Q 2131 2331 2414 2614 
Q 2697 2897 2697 3297 
Q 2697 3697 2414 3980 
Q 2131 4263 1728 4263 
Q 1328 4263 1045 3980 
Q 763 3697 763 3297 
Q 763 2897 1045 2614 
Q 1328 2331 1728 2331 
z
" transform="scale(0.015625)"/>
        <path id="CenturyGothic-2d" d="M 203 1919 
L 1922 1919 
L 1922 1538 
L 203 1538 
L 203 1919 
z
" transform="scale(0.015625)"/>
        <path id="CenturyGothic-44" d="M 559 0 
L 559 4597 
L 1513 4597 
Q 2544 4597 3009 4431 
Q 3678 4197 4054 3619 
Q 4431 3041 4431 2241 
Q 4431 1550 4132 1025 
Q 3834 500 3357 250 
Q 2881 0 2022 0 
L 559 0 
z
M 1000 434 
L 1531 434 
Q 2484 434 2853 553 
Q 3372 722 3669 1161 
Q 3966 1600 3966 2234 
Q 3966 2900 3644 3372 
Q 3322 3844 2747 4019 
Q 2316 4150 1325 4150 
L 1000 4150 
L 1000 434 
z
" transform="scale(0.015625)"/>
        <path id="CenturyGothic-69" d="M 641 4800 
Q 791 4800 897 4694 
Q 1003 4588 1003 4438 
Q 1003 4291 897 4184 
Q 791 4078 641 4078 
Q 494 4078 387 4184 
Q 281 4291 281 4438 
Q 281 4588 387 4694 
Q 494 4800 641 4800 
z
M 422 3400 
L 863 3400 
L 863 0 
L 422 0 
L 422 3400 
z
" transform="scale(0.015625)"/>
        <path id="CenturyGothic-63" d="M 3788 2694 
L 3441 2478 
Q 2991 3075 2213 3075 
Q 1591 3075 1180 2675 
Q 769 2275 769 1703 
Q 769 1331 958 1003 
Q 1147 675 1476 494 
Q 1806 313 2216 313 
Q 2966 313 3441 909 
L 3788 681 
Q 3544 316 3133 114 
Q 2722 -88 2197 -88 
Q 1391 -88 859 425 
Q 328 938 328 1672 
Q 328 2166 576 2589 
Q 825 3013 1259 3250 
Q 1694 3488 2231 3488 
Q 2569 3488 2883 3384 
Q 3197 3281 3415 3115 
Q 3634 2950 3788 2694 
z
" transform="scale(0.015625)"/>
       </defs>
       <use xlink:href="#CenturyGothic-32"/>
       <use xlink:href="#CenturyGothic-39" x="55.419922"/>
       <use xlink:href="#CenturyGothic-2d" x="110.839844"/>
       <use xlink:href="#CenturyGothic-44" x="144.042969"/>
       <use xlink:href="#CenturyGothic-69" x="218.457031"/>
       <use xlink:href="#CenturyGothic-63" x="238.476562"/>
      </g>
     </g>
    </g>
    <g id="xtick_2">
     <g id="line2d_2">
      <g>
       <use xlink:href="#me016e6b77b" x="35.664226" y="117.896182" style="fill: #262626; stroke: #262626; stroke-width: 0.5"/>
      </g>
     </g>
     <g id="text_2">
      <!-- 01-Feb -->
      <g style="fill: #262626" transform="translate(37.561335 149.197588) rotate(-90) scale(0.07 -0.07)">
       <defs>
        <path id="CenturyGothic-30" d="M 203 2297 
Q 203 3206 398 3703 
Q 594 4200 950 4456 
Q 1306 4713 1747 4713 
Q 2194 4713 2556 4455 
Q 2919 4197 3130 3681 
Q 3341 3166 3341 2297 
Q 3341 1431 3133 918 
Q 2925 406 2559 145 
Q 2194 -116 1747 -116 
Q 1306 -116 953 137 
Q 600 391 401 892 
Q 203 1394 203 2297 
z
M 638 2288 
Q 638 1509 777 1111 
Q 916 713 1187 506 
Q 1459 300 1763 300 
Q 2069 300 2334 501 
Q 2600 703 2738 1106 
Q 2909 1597 2909 2288 
Q 2909 2981 2756 3423 
Q 2603 3866 2333 4070 
Q 2063 4275 1763 4275 
Q 1456 4275 1187 4070 
Q 919 3866 778 3467 
Q 638 3069 638 2288 
z
" transform="scale(0.015625)"/>
        <path id="CenturyGothic-31" d="M 1184 4597 
L 2088 4597 
L 2088 0 
L 1631 0 
L 1631 4147 
L 909 4147 
L 1184 4597 
z
" transform="scale(0.015625)"/>
        <path id="CenturyGothic-46" d="M 559 4597 
L 2863 4597 
L 2863 4144 
L 1016 4144 
L 1016 2706 
L 2863 2706 
L 2863 2253 
L 1016 2253 
L 1016 0 
L 559 0 
L 559 4597 
z
" transform="scale(0.015625)"/>
        <path id="CenturyGothic-65" d="M 3350 1128 
L 3719 934 
Q 3538 578 3300 359 
Q 3063 141 2766 26 
Q 2469 -88 2094 -88 
Q 1263 -88 794 457 
Q 325 1003 325 1691 
Q 325 2338 722 2844 
Q 1225 3488 2069 3488 
Q 2938 3488 3456 2828 
Q 3825 2363 3831 1666 
L 775 1666 
Q 788 1072 1153 692 
Q 1519 313 2056 313 
Q 2316 313 2561 403 
Q 2806 494 2978 644 
Q 3150 794 3350 1128 
z
M 3350 2044 
Q 3263 2394 3095 2603 
Q 2928 2813 2653 2941 
Q 2378 3069 2075 3069 
Q 1575 3069 1216 2747 
Q 953 2513 819 2044 
L 3350 2044 
z
" transform="scale(0.015625)"/>
        <path id="CenturyGothic-62" d="M 516 0 
L 516 4713 
L 950 4713 
L 950 2816 
Q 1225 3153 1565 3320 
Q 1906 3488 2313 3488 
Q 3034 3488 3545 2964 
Q 4056 2441 4056 1694 
Q 4056 956 3540 434 
Q 3025 -88 2300 -88 
Q 1884 -88 1546 90 
Q 1209 269 950 625 
L 950 0 
L 516 0 
z
M 2266 334 
Q 2631 334 2940 514 
Q 3250 694 3433 1019 
Q 3616 1344 3616 1706 
Q 3616 2069 3431 2397 
Q 3247 2725 2936 2908 
Q 2625 3091 2272 3091 
Q 1913 3091 1589 2908 
Q 1266 2725 1092 2415 
Q 919 2106 919 1719 
Q 919 1128 1308 731 
Q 1697 334 2266 334 
z
" transform="scale(0.015625)"/>
       </defs>
       <use xlink:href="#CenturyGothic-30"/>
       <use xlink:href="#CenturyGothic-31" x="55.419922"/>
       <use xlink:href="#CenturyGothic-2d" x="110.839844"/>
       <use xlink:href="#CenturyGothic-46" x="144.042969"/>
       <use xlink:href="#CenturyGothic-65" x="192.529297"/>
       <use xlink:href="#CenturyGothic-62" x="257.519531"/>
      </g>
     </g>
    </g>
    <g id="xtick_3">
     <g id="line2d_3">
      <g>
       <use xlink:href="#me016e6b77b" x="62.016467" y="117.896182" style="fill: #262626; stroke: #262626; stroke-width: 0.5"/>
      </g>
     </g>
     <g id="text_3">
      <!-- 06-Mar -->
      <g style="fill: #262626" transform="translate(63.913577 149.799151) rotate(-90) scale(0.07 -0.07)">
       <defs>
        <path id="CenturyGothic-36" d="M 2347 4713 
L 2725 4466 
L 1484 2584 
Q 1734 2669 1953 2669 
Q 2500 2669 2881 2273 
Q 3263 1878 3263 1300 
Q 3263 903 3078 583 
Q 2894 263 2555 73 
Q 2216 -116 1825 -116 
Q 1447 -116 1123 67 
Q 800 250 615 581 
Q 431 913 431 1291 
Q 431 1572 545 1883 
Q 659 2194 953 2631 
L 2347 4713 
z
M 1844 2266 
Q 1444 2266 1161 1983 
Q 878 1700 878 1297 
Q 878 897 1161 614 
Q 1444 331 1844 331 
Q 2244 331 2526 614 
Q 2809 897 2809 1297 
Q 2809 1700 2526 1983 
Q 2244 2266 1844 2266 
z
" transform="scale(0.015625)"/>
        <path id="CenturyGothic-4d" d="M 350 0 
L 1003 4597 
L 1078 4597 
L 2947 825 
L 4797 4597 
L 4872 4597 
L 5531 0 
L 5078 0 
L 4628 3288 
L 3003 0 
L 2888 0 
L 1241 3313 
L 794 0 
L 350 0 
z
" transform="scale(0.015625)"/>
        <path id="CenturyGothic-61" d="M 3875 3400 
L 3875 0 
L 3444 0 
L 3444 584 
Q 3169 250 2826 81 
Q 2484 -88 2078 -88 
Q 1356 -88 845 435 
Q 334 959 334 1709 
Q 334 2444 850 2966 
Q 1366 3488 2091 3488 
Q 2509 3488 2848 3309 
Q 3188 3131 3444 2775 
L 3444 3400 
L 3875 3400 
z
M 2125 3066 
Q 1759 3066 1450 2886 
Q 1141 2706 958 2381 
Q 775 2056 775 1694 
Q 775 1334 959 1006 
Q 1144 678 1455 495 
Q 1766 313 2122 313 
Q 2481 313 2803 494 
Q 3125 675 3298 984 
Q 3472 1294 3472 1681 
Q 3472 2272 3083 2669 
Q 2694 3066 2125 3066 
z
" transform="scale(0.015625)"/>
        <path id="CenturyGothic-72" d="M 322 3400 
L 769 3400 
L 769 2903 
Q 969 3197 1191 3342 
Q 1413 3488 1653 3488 
Q 1834 3488 2041 3372 
L 1813 3003 
Q 1675 3063 1581 3063 
Q 1363 3063 1159 2883 
Q 956 2703 850 2325 
Q 769 2034 769 1150 
L 769 0 
L 322 0 
L 322 3400 
z
" transform="scale(0.015625)"/>
       </defs>
       <use xlink:href="#CenturyGothic-30"/>
       <use xlink:href="#CenturyGothic-36" x="55.419922"/>
       <use xlink:href="#CenturyGothic-2d" x="110.839844"/>
       <use xlink:href="#CenturyGothic-4d" x="144.042969"/>
       <use xlink:href="#CenturyGothic-61" x="235.9375"/>
       <use xlink:href="#CenturyGothic-72" x="304.248047"/>
      </g>
     </g>
    </g>
    <g id="xtick_4">
     <g id="line2d_4">
      <g>
       <use xlink:href="#me016e6b77b" x="88.368709" y="117.896182" style="fill: #262626; stroke: #262626; stroke-width: 0.5"/>
      </g>
     </g>
     <g id="text_4">
      <!-- 09-Abr -->
      <g style="fill: #262626" transform="translate(90.265818 148.538057) rotate(-90) scale(0.07 -0.07)">
       <defs>
        <path id="CenturyGothic-41" d="M 2438 4597 
L 4581 0 
L 4088 0 
L 3366 1513 
L 1384 1513 
L 666 0 
L 153 0 
L 2325 4597 
L 2438 4597 
z
M 2381 3622 
L 1591 1956 
L 3163 1956 
L 2381 3622 
z
" transform="scale(0.015625)"/>
       </defs>
       <use xlink:href="#CenturyGothic-30"/>
       <use xlink:href="#CenturyGothic-39" x="55.419922"/>
       <use xlink:href="#CenturyGothic-2d" x="110.839844"/>
       <use xlink:href="#CenturyGothic-41" x="144.042969"/>
       <use xlink:href="#CenturyGothic-62" x="218.017578"/>
       <use xlink:href="#CenturyGothic-72" x="286.230469"/>
      </g>
     </g>
    </g>
    <g id="xtick_5">
     <g id="line2d_5">
      <g>
       <use xlink:href="#me016e6b77b" x="114.72095" y="117.896182" style="fill: #262626; stroke: #262626; stroke-width: 0.5"/>
      </g>
     </g>
     <g id="text_5">
      <!-- 10-May -->
      <g style="fill: #262626" transform="translate(116.61806 151.446338) rotate(-90) scale(0.07 -0.07)">
       <defs>
        <path id="CenturyGothic-79" d="M 122 3400 
L 584 3400 
L 1753 781 
L 2888 3400 
L 3353 3400 
L 1325 -1244 
L 863 -1244 
L 1519 256 
L 122 3400 
z
" transform="scale(0.015625)"/>
       </defs>
       <use xlink:href="#CenturyGothic-31"/>
       <use xlink:href="#CenturyGothic-30" x="55.419922"/>
       <use xlink:href="#CenturyGothic-2d" x="110.839844"/>
       <use xlink:href="#CenturyGothic-4d" x="144.042969"/>
       <use xlink:href="#CenturyGothic-61" x="235.9375"/>
       <use xlink:href="#CenturyGothic-79" x="304.248047"/>
      </g>
     </g>
    </g>
    <g id="xtick_6">
     <g id="line2d_6">
      <g>
       <use xlink:href="#me016e6b77b" x="141.073192" y="117.896182" style="fill: #262626; stroke: #262626; stroke-width: 0.5"/>
      </g>
     </g>
     <g id="text_6">
      <!-- 13-Jun -->
      <g style="fill: #262626" transform="translate(142.970301 148.377276) rotate(-90) scale(0.07 -0.07)">
       <defs>
        <path id="CenturyGothic-33" d="M 847 3531 
L 378 3531 
Q 506 4100 868 4406 
Q 1231 4713 1725 4713 
Q 2084 4713 2395 4548 
Q 2706 4384 2876 4106 
Q 3047 3828 3047 3525 
Q 3047 2931 2456 2584 
Q 2788 2450 3000 2191 
Q 3300 1825 3300 1372 
Q 3300 981 3094 626 
Q 2888 272 2531 78 
Q 2175 -116 1734 -116 
Q 1141 -116 744 226 
Q 347 569 225 1231 
L 675 1231 
Q 794 784 1016 584 
Q 1300 331 1741 331 
Q 2241 331 2544 631 
Q 2847 931 2847 1334 
Q 2847 1603 2695 1837 
Q 2544 2072 2289 2190 
Q 2034 2309 1500 2338 
L 1500 2759 
Q 1816 2759 2075 2870 
Q 2334 2981 2451 3153 
Q 2569 3325 2569 3528 
Q 2569 3828 2330 4047 
Q 2091 4266 1725 4266 
Q 1428 4266 1212 4098 
Q 997 3931 847 3531 
z
" transform="scale(0.015625)"/>
        <path id="CenturyGothic-4a" d="M 2063 4597 
L 2525 4597 
L 2525 1494 
Q 2525 778 2414 498 
Q 2303 219 2043 51 
Q 1784 -116 1416 -116 
Q 1138 -116 867 -8 
Q 597 100 269 372 
L 513 738 
Q 872 484 1109 381 
Q 1266 313 1416 313 
Q 1613 313 1773 431 
Q 1934 550 1998 747 
Q 2063 944 2063 1509 
L 2063 4597 
z
" transform="scale(0.015625)"/>
        <path id="CenturyGothic-75" d="M 431 3400 
L 872 3400 
L 872 1813 
Q 872 1231 934 1013 
Q 1028 700 1292 519 
Q 1556 338 1922 338 
Q 2288 338 2542 514 
Q 2797 691 2894 978 
Q 2959 1175 2959 1813 
L 2959 3400 
L 3406 3400 
L 3406 1731 
Q 3406 1028 3242 672 
Q 3078 316 2748 114 
Q 2419 -88 1922 -88 
Q 1425 -88 1092 114 
Q 759 316 595 677 
Q 431 1038 431 1763 
L 431 3400 
z
" transform="scale(0.015625)"/>
        <path id="CenturyGothic-6e" d="M 488 3400 
L 925 3400 
L 925 2791 
Q 1188 3141 1506 3314 
Q 1825 3488 2200 3488 
Q 2581 3488 2876 3294 
Q 3172 3100 3312 2772 
Q 3453 2444 3453 1750 
L 3453 0 
L 3019 0 
L 3019 1622 
Q 3019 2209 2969 2406 
Q 2891 2744 2675 2914 
Q 2459 3084 2113 3084 
Q 1716 3084 1402 2821 
Q 1088 2559 988 2172 
Q 925 1919 925 1247 
L 925 0 
L 488 0 
L 488 3400 
z
" transform="scale(0.015625)"/>
       </defs>
       <use xlink:href="#CenturyGothic-31"/>
       <use xlink:href="#CenturyGothic-33" x="55.419922"/>
       <use xlink:href="#CenturyGothic-2d" x="110.839844"/>
       <use xlink:href="#CenturyGothic-4a" x="144.042969"/>
       <use xlink:href="#CenturyGothic-75" x="192.236328"/>
       <use xlink:href="#CenturyGothic-6e" x="253.027344"/>
      </g>
     </g>
    </g>
    <g id="xtick_7">
     <g id="line2d_7">
      <g>
       <use xlink:href="#me016e6b77b" x="167.425433" y="117.896182" style="fill: #262626; stroke: #262626; stroke-width: 0.5"/>
      </g>
     </g>
     <g id="text_7">
      <!-- 18-Jul -->
      <g style="fill: #262626" transform="translate(169.322542 145.509463) rotate(-90) scale(0.07 -0.07)">
       <defs>
        <path id="CenturyGothic-38" d="M 2459 2522 
Q 2925 2291 3126 1994 
Q 3328 1697 3328 1319 
Q 3328 788 2981 381 
Q 2556 -116 1766 -116 
Q 1003 -116 609 320 
Q 216 756 216 1281 
Q 216 1666 422 1973 
Q 628 2281 1109 2522 
Q 772 2697 603 2956 
Q 434 3216 434 3513 
Q 434 3813 614 4098 
Q 794 4384 1111 4548 
Q 1428 4713 1797 4713 
Q 2156 4713 2462 4547 
Q 2769 4381 2942 4097 
Q 3116 3813 3116 3500 
Q 3116 3188 2952 2944 
Q 2788 2700 2459 2522 
z
M 1775 4266 
Q 1397 4266 1148 4042 
Q 900 3819 900 3509 
Q 900 3203 1167 2954 
Q 1434 2706 1791 2706 
Q 2019 2706 2222 2818 
Q 2425 2931 2539 3126 
Q 2653 3322 2653 3519 
Q 2653 3797 2428 4031 
Q 2203 4266 1775 4266 
z
M 1797 2291 
Q 1322 2291 1000 1983 
Q 678 1675 678 1266 
Q 678 1013 815 788 
Q 953 563 1200 441 
Q 1447 319 1772 319 
Q 2275 319 2572 616 
Q 2869 913 2869 1309 
Q 2869 1694 2555 1992 
Q 2241 2291 1797 2291 
z
" transform="scale(0.015625)"/>
        <path id="CenturyGothic-6c" d="M 422 4713 
L 859 4713 
L 859 0 
L 422 0 
L 422 4713 
z
" transform="scale(0.015625)"/>
       </defs>
       <use xlink:href="#CenturyGothic-31"/>
       <use xlink:href="#CenturyGothic-38" x="55.419922"/>
       <use xlink:href="#CenturyGothic-2d" x="110.839844"/>
       <use xlink:href="#CenturyGothic-4a" x="144.042969"/>
       <use xlink:href="#CenturyGothic-75" x="192.236328"/>
       <use xlink:href="#CenturyGothic-6c" x="253.027344"/>
      </g>
     </g>
    </g>
    <g id="xtick_8">
     <g id="line2d_8">
      <g>
       <use xlink:href="#me016e6b77b" x="193.777674" y="117.896182" style="fill: #262626; stroke: #262626; stroke-width: 0.5"/>
      </g>
     </g>
     <g id="text_8">
      <!-- 20-Ago -->
      <g style="fill: #262626" transform="translate(195.627206 150.950869) rotate(-90) scale(0.07 -0.07)">
       <defs>
        <path id="CenturyGothic-67" d="M 3416 3400 
L 3856 3400 
L 3856 691 
Q 3856 -25 3731 -356 
Q 3559 -825 3134 -1078 
Q 2709 -1331 2113 -1331 
Q 1675 -1331 1326 -1207 
Q 978 -1084 759 -876 
Q 541 -669 356 -269 
L 831 -269 
Q 1025 -606 1331 -768 
Q 1638 -931 2091 -931 
Q 2538 -931 2845 -764 
Q 3153 -597 3284 -344 
Q 3416 -91 3416 472 
L 3416 647 
Q 3169 334 2812 167 
Q 2456 0 2056 0 
Q 1588 0 1175 233 
Q 763 466 538 859 
Q 313 1253 313 1725 
Q 313 2197 547 2605 
Q 781 3013 1195 3250 
Q 1609 3488 2069 3488 
Q 2450 3488 2779 3330 
Q 3109 3172 3416 2809 
L 3416 3400 
z
M 2125 3066 
Q 1753 3066 1434 2886 
Q 1116 2706 934 2389 
Q 753 2072 753 1703 
Q 753 1144 1128 778 
Q 1503 413 2100 413 
Q 2703 413 3070 775 
Q 3438 1138 3438 1728 
Q 3438 2113 3269 2414 
Q 3100 2716 2790 2891 
Q 2481 3066 2125 3066 
z
" transform="scale(0.015625)"/>
        <path id="CenturyGothic-6f" d="M 2097 3488 
Q 2881 3488 3397 2919 
Q 3866 2400 3866 1691 
Q 3866 978 3370 445 
Q 2875 -88 2097 -88 
Q 1316 -88 820 445 
Q 325 978 325 1691 
Q 325 2397 794 2916 
Q 1309 3488 2097 3488 
z
M 2097 3059 
Q 1553 3059 1162 2656 
Q 772 2253 772 1681 
Q 772 1313 950 994 
Q 1128 675 1431 501 
Q 1734 328 2097 328 
Q 2459 328 2762 501 
Q 3066 675 3244 994 
Q 3422 1313 3422 1681 
Q 3422 2253 3030 2656 
Q 2638 3059 2097 3059 
z
" transform="scale(0.015625)"/>
       </defs>
       <use xlink:href="#CenturyGothic-32"/>
       <use xlink:href="#CenturyGothic-30" x="55.419922"/>
       <use xlink:href="#CenturyGothic-2d" x="110.839844"/>
       <use xlink:href="#CenturyGothic-41" x="144.042969"/>
       <use xlink:href="#CenturyGothic-67" x="218.017578"/>
       <use xlink:href="#CenturyGothic-6f" x="285.302734"/>
      </g>
     </g>
    </g>
    <g id="xtick_9">
     <g id="line2d_9">
      <g>
       <use xlink:href="#me016e6b77b" x="220.129916" y="117.896182" style="fill: #262626; stroke: #262626; stroke-width: 0.5"/>
      </g>
     </g>
     <g id="text_9">
      <!-- 23-Sep -->
      <g style="fill: #262626" transform="translate(222.027025 149.290557) rotate(-90) scale(0.07 -0.07)">
       <defs>
        <path id="CenturyGothic-53" d="M 84 856 
L 475 1091 
Q 888 331 1428 331 
Q 1659 331 1862 439 
Q 2066 547 2172 728 
Q 2278 909 2278 1113 
Q 2278 1344 2122 1566 
Q 1906 1872 1334 2303 
Q 759 2738 619 2931 
Q 375 3256 375 3634 
Q 375 3934 519 4181 
Q 663 4428 923 4570 
Q 1184 4713 1491 4713 
Q 1816 4713 2098 4552 
Q 2381 4391 2697 3959 
L 2322 3675 
Q 2063 4019 1880 4128 
Q 1697 4238 1481 4238 
Q 1203 4238 1026 4069 
Q 850 3900 850 3653 
Q 850 3503 912 3362 
Q 975 3222 1141 3056 
Q 1231 2969 1734 2597 
Q 2331 2156 2553 1812 
Q 2775 1469 2775 1122 
Q 2775 622 2395 253 
Q 2016 -116 1472 -116 
Q 1053 -116 712 107 
Q 372 331 84 856 
z
" transform="scale(0.015625)"/>
        <path id="CenturyGothic-70" d="M 494 3400 
L 928 3400 
L 928 2775 
Q 1188 3131 1525 3309 
Q 1863 3488 2278 3488 
Q 3003 3488 3518 2966 
Q 4034 2444 4034 1709 
Q 4034 959 3523 435 
Q 3013 -88 2291 -88 
Q 1884 -88 1543 81 
Q 1203 250 928 584 
L 928 -1244 
L 494 -1244 
L 494 3400 
z
M 2244 3066 
Q 1675 3066 1286 2669 
Q 897 2272 897 1681 
Q 897 1294 1070 984 
Q 1244 675 1567 494 
Q 1891 313 2250 313 
Q 2603 313 2914 495 
Q 3225 678 3409 1006 
Q 3594 1334 3594 1694 
Q 3594 2056 3411 2381 
Q 3228 2706 2918 2886 
Q 2609 3066 2244 3066 
z
" transform="scale(0.015625)"/>
       </defs>
       <use xlink:href="#CenturyGothic-32"/>
       <use xlink:href="#CenturyGothic-33" x="55.419922"/>
       <use xlink:href="#CenturyGothic-2d" x="110.839844"/>
       <use xlink:href="#CenturyGothic-53" x="144.042969"/>
       <use xlink:href="#CenturyGothic-65" x="193.847656"/>
       <use xlink:href="#CenturyGothic-70" x="258.837891"/>
      </g>
     </g>
    </g>
    <g id="xtick_10">
     <g id="line2d_10">
      <g>
       <use xlink:href="#me016e6b77b" x="246.482157" y="117.896182" style="fill: #262626; stroke: #262626; stroke-width: 0.5"/>
      </g>
     </g>
     <g id="text_10">
      <!-- 24-Oct -->
      <g style="fill: #262626" transform="translate(248.379266 149.465557) rotate(-90) scale(0.07 -0.07)">
       <defs>
        <path id="CenturyGothic-34" d="M 2725 4713 
L 2819 4713 
L 2819 1509 
L 3375 1509 
L 3375 1069 
L 2819 1069 
L 2819 0 
L 2359 0 
L 2359 1069 
L 163 1069 
L 2725 4713 
z
M 2359 1509 
L 2359 3425 
L 1006 1509 
L 2359 1509 
z
" transform="scale(0.015625)"/>
        <path id="CenturyGothic-4f" d="M 2750 4713 
Q 3794 4713 4497 4016 
Q 5200 3319 5200 2300 
Q 5200 1291 4498 587 
Q 3797 -116 2788 -116 
Q 1766 -116 1062 584 
Q 359 1284 359 2278 
Q 359 2941 679 3506 
Q 1000 4072 1553 4392 
Q 2106 4713 2750 4713 
z
M 2772 4263 
Q 2263 4263 1806 3997 
Q 1350 3731 1094 3281 
Q 838 2831 838 2278 
Q 838 1459 1405 895 
Q 1972 331 2772 331 
Q 3306 331 3761 590 
Q 4216 850 4470 1300 
Q 4725 1750 4725 2300 
Q 4725 2847 4470 3289 
Q 4216 3731 3753 3997 
Q 3291 4263 2772 4263 
z
" transform="scale(0.015625)"/>
        <path id="CenturyGothic-74" d="M 869 4663 
L 1309 4663 
L 1309 3400 
L 2003 3400 
L 2003 3025 
L 1309 3025 
L 1309 0 
L 869 0 
L 869 3025 
L 272 3025 
L 272 3400 
L 869 3400 
L 869 4663 
z
" transform="scale(0.015625)"/>
       </defs>
       <use xlink:href="#CenturyGothic-32"/>
       <use xlink:href="#CenturyGothic-34" x="55.419922"/>
       <use xlink:href="#CenturyGothic-2d" x="110.839844"/>
       <use xlink:href="#CenturyGothic-4f" x="144.042969"/>
       <use xlink:href="#CenturyGothic-63" x="230.957031"/>
       <use xlink:href="#CenturyGothic-74" x="295.654297"/>
      </g>
     </g>
    </g>
    <g id="xtick_11">
     <g id="line2d_11">
      <g>
       <use xlink:href="#me016e6b77b" x="272.834398" y="117.896182" style="fill: #262626; stroke: #262626; stroke-width: 0.5"/>
      </g>
     </g>
     <g id="text_11">
      <!-- 26-Nov -->
      <g style="fill: #262626" transform="translate(274.731508 150.120713) rotate(-90) scale(0.07 -0.07)">
       <defs>
        <path id="CenturyGothic-4e" d="M 563 0 
L 563 4597 
L 663 4597 
L 3719 1078 
L 3719 4597 
L 4172 4597 
L 4172 0 
L 4069 0 
L 1038 3475 
L 1038 0 
L 563 0 
z
" transform="scale(0.015625)"/>
        <path id="CenturyGothic-76" d="M 166 3400 
L 631 3400 
L 1769 925 
L 2897 3400 
L 3366 3400 
L 1809 0 
L 1731 0 
L 166 3400 
z
" transform="scale(0.015625)"/>
       </defs>
       <use xlink:href="#CenturyGothic-32"/>
       <use xlink:href="#CenturyGothic-36" x="55.419922"/>
       <use xlink:href="#CenturyGothic-2d" x="110.839844"/>
       <use xlink:href="#CenturyGothic-4e" x="144.042969"/>
       <use xlink:href="#CenturyGothic-6f" x="218.017578"/>
       <use xlink:href="#CenturyGothic-76" x="283.496094"/>
      </g>
     </g>
    </g>
    <g id="xtick_12">
     <g id="line2d_12">
      <g>
       <use xlink:href="#me016e6b77b" x="299.18664" y="117.896182" style="fill: #262626; stroke: #262626; stroke-width: 0.5"/>
      </g>
     </g>
     <g id="text_12">
      <!-- 31-Dic -->
      <g style="fill: #262626" transform="translate(301.083749 147.619307) rotate(-90) scale(0.07 -0.07)">
       <use xlink:href="#CenturyGothic-33"/>
       <use xlink:href="#CenturyGothic-31" x="55.419922"/>
       <use xlink:href="#CenturyGothic-2d" x="110.839844"/>
       <use xlink:href="#CenturyGothic-44" x="144.042969"/>
       <use xlink:href="#CenturyGothic-69" x="218.457031"/>
       <use xlink:href="#CenturyGothic-63" x="238.476562"/>
      </g>
     </g>
    </g>
   </g>
   <g id="matplotlib.axis_2">
    <g id="ytick_1">
     <g id="line2d_13">
      <defs>
       <path id="m6d60f61cee" d="M 0 0 
L 6 0 
" style="stroke: #262626; stroke-width: 0.5"/>
      </defs>
      <g>
       <use xlink:href="#m6d60f61cee" x="313.623085" y="117.442957" style="fill: #262626; stroke: #262626; stroke-width: 0.5"/>
      </g>
     </g>
     <g id="text_13">
      <!-- 3000 -->
      <g style="fill: #262626" transform="translate(323.123085 120.020379) scale(0.07 -0.07)">
       <use xlink:href="#CenturyGothic-33"/>
       <use xlink:href="#CenturyGothic-30" x="55.419922"/>
       <use xlink:href="#CenturyGothic-30" x="110.839844"/>
       <use xlink:href="#CenturyGothic-30" x="166.259766"/>
      </g>
     </g>
    </g>
    <g id="ytick_2">
     <g id="line2d_14">
      <g>
       <use xlink:href="#m6d60f61cee" x="313.623085" y="95.90985" style="fill: #262626; stroke: #262626; stroke-width: 0.5"/>
      </g>
     </g>
     <g id="text_14">
      <!-- 4000 -->
      <g style="fill: #262626" transform="translate(323.123085 98.487272) scale(0.07 -0.07)">
       <use xlink:href="#CenturyGothic-34"/>
       <use xlink:href="#CenturyGothic-30" x="55.419922"/>
       <use xlink:href="#CenturyGothic-30" x="110.839844"/>
       <use xlink:href="#CenturyGothic-30" x="166.259766"/>
      </g>
     </g>
    </g>
    <g id="ytick_3">
     <g id="line2d_15">
      <g>
       <use xlink:href="#m6d60f61cee" x="313.623085" y="74.376743" style="fill: #262626; stroke: #262626; stroke-width: 0.5"/>
      </g>
     </g>
     <g id="text_15">
      <!-- 5000 -->
      <g style="fill: #262626" transform="translate(323.123085 76.954165) scale(0.07 -0.07)">
       <defs>
        <path id="CenturyGothic-35" d="M 3147 4597 
L 3147 4159 
L 1509 4159 
L 1281 2906 
Q 1581 2994 1822 2994 
Q 2450 2994 2858 2573 
Q 3266 2153 3266 1497 
Q 3266 1044 3056 666 
Q 2847 288 2489 86 
Q 2131 -116 1663 -116 
Q 1103 -116 718 226 
Q 334 569 259 1113 
L 731 1113 
Q 784 847 911 681 
Q 1038 516 1248 414 
Q 1459 313 1691 313 
Q 2144 313 2469 656 
Q 2794 1000 2794 1516 
Q 2794 1981 2500 2272 
Q 2206 2563 1716 2563 
Q 1309 2563 731 2316 
L 1156 4597 
L 3147 4597 
z
" transform="scale(0.015625)"/>
       </defs>
       <use xlink:href="#CenturyGothic-35"/>
       <use xlink:href="#CenturyGothic-30" x="55.419922"/>
       <use xlink:href="#CenturyGothic-30" x="110.839844"/>
       <use xlink:href="#CenturyGothic-30" x="166.259766"/>
      </g>
     </g>
    </g>
    <g id="ytick_4">
     <g id="line2d_16">
      <g>
       <use xlink:href="#m6d60f61cee" x="313.623085" y="52.843636" style="fill: #262626; stroke: #262626; stroke-width: 0.5"/>
      </g>
     </g>
     <g id="text_16">
      <!-- 6000 -->
      <g style="fill: #262626" transform="translate(323.123085 55.421058) scale(0.07 -0.07)">
       <use xlink:href="#CenturyGothic-36"/>
       <use xlink:href="#CenturyGothic-30" x="55.419922"/>
       <use xlink:href="#CenturyGothic-30" x="110.839844"/>
       <use xlink:href="#CenturyGothic-30" x="166.259766"/>
      </g>
     </g>
    </g>
    <g id="ytick_5">
     <g id="line2d_17">
      <g>
       <use xlink:href="#m6d60f61cee" x="313.623085" y="31.310529" style="fill: #262626; stroke: #262626; stroke-width: 0.5"/>
      </g>
     </g>
     <g id="text_17">
      <!-- 7000 -->
      <g style="fill: #262626" transform="translate(323.123085 33.887951) scale(0.07 -0.07)">
       <defs>
        <path id="CenturyGothic-37" d="M 459 4597 
L 3375 4597 
L 916 -116 
L 538 78 
L 2663 4163 
L 459 4163 
L 459 4597 
z
" transform="scale(0.015625)"/>
       </defs>
       <use xlink:href="#CenturyGothic-37"/>
       <use xlink:href="#CenturyGothic-30" x="55.419922"/>
       <use xlink:href="#CenturyGothic-30" x="110.839844"/>
       <use xlink:href="#CenturyGothic-30" x="166.259766"/>
      </g>
     </g>
    </g>
    <g id="ytick_6">
     <g id="line2d_18">
      <g>
       <use xlink:href="#m6d60f61cee" x="313.623085" y="9.777422" style="fill: #262626; stroke: #262626; stroke-width: 0.5"/>
      </g>
     </g>
     <g id="text_18">
      <!-- 8000 -->
      <g style="fill: #262626" transform="translate(323.123085 12.354844) scale(0.07 -0.07)">
       <use xlink:href="#CenturyGothic-38"/>
       <use xlink:href="#CenturyGothic-30" x="55.419922"/>
       <use xlink:href="#CenturyGothic-30" x="110.839844"/>
       <use xlink:href="#CenturyGothic-30" x="166.259766"/>
      </g>
     </g>
    </g>
   </g>
   <g id="PolyCollection_1">
    <defs>
     <path id="mb1706c848d" d="M 10.457734 -79.31332 
L 10.457734 -79.31332 
L 11.603484 -77.225656 
L 12.749234 -76.369148 
L 13.894983 -75.747505 
L 15.040733 -75.200378 
L 16.186482 -74.730869 
L 17.332232 -74.311358 
L 18.477982 -73.949529 
L 19.623731 -73.591704 
L 20.769481 -73.232002 
L 21.915231 -72.921064 
L 23.06098 -72.659032 
L 24.20673 -72.376092 
L 25.352479 -72.088274 
L 26.498229 -71.835696 
L 27.643979 -71.586854 
L 28.789728 -71.34644 
L 29.935478 -71.123732 
L 31.081228 -70.924055 
L 32.226977 -70.701398 
L 33.372727 -70.481933 
L 34.518476 -70.283703 
L 35.664226 -70.095499 
L 36.809976 -69.94765 
L 37.955725 -69.757473 
L 39.101475 -69.534079 
L 40.247225 -69.362147 
L 41.392974 -69.191186 
L 42.538724 -69.009144 
L 43.684473 -68.881177 
L 44.830223 -68.725146 
L 45.975973 -68.534864 
L 47.121722 -68.37356 
L 48.267472 -68.259899 
L 49.413222 -68.110862 
L 50.558971 -67.95497 
L 51.704721 -67.832553 
L 52.85047 -67.693036 
L 53.99622 -67.532304 
L 55.14197 -67.433419 
L 56.287719 -67.319847 
L 57.433469 -67.18233 
L 58.579219 -67.060267 
L 59.724968 -66.930879 
L 60.870718 -66.806215 
L 62.016467 -66.703511 
L 63.162217 -66.563568 
L 64.307967 -66.424585 
L 65.453716 -66.303475 
L 66.599466 -66.159553 
L 67.745216 -66.10862 
L 68.890965 -66.003958 
L 70.036715 -65.869096 
L 71.182464 -65.767006 
L 72.328214 -65.633011 
L 73.473964 -65.542323 
L 74.619713 -65.430751 
L 75.765463 -65.350689 
L 76.911213 -65.207326 
L 78.056962 -65.088431 
L 79.202712 -64.960128 
L 80.348461 -64.834639 
L 81.494211 -64.748535 
L 82.639961 -64.647142 
L 83.78571 -64.560719 
L 84.93146 -64.441391 
L 86.07721 -64.331412 
L 87.222959 -64.234952 
L 88.368709 -64.103827 
L 89.514458 -64.06108 
L 90.660208 -63.955465 
L 91.805958 -63.89408 
L 92.951707 -63.736046 
L 94.097457 -63.662387 
L 95.243207 -63.60854 
L 96.388956 -63.549681 
L 97.534706 -63.430017 
L 98.680455 -63.400448 
L 99.826205 -63.286271 
L 100.971955 -63.239007 
L 102.117704 -63.14897 
L 103.263454 -63.073845 
L 104.409204 -62.988136 
L 105.554953 -62.890491 
L 106.700703 -62.858909 
L 107.846452 -62.684389 
L 108.992202 -62.62014 
L 110.137952 -62.537904 
L 111.283701 -62.481296 
L 112.429451 -62.411945 
L 113.575201 -62.321219 
L 114.72095 -62.228536 
L 115.8667 -62.12191 
L 117.012449 -62.068614 
L 118.158199 -62.016965 
L 119.303949 -61.905695 
L 120.449698 -61.862226 
L 121.595448 -61.77514 
L 122.741198 -61.667899 
L 123.886947 -61.575308 
L 125.032697 -61.514885 
L 126.178446 -61.451197 
L 127.324196 -61.39301 
L 128.469946 -61.329302 
L 129.615695 -61.237877 
L 130.761445 -61.184707 
L 131.907195 -61.092544 
L 133.052944 -61.083663 
L 134.198694 -60.995803 
L 135.344443 -60.944244 
L 136.490193 -60.865436 
L 137.635943 -60.784449 
L 138.781692 -60.728712 
L 139.927442 -60.617154 
L 141.073192 -60.591829 
L 142.218941 -60.523266 
L 143.364691 -60.454184 
L 144.51044 -60.385978 
L 145.65619 -60.264695 
L 146.80194 -60.176367 
L 147.947689 -60.091375 
L 149.093439 -60.05639 
L 150.239189 -60.024484 
L 151.384938 -59.942018 
L 152.530688 -59.897336 
L 153.676437 -59.789436 
L 154.822187 -59.744036 
L 155.967937 -59.66022 
L 157.113686 -59.606472 
L 158.259436 -59.559891 
L 159.405186 -59.454542 
L 160.550935 -59.410559 
L 161.696685 -59.333547 
L 162.842434 -59.313484 
L 163.988184 -59.233797 
L 165.133934 -59.17144 
L 166.279683 -59.128066 
L 167.425433 -59.078997 
L 168.571183 -59.05247 
L 169.716932 -58.994824 
L 170.862682 -58.895853 
L 172.008431 -58.844433 
L 173.154181 -58.76879 
L 174.299931 -58.747746 
L 175.44568 -58.683796 
L 176.59143 -58.654316 
L 177.73718 -58.62388 
L 178.882929 -58.551519 
L 180.028679 -58.495844 
L 181.174428 -58.437647 
L 182.320178 -58.415603 
L 183.465928 -58.346387 
L 184.611677 -58.309059 
L 185.757427 -58.237232 
L 186.903177 -58.155038 
L 188.048926 -58.0878 
L 189.194676 -58.001186 
L 190.340425 -58.024179 
L 191.486175 -57.952041 
L 192.631925 -57.896305 
L 193.777674 -57.839361 
L 194.923424 -57.777936 
L 196.069174 -57.717782 
L 197.214923 -57.704196 
L 198.360673 -57.669663 
L 199.506422 -57.604739 
L 200.652172 -57.576024 
L 201.797922 -57.551658 
L 202.943671 -57.479594 
L 204.089421 -57.379524 
L 205.235171 -57.363552 
L 206.38092 -57.287901 
L 207.52667 -57.232617 
L 208.672419 -57.174238 
L 209.818169 -57.170811 
L 210.963919 -57.091851 
L 212.109668 -57.062193 
L 213.255418 -57.008213 
L 214.401168 -56.910465 
L 215.546917 -56.837454 
L 216.692667 -56.784556 
L 217.838416 -56.760942 
L 218.984166 -56.700406 
L 220.129916 -56.652855 
L 221.275665 -56.65227 
L 222.421415 -56.556774 
L 223.567165 -56.515603 
L 224.712914 -56.448 
L 225.858664 -56.428911 
L 227.004413 -56.402681 
L 228.150163 -56.344341 
L 229.295913 -56.265107 
L 230.441662 -56.256125 
L 231.587412 -56.216208 
L 232.733162 -56.170475 
L 233.878911 -56.125732 
L 235.024661 -56.106589 
L 236.17041 -56.123041 
L 237.31616 -56.024887 
L 238.46191 -55.972254 
L 239.607659 -55.952114 
L 240.753409 -55.955962 
L 241.899159 -55.894085 
L 243.044908 -55.879212 
L 244.190658 -55.797606 
L 245.336407 -55.736999 
L 246.482157 -55.697762 
L 247.627907 -55.635452 
L 248.773656 -55.624441 
L 249.919406 -55.577685 
L 251.065156 -55.530109 
L 252.210905 -55.503072 
L 253.356655 -55.475756 
L 254.502404 -55.407949 
L 255.648154 -55.350167 
L 256.793904 -55.32243 
L 257.939653 -55.240069 
L 259.085403 -55.268373 
L 260.231153 -55.189548 
L 261.376902 -55.055095 
L 262.522652 -54.993444 
L 263.668401 -54.917359 
L 264.814151 -54.951243 
L 265.959901 -54.849352 
L 267.10565 -54.827925 
L 268.2514 -54.81419 
L 269.39715 -54.821389 
L 270.542899 -54.752929 
L 271.688649 -54.682103 
L 272.834398 -54.668175 
L 273.980148 -54.591193 
L 275.125898 -54.55169 
L 276.271647 -54.552985 
L 277.417397 -54.533243 
L 278.563147 -54.488314 
L 279.708896 -54.500544 
L 280.854646 -54.451372 
L 282.000395 -54.362242 
L 283.146145 -54.346441 
L 284.291895 -54.313559 
L 285.437644 -54.255301 
L 286.583394 -54.220378 
L 287.729144 -54.176816 
L 288.874893 -54.142596 
L 290.020643 -54.11091 
L 291.166392 -54.082769 
L 292.312142 -54.019601 
L 293.457892 -53.943699 
L 294.603641 -53.962253 
L 295.749391 -53.945667 
L 296.89514 -53.904729 
L 298.04089 -53.891996 
L 299.18664 -53.869641 
L 299.18664 -125.353882 
L 299.18664 -125.353882 
L 298.04089 -125.276361 
L 296.89514 -125.262841 
L 295.749391 -125.145551 
L 294.603641 -124.947259 
L 293.457892 -124.747651 
L 292.312142 -124.733036 
L 291.166392 -124.65827 
L 290.020643 -124.525891 
L 288.874893 -124.409796 
L 287.729144 -124.223955 
L 286.583394 -124.100243 
L 285.437644 -124.012201 
L 284.291895 -123.851235 
L 283.146145 -123.824302 
L 282.000395 -123.723402 
L 280.854646 -123.489519 
L 279.708896 -123.350567 
L 278.563147 -123.174417 
L 277.417397 -123.160742 
L 276.271647 -123.067009 
L 275.125898 -122.893089 
L 273.980148 -122.722846 
L 272.834398 -122.593026 
L 271.688649 -122.496206 
L 270.542899 -122.392783 
L 269.39715 -122.247649 
L 268.2514 -122.076606 
L 267.10565 -122.054364 
L 265.959901 -121.939264 
L 264.814151 -121.8399 
L 263.668401 -121.637945 
L 262.522652 -121.515757 
L 261.376902 -121.449889 
L 260.231153 -121.292973 
L 259.085403 -121.077909 
L 257.939653 -120.986748 
L 256.793904 -120.828824 
L 255.648154 -120.646938 
L 254.502404 -120.541233 
L 253.356655 -120.443165 
L 252.210905 -120.302904 
L 251.065156 -120.217703 
L 249.919406 -120.074719 
L 248.773656 -119.988195 
L 247.627907 -119.829075 
L 246.482157 -119.773407 
L 245.336407 -119.642755 
L 244.190658 -119.653603 
L 243.044908 -119.332545 
L 241.899159 -119.271761 
L 240.753409 -119.21361 
L 239.607659 -118.945481 
L 238.46191 -118.841062 
L 237.31616 -118.789123 
L 236.17041 -118.596399 
L 235.024661 -118.43005 
L 233.878911 -118.314143 
L 232.733162 -118.142073 
L 231.587412 -118.02233 
L 230.441662 -117.894731 
L 229.295913 -117.778024 
L 228.150163 -117.631846 
L 227.004413 -117.480672 
L 225.858664 -117.434299 
L 224.712914 -117.243915 
L 223.567165 -117.177048 
L 222.421415 -116.986781 
L 221.275665 -116.879373 
L 220.129916 -116.668548 
L 218.984166 -116.556315 
L 217.838416 -116.437145 
L 216.692667 -116.267843 
L 215.546917 -116.169119 
L 214.401168 -116.062808 
L 213.255418 -115.98525 
L 212.109668 -115.896144 
L 210.963919 -115.707998 
L 209.818169 -115.580199 
L 208.672419 -115.446911 
L 207.52667 -115.355052 
L 206.38092 -115.138444 
L 205.235171 -115.097221 
L 204.089421 -114.967811 
L 202.943671 -114.781582 
L 201.797922 -114.627369 
L 200.652172 -114.481555 
L 199.506422 -114.3699 
L 198.360673 -114.316593 
L 197.214923 -114.189877 
L 196.069174 -113.984677 
L 194.923424 -113.898598 
L 193.777674 -113.739581 
L 192.631925 -113.551121 
L 191.486175 -113.416459 
L 190.340425 -113.298552 
L 189.194676 -113.149258 
L 188.048926 -112.982374 
L 186.903177 -112.911515 
L 185.757427 -112.721598 
L 184.611677 -112.588756 
L 183.465928 -112.47244 
L 182.320178 -112.368069 
L 181.174428 -112.25013 
L 180.028679 -112.071969 
L 178.882929 -111.94898 
L 177.73718 -111.836435 
L 176.59143 -111.641188 
L 175.44568 -111.507562 
L 174.299931 -111.402742 
L 173.154181 -111.304582 
L 172.008431 -111.120926 
L 170.862682 -111.052631 
L 169.716932 -110.859206 
L 168.571183 -110.684204 
L 167.425433 -110.566337 
L 166.279683 -110.443872 
L 165.133934 -110.202396 
L 163.988184 -110.115054 
L 162.842434 -109.913225 
L 161.696685 -109.81586 
L 160.550935 -109.704515 
L 159.405186 -109.490475 
L 158.259436 -109.368918 
L 157.113686 -109.209568 
L 155.967937 -109.062527 
L 154.822187 -108.958233 
L 153.676437 -108.895043 
L 152.530688 -108.630764 
L 151.384938 -108.557966 
L 150.239189 -108.382366 
L 149.093439 -108.199077 
L 147.947689 -108.101355 
L 146.80194 -107.949174 
L 145.65619 -107.826407 
L 144.51044 -107.635476 
L 143.364691 -107.506125 
L 142.218941 -107.363996 
L 141.073192 -107.231147 
L 139.927442 -107.141679 
L 138.781692 -107.005801 
L 137.635943 -106.833922 
L 136.490193 -106.600128 
L 135.344443 -106.441349 
L 134.198694 -106.358977 
L 133.052944 -106.182581 
L 131.907195 -105.986406 
L 130.761445 -105.82101 
L 129.615695 -105.673968 
L 128.469946 -105.407229 
L 127.324196 -105.313039 
L 126.178446 -105.194949 
L 125.032697 -105.031517 
L 123.886947 -104.937819 
L 122.741198 -104.744759 
L 121.595448 -104.598371 
L 120.449698 -104.439001 
L 119.303949 -104.333882 
L 118.158199 -104.134759 
L 117.012449 -103.957144 
L 115.8667 -103.773143 
L 114.72095 -103.656678 
L 113.575201 -103.544461 
L 112.429451 -103.414478 
L 111.283701 -103.239057 
L 110.137952 -103.058501 
L 108.992202 -102.901051 
L 107.846452 -102.713473 
L 106.700703 -102.609854 
L 105.554953 -102.40903 
L 104.409204 -102.205556 
L 103.263454 -102.014953 
L 102.117704 -101.838262 
L 100.971955 -101.671006 
L 99.826205 -101.52964 
L 98.680455 -101.393813 
L 97.534706 -101.175981 
L 96.388956 -100.992198 
L 95.243207 -100.88688 
L 94.097457 -100.756582 
L 92.951707 -100.529136 
L 91.805958 -100.324821 
L 90.660208 -100.186714 
L 89.514458 -100.021445 
L 88.368709 -99.7824 
L 87.222959 -99.634985 
L 86.07721 -99.445071 
L 84.93146 -99.292449 
L 83.78571 -99.129346 
L 82.639961 -98.948679 
L 81.494211 -98.780469 
L 80.348461 -98.56495 
L 79.202712 -98.38962 
L 78.056962 -98.19818 
L 76.911213 -98.042028 
L 75.765463 -97.884219 
L 74.619713 -97.727418 
L 73.473964 -97.493346 
L 72.328214 -97.321009 
L 71.182464 -97.085544 
L 70.036715 -96.935306 
L 68.890965 -96.745832 
L 67.745216 -96.504539 
L 66.599466 -96.348068 
L 65.453716 -96.124648 
L 64.307967 -95.907314 
L 63.162217 -95.732075 
L 62.016467 -95.49437 
L 60.870718 -95.326958 
L 59.724968 -95.097435 
L 58.579219 -94.873767 
L 57.433469 -94.604994 
L 56.287719 -94.399031 
L 55.14197 -94.192735 
L 53.99622 -93.963399 
L 52.85047 -93.779157 
L 51.704721 -93.564997 
L 50.558971 -93.348514 
L 49.413222 -93.062946 
L 48.267472 -92.868522 
L 47.121722 -92.643399 
L 45.975973 -92.434754 
L 44.830223 -92.212426 
L 43.684473 -91.959422 
L 42.538724 -91.7067 
L 41.392974 -91.49963 
L 40.247225 -91.265406 
L 39.101475 -91.004842 
L 37.955725 -90.745525 
L 36.809976 -90.461894 
L 35.664226 -90.169034 
L 34.518476 -89.937886 
L 33.372727 -89.64627 
L 32.226977 -89.322385 
L 31.081228 -89.0473 
L 29.935478 -88.752333 
L 28.789728 -88.442258 
L 27.643979 -88.12862 
L 26.498229 -87.816292 
L 25.352479 -87.474064 
L 24.20673 -87.17076 
L 23.06098 -86.832934 
L 21.915231 -86.425995 
L 20.769481 -86.035913 
L 19.623731 -85.649413 
L 18.477982 -85.192122 
L 17.332232 -84.739445 
L 16.186482 -84.250316 
L 15.040733 -83.724293 
L 13.894983 -83.120031 
L 12.749234 -82.39713 
L 11.603484 -81.489381 
L 10.457734 -79.31332 
z
" style="stroke: #c6dbef; stroke-opacity: 0.8"/>
    </defs>
    <g clip-path="url(#p326414c859)">
     <use xlink:href="#mb1706c848d" x="0" y="158.646338" style="fill: #c6dbef; fill-opacity: 0.8; stroke: #c6dbef; stroke-opacity: 0.8"/>
    </g>
   </g>
   <g id="PolyCollection_2">
    <defs>
     <path id="m52cc61fbad" d="M 10.457734 -79.31332 
L 10.457734 -79.31332 
L 11.603484 -78.461593 
L 12.749234 -78.120369 
L 13.894983 -77.86445 
L 15.040733 -77.657685 
L 16.186482 -77.474127 
L 17.332232 -77.298041 
L 18.477982 -77.142843 
L 19.623731 -77.011656 
L 20.769481 -76.886108 
L 21.915231 -76.742526 
L 23.06098 -76.625064 
L 24.20673 -76.507872 
L 25.352479 -76.417957 
L 26.498229 -76.302697 
L 27.643979 -76.226832 
L 28.789728 -76.133017 
L 29.935478 -76.054447 
L 31.081228 -75.961621 
L 32.226977 -75.870086 
L 33.372727 -75.789438 
L 34.518476 -75.724769 
L 35.664226 -75.655212 
L 36.809976 -75.595819 
L 37.955725 -75.530363 
L 39.101475 -75.441172 
L 40.247225 -75.368014 
L 41.392974 -75.31871 
L 42.538724 -75.222713 
L 43.684473 -75.179915 
L 44.830223 -75.133609 
L 45.975973 -75.060485 
L 47.121722 -75.006005 
L 48.267472 -74.971082 
L 49.413222 -74.893226 
L 50.558971 -74.823688 
L 51.704721 -74.785977 
L 52.85047 -74.746472 
L 53.99622 -74.669331 
L 55.14197 -74.663988 
L 56.287719 -74.601961 
L 57.433469 -74.542305 
L 58.579219 -74.484992 
L 59.724968 -74.446355 
L 60.870718 -74.401007 
L 62.016467 -74.355209 
L 63.162217 -74.330535 
L 64.307967 -74.306523 
L 65.453716 -74.264833 
L 66.599466 -74.205934 
L 67.745216 -74.149331 
L 68.890965 -74.098083 
L 70.036715 -74.073646 
L 71.182464 -74.034049 
L 72.328214 -73.981347 
L 73.473964 -73.946491 
L 74.619713 -73.90685 
L 75.765463 -73.87475 
L 76.911213 -73.833467 
L 78.056962 -73.774108 
L 79.202712 -73.730252 
L 80.348461 -73.706907 
L 81.494211 -73.697585 
L 82.639961 -73.641151 
L 83.78571 -73.580004 
L 84.93146 -73.564712 
L 86.07721 -73.519168 
L 87.222959 -73.492905 
L 88.368709 -73.471575 
L 89.514458 -73.407569 
L 90.660208 -73.387815 
L 91.805958 -73.35187 
L 92.951707 -73.298542 
L 94.097457 -73.297145 
L 95.243207 -73.268364 
L 96.388956 -73.221667 
L 97.534706 -73.169056 
L 98.680455 -73.125564 
L 99.826205 -73.110951 
L 100.971955 -73.083872 
L 102.117704 -73.050568 
L 103.263454 -73.042662 
L 104.409204 -73.00089 
L 105.554953 -72.961584 
L 106.700703 -72.928477 
L 107.846452 -72.900114 
L 108.992202 -72.897402 
L 110.137952 -72.863827 
L 111.283701 -72.830438 
L 112.429451 -72.834698 
L 113.575201 -72.808072 
L 114.72095 -72.796506 
L 115.8667 -72.783575 
L 117.012449 -72.725966 
L 118.158199 -72.731288 
L 119.303949 -72.704713 
L 120.449698 -72.691485 
L 121.595448 -72.668884 
L 122.741198 -72.649777 
L 123.886947 -72.600833 
L 125.032697 -72.580443 
L 126.178446 -72.543238 
L 127.324196 -72.494124 
L 128.469946 -72.449855 
L 129.615695 -72.448356 
L 130.761445 -72.423502 
L 131.907195 -72.414058 
L 133.052944 -72.374466 
L 134.198694 -72.363924 
L 135.344443 -72.329867 
L 136.490193 -72.315627 
L 137.635943 -72.271622 
L 138.781692 -72.275543 
L 139.927442 -72.247552 
L 141.073192 -72.209241 
L 142.218941 -72.17358 
L 143.364691 -72.139155 
L 144.51044 -72.117867 
L 145.65619 -72.10372 
L 146.80194 -72.090455 
L 147.947689 -72.083105 
L 149.093439 -72.056417 
L 150.239189 -72.065521 
L 151.384938 -72.024057 
L 152.530688 -72.024089 
L 153.676437 -72.023219 
L 154.822187 -72.009383 
L 155.967937 -71.995851 
L 157.113686 -71.960073 
L 158.259436 -71.975919 
L 159.405186 -71.946153 
L 160.550935 -71.92914 
L 161.696685 -71.878607 
L 162.842434 -71.876432 
L 163.988184 -71.824063 
L 165.133934 -71.817635 
L 166.279683 -71.832377 
L 167.425433 -71.760006 
L 168.571183 -71.771549 
L 169.716932 -71.754485 
L 170.862682 -71.716934 
L 172.008431 -71.709955 
L 173.154181 -71.692441 
L 174.299931 -71.661217 
L 175.44568 -71.617028 
L 176.59143 -71.602957 
L 177.73718 -71.579195 
L 178.882929 -71.535857 
L 180.028679 -71.52563 
L 181.174428 -71.51964 
L 182.320178 -71.523725 
L 183.465928 -71.509133 
L 184.611677 -71.532249 
L 185.757427 -71.496937 
L 186.903177 -71.458756 
L 188.048926 -71.452089 
L 189.194676 -71.456422 
L 190.340425 -71.468593 
L 191.486175 -71.454815 
L 192.631925 -71.422828 
L 193.777674 -71.428528 
L 194.923424 -71.421876 
L 196.069174 -71.39957 
L 197.214923 -71.357674 
L 198.360673 -71.344459 
L 199.506422 -71.364102 
L 200.652172 -71.324965 
L 201.797922 -71.324454 
L 202.943671 -71.295764 
L 204.089421 -71.268326 
L 205.235171 -71.287035 
L 206.38092 -71.252941 
L 207.52667 -71.235983 
L 208.672419 -71.21168 
L 209.818169 -71.228419 
L 210.963919 -71.190624 
L 212.109668 -71.159671 
L 213.255418 -71.187832 
L 214.401168 -71.202031 
L 215.546917 -71.140077 
L 216.692667 -71.11321 
L 217.838416 -71.067776 
L 218.984166 -71.057394 
L 220.129916 -71.049855 
L 221.275665 -71.04093 
L 222.421415 -71.0103 
L 223.567165 -70.994718 
L 224.712914 -70.96515 
L 225.858664 -70.980877 
L 227.004413 -70.96677 
L 228.150163 -70.959212 
L 229.295913 -70.988511 
L 230.441662 -70.966863 
L 231.587412 -70.983523 
L 232.733162 -70.952105 
L 233.878911 -70.953716 
L 235.024661 -70.950113 
L 236.17041 -70.941559 
L 237.31616 -70.932584 
L 238.46191 -70.915425 
L 239.607659 -70.887123 
L 240.753409 -70.859127 
L 241.899159 -70.840624 
L 243.044908 -70.815132 
L 244.190658 -70.819047 
L 245.336407 -70.793469 
L 246.482157 -70.796415 
L 247.627907 -70.760039 
L 248.773656 -70.766584 
L 249.919406 -70.737044 
L 251.065156 -70.721334 
L 252.210905 -70.676682 
L 253.356655 -70.67129 
L 254.502404 -70.65646 
L 255.648154 -70.644271 
L 256.793904 -70.637457 
L 257.939653 -70.649319 
L 259.085403 -70.607574 
L 260.231153 -70.608275 
L 261.376902 -70.626294 
L 262.522652 -70.607532 
L 263.668401 -70.630313 
L 264.814151 -70.618158 
L 265.959901 -70.597448 
L 267.10565 -70.588915 
L 268.2514 -70.588043 
L 269.39715 -70.546391 
L 270.542899 -70.525327 
L 271.688649 -70.539069 
L 272.834398 -70.497862 
L 273.980148 -70.49952 
L 275.125898 -70.474895 
L 276.271647 -70.440011 
L 277.417397 -70.423898 
L 278.563147 -70.408572 
L 279.708896 -70.401051 
L 280.854646 -70.410428 
L 282.000395 -70.407461 
L 283.146145 -70.398568 
L 284.291895 -70.389904 
L 285.437644 -70.419471 
L 286.583394 -70.36729 
L 287.729144 -70.382498 
L 288.874893 -70.384146 
L 290.020643 -70.378545 
L 291.166392 -70.366138 
L 292.312142 -70.365309 
L 293.457892 -70.357705 
L 294.603641 -70.359898 
L 295.749391 -70.32479 
L 296.89514 -70.329049 
L 298.04089 -70.326965 
L 299.18664 -70.312375 
L 299.18664 -99.381818 
L 299.18664 -99.381818 
L 298.04089 -99.291652 
L 296.89514 -99.22766 
L 295.749391 -99.182989 
L 294.603641 -99.116734 
L 293.457892 -99.088491 
L 292.312142 -99.005046 
L 291.166392 -98.976299 
L 290.020643 -98.898135 
L 288.874893 -98.895019 
L 287.729144 -98.825339 
L 286.583394 -98.767036 
L 285.437644 -98.701811 
L 284.291895 -98.661364 
L 283.146145 -98.63088 
L 282.000395 -98.561356 
L 280.854646 -98.53242 
L 279.708896 -98.445524 
L 278.563147 -98.403312 
L 277.417397 -98.339614 
L 276.271647 -98.269258 
L 275.125898 -98.215013 
L 273.980148 -98.163371 
L 272.834398 -98.120856 
L 271.688649 -98.043375 
L 270.542899 -98.046504 
L 269.39715 -97.961624 
L 268.2514 -97.889084 
L 267.10565 -97.827785 
L 265.959901 -97.795406 
L 264.814151 -97.757713 
L 263.668401 -97.712706 
L 262.522652 -97.643383 
L 261.376902 -97.578707 
L 260.231153 -97.52293 
L 259.085403 -97.480021 
L 257.939653 -97.420432 
L 256.793904 -97.401317 
L 255.648154 -97.358199 
L 254.502404 -97.295236 
L 253.356655 -97.22522 
L 252.210905 -97.163976 
L 251.065156 -97.089241 
L 249.919406 -97.003629 
L 248.773656 -96.948985 
L 247.627907 -96.907752 
L 246.482157 -96.840947 
L 245.336407 -96.805869 
L 244.190658 -96.748817 
L 243.044908 -96.724002 
L 241.899159 -96.690316 
L 240.753409 -96.637876 
L 239.607659 -96.608018 
L 238.46191 -96.49159 
L 237.31616 -96.450305 
L 236.17041 -96.376422 
L 235.024661 -96.340077 
L 233.878911 -96.292351 
L 232.733162 -96.218551 
L 231.587412 -96.195524 
L 230.441662 -96.136967 
L 229.295913 -96.028134 
L 228.150163 -96.003671 
L 227.004413 -95.903882 
L 225.858664 -95.813132 
L 224.712914 -95.766336 
L 223.567165 -95.699834 
L 222.421415 -95.603702 
L 221.275665 -95.58884 
L 220.129916 -95.518207 
L 218.984166 -95.416197 
L 217.838416 -95.369451 
L 216.692667 -95.35742 
L 215.546917 -95.260617 
L 214.401168 -95.206572 
L 213.255418 -95.15042 
L 212.109668 -95.12019 
L 210.963919 -95.058313 
L 209.818169 -95.003719 
L 208.672419 -94.999857 
L 207.52667 -94.885468 
L 206.38092 -94.862985 
L 205.235171 -94.784409 
L 204.089421 -94.739659 
L 202.943671 -94.656806 
L 201.797922 -94.597618 
L 200.652172 -94.512218 
L 199.506422 -94.45499 
L 198.360673 -94.404864 
L 197.214923 -94.37854 
L 196.069174 -94.279232 
L 194.923424 -94.216487 
L 193.777674 -94.133092 
L 192.631925 -94.037262 
L 191.486175 -94.014764 
L 190.340425 -93.957509 
L 189.194676 -93.885255 
L 188.048926 -93.827882 
L 186.903177 -93.762665 
L 185.757427 -93.729807 
L 184.611677 -93.666274 
L 183.465928 -93.562992 
L 182.320178 -93.514761 
L 181.174428 -93.473935 
L 180.028679 -93.405375 
L 178.882929 -93.370358 
L 177.73718 -93.312521 
L 176.59143 -93.224392 
L 175.44568 -93.159969 
L 174.299931 -93.127744 
L 173.154181 -93.026746 
L 172.008431 -92.948058 
L 170.862682 -92.888789 
L 169.716932 -92.823156 
L 168.571183 -92.780163 
L 167.425433 -92.714654 
L 166.279683 -92.675353 
L 165.133934 -92.595283 
L 163.988184 -92.558232 
L 162.842434 -92.477873 
L 161.696685 -92.397404 
L 160.550935 -92.297662 
L 159.405186 -92.28426 
L 158.259436 -92.209576 
L 157.113686 -92.141226 
L 155.967937 -92.084546 
L 154.822187 -92.011923 
L 153.676437 -91.945655 
L 152.530688 -91.878734 
L 151.384938 -91.812155 
L 150.239189 -91.757806 
L 149.093439 -91.667654 
L 147.947689 -91.609477 
L 146.80194 -91.572934 
L 145.65619 -91.49829 
L 144.51044 -91.443968 
L 143.364691 -91.367366 
L 142.218941 -91.275281 
L 141.073192 -91.207011 
L 139.927442 -91.12534 
L 138.781692 -91.053879 
L 137.635943 -91.025493 
L 136.490193 -90.943822 
L 135.344443 -90.914884 
L 134.198694 -90.854465 
L 133.052944 -90.790916 
L 131.907195 -90.779135 
L 130.761445 -90.731941 
L 129.615695 -90.627164 
L 128.469946 -90.55327 
L 127.324196 -90.508244 
L 126.178446 -90.420543 
L 125.032697 -90.353772 
L 123.886947 -90.201139 
L 122.741198 -90.198219 
L 121.595448 -90.12942 
L 120.449698 -90.086569 
L 119.303949 -89.996858 
L 118.158199 -89.940069 
L 117.012449 -89.882939 
L 115.8667 -89.843475 
L 114.72095 -89.760205 
L 113.575201 -89.654077 
L 112.429451 -89.610678 
L 111.283701 -89.533855 
L 110.137952 -89.442036 
L 108.992202 -89.395403 
L 107.846452 -89.31678 
L 106.700703 -89.224562 
L 105.554953 -89.145886 
L 104.409204 -89.084159 
L 103.263454 -89.036101 
L 102.117704 -88.965138 
L 100.971955 -88.903879 
L 99.826205 -88.842967 
L 98.680455 -88.768693 
L 97.534706 -88.698046 
L 96.388956 -88.652852 
L 95.243207 -88.567745 
L 94.097457 -88.46848 
L 92.951707 -88.415162 
L 91.805958 -88.354405 
L 90.660208 -88.248884 
L 89.514458 -88.172616 
L 88.368709 -88.071068 
L 87.222959 -87.98008 
L 86.07721 -87.917551 
L 84.93146 -87.826494 
L 83.78571 -87.757368 
L 82.639961 -87.639045 
L 81.494211 -87.561403 
L 80.348461 -87.494497 
L 79.202712 -87.399269 
L 78.056962 -87.354685 
L 76.911213 -87.245295 
L 75.765463 -87.184662 
L 74.619713 -87.075499 
L 73.473964 -86.992877 
L 72.328214 -86.924055 
L 71.182464 -86.846771 
L 70.036715 -86.744356 
L 68.890965 -86.684796 
L 67.745216 -86.589788 
L 66.599466 -86.492378 
L 65.453716 -86.37616 
L 64.307967 -86.315879 
L 63.162217 -86.228273 
L 62.016467 -86.148777 
L 60.870718 -86.051321 
L 59.724968 -85.969774 
L 58.579219 -85.887055 
L 57.433469 -85.794915 
L 56.287719 -85.69498 
L 55.14197 -85.598788 
L 53.99622 -85.524201 
L 52.85047 -85.419063 
L 51.704721 -85.336149 
L 50.558971 -85.24611 
L 49.413222 -85.162456 
L 48.267472 -85.040371 
L 47.121722 -84.932282 
L 45.975973 -84.85796 
L 44.830223 -84.750435 
L 43.684473 -84.631799 
L 42.538724 -84.533582 
L 41.392974 -84.441258 
L 40.247225 -84.325193 
L 39.101475 -84.234778 
L 37.955725 -84.104663 
L 36.809976 -83.99526 
L 35.664226 -83.87321 
L 34.518476 -83.756111 
L 33.372727 -83.624691 
L 32.226977 -83.53636 
L 31.081228 -83.398688 
L 29.935478 -83.256034 
L 28.789728 -83.135014 
L 27.643979 -83.00419 
L 26.498229 -82.869315 
L 25.352479 -82.721684 
L 24.20673 -82.586903 
L 23.06098 -82.427193 
L 21.915231 -82.256522 
L 20.769481 -82.106423 
L 19.623731 -81.945648 
L 18.477982 -81.768041 
L 17.332232 -81.565835 
L 16.186482 -81.359266 
L 15.040733 -81.13698 
L 13.894983 -80.882913 
L 12.749234 -80.593684 
L 11.603484 -80.210682 
L 10.457734 -79.31332 
z
" style="stroke: #6aaed6; stroke-opacity: 0.8"/>
    </defs>
    <g clip-path="url(#p326414c859)">
     <use xlink:href="#m52cc61fbad" x="0" y="158.646338" style="fill: #6aaed6; fill-opacity: 0.8; stroke: #6aaed6; stroke-opacity: 0.8"/>
    </g>
   </g>
   <g id="line2d_19">
    <path d="M 10.457734 79.333018 
L 41.392974 78.862562 
L 49.413222 78.747013 
L 53.99622 78.674468 
L 63.162217 78.550984 
L 71.182464 78.411499 
L 88.368709 78.089672 
L 95.243207 78.013468 
L 190.340425 76.522366 
L 215.546917 76.094141 
L 218.984166 76.059458 
L 222.421415 75.966254 
L 229.295913 75.880873 
L 233.878911 75.803301 
L 241.899159 75.672302 
L 244.190658 75.663449 
L 256.793904 75.464651 
L 263.668401 75.390565 
L 270.542899 75.268031 
L 299.18664 74.856588 
L 299.18664 74.856588 
" clip-path="url(#p326414c859)" style="fill: none; stroke: #000000; stroke-width: 2; stroke-linecap: round"/>
   </g>
   <g id="line2d_20">
    <path d="M 10.457734 79.333018 
L 313.623085 79.333018 
" clip-path="url(#p326414c859)" style="fill: none; stroke-dasharray: 7.4,3.2; stroke-dashoffset: 0; stroke: #b3a369; stroke-width: 2"/>
   </g>
   <g id="patch_3">
    <path d="M 313.623085 117.896182 
L 313.623085 9.777422 
" style="fill: none; stroke: #262626; stroke-width: 0.5; stroke-linejoin: miter; stroke-linecap: square"/>
   </g>
   <g id="patch_4">
    <path d="M 10.457734 117.896182 
L 313.623085 117.896182 
" style="fill: none; stroke: #262626; stroke-width: 0.5; stroke-linejoin: miter; stroke-linecap: square"/>
   </g>
   <g id="text_19">
    <g id="patch_5">
     <path d="M 317.518634 83.990752 
L 377.942852 83.990752 
Q 379.342852 83.990752 379.342852 82.590752 
L 379.342852 76.075284 
Q 379.342852 74.675284 377.942852 74.675284 
L 317.518634 74.675284 
Q 316.118634 74.675284 316.118634 76.075284 
L 316.118634 82.590752 
Q 316.118634 83.990752 317.518634 83.990752 
z
" style="fill: #ffffff; opacity: 0.7"/>
    </g>
    <!-- Valor Inicial: 4,770 -->
    <g style="fill: #b3a369" transform="translate(317.518634 81.230127) scale(0.07 -0.07)">
     <defs>
      <path id="CenturyGothic-56" d="M 209 4597 
L 709 4597 
L 2231 1044 
L 3781 4597 
L 4281 4597 
L 2281 0 
L 2181 0 
L 209 4597 
z
" transform="scale(0.015625)"/>
      <path id="CenturyGothic-20" transform="scale(0.015625)"/>
      <path id="CenturyGothic-49" d="M 494 4597 
L 953 4597 
L 953 0 
L 494 0 
L 494 4597 
z
" transform="scale(0.015625)"/>
      <path id="CenturyGothic-3a" d="M 969 3488 
Q 1128 3488 1240 3375 
Q 1353 3263 1353 3100 
Q 1353 2938 1240 2825 
Q 1128 2713 969 2713 
Q 809 2713 696 2825 
Q 584 2938 584 3100 
Q 584 3259 696 3373 
Q 809 3488 969 3488 
z
M 969 688 
Q 1128 688 1240 575 
Q 1353 463 1353 300 
Q 1353 141 1240 26 
Q 1128 -88 969 -88 
Q 809 -88 696 26 
Q 584 141 584 300 
Q 584 463 696 575 
Q 809 688 969 688 
z
" transform="scale(0.015625)"/>
      <path id="CenturyGothic-2c" d="M 922 844 
L 1344 644 
L 709 -538 
L 400 -406 
L 922 844 
z
" transform="scale(0.015625)"/>
     </defs>
     <use xlink:href="#CenturyGothic-56"/>
     <use xlink:href="#CenturyGothic-61" x="70.214844"/>
     <use xlink:href="#CenturyGothic-6c" x="138.525391"/>
     <use xlink:href="#CenturyGothic-6f" x="158.544922"/>
     <use xlink:href="#CenturyGothic-72" x="224.023438"/>
     <use xlink:href="#CenturyGothic-20" x="254.101562"/>
     <use xlink:href="#CenturyGothic-49" x="281.787109"/>
     <use xlink:href="#CenturyGothic-6e" x="304.394531"/>
     <use xlink:href="#CenturyGothic-69" x="365.380859"/>
     <use xlink:href="#CenturyGothic-63" x="385.400391"/>
     <use xlink:href="#CenturyGothic-69" x="450.097656"/>
     <use xlink:href="#CenturyGothic-61" x="470.117188"/>
     <use xlink:href="#CenturyGothic-6c" x="538.427734"/>
     <use xlink:href="#CenturyGothic-3a" x="558.447266"/>
     <use xlink:href="#CenturyGothic-20" x="586.132812"/>
     <use xlink:href="#CenturyGothic-34" x="613.818359"/>
     <use xlink:href="#CenturyGothic-2c" x="669.238281"/>
     <use xlink:href="#CenturyGothic-37" x="696.923828"/>
     <use xlink:href="#CenturyGothic-37" x="752.34375"/>
     <use xlink:href="#CenturyGothic-30" x="807.763672"/>
    </g>
   </g>
  </g>
 </g>
 <defs>
  <clipPath id="p326414c859">
   <rect x="10.457734" y="9.777422" width="303.165351" height="108.11876"/>
  </clipPath>
 </defs>
</svg>
