<?xml version="1.0" encoding="utf-8" standalone="no"?>
<!DOCTYPE svg PUBLIC "-//W3C//DTD SVG 1.1//EN"
  "http://www.w3.org/Graphics/SVG/1.1/DTD/svg11.dtd">
<svg xmlns:xlink="http://www.w3.org/1999/xlink" width="783.5783pt" height="348.446172pt" viewBox="0 0 783.5783 348.446172" xmlns="http://www.w3.org/2000/svg" version="1.1">
 <metadata>
  <rdf:RDF xmlns:dc="http://purl.org/dc/elements/1.1/" xmlns:cc="http://creativecommons.org/ns#" xmlns:rdf="http://www.w3.org/1999/02/22-rdf-syntax-ns#">
   <cc:Work>
    <dc:type rdf:resource="http://purl.org/dc/dcmitype/StillImage"/>
    <dc:date>2025-05-23T08:31:52.222589</dc:date>
    <dc:format>image/svg+xml</dc:format>
    <dc:creator>
     <cc:Agent>
      <dc:title>Matplotlib v3.9.2, https://matplotlib.org/</dc:title>
     </cc:Agent>
    </dc:creator>
   </cc:Work>
  </rdf:RDF>
 </metadata>
 <defs>
  <style type="text/css">*{stroke-linejoin: round; stroke-linecap: butt}</style>
 </defs>
 <g id="figure_1">
  <g id="patch_1">
   <path d="M 0 348.446172 
L 783.5783 348.446172 
L 783.5783 0 
L 0 0 
z
" style="fill: #ffffff"/>
  </g>
  <g id="axes_1">
   <g id="patch_2">
    <path d="M 11.853906 296.960234 
L 681.453906 296.960234 
L 681.453906 11.250234 
L 11.853906 11.250234 
z
" style="fill: #ffffff"/>
   </g>
   <g id="matplotlib.axis_1">
    <g id="xtick_1">
     <g id="line2d_1">
      <defs>
       <path id="m485ecb2f8d" d="M 0 0 
L 0 5 
" style="stroke: #262626; stroke-width: 0.8"/>
      </defs>
      <g>
       <use xlink:href="#m485ecb2f8d" x="11.853906" y="296.960234" style="fill: #262626; stroke: #262626; stroke-width: 0.8"/>
      </g>
     </g>
     <g id="text_1">
      <!-- 29-Dic -->
      <g style="fill: #262626" transform="translate(14.564063 335.778984) rotate(-90) scale(0.1 -0.1)">
       <defs>
        <path id="CenturyGothic-32" d="M 741 3156 
L 300 3156 
Q 319 3838 755 4275 
Q 1191 4713 1831 4713 
Q 2466 4713 2858 4303 
Q 3250 3894 3250 3338 
Q 3250 2947 3062 2605 
Q 2875 2263 2334 1678 
L 1191 444 
L 3313 444 
L 3313 0 
L 191 0 
L 1947 1897 
Q 2481 2469 2642 2745 
Q 2803 3022 2803 3328 
Q 2803 3716 2514 3995 
Q 2225 4275 1806 4275 
Q 1366 4275 1073 3981 
Q 781 3688 741 3156 
z
" transform="scale(0.015625)"/>
        <path id="CenturyGothic-39" d="M 1228 -116 
L 850 128 
L 2091 2009 
Q 1841 1928 1622 1928 
Q 1075 1928 694 2323 
Q 313 2719 313 3297 
Q 313 3694 497 4012 
Q 681 4331 1020 4522 
Q 1359 4713 1747 4713 
Q 2128 4713 2451 4528 
Q 2775 4344 2959 4012 
Q 3144 3681 3144 3306 
Q 3144 3022 3030 2711 
Q 2916 2400 2622 1963 
L 1228 -116 
z
M 1728 2331 
Q 2131 2331 2414 2614 
Q 2697 2897 2697 3297 
Q 2697 3697 2414 3980 
Q 2131 4263 1728 4263 
Q 1328 4263 1045 3980 
Q 763 3697 763 3297 
Q 763 2897 1045 2614 
Q 1328 2331 1728 2331 
z
" transform="scale(0.015625)"/>
        <path id="CenturyGothic-2d" d="M 203 1919 
L 1922 1919 
L 1922 1538 
L 203 1538 
L 203 1919 
z
" transform="scale(0.015625)"/>
        <path id="CenturyGothic-44" d="M 559 0 
L 559 4597 
L 1513 4597 
Q 2544 4597 3009 4431 
Q 3678 4197 4054 3619 
Q 4431 3041 4431 2241 
Q 4431 1550 4132 1025 
Q 3834 500 3357 250 
Q 2881 0 2022 0 
L 559 0 
z
M 1000 434 
L 1531 434 
Q 2484 434 2853 553 
Q 3372 722 3669 1161 
Q 3966 1600 3966 2234 
Q 3966 2900 3644 3372 
Q 3322 3844 2747 4019 
Q 2316 4150 1325 4150 
L 1000 4150 
L 1000 434 
z
" transform="scale(0.015625)"/>
        <path id="CenturyGothic-69" d="M 641 4800 
Q 791 4800 897 4694 
Q 1003 4588 1003 4438 
Q 1003 4291 897 4184 
Q 791 4078 641 4078 
Q 494 4078 387 4184 
Q 281 4291 281 4438 
Q 281 4588 387 4694 
Q 494 4800 641 4800 
z
M 422 3400 
L 863 3400 
L 863 0 
L 422 0 
L 422 3400 
z
" transform="scale(0.015625)"/>
        <path id="CenturyGothic-63" d="M 3788 2694 
L 3441 2478 
Q 2991 3075 2213 3075 
Q 1591 3075 1180 2675 
Q 769 2275 769 1703 
Q 769 1331 958 1003 
Q 1147 675 1476 494 
Q 1806 313 2216 313 
Q 2966 313 3441 909 
L 3788 681 
Q 3544 316 3133 114 
Q 2722 -88 2197 -88 
Q 1391 -88 859 425 
Q 328 938 328 1672 
Q 328 2166 576 2589 
Q 825 3013 1259 3250 
Q 1694 3488 2231 3488 
Q 2569 3488 2883 3384 
Q 3197 3281 3415 3115 
Q 3634 2950 3788 2694 
z
" transform="scale(0.015625)"/>
       </defs>
       <use xlink:href="#CenturyGothic-32"/>
       <use xlink:href="#CenturyGothic-39" x="55.419922"/>
       <use xlink:href="#CenturyGothic-2d" x="110.839844"/>
       <use xlink:href="#CenturyGothic-44" x="144.042969"/>
       <use xlink:href="#CenturyGothic-69" x="218.457031"/>
       <use xlink:href="#CenturyGothic-63" x="238.476562"/>
      </g>
     </g>
    </g>
    <g id="xtick_2">
     <g id="line2d_2">
      <g>
       <use xlink:href="#m485ecb2f8d" x="67.527376" y="296.960234" style="fill: #262626; stroke: #262626; stroke-width: 0.8"/>
      </g>
     </g>
     <g id="text_2">
      <!-- 01-Feb -->
      <g style="fill: #262626" transform="translate(70.237532 338.033672) rotate(-90) scale(0.1 -0.1)">
       <defs>
        <path id="CenturyGothic-30" d="M 203 2297 
Q 203 3206 398 3703 
Q 594 4200 950 4456 
Q 1306 4713 1747 4713 
Q 2194 4713 2556 4455 
Q 2919 4197 3130 3681 
Q 3341 3166 3341 2297 
Q 3341 1431 3133 918 
Q 2925 406 2559 145 
Q 2194 -116 1747 -116 
Q 1306 -116 953 137 
Q 600 391 401 892 
Q 203 1394 203 2297 
z
M 638 2288 
Q 638 1509 777 1111 
Q 916 713 1187 506 
Q 1459 300 1763 300 
Q 2069 300 2334 501 
Q 2600 703 2738 1106 
Q 2909 1597 2909 2288 
Q 2909 2981 2756 3423 
Q 2603 3866 2333 4070 
Q 2063 4275 1763 4275 
Q 1456 4275 1187 4070 
Q 919 3866 778 3467 
Q 638 3069 638 2288 
z
" transform="scale(0.015625)"/>
        <path id="CenturyGothic-31" d="M 1184 4597 
L 2088 4597 
L 2088 0 
L 1631 0 
L 1631 4147 
L 909 4147 
L 1184 4597 
z
" transform="scale(0.015625)"/>
        <path id="CenturyGothic-46" d="M 559 4597 
L 2863 4597 
L 2863 4144 
L 1016 4144 
L 1016 2706 
L 2863 2706 
L 2863 2253 
L 1016 2253 
L 1016 0 
L 559 0 
L 559 4597 
z
" transform="scale(0.015625)"/>
        <path id="CenturyGothic-65" d="M 3350 1128 
L 3719 934 
Q 3538 578 3300 359 
Q 3063 141 2766 26 
Q 2469 -88 2094 -88 
Q 1263 -88 794 457 
Q 325 1003 325 1691 
Q 325 2338 722 2844 
Q 1225 3488 2069 3488 
Q 2938 3488 3456 2828 
Q 3825 2363 3831 1666 
L 775 1666 
Q 788 1072 1153 692 
Q 1519 313 2056 313 
Q 2316 313 2561 403 
Q 2806 494 2978 644 
Q 3150 794 3350 1128 
z
M 3350 2044 
Q 3263 2394 3095 2603 
Q 2928 2813 2653 2941 
Q 2378 3069 2075 3069 
Q 1575 3069 1216 2747 
Q 953 2513 819 2044 
L 3350 2044 
z
" transform="scale(0.015625)"/>
        <path id="CenturyGothic-62" d="M 516 0 
L 516 4713 
L 950 4713 
L 950 2816 
Q 1225 3153 1565 3320 
Q 1906 3488 2313 3488 
Q 3034 3488 3545 2964 
Q 4056 2441 4056 1694 
Q 4056 956 3540 434 
Q 3025 -88 2300 -88 
Q 1884 -88 1546 90 
Q 1209 269 950 625 
L 950 0 
L 516 0 
z
M 2266 334 
Q 2631 334 2940 514 
Q 3250 694 3433 1019 
Q 3616 1344 3616 1706 
Q 3616 2069 3431 2397 
Q 3247 2725 2936 2908 
Q 2625 3091 2272 3091 
Q 1913 3091 1589 2908 
Q 1266 2725 1092 2415 
Q 919 2106 919 1719 
Q 919 1128 1308 731 
Q 1697 334 2266 334 
z
" transform="scale(0.015625)"/>
       </defs>
       <use xlink:href="#CenturyGothic-30"/>
       <use xlink:href="#CenturyGothic-31" x="55.419922"/>
       <use xlink:href="#CenturyGothic-2d" x="110.839844"/>
       <use xlink:href="#CenturyGothic-46" x="144.042969"/>
       <use xlink:href="#CenturyGothic-65" x="192.529297"/>
       <use xlink:href="#CenturyGothic-62" x="257.519531"/>
      </g>
     </g>
    </g>
    <g id="xtick_3">
     <g id="line2d_3">
      <g>
       <use xlink:href="#m485ecb2f8d" x="125.731457" y="296.960234" style="fill: #262626; stroke: #262626; stroke-width: 0.8"/>
      </g>
     </g>
     <g id="text_3">
      <!-- 06-Mar -->
      <g style="fill: #262626" transform="translate(128.441614 338.893047) rotate(-90) scale(0.1 -0.1)">
       <defs>
        <path id="CenturyGothic-36" d="M 2347 4713 
L 2725 4466 
L 1484 2584 
Q 1734 2669 1953 2669 
Q 2500 2669 2881 2273 
Q 3263 1878 3263 1300 
Q 3263 903 3078 583 
Q 2894 263 2555 73 
Q 2216 -116 1825 -116 
Q 1447 -116 1123 67 
Q 800 250 615 581 
Q 431 913 431 1291 
Q 431 1572 545 1883 
Q 659 2194 953 2631 
L 2347 4713 
z
M 1844 2266 
Q 1444 2266 1161 1983 
Q 878 1700 878 1297 
Q 878 897 1161 614 
Q 1444 331 1844 331 
Q 2244 331 2526 614 
Q 2809 897 2809 1297 
Q 2809 1700 2526 1983 
Q 2244 2266 1844 2266 
z
" transform="scale(0.015625)"/>
        <path id="CenturyGothic-4d" d="M 350 0 
L 1003 4597 
L 1078 4597 
L 2947 825 
L 4797 4597 
L 4872 4597 
L 5531 0 
L 5078 0 
L 4628 3288 
L 3003 0 
L 2888 0 
L 1241 3313 
L 794 0 
L 350 0 
z
" transform="scale(0.015625)"/>
        <path id="CenturyGothic-61" d="M 3875 3400 
L 3875 0 
L 3444 0 
L 3444 584 
Q 3169 250 2826 81 
Q 2484 -88 2078 -88 
Q 1356 -88 845 435 
Q 334 959 334 1709 
Q 334 2444 850 2966 
Q 1366 3488 2091 3488 
Q 2509 3488 2848 3309 
Q 3188 3131 3444 2775 
L 3444 3400 
L 3875 3400 
z
M 2125 3066 
Q 1759 3066 1450 2886 
Q 1141 2706 958 2381 
Q 775 2056 775 1694 
Q 775 1334 959 1006 
Q 1144 678 1455 495 
Q 1766 313 2122 313 
Q 2481 313 2803 494 
Q 3125 675 3298 984 
Q 3472 1294 3472 1681 
Q 3472 2272 3083 2669 
Q 2694 3066 2125 3066 
z
" transform="scale(0.015625)"/>
        <path id="CenturyGothic-72" d="M 322 3400 
L 769 3400 
L 769 2903 
Q 969 3197 1191 3342 
Q 1413 3488 1653 3488 
Q 1834 3488 2041 3372 
L 1813 3003 
Q 1675 3063 1581 3063 
Q 1363 3063 1159 2883 
Q 956 2703 850 2325 
Q 769 2034 769 1150 
L 769 0 
L 322 0 
L 322 3400 
z
" transform="scale(0.015625)"/>
       </defs>
       <use xlink:href="#CenturyGothic-30"/>
       <use xlink:href="#CenturyGothic-36" x="55.419922"/>
       <use xlink:href="#CenturyGothic-2d" x="110.839844"/>
       <use xlink:href="#CenturyGothic-4d" x="144.042969"/>
       <use xlink:href="#CenturyGothic-61" x="235.9375"/>
       <use xlink:href="#CenturyGothic-72" x="304.248047"/>
      </g>
     </g>
    </g>
    <g id="xtick_4">
     <g id="line2d_4">
      <g>
       <use xlink:href="#m485ecb2f8d" x="183.935539" y="296.960234" style="fill: #262626; stroke: #262626; stroke-width: 0.8"/>
      </g>
     </g>
     <g id="text_4">
      <!-- 09-Abr -->
      <g style="fill: #262626" transform="translate(186.645695 337.091484) rotate(-90) scale(0.1 -0.1)">
       <defs>
        <path id="CenturyGothic-41" d="M 2438 4597 
L 4581 0 
L 4088 0 
L 3366 1513 
L 1384 1513 
L 666 0 
L 153 0 
L 2325 4597 
L 2438 4597 
z
M 2381 3622 
L 1591 1956 
L 3163 1956 
L 2381 3622 
z
" transform="scale(0.015625)"/>
       </defs>
       <use xlink:href="#CenturyGothic-30"/>
       <use xlink:href="#CenturyGothic-39" x="55.419922"/>
       <use xlink:href="#CenturyGothic-2d" x="110.839844"/>
       <use xlink:href="#CenturyGothic-41" x="144.042969"/>
       <use xlink:href="#CenturyGothic-62" x="218.017578"/>
       <use xlink:href="#CenturyGothic-72" x="286.230469"/>
      </g>
     </g>
    </g>
    <g id="xtick_5">
     <g id="line2d_5">
      <g>
       <use xlink:href="#m485ecb2f8d" x="242.139621" y="296.960234" style="fill: #262626; stroke: #262626; stroke-width: 0.8"/>
      </g>
     </g>
     <g id="text_5">
      <!-- 10-May -->
      <g style="fill: #262626" transform="translate(244.849777 341.246172) rotate(-90) scale(0.1 -0.1)">
       <defs>
        <path id="CenturyGothic-79" d="M 122 3400 
L 584 3400 
L 1753 781 
L 2888 3400 
L 3353 3400 
L 1325 -1244 
L 863 -1244 
L 1519 256 
L 122 3400 
z
" transform="scale(0.015625)"/>
       </defs>
       <use xlink:href="#CenturyGothic-31"/>
       <use xlink:href="#CenturyGothic-30" x="55.419922"/>
       <use xlink:href="#CenturyGothic-2d" x="110.839844"/>
       <use xlink:href="#CenturyGothic-4d" x="144.042969"/>
       <use xlink:href="#CenturyGothic-61" x="235.9375"/>
       <use xlink:href="#CenturyGothic-79" x="304.248047"/>
      </g>
     </g>
    </g>
    <g id="xtick_6">
     <g id="line2d_6">
      <g>
       <use xlink:href="#m485ecb2f8d" x="300.343702" y="296.960234" style="fill: #262626; stroke: #262626; stroke-width: 0.8"/>
      </g>
     </g>
     <g id="text_6">
      <!-- 13-Jun -->
      <g style="fill: #262626" transform="translate(303.053858 336.861797) rotate(-90) scale(0.1 -0.1)">
       <defs>
        <path id="CenturyGothic-33" d="M 847 3531 
L 378 3531 
Q 506 4100 868 4406 
Q 1231 4713 1725 4713 
Q 2084 4713 2395 4548 
Q 2706 4384 2876 4106 
Q 3047 3828 3047 3525 
Q 3047 2931 2456 2584 
Q 2788 2450 3000 2191 
Q 3300 1825 3300 1372 
Q 3300 981 3094 626 
Q 2888 272 2531 78 
Q 2175 -116 1734 -116 
Q 1141 -116 744 226 
Q 347 569 225 1231 
L 675 1231 
Q 794 784 1016 584 
Q 1300 331 1741 331 
Q 2241 331 2544 631 
Q 2847 931 2847 1334 
Q 2847 1603 2695 1837 
Q 2544 2072 2289 2190 
Q 2034 2309 1500 2338 
L 1500 2759 
Q 1816 2759 2075 2870 
Q 2334 2981 2451 3153 
Q 2569 3325 2569 3528 
Q 2569 3828 2330 4047 
Q 2091 4266 1725 4266 
Q 1428 4266 1212 4098 
Q 997 3931 847 3531 
z
" transform="scale(0.015625)"/>
        <path id="CenturyGothic-4a" d="M 2063 4597 
L 2525 4597 
L 2525 1494 
Q 2525 778 2414 498 
Q 2303 219 2043 51 
Q 1784 -116 1416 -116 
Q 1138 -116 867 -8 
Q 597 100 269 372 
L 513 738 
Q 872 484 1109 381 
Q 1266 313 1416 313 
Q 1613 313 1773 431 
Q 1934 550 1998 747 
Q 2063 944 2063 1509 
L 2063 4597 
z
" transform="scale(0.015625)"/>
        <path id="CenturyGothic-75" d="M 431 3400 
L 872 3400 
L 872 1813 
Q 872 1231 934 1013 
Q 1028 700 1292 519 
Q 1556 338 1922 338 
Q 2288 338 2542 514 
Q 2797 691 2894 978 
Q 2959 1175 2959 1813 
L 2959 3400 
L 3406 3400 
L 3406 1731 
Q 3406 1028 3242 672 
Q 3078 316 2748 114 
Q 2419 -88 1922 -88 
Q 1425 -88 1092 114 
Q 759 316 595 677 
Q 431 1038 431 1763 
L 431 3400 
z
" transform="scale(0.015625)"/>
        <path id="CenturyGothic-6e" d="M 488 3400 
L 925 3400 
L 925 2791 
Q 1188 3141 1506 3314 
Q 1825 3488 2200 3488 
Q 2581 3488 2876 3294 
Q 3172 3100 3312 2772 
Q 3453 2444 3453 1750 
L 3453 0 
L 3019 0 
L 3019 1622 
Q 3019 2209 2969 2406 
Q 2891 2744 2675 2914 
Q 2459 3084 2113 3084 
Q 1716 3084 1402 2821 
Q 1088 2559 988 2172 
Q 925 1919 925 1247 
L 925 0 
L 488 0 
L 488 3400 
z
" transform="scale(0.015625)"/>
       </defs>
       <use xlink:href="#CenturyGothic-31"/>
       <use xlink:href="#CenturyGothic-33" x="55.419922"/>
       <use xlink:href="#CenturyGothic-2d" x="110.839844"/>
       <use xlink:href="#CenturyGothic-4a" x="144.042969"/>
       <use xlink:href="#CenturyGothic-75" x="192.236328"/>
       <use xlink:href="#CenturyGothic-6e" x="253.027344"/>
      </g>
     </g>
    </g>
    <g id="xtick_7">
     <g id="line2d_7">
      <g>
       <use xlink:href="#m485ecb2f8d" x="358.547784" y="296.960234" style="fill: #262626; stroke: #262626; stroke-width: 0.8"/>
      </g>
     </g>
     <g id="text_7">
      <!-- 18-Jul -->
      <g style="fill: #262626" transform="translate(361.25794 332.764922) rotate(-90) scale(0.1 -0.1)">
       <defs>
        <path id="CenturyGothic-38" d="M 2459 2522 
Q 2925 2291 3126 1994 
Q 3328 1697 3328 1319 
Q 3328 788 2981 381 
Q 2556 -116 1766 -116 
Q 1003 -116 609 320 
Q 216 756 216 1281 
Q 216 1666 422 1973 
Q 628 2281 1109 2522 
Q 772 2697 603 2956 
Q 434 3216 434 3513 
Q 434 3813 614 4098 
Q 794 4384 1111 4548 
Q 1428 4713 1797 4713 
Q 2156 4713 2462 4547 
Q 2769 4381 2942 4097 
Q 3116 3813 3116 3500 
Q 3116 3188 2952 2944 
Q 2788 2700 2459 2522 
z
M 1775 4266 
Q 1397 4266 1148 4042 
Q 900 3819 900 3509 
Q 900 3203 1167 2954 
Q 1434 2706 1791 2706 
Q 2019 2706 2222 2818 
Q 2425 2931 2539 3126 
Q 2653 3322 2653 3519 
Q 2653 3797 2428 4031 
Q 2203 4266 1775 4266 
z
M 1797 2291 
Q 1322 2291 1000 1983 
Q 678 1675 678 1266 
Q 678 1013 815 788 
Q 953 563 1200 441 
Q 1447 319 1772 319 
Q 2275 319 2572 616 
Q 2869 913 2869 1309 
Q 2869 1694 2555 1992 
Q 2241 2291 1797 2291 
z
" transform="scale(0.015625)"/>
        <path id="CenturyGothic-6c" d="M 422 4713 
L 859 4713 
L 859 0 
L 422 0 
L 422 4713 
z
" transform="scale(0.015625)"/>
       </defs>
       <use xlink:href="#CenturyGothic-31"/>
       <use xlink:href="#CenturyGothic-38" x="55.419922"/>
       <use xlink:href="#CenturyGothic-2d" x="110.839844"/>
       <use xlink:href="#CenturyGothic-4a" x="144.042969"/>
       <use xlink:href="#CenturyGothic-75" x="192.236328"/>
       <use xlink:href="#CenturyGothic-6c" x="253.027344"/>
      </g>
     </g>
    </g>
    <g id="xtick_8">
     <g id="line2d_8">
      <g>
       <use xlink:href="#m485ecb2f8d" x="416.751865" y="296.960234" style="fill: #262626; stroke: #262626; stroke-width: 0.8"/>
      </g>
     </g>
     <g id="text_8">
      <!-- 20-Ago -->
      <g style="fill: #262626" transform="translate(419.394053 340.538359) rotate(-90) scale(0.1 -0.1)">
       <defs>
        <path id="CenturyGothic-67" d="M 3416 3400 
L 3856 3400 
L 3856 691 
Q 3856 -25 3731 -356 
Q 3559 -825 3134 -1078 
Q 2709 -1331 2113 -1331 
Q 1675 -1331 1326 -1207 
Q 978 -1084 759 -876 
Q 541 -669 356 -269 
L 831 -269 
Q 1025 -606 1331 -768 
Q 1638 -931 2091 -931 
Q 2538 -931 2845 -764 
Q 3153 -597 3284 -344 
Q 3416 -91 3416 472 
L 3416 647 
Q 3169 334 2812 167 
Q 2456 0 2056 0 
Q 1588 0 1175 233 
Q 763 466 538 859 
Q 313 1253 313 1725 
Q 313 2197 547 2605 
Q 781 3013 1195 3250 
Q 1609 3488 2069 3488 
Q 2450 3488 2779 3330 
Q 3109 3172 3416 2809 
L 3416 3400 
z
M 2125 3066 
Q 1753 3066 1434 2886 
Q 1116 2706 934 2389 
Q 753 2072 753 1703 
Q 753 1144 1128 778 
Q 1503 413 2100 413 
Q 2703 413 3070 775 
Q 3438 1138 3438 1728 
Q 3438 2113 3269 2414 
Q 3100 2716 2790 2891 
Q 2481 3066 2125 3066 
z
" transform="scale(0.015625)"/>
        <path id="CenturyGothic-6f" d="M 2097 3488 
Q 2881 3488 3397 2919 
Q 3866 2400 3866 1691 
Q 3866 978 3370 445 
Q 2875 -88 2097 -88 
Q 1316 -88 820 445 
Q 325 978 325 1691 
Q 325 2397 794 2916 
Q 1309 3488 2097 3488 
z
M 2097 3059 
Q 1553 3059 1162 2656 
Q 772 2253 772 1681 
Q 772 1313 950 994 
Q 1128 675 1431 501 
Q 1734 328 2097 328 
Q 2459 328 2762 501 
Q 3066 675 3244 994 
Q 3422 1313 3422 1681 
Q 3422 2253 3030 2656 
Q 2638 3059 2097 3059 
z
" transform="scale(0.015625)"/>
       </defs>
       <use xlink:href="#CenturyGothic-32"/>
       <use xlink:href="#CenturyGothic-30" x="55.419922"/>
       <use xlink:href="#CenturyGothic-2d" x="110.839844"/>
       <use xlink:href="#CenturyGothic-41" x="144.042969"/>
       <use xlink:href="#CenturyGothic-67" x="218.017578"/>
       <use xlink:href="#CenturyGothic-6f" x="285.302734"/>
      </g>
     </g>
    </g>
    <g id="xtick_9">
     <g id="line2d_9">
      <g>
       <use xlink:href="#m485ecb2f8d" x="474.955947" y="296.960234" style="fill: #262626; stroke: #262626; stroke-width: 0.8"/>
      </g>
     </g>
     <g id="text_9">
      <!-- 23-Sep -->
      <g style="fill: #262626" transform="translate(477.666103 338.166484) rotate(-90) scale(0.1 -0.1)">
       <defs>
        <path id="CenturyGothic-53" d="M 84 856 
L 475 1091 
Q 888 331 1428 331 
Q 1659 331 1862 439 
Q 2066 547 2172 728 
Q 2278 909 2278 1113 
Q 2278 1344 2122 1566 
Q 1906 1872 1334 2303 
Q 759 2738 619 2931 
Q 375 3256 375 3634 
Q 375 3934 519 4181 
Q 663 4428 923 4570 
Q 1184 4713 1491 4713 
Q 1816 4713 2098 4552 
Q 2381 4391 2697 3959 
L 2322 3675 
Q 2063 4019 1880 4128 
Q 1697 4238 1481 4238 
Q 1203 4238 1026 4069 
Q 850 3900 850 3653 
Q 850 3503 912 3362 
Q 975 3222 1141 3056 
Q 1231 2969 1734 2597 
Q 2331 2156 2553 1812 
Q 2775 1469 2775 1122 
Q 2775 622 2395 253 
Q 2016 -116 1472 -116 
Q 1053 -116 712 107 
Q 372 331 84 856 
z
" transform="scale(0.015625)"/>
        <path id="CenturyGothic-70" d="M 494 3400 
L 928 3400 
L 928 2775 
Q 1188 3131 1525 3309 
Q 1863 3488 2278 3488 
Q 3003 3488 3518 2966 
Q 4034 2444 4034 1709 
Q 4034 959 3523 435 
Q 3013 -88 2291 -88 
Q 1884 -88 1543 81 
Q 1203 250 928 584 
L 928 -1244 
L 494 -1244 
L 494 3400 
z
M 2244 3066 
Q 1675 3066 1286 2669 
Q 897 2272 897 1681 
Q 897 1294 1070 984 
Q 1244 675 1567 494 
Q 1891 313 2250 313 
Q 2603 313 2914 495 
Q 3225 678 3409 1006 
Q 3594 1334 3594 1694 
Q 3594 2056 3411 2381 
Q 3228 2706 2918 2886 
Q 2609 3066 2244 3066 
z
" transform="scale(0.015625)"/>
       </defs>
       <use xlink:href="#CenturyGothic-32"/>
       <use xlink:href="#CenturyGothic-33" x="55.419922"/>
       <use xlink:href="#CenturyGothic-2d" x="110.839844"/>
       <use xlink:href="#CenturyGothic-53" x="144.042969"/>
       <use xlink:href="#CenturyGothic-65" x="193.847656"/>
       <use xlink:href="#CenturyGothic-70" x="258.837891"/>
      </g>
     </g>
    </g>
    <g id="xtick_10">
     <g id="line2d_10">
      <g>
       <use xlink:href="#m485ecb2f8d" x="533.160029" y="296.960234" style="fill: #262626; stroke: #262626; stroke-width: 0.8"/>
      </g>
     </g>
     <g id="text_10">
      <!-- 24-Oct -->
      <g style="fill: #262626" transform="translate(535.870185 338.416484) rotate(-90) scale(0.1 -0.1)">
       <defs>
        <path id="CenturyGothic-34" d="M 2725 4713 
L 2819 4713 
L 2819 1509 
L 3375 1509 
L 3375 1069 
L 2819 1069 
L 2819 0 
L 2359 0 
L 2359 1069 
L 163 1069 
L 2725 4713 
z
M 2359 1509 
L 2359 3425 
L 1006 1509 
L 2359 1509 
z
" transform="scale(0.015625)"/>
        <path id="CenturyGothic-4f" d="M 2750 4713 
Q 3794 4713 4497 4016 
Q 5200 3319 5200 2300 
Q 5200 1291 4498 587 
Q 3797 -116 2788 -116 
Q 1766 -116 1062 584 
Q 359 1284 359 2278 
Q 359 2941 679 3506 
Q 1000 4072 1553 4392 
Q 2106 4713 2750 4713 
z
M 2772 4263 
Q 2263 4263 1806 3997 
Q 1350 3731 1094 3281 
Q 838 2831 838 2278 
Q 838 1459 1405 895 
Q 1972 331 2772 331 
Q 3306 331 3761 590 
Q 4216 850 4470 1300 
Q 4725 1750 4725 2300 
Q 4725 2847 4470 3289 
Q 4216 3731 3753 3997 
Q 3291 4263 2772 4263 
z
" transform="scale(0.015625)"/>
        <path id="CenturyGothic-74" d="M 869 4663 
L 1309 4663 
L 1309 3400 
L 2003 3400 
L 2003 3025 
L 1309 3025 
L 1309 0 
L 869 0 
L 869 3025 
L 272 3025 
L 272 3400 
L 869 3400 
L 869 4663 
z
" transform="scale(0.015625)"/>
       </defs>
       <use xlink:href="#CenturyGothic-32"/>
       <use xlink:href="#CenturyGothic-34" x="55.419922"/>
       <use xlink:href="#CenturyGothic-2d" x="110.839844"/>
       <use xlink:href="#CenturyGothic-4f" x="144.042969"/>
       <use xlink:href="#CenturyGothic-63" x="230.957031"/>
       <use xlink:href="#CenturyGothic-74" x="295.654297"/>
      </g>
     </g>
    </g>
    <g id="xtick_11">
     <g id="line2d_11">
      <g>
       <use xlink:href="#m485ecb2f8d" x="591.36411" y="296.960234" style="fill: #262626; stroke: #262626; stroke-width: 0.8"/>
      </g>
     </g>
     <g id="text_11">
      <!-- 26-Nov -->
      <g style="fill: #262626" transform="translate(594.074267 339.352422) rotate(-90) scale(0.1 -0.1)">
       <defs>
        <path id="CenturyGothic-4e" d="M 563 0 
L 563 4597 
L 663 4597 
L 3719 1078 
L 3719 4597 
L 4172 4597 
L 4172 0 
L 4069 0 
L 1038 3475 
L 1038 0 
L 563 0 
z
" transform="scale(0.015625)"/>
        <path id="CenturyGothic-76" d="M 166 3400 
L 631 3400 
L 1769 925 
L 2897 3400 
L 3366 3400 
L 1809 0 
L 1731 0 
L 166 3400 
z
" transform="scale(0.015625)"/>
       </defs>
       <use xlink:href="#CenturyGothic-32"/>
       <use xlink:href="#CenturyGothic-36" x="55.419922"/>
       <use xlink:href="#CenturyGothic-2d" x="110.839844"/>
       <use xlink:href="#CenturyGothic-4e" x="144.042969"/>
       <use xlink:href="#CenturyGothic-6f" x="218.017578"/>
       <use xlink:href="#CenturyGothic-76" x="283.496094"/>
      </g>
     </g>
    </g>
    <g id="xtick_12">
     <g id="line2d_12">
      <g>
       <use xlink:href="#m485ecb2f8d" x="649.568192" y="296.960234" style="fill: #262626; stroke: #262626; stroke-width: 0.8"/>
      </g>
     </g>
     <g id="text_12">
      <!-- 31-Dic -->
      <g style="fill: #262626" transform="translate(652.278348 335.778984) rotate(-90) scale(0.1 -0.1)">
       <use xlink:href="#CenturyGothic-33"/>
       <use xlink:href="#CenturyGothic-31" x="55.419922"/>
       <use xlink:href="#CenturyGothic-2d" x="110.839844"/>
       <use xlink:href="#CenturyGothic-44" x="144.042969"/>
       <use xlink:href="#CenturyGothic-69" x="218.457031"/>
       <use xlink:href="#CenturyGothic-63" x="238.476562"/>
      </g>
     </g>
    </g>
   </g>
   <g id="matplotlib.axis_2">
    <g id="ytick_1">
     <g id="line2d_13">
      <defs>
       <path id="m3b5954ac46" d="M 0 0 
L 6 0 
" style="stroke: #262626; stroke-width: 1.25"/>
      </defs>
      <g>
       <use xlink:href="#m3b5954ac46" x="681.453906" y="296.960234" style="fill: #262626; stroke: #262626; stroke-width: 1.25"/>
      </g>
     </g>
     <g id="text_13">
      <!-- 4,500 -->
      <g style="fill: #262626" transform="translate(690.953906 301.010469) scale(0.11 -0.11)">
       <defs>
        <path id="CenturyGothic-2c" d="M 922 844 
L 1344 644 
L 709 -538 
L 400 -406 
L 922 844 
z
" transform="scale(0.015625)"/>
        <path id="CenturyGothic-35" d="M 3147 4597 
L 3147 4159 
L 1509 4159 
L 1281 2906 
Q 1581 2994 1822 2994 
Q 2450 2994 2858 2573 
Q 3266 2153 3266 1497 
Q 3266 1044 3056 666 
Q 2847 288 2489 86 
Q 2131 -116 1663 -116 
Q 1103 -116 718 226 
Q 334 569 259 1113 
L 731 1113 
Q 784 847 911 681 
Q 1038 516 1248 414 
Q 1459 313 1691 313 
Q 2144 313 2469 656 
Q 2794 1000 2794 1516 
Q 2794 1981 2500 2272 
Q 2206 2563 1716 2563 
Q 1309 2563 731 2316 
L 1156 4597 
L 3147 4597 
z
" transform="scale(0.015625)"/>
       </defs>
       <use xlink:href="#CenturyGothic-34"/>
       <use xlink:href="#CenturyGothic-2c" x="55.419922"/>
       <use xlink:href="#CenturyGothic-35" x="83.105469"/>
       <use xlink:href="#CenturyGothic-30" x="138.525391"/>
       <use xlink:href="#CenturyGothic-30" x="193.945312"/>
      </g>
     </g>
    </g>
    <g id="ytick_2">
     <g id="line2d_14">
      <g>
       <use xlink:href="#m3b5954ac46" x="681.453906" y="249.341901" style="fill: #262626; stroke: #262626; stroke-width: 1.25"/>
      </g>
     </g>
     <g id="text_14">
      <!-- 5,000 -->
      <g style="fill: #262626" transform="translate(690.953906 253.392135) scale(0.11 -0.11)">
       <use xlink:href="#CenturyGothic-35"/>
       <use xlink:href="#CenturyGothic-2c" x="55.419922"/>
       <use xlink:href="#CenturyGothic-30" x="83.105469"/>
       <use xlink:href="#CenturyGothic-30" x="138.525391"/>
       <use xlink:href="#CenturyGothic-30" x="193.945312"/>
      </g>
     </g>
    </g>
    <g id="ytick_3">
     <g id="line2d_15">
      <g>
       <use xlink:href="#m3b5954ac46" x="681.453906" y="201.723568" style="fill: #262626; stroke: #262626; stroke-width: 1.25"/>
      </g>
     </g>
     <g id="text_15">
      <!-- 5,500 -->
      <g style="fill: #262626" transform="translate(690.953906 205.773802) scale(0.11 -0.11)">
       <use xlink:href="#CenturyGothic-35"/>
       <use xlink:href="#CenturyGothic-2c" x="55.419922"/>
       <use xlink:href="#CenturyGothic-35" x="83.105469"/>
       <use xlink:href="#CenturyGothic-30" x="138.525391"/>
       <use xlink:href="#CenturyGothic-30" x="193.945312"/>
      </g>
     </g>
    </g>
    <g id="ytick_4">
     <g id="line2d_16">
      <g>
       <use xlink:href="#m3b5954ac46" x="681.453906" y="154.105234" style="fill: #262626; stroke: #262626; stroke-width: 1.25"/>
      </g>
     </g>
     <g id="text_16">
      <!-- 6,000 -->
      <g style="fill: #262626" transform="translate(690.953906 158.155469) scale(0.11 -0.11)">
       <use xlink:href="#CenturyGothic-36"/>
       <use xlink:href="#CenturyGothic-2c" x="55.419922"/>
       <use xlink:href="#CenturyGothic-30" x="83.105469"/>
       <use xlink:href="#CenturyGothic-30" x="138.525391"/>
       <use xlink:href="#CenturyGothic-30" x="193.945312"/>
      </g>
     </g>
    </g>
    <g id="ytick_5">
     <g id="line2d_17">
      <g>
       <use xlink:href="#m3b5954ac46" x="681.453906" y="106.486901" style="fill: #262626; stroke: #262626; stroke-width: 1.25"/>
      </g>
     </g>
     <g id="text_17">
      <!-- 6,500 -->
      <g style="fill: #262626" transform="translate(690.953906 110.537135) scale(0.11 -0.11)">
       <use xlink:href="#CenturyGothic-36"/>
       <use xlink:href="#CenturyGothic-2c" x="55.419922"/>
       <use xlink:href="#CenturyGothic-35" x="83.105469"/>
       <use xlink:href="#CenturyGothic-30" x="138.525391"/>
       <use xlink:href="#CenturyGothic-30" x="193.945312"/>
      </g>
     </g>
    </g>
    <g id="ytick_6">
     <g id="line2d_18">
      <g>
       <use xlink:href="#m3b5954ac46" x="681.453906" y="58.868568" style="fill: #262626; stroke: #262626; stroke-width: 1.25"/>
      </g>
     </g>
     <g id="text_18">
      <!-- 7,000 -->
      <g style="fill: #262626" transform="translate(690.953906 62.918802) scale(0.11 -0.11)">
       <defs>
        <path id="CenturyGothic-37" d="M 459 4597 
L 3375 4597 
L 916 -116 
L 538 78 
L 2663 4163 
L 459 4163 
L 459 4597 
z
" transform="scale(0.015625)"/>
       </defs>
       <use xlink:href="#CenturyGothic-37"/>
       <use xlink:href="#CenturyGothic-2c" x="55.419922"/>
       <use xlink:href="#CenturyGothic-30" x="83.105469"/>
       <use xlink:href="#CenturyGothic-30" x="138.525391"/>
       <use xlink:href="#CenturyGothic-30" x="193.945312"/>
      </g>
     </g>
    </g>
    <g id="ytick_7">
     <g id="line2d_19">
      <g>
       <use xlink:href="#m3b5954ac46" x="681.453906" y="11.250234" style="fill: #262626; stroke: #262626; stroke-width: 1.25"/>
      </g>
     </g>
     <g id="text_19">
      <!-- 7,500 -->
      <g style="fill: #262626" transform="translate(690.953906 15.300469) scale(0.11 -0.11)">
       <use xlink:href="#CenturyGothic-37"/>
       <use xlink:href="#CenturyGothic-2c" x="55.419922"/>
       <use xlink:href="#CenturyGothic-35" x="83.105469"/>
       <use xlink:href="#CenturyGothic-30" x="138.525391"/>
       <use xlink:href="#CenturyGothic-30" x="193.945312"/>
      </g>
     </g>
    </g>
   </g>
   <g id="line2d_20">
    <path d="M 11.853906 271.262525 
L 14.384518 268.332818 
L 16.915131 272.146986 
L 19.445743 270.075479 
L 21.976355 281.223822 
L 24.506967 283.781914 
L 29.568192 282.644359 
L 32.098804 280.778485 
L 34.629416 276.965755 
L 37.160029 271.424946 
L 39.690641 265.411829 
L 42.221253 260.666435 
L 44.751865 261.86612 
L 47.282478 255.211567 
L 49.81309 256.702355 
L 52.343702 248.459386 
L 54.874314 239.687578 
L 57.404927 250.63941 
L 59.935539 248.081841 
L 62.466151 242.182029 
L 64.996763 232.4928 
L 67.527376 235.743003 
L 70.057988 243.329633 
L 72.5886 251.995818 
L 75.119212 250.262207 
L 77.649825 246.848504 
L 80.180437 247.616795 
L 82.711049 252.007225 
L 85.241661 244.990981 
L 87.772274 240.141665 
L 90.302886 248.545505 
L 92.833498 244.987839 
L 95.36411 237.828927 
L 97.894723 239.81043 
L 100.425335 240.036032 
L 102.955947 236.74732 
L 108.017172 235.576935 
L 110.547784 233.078319 
L 113.078396 229.933321 
L 115.609008 210.525569 
L 118.139621 201.921127 
L 120.670233 210.013044 
L 123.200845 208.839211 
L 125.731457 208.225789 
L 128.26207 214.866212 
L 130.792682 212.118904 
L 133.323294 218.729645 
L 135.853906 220.779179 
L 138.384518 220.259678 
L 143.445743 233.748047 
L 145.976355 238.48555 
L 148.506967 242.721967 
L 151.03758 241.258062 
L 153.568192 232.242364 
L 156.098804 228.190184 
L 158.629416 223.751917 
L 161.160029 220.62086 
L 163.690641 222.995407 
L 166.221253 211.211195 
L 168.751865 215.780983 
L 171.282478 214.86053 
L 173.81309 216.600086 
L 176.343702 214.908993 
L 178.874314 206.556633 
L 181.404927 192.212971 
L 183.935539 183.584254 
L 186.466151 182.787332 
L 188.996763 190.761187 
L 191.527376 192.538286 
L 194.057988 193.032126 
L 196.5886 196.408678 
L 199.119212 202.633347 
L 201.649825 200.230087 
L 204.180437 207.761375 
L 206.711049 208.100204 
L 209.241661 208.892896 
L 211.772274 214.501757 
L 214.302886 211.08879 
L 216.833498 206.597474 
L 219.36411 207.136893 
L 221.894723 199.750154 
L 224.425335 203.544064 
L 226.955947 207.084419 
L 229.486559 206.586806 
L 232.017172 208.502782 
L 234.547784 203.220059 
L 237.078396 214.63337 
L 239.609008 217.429725 
L 242.139621 200.332515 
L 244.670233 200.915664 
L 247.200845 201.156096 
L 249.731457 195.059989 
L 252.26207 189.940136 
L 254.792682 180.300624 
L 257.323294 179.310745 
L 259.853906 174.110277 
L 262.384518 183.180756 
L 264.915131 167.247072 
L 267.445743 165.960429 
L 269.976355 165.917723 
L 272.506967 164.955855 
L 275.03758 158.621239 
L 280.098804 160.042642 
L 282.629416 163.097424 
L 285.160029 157.0774 
L 287.690641 151.441449 
L 290.221253 154.396963 
L 292.751865 154.805664 
L 295.282478 142.094161 
L 297.81309 155.287958 
L 300.343702 155.716876 
L 302.874314 148.660079 
L 305.404927 154.049946 
L 307.935539 152.054669 
L 310.466151 153.234714 
L 312.996763 149.171482 
L 315.527376 158.003476 
L 318.057988 157.555379 
L 320.5886 141.842512 
L 323.119212 145.660666 
L 325.649825 131.055811 
L 328.180437 131.305581 
L 330.711049 139.011096 
L 333.241661 140.881212 
L 335.772274 146.863219 
L 338.302886 152.300243 
L 340.833498 149.019982 
L 343.36411 148.463291 
L 345.894723 134.299425 
L 348.425335 136.861919 
L 350.955947 135.988257 
L 353.486559 128.652627 
L 356.017172 116.805011 
L 358.547784 118.20138 
L 361.078396 122.184364 
L 363.609008 115.53339 
L 366.139621 114.6462 
L 368.670233 117.567318 
L 371.200845 125.297844 
L 373.731457 124.113338 
L 376.26207 121.864561 
L 378.792682 107.613914 
L 381.323294 105.956907 
L 383.853906 95.231799 
L 386.384518 91.031218 
L 388.915131 88.955834 
L 391.445743 83.464848 
L 393.976355 84.471463 
L 396.506967 98.062226 
L 399.03758 106.556318 
L 401.568192 91.921501 
L 404.098804 98.050686 
L 406.629416 77.270323 
L 409.160029 95.198944 
L 411.690641 98.568156 
L 414.221253 87.268696 
L 416.751865 90.677977 
L 419.282478 93.70036 
L 421.81309 97.500182 
L 424.343702 96.394288 
L 426.874314 95.528132 
L 429.404927 99.788454 
L 431.935539 94.639585 
L 434.466151 90.882376 
L 436.996763 87.719776 
L 439.527376 96.020081 
L 442.057988 94.739155 
L 444.5886 97.677409 
L 447.119212 93.4011 
L 449.649825 92.635502 
L 452.180437 100.957317 
L 454.711049 103.702992 
L 457.241661 114.696007 
L 459.772274 117.205846 
L 462.302886 119.337489 
L 464.833498 117.002312 
L 467.36411 105.731181 
L 469.894723 116.212758 
L 472.425335 115.272909 
L 474.955947 110.857081 
L 477.486559 117.823674 
L 480.017172 134.045931 
L 482.547784 134.873209 
L 485.078396 134.45708 
L 487.609008 134.472189 
L 490.139621 142.292093 
L 492.670233 148.180533 
L 495.200845 158.703825 
L 497.731457 170.861706 
L 500.26207 175.437129 
L 502.792682 177.378276 
L 505.323294 173.166352 
L 507.853906 172.989933 
L 510.384518 167.727637 
L 512.915131 167.160535 
L 515.445743 170.790066 
L 517.976355 163.743913 
L 520.506967 156.060102 
L 523.03758 167.798395 
L 525.568192 165.448488 
L 528.098804 155.365079 
L 530.629416 148.852708 
L 533.160029 143.311608 
L 535.690641 148.155123 
L 538.221253 145.883167 
L 540.751865 138.621424 
L 543.282478 136.339709 
L 545.81309 154.416697 
L 548.343702 165.19394 
L 550.874314 167.510055 
L 553.404927 151.930923 
L 555.935539 151.430058 
L 558.466151 143.561811 
L 560.996763 150.026468 
L 563.527376 137.18383 
L 566.057988 128.149743 
L 568.5886 117.535739 
L 571.119212 115.170388 
L 573.649825 107.667432 
L 576.180437 106.073884 
L 578.711049 103.476974 
L 581.241661 94.994544 
L 583.772274 88.326909 
L 586.302886 78.569641 
L 588.833498 68.250519 
L 591.36411 76.717368 
L 593.894723 87.629034 
L 596.425335 78.384898 
L 598.955947 77.059378 
L 601.486559 70.978114 
L 604.017172 77.834119 
L 606.547784 72.555157 
L 609.078396 77.79497 
L 611.609008 75.343948 
L 614.139621 80.505626 
L 616.670233 70.757489 
L 619.200845 78.139698 
L 621.731457 78.042604 
L 624.26207 83.420262 
L 626.792682 81.585514 
L 629.323294 73.65375 
L 631.853906 68.387415 
L 634.384518 53.350286 
L 636.915131 58.184948 
L 639.445743 61.74576 
L 641.976355 64.410014 
L 644.506967 59.89686 
L 647.03758 63.669052 
L 649.568192 55.560432 
L 649.568192 55.560432 
" clip-path="url(#p4a2edbe14a)" style="fill: none; stroke: #041020; stroke-opacity: 0.7; stroke-linecap: round"/>
   </g>
   <g id="line2d_21">
    <path d="M 11.853906 271.262525 
L 681.453906 271.262525 
" clip-path="url(#p4a2edbe14a)" style="fill: none; stroke-dasharray: 7.4,3.2; stroke-dashoffset: 0; stroke: #b3a369; stroke-width: 2"/>
   </g>
   <g id="patch_3">
    <path d="M 681.453906 296.960234 
L 681.453906 11.250234 
" style="fill: none; stroke: #262626; stroke-width: 0.5; stroke-linejoin: miter; stroke-linecap: square"/>
   </g>
   <g id="patch_4">
    <path d="M 11.853906 296.960234 
L 681.453906 296.960234 
" style="fill: none; stroke: #262626; stroke-width: 0.5; stroke-linejoin: miter; stroke-linecap: square"/>
   </g>
   <g id="text_20">
    <g id="patch_5">
     <path d="M 690.057988 277.916431 
L 776.3783 277.916431 
Q 778.3783 277.916431 778.3783 275.916431 
L 778.3783 266.608618 
Q 778.3783 264.608618 776.3783 264.608618 
L 690.057988 264.608618 
Q 688.057988 264.608618 688.057988 266.608618 
L 688.057988 275.916431 
Q 688.057988 277.916431 690.057988 277.916431 
z
" style="fill: #ffffff; opacity: 0.7"/>
    </g>
    <!-- Valor Inicial: 4,770 -->
    <g style="fill: #b3a369" transform="translate(690.057988 273.972681) scale(0.1 -0.1)">
     <defs>
      <path id="CenturyGothic-56" d="M 209 4597 
L 709 4597 
L 2231 1044 
L 3781 4597 
L 4281 4597 
L 2281 0 
L 2181 0 
L 209 4597 
z
" transform="scale(0.015625)"/>
      <path id="CenturyGothic-20" transform="scale(0.015625)"/>
      <path id="CenturyGothic-49" d="M 494 4597 
L 953 4597 
L 953 0 
L 494 0 
L 494 4597 
z
" transform="scale(0.015625)"/>
      <path id="CenturyGothic-3a" d="M 969 3488 
Q 1128 3488 1240 3375 
Q 1353 3263 1353 3100 
Q 1353 2938 1240 2825 
Q 1128 2713 969 2713 
Q 809 2713 696 2825 
Q 584 2938 584 3100 
Q 584 3259 696 3373 
Q 809 3488 969 3488 
z
M 969 688 
Q 1128 688 1240 575 
Q 1353 463 1353 300 
Q 1353 141 1240 26 
Q 1128 -88 969 -88 
Q 809 -88 696 26 
Q 584 141 584 300 
Q 584 463 696 575 
Q 809 688 969 688 
z
" transform="scale(0.015625)"/>
     </defs>
     <use xlink:href="#CenturyGothic-56"/>
     <use xlink:href="#CenturyGothic-61" x="70.214844"/>
     <use xlink:href="#CenturyGothic-6c" x="138.525391"/>
     <use xlink:href="#CenturyGothic-6f" x="158.544922"/>
     <use xlink:href="#CenturyGothic-72" x="224.023438"/>
     <use xlink:href="#CenturyGothic-20" x="254.101562"/>
     <use xlink:href="#CenturyGothic-49" x="281.787109"/>
     <use xlink:href="#CenturyGothic-6e" x="304.394531"/>
     <use xlink:href="#CenturyGothic-69" x="365.380859"/>
     <use xlink:href="#CenturyGothic-63" x="385.400391"/>
     <use xlink:href="#CenturyGothic-69" x="450.097656"/>
     <use xlink:href="#CenturyGothic-61" x="470.117188"/>
     <use xlink:href="#CenturyGothic-6c" x="538.427734"/>
     <use xlink:href="#CenturyGothic-3a" x="558.447266"/>
     <use xlink:href="#CenturyGothic-20" x="586.132812"/>
     <use xlink:href="#CenturyGothic-34" x="613.818359"/>
     <use xlink:href="#CenturyGothic-2c" x="669.238281"/>
     <use xlink:href="#CenturyGothic-37" x="696.923828"/>
     <use xlink:href="#CenturyGothic-37" x="752.34375"/>
     <use xlink:href="#CenturyGothic-30" x="807.763672"/>
    </g>
   </g>
  </g>
 </g>
 <defs>
  <clipPath id="p4a2edbe14a">
   <rect x="11.853906" y="11.250234" width="669.6" height="285.71"/>
  </clipPath>
 </defs>
</svg>
