<?xml version="1.0" encoding="utf-8" standalone="no"?>
<!DOCTYPE svg PUBLIC "-//W3C//DTD SVG 1.1//EN"
  "http://www.w3.org/Graphics/SVG/1.1/DTD/svg11.dtd">
<svg xmlns:xlink="http://www.w3.org/1999/xlink" width="385.142852pt" height="158.646338pt" viewBox="0 0 385.142852 158.646338" xmlns="http://www.w3.org/2000/svg" version="1.1">
 <metadata>
  <rdf:RDF xmlns:dc="http://purl.org/dc/elements/1.1/" xmlns:cc="http://creativecommons.org/ns#" xmlns:rdf="http://www.w3.org/1999/02/22-rdf-syntax-ns#">
   <cc:Work>
    <dc:type rdf:resource="http://purl.org/dc/dcmitype/StillImage"/>
    <dc:date>2025-05-23T12:02:16.998111</dc:date>
    <dc:format>image/svg+xml</dc:format>
    <dc:creator>
     <cc:Agent>
      <dc:title>Matplotlib v3.9.2, https://matplotlib.org/</dc:title>
     </cc:Agent>
    </dc:creator>
   </cc:Work>
  </rdf:RDF>
 </metadata>
 <defs>
  <style type="text/css">*{stroke-linejoin: round; stroke-linecap: butt}</style>
 </defs>
 <g id="figure_1">
  <g id="patch_1">
   <path d="M -0 158.646338 
L 385.142852 158.646338 
L 385.142852 0 
L -0 0 
z
" style="fill: #ffffff"/>
  </g>
  <g id="axes_1">
   <g id="patch_2">
    <path d="M 10.457734 117.896182 
L 313.623085 117.896182 
L 313.623085 9.777422 
L 10.457734 9.777422 
z
" style="fill: #ffffff"/>
   </g>
   <g id="matplotlib.axis_1">
    <g id="xtick_1">
     <g id="line2d_1">
      <defs>
       <path id="md2bc8030be" d="M 0 0 
L 0 5 
" style="stroke: #262626; stroke-width: 0.5"/>
      </defs>
      <g>
       <use xlink:href="#md2bc8030be" x="10.457734" y="117.896182" style="fill: #262626; stroke: #262626; stroke-width: 0.5"/>
      </g>
     </g>
     <g id="text_1">
      <!-- 29-Dic -->
      <g style="fill: #262626" transform="translate(12.354844 147.619307) rotate(-90) scale(0.07 -0.07)">
       <defs>
        <path id="CenturyGothic-32" d="M 741 3156 
L 300 3156 
Q 319 3838 755 4275 
Q 1191 4713 1831 4713 
Q 2466 4713 2858 4303 
Q 3250 3894 3250 3338 
Q 3250 2947 3062 2605 
Q 2875 2263 2334 1678 
L 1191 444 
L 3313 444 
L 3313 0 
L 191 0 
L 1947 1897 
Q 2481 2469 2642 2745 
Q 2803 3022 2803 3328 
Q 2803 3716 2514 3995 
Q 2225 4275 1806 4275 
Q 1366 4275 1073 3981 
Q 781 3688 741 3156 
z
" transform="scale(0.015625)"/>
        <path id="CenturyGothic-39" d="M 1228 -116 
L 850 128 
L 2091 2009 
Q 1841 1928 1622 1928 
Q 1075 1928 694 2323 
Q 313 2719 313 3297 
Q 313 3694 497 4012 
Q 681 4331 1020 4522 
Q 1359 4713 1747 4713 
Q 2128 4713 2451 4528 
Q 2775 4344 2959 4012 
Q 3144 3681 3144 3306 
Q 3144 3022 3030 2711 
Q 2916 2400 2622 1963 
L 1228 -116 
z
M 1728 2331 
Q 2131 2331 2414 2614 
Q 2697 2897 2697 3297 
Q 2697 3697 2414 3980 
Q 2131 4263 1728 4263 
Q 1328 4263 1045 3980 
Q 763 3697 763 3297 
Q 763 2897 1045 2614 
Q 1328 2331 1728 2331 
z
" transform="scale(0.015625)"/>
        <path id="CenturyGothic-2d" d="M 203 1919 
L 1922 1919 
L 1922 1538 
L 203 1538 
L 203 1919 
z
" transform="scale(0.015625)"/>
        <path id="CenturyGothic-44" d="M 559 0 
L 559 4597 
L 1513 4597 
Q 2544 4597 3009 4431 
Q 3678 4197 4054 3619 
Q 4431 3041 4431 2241 
Q 4431 1550 4132 1025 
Q 3834 500 3357 250 
Q 2881 0 2022 0 
L 559 0 
z
M 1000 434 
L 1531 434 
Q 2484 434 2853 553 
Q 3372 722 3669 1161 
Q 3966 1600 3966 2234 
Q 3966 2900 3644 3372 
Q 3322 3844 2747 4019 
Q 2316 4150 1325 4150 
L 1000 4150 
L 1000 434 
z
" transform="scale(0.015625)"/>
        <path id="CenturyGothic-69" d="M 641 4800 
Q 791 4800 897 4694 
Q 1003 4588 1003 4438 
Q 1003 4291 897 4184 
Q 791 4078 641 4078 
Q 494 4078 387 4184 
Q 281 4291 281 4438 
Q 281 4588 387 4694 
Q 494 4800 641 4800 
z
M 422 3400 
L 863 3400 
L 863 0 
L 422 0 
L 422 3400 
z
" transform="scale(0.015625)"/>
        <path id="CenturyGothic-63" d="M 3788 2694 
L 3441 2478 
Q 2991 3075 2213 3075 
Q 1591 3075 1180 2675 
Q 769 2275 769 1703 
Q 769 1331 958 1003 
Q 1147 675 1476 494 
Q 1806 313 2216 313 
Q 2966 313 3441 909 
L 3788 681 
Q 3544 316 3133 114 
Q 2722 -88 2197 -88 
Q 1391 -88 859 425 
Q 328 938 328 1672 
Q 328 2166 576 2589 
Q 825 3013 1259 3250 
Q 1694 3488 2231 3488 
Q 2569 3488 2883 3384 
Q 3197 3281 3415 3115 
Q 3634 2950 3788 2694 
z
" transform="scale(0.015625)"/>
       </defs>
       <use xlink:href="#CenturyGothic-32"/>
       <use xlink:href="#CenturyGothic-39" x="55.419922"/>
       <use xlink:href="#CenturyGothic-2d" x="110.839844"/>
       <use xlink:href="#CenturyGothic-44" x="144.042969"/>
       <use xlink:href="#CenturyGothic-69" x="218.457031"/>
       <use xlink:href="#CenturyGothic-63" x="238.476562"/>
      </g>
     </g>
    </g>
    <g id="xtick_2">
     <g id="line2d_2">
      <g>
       <use xlink:href="#md2bc8030be" x="35.664226" y="117.896182" style="fill: #262626; stroke: #262626; stroke-width: 0.5"/>
      </g>
     </g>
     <g id="text_2">
      <!-- 01-Feb -->
      <g style="fill: #262626" transform="translate(37.561335 149.197588) rotate(-90) scale(0.07 -0.07)">
       <defs>
        <path id="CenturyGothic-30" d="M 203 2297 
Q 203 3206 398 3703 
Q 594 4200 950 4456 
Q 1306 4713 1747 4713 
Q 2194 4713 2556 4455 
Q 2919 4197 3130 3681 
Q 3341 3166 3341 2297 
Q 3341 1431 3133 918 
Q 2925 406 2559 145 
Q 2194 -116 1747 -116 
Q 1306 -116 953 137 
Q 600 391 401 892 
Q 203 1394 203 2297 
z
M 638 2288 
Q 638 1509 777 1111 
Q 916 713 1187 506 
Q 1459 300 1763 300 
Q 2069 300 2334 501 
Q 2600 703 2738 1106 
Q 2909 1597 2909 2288 
Q 2909 2981 2756 3423 
Q 2603 3866 2333 4070 
Q 2063 4275 1763 4275 
Q 1456 4275 1187 4070 
Q 919 3866 778 3467 
Q 638 3069 638 2288 
z
" transform="scale(0.015625)"/>
        <path id="CenturyGothic-31" d="M 1184 4597 
L 2088 4597 
L 2088 0 
L 1631 0 
L 1631 4147 
L 909 4147 
L 1184 4597 
z
" transform="scale(0.015625)"/>
        <path id="CenturyGothic-46" d="M 559 4597 
L 2863 4597 
L 2863 4144 
L 1016 4144 
L 1016 2706 
L 2863 2706 
L 2863 2253 
L 1016 2253 
L 1016 0 
L 559 0 
L 559 4597 
z
" transform="scale(0.015625)"/>
        <path id="CenturyGothic-65" d="M 3350 1128 
L 3719 934 
Q 3538 578 3300 359 
Q 3063 141 2766 26 
Q 2469 -88 2094 -88 
Q 1263 -88 794 457 
Q 325 1003 325 1691 
Q 325 2338 722 2844 
Q 1225 3488 2069 3488 
Q 2938 3488 3456 2828 
Q 3825 2363 3831 1666 
L 775 1666 
Q 788 1072 1153 692 
Q 1519 313 2056 313 
Q 2316 313 2561 403 
Q 2806 494 2978 644 
Q 3150 794 3350 1128 
z
M 3350 2044 
Q 3263 2394 3095 2603 
Q 2928 2813 2653 2941 
Q 2378 3069 2075 3069 
Q 1575 3069 1216 2747 
Q 953 2513 819 2044 
L 3350 2044 
z
" transform="scale(0.015625)"/>
        <path id="CenturyGothic-62" d="M 516 0 
L 516 4713 
L 950 4713 
L 950 2816 
Q 1225 3153 1565 3320 
Q 1906 3488 2313 3488 
Q 3034 3488 3545 2964 
Q 4056 2441 4056 1694 
Q 4056 956 3540 434 
Q 3025 -88 2300 -88 
Q 1884 -88 1546 90 
Q 1209 269 950 625 
L 950 0 
L 516 0 
z
M 2266 334 
Q 2631 334 2940 514 
Q 3250 694 3433 1019 
Q 3616 1344 3616 1706 
Q 3616 2069 3431 2397 
Q 3247 2725 2936 2908 
Q 2625 3091 2272 3091 
Q 1913 3091 1589 2908 
Q 1266 2725 1092 2415 
Q 919 2106 919 1719 
Q 919 1128 1308 731 
Q 1697 334 2266 334 
z
" transform="scale(0.015625)"/>
       </defs>
       <use xlink:href="#CenturyGothic-30"/>
       <use xlink:href="#CenturyGothic-31" x="55.419922"/>
       <use xlink:href="#CenturyGothic-2d" x="110.839844"/>
       <use xlink:href="#CenturyGothic-46" x="144.042969"/>
       <use xlink:href="#CenturyGothic-65" x="192.529297"/>
       <use xlink:href="#CenturyGothic-62" x="257.519531"/>
      </g>
     </g>
    </g>
    <g id="xtick_3">
     <g id="line2d_3">
      <g>
       <use xlink:href="#md2bc8030be" x="62.016467" y="117.896182" style="fill: #262626; stroke: #262626; stroke-width: 0.5"/>
      </g>
     </g>
     <g id="text_3">
      <!-- 06-Mar -->
      <g style="fill: #262626" transform="translate(63.913577 149.799151) rotate(-90) scale(0.07 -0.07)">
       <defs>
        <path id="CenturyGothic-36" d="M 2347 4713 
L 2725 4466 
L 1484 2584 
Q 1734 2669 1953 2669 
Q 2500 2669 2881 2273 
Q 3263 1878 3263 1300 
Q 3263 903 3078 583 
Q 2894 263 2555 73 
Q 2216 -116 1825 -116 
Q 1447 -116 1123 67 
Q 800 250 615 581 
Q 431 913 431 1291 
Q 431 1572 545 1883 
Q 659 2194 953 2631 
L 2347 4713 
z
M 1844 2266 
Q 1444 2266 1161 1983 
Q 878 1700 878 1297 
Q 878 897 1161 614 
Q 1444 331 1844 331 
Q 2244 331 2526 614 
Q 2809 897 2809 1297 
Q 2809 1700 2526 1983 
Q 2244 2266 1844 2266 
z
" transform="scale(0.015625)"/>
        <path id="CenturyGothic-4d" d="M 350 0 
L 1003 4597 
L 1078 4597 
L 2947 825 
L 4797 4597 
L 4872 4597 
L 5531 0 
L 5078 0 
L 4628 3288 
L 3003 0 
L 2888 0 
L 1241 3313 
L 794 0 
L 350 0 
z
" transform="scale(0.015625)"/>
        <path id="CenturyGothic-61" d="M 3875 3400 
L 3875 0 
L 3444 0 
L 3444 584 
Q 3169 250 2826 81 
Q 2484 -88 2078 -88 
Q 1356 -88 845 435 
Q 334 959 334 1709 
Q 334 2444 850 2966 
Q 1366 3488 2091 3488 
Q 2509 3488 2848 3309 
Q 3188 3131 3444 2775 
L 3444 3400 
L 3875 3400 
z
M 2125 3066 
Q 1759 3066 1450 2886 
Q 1141 2706 958 2381 
Q 775 2056 775 1694 
Q 775 1334 959 1006 
Q 1144 678 1455 495 
Q 1766 313 2122 313 
Q 2481 313 2803 494 
Q 3125 675 3298 984 
Q 3472 1294 3472 1681 
Q 3472 2272 3083 2669 
Q 2694 3066 2125 3066 
z
" transform="scale(0.015625)"/>
        <path id="CenturyGothic-72" d="M 322 3400 
L 769 3400 
L 769 2903 
Q 969 3197 1191 3342 
Q 1413 3488 1653 3488 
Q 1834 3488 2041 3372 
L 1813 3003 
Q 1675 3063 1581 3063 
Q 1363 3063 1159 2883 
Q 956 2703 850 2325 
Q 769 2034 769 1150 
L 769 0 
L 322 0 
L 322 3400 
z
" transform="scale(0.015625)"/>
       </defs>
       <use xlink:href="#CenturyGothic-30"/>
       <use xlink:href="#CenturyGothic-36" x="55.419922"/>
       <use xlink:href="#CenturyGothic-2d" x="110.839844"/>
       <use xlink:href="#CenturyGothic-4d" x="144.042969"/>
       <use xlink:href="#CenturyGothic-61" x="235.9375"/>
       <use xlink:href="#CenturyGothic-72" x="304.248047"/>
      </g>
     </g>
    </g>
    <g id="xtick_4">
     <g id="line2d_4">
      <g>
       <use xlink:href="#md2bc8030be" x="88.368709" y="117.896182" style="fill: #262626; stroke: #262626; stroke-width: 0.5"/>
      </g>
     </g>
     <g id="text_4">
      <!-- 09-Abr -->
      <g style="fill: #262626" transform="translate(90.265818 148.538057) rotate(-90) scale(0.07 -0.07)">
       <defs>
        <path id="CenturyGothic-41" d="M 2438 4597 
L 4581 0 
L 4088 0 
L 3366 1513 
L 1384 1513 
L 666 0 
L 153 0 
L 2325 4597 
L 2438 4597 
z
M 2381 3622 
L 1591 1956 
L 3163 1956 
L 2381 3622 
z
" transform="scale(0.015625)"/>
       </defs>
       <use xlink:href="#CenturyGothic-30"/>
       <use xlink:href="#CenturyGothic-39" x="55.419922"/>
       <use xlink:href="#CenturyGothic-2d" x="110.839844"/>
       <use xlink:href="#CenturyGothic-41" x="144.042969"/>
       <use xlink:href="#CenturyGothic-62" x="218.017578"/>
       <use xlink:href="#CenturyGothic-72" x="286.230469"/>
      </g>
     </g>
    </g>
    <g id="xtick_5">
     <g id="line2d_5">
      <g>
       <use xlink:href="#md2bc8030be" x="114.72095" y="117.896182" style="fill: #262626; stroke: #262626; stroke-width: 0.5"/>
      </g>
     </g>
     <g id="text_5">
      <!-- 10-May -->
      <g style="fill: #262626" transform="translate(116.61806 151.446338) rotate(-90) scale(0.07 -0.07)">
       <defs>
        <path id="CenturyGothic-79" d="M 122 3400 
L 584 3400 
L 1753 781 
L 2888 3400 
L 3353 3400 
L 1325 -1244 
L 863 -1244 
L 1519 256 
L 122 3400 
z
" transform="scale(0.015625)"/>
       </defs>
       <use xlink:href="#CenturyGothic-31"/>
       <use xlink:href="#CenturyGothic-30" x="55.419922"/>
       <use xlink:href="#CenturyGothic-2d" x="110.839844"/>
       <use xlink:href="#CenturyGothic-4d" x="144.042969"/>
       <use xlink:href="#CenturyGothic-61" x="235.9375"/>
       <use xlink:href="#CenturyGothic-79" x="304.248047"/>
      </g>
     </g>
    </g>
    <g id="xtick_6">
     <g id="line2d_6">
      <g>
       <use xlink:href="#md2bc8030be" x="141.073192" y="117.896182" style="fill: #262626; stroke: #262626; stroke-width: 0.5"/>
      </g>
     </g>
     <g id="text_6">
      <!-- 13-Jun -->
      <g style="fill: #262626" transform="translate(142.970301 148.377276) rotate(-90) scale(0.07 -0.07)">
       <defs>
        <path id="CenturyGothic-33" d="M 847 3531 
L 378 3531 
Q 506 4100 868 4406 
Q 1231 4713 1725 4713 
Q 2084 4713 2395 4548 
Q 2706 4384 2876 4106 
Q 3047 3828 3047 3525 
Q 3047 2931 2456 2584 
Q 2788 2450 3000 2191 
Q 3300 1825 3300 1372 
Q 3300 981 3094 626 
Q 2888 272 2531 78 
Q 2175 -116 1734 -116 
Q 1141 -116 744 226 
Q 347 569 225 1231 
L 675 1231 
Q 794 784 1016 584 
Q 1300 331 1741 331 
Q 2241 331 2544 631 
Q 2847 931 2847 1334 
Q 2847 1603 2695 1837 
Q 2544 2072 2289 2190 
Q 2034 2309 1500 2338 
L 1500 2759 
Q 1816 2759 2075 2870 
Q 2334 2981 2451 3153 
Q 2569 3325 2569 3528 
Q 2569 3828 2330 4047 
Q 2091 4266 1725 4266 
Q 1428 4266 1212 4098 
Q 997 3931 847 3531 
z
" transform="scale(0.015625)"/>
        <path id="CenturyGothic-4a" d="M 2063 4597 
L 2525 4597 
L 2525 1494 
Q 2525 778 2414 498 
Q 2303 219 2043 51 
Q 1784 -116 1416 -116 
Q 1138 -116 867 -8 
Q 597 100 269 372 
L 513 738 
Q 872 484 1109 381 
Q 1266 313 1416 313 
Q 1613 313 1773 431 
Q 1934 550 1998 747 
Q 2063 944 2063 1509 
L 2063 4597 
z
" transform="scale(0.015625)"/>
        <path id="CenturyGothic-75" d="M 431 3400 
L 872 3400 
L 872 1813 
Q 872 1231 934 1013 
Q 1028 700 1292 519 
Q 1556 338 1922 338 
Q 2288 338 2542 514 
Q 2797 691 2894 978 
Q 2959 1175 2959 1813 
L 2959 3400 
L 3406 3400 
L 3406 1731 
Q 3406 1028 3242 672 
Q 3078 316 2748 114 
Q 2419 -88 1922 -88 
Q 1425 -88 1092 114 
Q 759 316 595 677 
Q 431 1038 431 1763 
L 431 3400 
z
" transform="scale(0.015625)"/>
        <path id="CenturyGothic-6e" d="M 488 3400 
L 925 3400 
L 925 2791 
Q 1188 3141 1506 3314 
Q 1825 3488 2200 3488 
Q 2581 3488 2876 3294 
Q 3172 3100 3312 2772 
Q 3453 2444 3453 1750 
L 3453 0 
L 3019 0 
L 3019 1622 
Q 3019 2209 2969 2406 
Q 2891 2744 2675 2914 
Q 2459 3084 2113 3084 
Q 1716 3084 1402 2821 
Q 1088 2559 988 2172 
Q 925 1919 925 1247 
L 925 0 
L 488 0 
L 488 3400 
z
" transform="scale(0.015625)"/>
       </defs>
       <use xlink:href="#CenturyGothic-31"/>
       <use xlink:href="#CenturyGothic-33" x="55.419922"/>
       <use xlink:href="#CenturyGothic-2d" x="110.839844"/>
       <use xlink:href="#CenturyGothic-4a" x="144.042969"/>
       <use xlink:href="#CenturyGothic-75" x="192.236328"/>
       <use xlink:href="#CenturyGothic-6e" x="253.027344"/>
      </g>
     </g>
    </g>
    <g id="xtick_7">
     <g id="line2d_7">
      <g>
       <use xlink:href="#md2bc8030be" x="167.425433" y="117.896182" style="fill: #262626; stroke: #262626; stroke-width: 0.5"/>
      </g>
     </g>
     <g id="text_7">
      <!-- 18-Jul -->
      <g style="fill: #262626" transform="translate(169.322542 145.509463) rotate(-90) scale(0.07 -0.07)">
       <defs>
        <path id="CenturyGothic-38" d="M 2459 2522 
Q 2925 2291 3126 1994 
Q 3328 1697 3328 1319 
Q 3328 788 2981 381 
Q 2556 -116 1766 -116 
Q 1003 -116 609 320 
Q 216 756 216 1281 
Q 216 1666 422 1973 
Q 628 2281 1109 2522 
Q 772 2697 603 2956 
Q 434 3216 434 3513 
Q 434 3813 614 4098 
Q 794 4384 1111 4548 
Q 1428 4713 1797 4713 
Q 2156 4713 2462 4547 
Q 2769 4381 2942 4097 
Q 3116 3813 3116 3500 
Q 3116 3188 2952 2944 
Q 2788 2700 2459 2522 
z
M 1775 4266 
Q 1397 4266 1148 4042 
Q 900 3819 900 3509 
Q 900 3203 1167 2954 
Q 1434 2706 1791 2706 
Q 2019 2706 2222 2818 
Q 2425 2931 2539 3126 
Q 2653 3322 2653 3519 
Q 2653 3797 2428 4031 
Q 2203 4266 1775 4266 
z
M 1797 2291 
Q 1322 2291 1000 1983 
Q 678 1675 678 1266 
Q 678 1013 815 788 
Q 953 563 1200 441 
Q 1447 319 1772 319 
Q 2275 319 2572 616 
Q 2869 913 2869 1309 
Q 2869 1694 2555 1992 
Q 2241 2291 1797 2291 
z
" transform="scale(0.015625)"/>
        <path id="CenturyGothic-6c" d="M 422 4713 
L 859 4713 
L 859 0 
L 422 0 
L 422 4713 
z
" transform="scale(0.015625)"/>
       </defs>
       <use xlink:href="#CenturyGothic-31"/>
       <use xlink:href="#CenturyGothic-38" x="55.419922"/>
       <use xlink:href="#CenturyGothic-2d" x="110.839844"/>
       <use xlink:href="#CenturyGothic-4a" x="144.042969"/>
       <use xlink:href="#CenturyGothic-75" x="192.236328"/>
       <use xlink:href="#CenturyGothic-6c" x="253.027344"/>
      </g>
     </g>
    </g>
    <g id="xtick_8">
     <g id="line2d_8">
      <g>
       <use xlink:href="#md2bc8030be" x="193.777674" y="117.896182" style="fill: #262626; stroke: #262626; stroke-width: 0.5"/>
      </g>
     </g>
     <g id="text_8">
      <!-- 20-Ago -->
      <g style="fill: #262626" transform="translate(195.627206 150.950869) rotate(-90) scale(0.07 -0.07)">
       <defs>
        <path id="CenturyGothic-67" d="M 3416 3400 
L 3856 3400 
L 3856 691 
Q 3856 -25 3731 -356 
Q 3559 -825 3134 -1078 
Q 2709 -1331 2113 -1331 
Q 1675 -1331 1326 -1207 
Q 978 -1084 759 -876 
Q 541 -669 356 -269 
L 831 -269 
Q 1025 -606 1331 -768 
Q 1638 -931 2091 -931 
Q 2538 -931 2845 -764 
Q 3153 -597 3284 -344 
Q 3416 -91 3416 472 
L 3416 647 
Q 3169 334 2812 167 
Q 2456 0 2056 0 
Q 1588 0 1175 233 
Q 763 466 538 859 
Q 313 1253 313 1725 
Q 313 2197 547 2605 
Q 781 3013 1195 3250 
Q 1609 3488 2069 3488 
Q 2450 3488 2779 3330 
Q 3109 3172 3416 2809 
L 3416 3400 
z
M 2125 3066 
Q 1753 3066 1434 2886 
Q 1116 2706 934 2389 
Q 753 2072 753 1703 
Q 753 1144 1128 778 
Q 1503 413 2100 413 
Q 2703 413 3070 775 
Q 3438 1138 3438 1728 
Q 3438 2113 3269 2414 
Q 3100 2716 2790 2891 
Q 2481 3066 2125 3066 
z
" transform="scale(0.015625)"/>
        <path id="CenturyGothic-6f" d="M 2097 3488 
Q 2881 3488 3397 2919 
Q 3866 2400 3866 1691 
Q 3866 978 3370 445 
Q 2875 -88 2097 -88 
Q 1316 -88 820 445 
Q 325 978 325 1691 
Q 325 2397 794 2916 
Q 1309 3488 2097 3488 
z
M 2097 3059 
Q 1553 3059 1162 2656 
Q 772 2253 772 1681 
Q 772 1313 950 994 
Q 1128 675 1431 501 
Q 1734 328 2097 328 
Q 2459 328 2762 501 
Q 3066 675 3244 994 
Q 3422 1313 3422 1681 
Q 3422 2253 3030 2656 
Q 2638 3059 2097 3059 
z
" transform="scale(0.015625)"/>
       </defs>
       <use xlink:href="#CenturyGothic-32"/>
       <use xlink:href="#CenturyGothic-30" x="55.419922"/>
       <use xlink:href="#CenturyGothic-2d" x="110.839844"/>
       <use xlink:href="#CenturyGothic-41" x="144.042969"/>
       <use xlink:href="#CenturyGothic-67" x="218.017578"/>
       <use xlink:href="#CenturyGothic-6f" x="285.302734"/>
      </g>
     </g>
    </g>
    <g id="xtick_9">
     <g id="line2d_9">
      <g>
       <use xlink:href="#md2bc8030be" x="220.129916" y="117.896182" style="fill: #262626; stroke: #262626; stroke-width: 0.5"/>
      </g>
     </g>
     <g id="text_9">
      <!-- 23-Sep -->
      <g style="fill: #262626" transform="translate(222.027025 149.290557) rotate(-90) scale(0.07 -0.07)">
       <defs>
        <path id="CenturyGothic-53" d="M 84 856 
L 475 1091 
Q 888 331 1428 331 
Q 1659 331 1862 439 
Q 2066 547 2172 728 
Q 2278 909 2278 1113 
Q 2278 1344 2122 1566 
Q 1906 1872 1334 2303 
Q 759 2738 619 2931 
Q 375 3256 375 3634 
Q 375 3934 519 4181 
Q 663 4428 923 4570 
Q 1184 4713 1491 4713 
Q 1816 4713 2098 4552 
Q 2381 4391 2697 3959 
L 2322 3675 
Q 2063 4019 1880 4128 
Q 1697 4238 1481 4238 
Q 1203 4238 1026 4069 
Q 850 3900 850 3653 
Q 850 3503 912 3362 
Q 975 3222 1141 3056 
Q 1231 2969 1734 2597 
Q 2331 2156 2553 1812 
Q 2775 1469 2775 1122 
Q 2775 622 2395 253 
Q 2016 -116 1472 -116 
Q 1053 -116 712 107 
Q 372 331 84 856 
z
" transform="scale(0.015625)"/>
        <path id="CenturyGothic-70" d="M 494 3400 
L 928 3400 
L 928 2775 
Q 1188 3131 1525 3309 
Q 1863 3488 2278 3488 
Q 3003 3488 3518 2966 
Q 4034 2444 4034 1709 
Q 4034 959 3523 435 
Q 3013 -88 2291 -88 
Q 1884 -88 1543 81 
Q 1203 250 928 584 
L 928 -1244 
L 494 -1244 
L 494 3400 
z
M 2244 3066 
Q 1675 3066 1286 2669 
Q 897 2272 897 1681 
Q 897 1294 1070 984 
Q 1244 675 1567 494 
Q 1891 313 2250 313 
Q 2603 313 2914 495 
Q 3225 678 3409 1006 
Q 3594 1334 3594 1694 
Q 3594 2056 3411 2381 
Q 3228 2706 2918 2886 
Q 2609 3066 2244 3066 
z
" transform="scale(0.015625)"/>
       </defs>
       <use xlink:href="#CenturyGothic-32"/>
       <use xlink:href="#CenturyGothic-33" x="55.419922"/>
       <use xlink:href="#CenturyGothic-2d" x="110.839844"/>
       <use xlink:href="#CenturyGothic-53" x="144.042969"/>
       <use xlink:href="#CenturyGothic-65" x="193.847656"/>
       <use xlink:href="#CenturyGothic-70" x="258.837891"/>
      </g>
     </g>
    </g>
    <g id="xtick_10">
     <g id="line2d_10">
      <g>
       <use xlink:href="#md2bc8030be" x="246.482157" y="117.896182" style="fill: #262626; stroke: #262626; stroke-width: 0.5"/>
      </g>
     </g>
     <g id="text_10">
      <!-- 24-Oct -->
      <g style="fill: #262626" transform="translate(248.379266 149.465557) rotate(-90) scale(0.07 -0.07)">
       <defs>
        <path id="CenturyGothic-34" d="M 2725 4713 
L 2819 4713 
L 2819 1509 
L 3375 1509 
L 3375 1069 
L 2819 1069 
L 2819 0 
L 2359 0 
L 2359 1069 
L 163 1069 
L 2725 4713 
z
M 2359 1509 
L 2359 3425 
L 1006 1509 
L 2359 1509 
z
" transform="scale(0.015625)"/>
        <path id="CenturyGothic-4f" d="M 2750 4713 
Q 3794 4713 4497 4016 
Q 5200 3319 5200 2300 
Q 5200 1291 4498 587 
Q 3797 -116 2788 -116 
Q 1766 -116 1062 584 
Q 359 1284 359 2278 
Q 359 2941 679 3506 
Q 1000 4072 1553 4392 
Q 2106 4713 2750 4713 
z
M 2772 4263 
Q 2263 4263 1806 3997 
Q 1350 3731 1094 3281 
Q 838 2831 838 2278 
Q 838 1459 1405 895 
Q 1972 331 2772 331 
Q 3306 331 3761 590 
Q 4216 850 4470 1300 
Q 4725 1750 4725 2300 
Q 4725 2847 4470 3289 
Q 4216 3731 3753 3997 
Q 3291 4263 2772 4263 
z
" transform="scale(0.015625)"/>
        <path id="CenturyGothic-74" d="M 869 4663 
L 1309 4663 
L 1309 3400 
L 2003 3400 
L 2003 3025 
L 1309 3025 
L 1309 0 
L 869 0 
L 869 3025 
L 272 3025 
L 272 3400 
L 869 3400 
L 869 4663 
z
" transform="scale(0.015625)"/>
       </defs>
       <use xlink:href="#CenturyGothic-32"/>
       <use xlink:href="#CenturyGothic-34" x="55.419922"/>
       <use xlink:href="#CenturyGothic-2d" x="110.839844"/>
       <use xlink:href="#CenturyGothic-4f" x="144.042969"/>
       <use xlink:href="#CenturyGothic-63" x="230.957031"/>
       <use xlink:href="#CenturyGothic-74" x="295.654297"/>
      </g>
     </g>
    </g>
    <g id="xtick_11">
     <g id="line2d_11">
      <g>
       <use xlink:href="#md2bc8030be" x="272.834398" y="117.896182" style="fill: #262626; stroke: #262626; stroke-width: 0.5"/>
      </g>
     </g>
     <g id="text_11">
      <!-- 26-Nov -->
      <g style="fill: #262626" transform="translate(274.731508 150.120713) rotate(-90) scale(0.07 -0.07)">
       <defs>
        <path id="CenturyGothic-4e" d="M 563 0 
L 563 4597 
L 663 4597 
L 3719 1078 
L 3719 4597 
L 4172 4597 
L 4172 0 
L 4069 0 
L 1038 3475 
L 1038 0 
L 563 0 
z
" transform="scale(0.015625)"/>
        <path id="CenturyGothic-76" d="M 166 3400 
L 631 3400 
L 1769 925 
L 2897 3400 
L 3366 3400 
L 1809 0 
L 1731 0 
L 166 3400 
z
" transform="scale(0.015625)"/>
       </defs>
       <use xlink:href="#CenturyGothic-32"/>
       <use xlink:href="#CenturyGothic-36" x="55.419922"/>
       <use xlink:href="#CenturyGothic-2d" x="110.839844"/>
       <use xlink:href="#CenturyGothic-4e" x="144.042969"/>
       <use xlink:href="#CenturyGothic-6f" x="218.017578"/>
       <use xlink:href="#CenturyGothic-76" x="283.496094"/>
      </g>
     </g>
    </g>
    <g id="xtick_12">
     <g id="line2d_12">
      <g>
       <use xlink:href="#md2bc8030be" x="299.18664" y="117.896182" style="fill: #262626; stroke: #262626; stroke-width: 0.5"/>
      </g>
     </g>
     <g id="text_12">
      <!-- 31-Dic -->
      <g style="fill: #262626" transform="translate(301.083749 147.619307) rotate(-90) scale(0.07 -0.07)">
       <use xlink:href="#CenturyGothic-33"/>
       <use xlink:href="#CenturyGothic-31" x="55.419922"/>
       <use xlink:href="#CenturyGothic-2d" x="110.839844"/>
       <use xlink:href="#CenturyGothic-44" x="144.042969"/>
       <use xlink:href="#CenturyGothic-69" x="218.457031"/>
       <use xlink:href="#CenturyGothic-63" x="238.476562"/>
      </g>
     </g>
    </g>
   </g>
   <g id="matplotlib.axis_2">
    <g id="ytick_1">
     <g id="line2d_13">
      <defs>
       <path id="mb7acad5b67" d="M 0 0 
L 6 0 
" style="stroke: #262626; stroke-width: 0.5"/>
      </defs>
      <g>
       <use xlink:href="#mb7acad5b67" x="313.623085" y="117.442957" style="fill: #262626; stroke: #262626; stroke-width: 0.5"/>
      </g>
     </g>
     <g id="text_13">
      <!-- 3000 -->
      <g style="fill: #262626" transform="translate(323.123085 120.020379) scale(0.07 -0.07)">
       <use xlink:href="#CenturyGothic-33"/>
       <use xlink:href="#CenturyGothic-30" x="55.419922"/>
       <use xlink:href="#CenturyGothic-30" x="110.839844"/>
       <use xlink:href="#CenturyGothic-30" x="166.259766"/>
      </g>
     </g>
    </g>
    <g id="ytick_2">
     <g id="line2d_14">
      <g>
       <use xlink:href="#mb7acad5b67" x="313.623085" y="95.90985" style="fill: #262626; stroke: #262626; stroke-width: 0.5"/>
      </g>
     </g>
     <g id="text_14">
      <!-- 4000 -->
      <g style="fill: #262626" transform="translate(323.123085 98.487272) scale(0.07 -0.07)">
       <use xlink:href="#CenturyGothic-34"/>
       <use xlink:href="#CenturyGothic-30" x="55.419922"/>
       <use xlink:href="#CenturyGothic-30" x="110.839844"/>
       <use xlink:href="#CenturyGothic-30" x="166.259766"/>
      </g>
     </g>
    </g>
    <g id="ytick_3">
     <g id="line2d_15">
      <g>
       <use xlink:href="#mb7acad5b67" x="313.623085" y="74.376743" style="fill: #262626; stroke: #262626; stroke-width: 0.5"/>
      </g>
     </g>
     <g id="text_15">
      <!-- 5000 -->
      <g style="fill: #262626" transform="translate(323.123085 76.954165) scale(0.07 -0.07)">
       <defs>
        <path id="CenturyGothic-35" d="M 3147 4597 
L 3147 4159 
L 1509 4159 
L 1281 2906 
Q 1581 2994 1822 2994 
Q 2450 2994 2858 2573 
Q 3266 2153 3266 1497 
Q 3266 1044 3056 666 
Q 2847 288 2489 86 
Q 2131 -116 1663 -116 
Q 1103 -116 718 226 
Q 334 569 259 1113 
L 731 1113 
Q 784 847 911 681 
Q 1038 516 1248 414 
Q 1459 313 1691 313 
Q 2144 313 2469 656 
Q 2794 1000 2794 1516 
Q 2794 1981 2500 2272 
Q 2206 2563 1716 2563 
Q 1309 2563 731 2316 
L 1156 4597 
L 3147 4597 
z
" transform="scale(0.015625)"/>
       </defs>
       <use xlink:href="#CenturyGothic-35"/>
       <use xlink:href="#CenturyGothic-30" x="55.419922"/>
       <use xlink:href="#CenturyGothic-30" x="110.839844"/>
       <use xlink:href="#CenturyGothic-30" x="166.259766"/>
      </g>
     </g>
    </g>
    <g id="ytick_4">
     <g id="line2d_16">
      <g>
       <use xlink:href="#mb7acad5b67" x="313.623085" y="52.843636" style="fill: #262626; stroke: #262626; stroke-width: 0.5"/>
      </g>
     </g>
     <g id="text_16">
      <!-- 6000 -->
      <g style="fill: #262626" transform="translate(323.123085 55.421058) scale(0.07 -0.07)">
       <use xlink:href="#CenturyGothic-36"/>
       <use xlink:href="#CenturyGothic-30" x="55.419922"/>
       <use xlink:href="#CenturyGothic-30" x="110.839844"/>
       <use xlink:href="#CenturyGothic-30" x="166.259766"/>
      </g>
     </g>
    </g>
    <g id="ytick_5">
     <g id="line2d_17">
      <g>
       <use xlink:href="#mb7acad5b67" x="313.623085" y="31.310529" style="fill: #262626; stroke: #262626; stroke-width: 0.5"/>
      </g>
     </g>
     <g id="text_17">
      <!-- 7000 -->
      <g style="fill: #262626" transform="translate(323.123085 33.887951) scale(0.07 -0.07)">
       <defs>
        <path id="CenturyGothic-37" d="M 459 4597 
L 3375 4597 
L 916 -116 
L 538 78 
L 2663 4163 
L 459 4163 
L 459 4597 
z
" transform="scale(0.015625)"/>
       </defs>
       <use xlink:href="#CenturyGothic-37"/>
       <use xlink:href="#CenturyGothic-30" x="55.419922"/>
       <use xlink:href="#CenturyGothic-30" x="110.839844"/>
       <use xlink:href="#CenturyGothic-30" x="166.259766"/>
      </g>
     </g>
    </g>
    <g id="ytick_6">
     <g id="line2d_18">
      <g>
       <use xlink:href="#mb7acad5b67" x="313.623085" y="9.777422" style="fill: #262626; stroke: #262626; stroke-width: 0.5"/>
      </g>
     </g>
     <g id="text_18">
      <!-- 8000 -->
      <g style="fill: #262626" transform="translate(323.123085 12.354844) scale(0.07 -0.07)">
       <use xlink:href="#CenturyGothic-38"/>
       <use xlink:href="#CenturyGothic-30" x="55.419922"/>
       <use xlink:href="#CenturyGothic-30" x="110.839844"/>
       <use xlink:href="#CenturyGothic-30" x="166.259766"/>
      </g>
     </g>
    </g>
   </g>
   <g id="PolyCollection_1">
    <defs>
     <path id="m55744c6808" d="M 10.457734 -79.31332 
L 10.457734 -79.31332 
L 11.603484 -77.8359 
L 12.749234 -77.185518 
L 13.894983 -76.685184 
L 15.040733 -76.289092 
L 16.186482 -75.904873 
L 17.332232 -75.555414 
L 18.477982 -75.238206 
L 19.623731 -74.959147 
L 20.769481 -74.658107 
L 21.915231 -74.399688 
L 23.06098 -74.164982 
L 24.20673 -73.936978 
L 25.352479 -73.720243 
L 26.498229 -73.518985 
L 27.643979 -73.314025 
L 28.789728 -73.129165 
L 29.935478 -72.944736 
L 31.081228 -72.754623 
L 32.226977 -72.568482 
L 33.372727 -72.39668 
L 34.518476 -72.23546 
L 35.664226 -72.060082 
L 36.809976 -71.879727 
L 37.955725 -71.739167 
L 39.101475 -71.609272 
L 40.247225 -71.449095 
L 41.392974 -71.263205 
L 42.538724 -71.140598 
L 43.684473 -70.986172 
L 44.830223 -70.863964 
L 45.975973 -70.74476 
L 47.121722 -70.620647 
L 48.267472 -70.467701 
L 49.413222 -70.353657 
L 50.558971 -70.19763 
L 51.704721 -70.142095 
L 52.85047 -70.011547 
L 53.99622 -69.920088 
L 55.14197 -69.74898 
L 56.287719 -69.653116 
L 57.433469 -69.550358 
L 58.579219 -69.42321 
L 59.724968 -69.309543 
L 60.870718 -69.197374 
L 62.016467 -69.036643 
L 63.162217 -68.948477 
L 64.307967 -68.796982 
L 65.453716 -68.760127 
L 66.599466 -68.612681 
L 67.745216 -68.490419 
L 68.890965 -68.469534 
L 70.036715 -68.347961 
L 71.182464 -68.253919 
L 72.328214 -68.139364 
L 73.473964 -68.098883 
L 74.619713 -68.017884 
L 75.765463 -67.884847 
L 76.911213 -67.823881 
L 78.056962 -67.712546 
L 79.202712 -67.641106 
L 80.348461 -67.539587 
L 81.494211 -67.428211 
L 82.639961 -67.339364 
L 83.78571 -67.241904 
L 84.93146 -67.196875 
L 86.07721 -67.107958 
L 87.222959 -66.987933 
L 88.368709 -66.866372 
L 89.514458 -66.806981 
L 90.660208 -66.710256 
L 91.805958 -66.693327 
L 92.951707 -66.624695 
L 94.097457 -66.573133 
L 95.243207 -66.467952 
L 96.388956 -66.410483 
L 97.534706 -66.324335 
L 98.680455 -66.246227 
L 99.826205 -66.114295 
L 100.971955 -66.069597 
L 102.117704 -65.930692 
L 103.263454 -65.889772 
L 104.409204 -65.851081 
L 105.554953 -65.813864 
L 106.700703 -65.708214 
L 107.846452 -65.649565 
L 108.992202 -65.670635 
L 110.137952 -65.577815 
L 111.283701 -65.457042 
L 112.429451 -65.367202 
L 113.575201 -65.270219 
L 114.72095 -65.208905 
L 115.8667 -65.198306 
L 117.012449 -65.077928 
L 118.158199 -64.958837 
L 119.303949 -64.906365 
L 120.449698 -64.90187 
L 121.595448 -64.825041 
L 122.741198 -64.757327 
L 123.886947 -64.690793 
L 125.032697 -64.658749 
L 126.178446 -64.606789 
L 127.324196 -64.543528 
L 128.469946 -64.462615 
L 129.615695 -64.42546 
L 130.761445 -64.290356 
L 131.907195 -64.232896 
L 133.052944 -64.193494 
L 134.198694 -64.116592 
L 135.344443 -64.106717 
L 136.490193 -64.078626 
L 137.635943 -63.989898 
L 138.781692 -63.933245 
L 139.927442 -63.894364 
L 141.073192 -63.781074 
L 142.218941 -63.74228 
L 143.364691 -63.688099 
L 144.51044 -63.616816 
L 145.65619 -63.597315 
L 146.80194 -63.558656 
L 147.947689 -63.484051 
L 149.093439 -63.400277 
L 150.239189 -63.351996 
L 151.384938 -63.265126 
L 152.530688 -63.250333 
L 153.676437 -63.187955 
L 154.822187 -63.027158 
L 155.967937 -62.983349 
L 157.113686 -63.012486 
L 158.259436 -62.964497 
L 159.405186 -62.88924 
L 160.550935 -62.880457 
L 161.696685 -62.799302 
L 162.842434 -62.704499 
L 163.988184 -62.732286 
L 165.133934 -62.751595 
L 166.279683 -62.665732 
L 167.425433 -62.607421 
L 168.571183 -62.520737 
L 169.716932 -62.492218 
L 170.862682 -62.443671 
L 172.008431 -62.382041 
L 173.154181 -62.340277 
L 174.299931 -62.306728 
L 175.44568 -62.270404 
L 176.59143 -62.202373 
L 177.73718 -62.176126 
L 178.882929 -62.128025 
L 180.028679 -62.079468 
L 181.174428 -61.984001 
L 182.320178 -61.959657 
L 183.465928 -61.965435 
L 184.611677 -61.917863 
L 185.757427 -61.902552 
L 186.903177 -61.870664 
L 188.048926 -61.826596 
L 189.194676 -61.774747 
L 190.340425 -61.712126 
L 191.486175 -61.672858 
L 192.631925 -61.59063 
L 193.777674 -61.576148 
L 194.923424 -61.534507 
L 196.069174 -61.451254 
L 197.214923 -61.342923 
L 198.360673 -61.344683 
L 199.506422 -61.258183 
L 200.652172 -61.230323 
L 201.797922 -61.208294 
L 202.943671 -61.18689 
L 204.089421 -61.188959 
L 205.235171 -61.150305 
L 206.38092 -61.072476 
L 207.52667 -61.120884 
L 208.672419 -61.028478 
L 209.818169 -61.018448 
L 210.963919 -60.970284 
L 212.109668 -60.951682 
L 213.255418 -60.914758 
L 214.401168 -60.885832 
L 215.546917 -60.836049 
L 216.692667 -60.784865 
L 217.838416 -60.725564 
L 218.984166 -60.66025 
L 220.129916 -60.663337 
L 221.275665 -60.647512 
L 222.421415 -60.549336 
L 223.567165 -60.495184 
L 224.712914 -60.50337 
L 225.858664 -60.50958 
L 227.004413 -60.413765 
L 228.150163 -60.410077 
L 229.295913 -60.295678 
L 230.441662 -60.264383 
L 231.587412 -60.235741 
L 232.733162 -60.259327 
L 233.878911 -60.172908 
L 235.024661 -60.104413 
L 236.17041 -60.044613 
L 237.31616 -60.055446 
L 238.46191 -60.026689 
L 239.607659 -59.976567 
L 240.753409 -59.852237 
L 241.899159 -59.896611 
L 243.044908 -59.861407 
L 244.190658 -59.867357 
L 245.336407 -59.848578 
L 246.482157 -59.822298 
L 247.627907 -59.751716 
L 248.773656 -59.69407 
L 249.919406 -59.683727 
L 251.065156 -59.670348 
L 252.210905 -59.567494 
L 253.356655 -59.549959 
L 254.502404 -59.501785 
L 255.648154 -59.389021 
L 256.793904 -59.368427 
L 257.939653 -59.379315 
L 259.085403 -59.351062 
L 260.231153 -59.24061 
L 261.376902 -59.216442 
L 262.522652 -59.209172 
L 263.668401 -59.185541 
L 264.814151 -59.139135 
L 265.959901 -59.143865 
L 267.10565 -59.095993 
L 268.2514 -59.065686 
L 269.39715 -59.046905 
L 270.542899 -58.988086 
L 271.688649 -58.973634 
L 272.834398 -58.932492 
L 273.980148 -58.895928 
L 275.125898 -58.906791 
L 276.271647 -58.884731 
L 277.417397 -58.879984 
L 278.563147 -58.881375 
L 279.708896 -58.880707 
L 280.854646 -58.876548 
L 282.000395 -58.85738 
L 283.146145 -58.789132 
L 284.291895 -58.768242 
L 285.437644 -58.764498 
L 286.583394 -58.695147 
L 287.729144 -58.63155 
L 288.874893 -58.607093 
L 290.020643 -58.609774 
L 291.166392 -58.559873 
L 292.312142 -58.547273 
L 293.457892 -58.487647 
L 294.603641 -58.471659 
L 295.749391 -58.378435 
L 296.89514 -58.318857 
L 298.04089 -58.29382 
L 299.18664 -58.251198 
L 299.18664 -106.246015 
L 299.18664 -106.246015 
L 298.04089 -106.191439 
L 296.89514 -106.089116 
L 295.749391 -106.005403 
L 294.603641 -105.938344 
L 293.457892 -105.866558 
L 292.312142 -105.781579 
L 291.166392 -105.740751 
L 290.020643 -105.684394 
L 288.874893 -105.640053 
L 287.729144 -105.579161 
L 286.583394 -105.514134 
L 285.437644 -105.408341 
L 284.291895 -105.338052 
L 283.146145 -105.273257 
L 282.000395 -105.168704 
L 280.854646 -105.080513 
L 279.708896 -104.992258 
L 278.563147 -104.914171 
L 277.417397 -104.855276 
L 276.271647 -104.77541 
L 275.125898 -104.68709 
L 273.980148 -104.611676 
L 272.834398 -104.523845 
L 271.688649 -104.46064 
L 270.542899 -104.371819 
L 269.39715 -104.288945 
L 268.2514 -104.23921 
L 267.10565 -104.173787 
L 265.959901 -104.092612 
L 264.814151 -104.011622 
L 263.668401 -103.924364 
L 262.522652 -103.822305 
L 261.376902 -103.761431 
L 260.231153 -103.673654 
L 259.085403 -103.572615 
L 257.939653 -103.494898 
L 256.793904 -103.430395 
L 255.648154 -103.354212 
L 254.502404 -103.291851 
L 253.356655 -103.223657 
L 252.210905 -103.151678 
L 251.065156 -103.085488 
L 249.919406 -103.01485 
L 248.773656 -102.957174 
L 247.627907 -102.863765 
L 246.482157 -102.792149 
L 245.336407 -102.689335 
L 244.190658 -102.617251 
L 243.044908 -102.562271 
L 241.899159 -102.510663 
L 240.753409 -102.378666 
L 239.607659 -102.303384 
L 238.46191 -102.214054 
L 237.31616 -102.122492 
L 236.17041 -102.083322 
L 235.024661 -102.001322 
L 233.878911 -101.915553 
L 232.733162 -101.835866 
L 231.587412 -101.77686 
L 230.441662 -101.71004 
L 229.295913 -101.61789 
L 228.150163 -101.523486 
L 227.004413 -101.448787 
L 225.858664 -101.36562 
L 224.712914 -101.296415 
L 223.567165 -101.203884 
L 222.421415 -101.15124 
L 221.275665 -101.078462 
L 220.129916 -100.998034 
L 218.984166 -100.912472 
L 217.838416 -100.823668 
L 216.692667 -100.74657 
L 215.546917 -100.64123 
L 214.401168 -100.592984 
L 213.255418 -100.51961 
L 212.109668 -100.40032 
L 210.963919 -100.377275 
L 209.818169 -100.281471 
L 208.672419 -100.216294 
L 207.52667 -100.11889 
L 206.38092 -100.055935 
L 205.235171 -99.974113 
L 204.089421 -99.89916 
L 202.943671 -99.820946 
L 201.797922 -99.755374 
L 200.652172 -99.658637 
L 199.506422 -99.614956 
L 198.360673 -99.515335 
L 197.214923 -99.423004 
L 196.069174 -99.36123 
L 194.923424 -99.247277 
L 193.777674 -99.148486 
L 192.631925 -99.084629 
L 191.486175 -99.016434 
L 190.340425 -98.936967 
L 189.194676 -98.83179 
L 188.048926 -98.716931 
L 186.903177 -98.646165 
L 185.757427 -98.57386 
L 184.611677 -98.474019 
L 183.465928 -98.410325 
L 182.320178 -98.31012 
L 181.174428 -98.226489 
L 180.028679 -98.175112 
L 178.882929 -98.11144 
L 177.73718 -98.012527 
L 176.59143 -97.965542 
L 175.44568 -97.874553 
L 174.299931 -97.80223 
L 173.154181 -97.724022 
L 172.008431 -97.629252 
L 170.862682 -97.54434 
L 169.716932 -97.442608 
L 168.571183 -97.377132 
L 167.425433 -97.315892 
L 166.279683 -97.215524 
L 165.133934 -97.133279 
L 163.988184 -97.049714 
L 162.842434 -96.944331 
L 161.696685 -96.875322 
L 160.550935 -96.808975 
L 159.405186 -96.701673 
L 158.259436 -96.636827 
L 157.113686 -96.535684 
L 155.967937 -96.433725 
L 154.822187 -96.383704 
L 153.676437 -96.276178 
L 152.530688 -96.179167 
L 151.384938 -96.109043 
L 150.239189 -96.023974 
L 149.093439 -95.937271 
L 147.947689 -95.867576 
L 146.80194 -95.802376 
L 145.65619 -95.725488 
L 144.51044 -95.618727 
L 143.364691 -95.574675 
L 142.218941 -95.49224 
L 141.073192 -95.394006 
L 139.927442 -95.345602 
L 138.781692 -95.258229 
L 137.635943 -95.15002 
L 136.490193 -95.052724 
L 135.344443 -94.949406 
L 134.198694 -94.877263 
L 133.052944 -94.775053 
L 131.907195 -94.67253 
L 130.761445 -94.58901 
L 129.615695 -94.496453 
L 128.469946 -94.394985 
L 127.324196 -94.322841 
L 126.178446 -94.242201 
L 125.032697 -94.152649 
L 123.886947 -94.045043 
L 122.741198 -93.979943 
L 121.595448 -93.835636 
L 120.449698 -93.740094 
L 119.303949 -93.667308 
L 118.158199 -93.605008 
L 117.012449 -93.537837 
L 115.8667 -93.460409 
L 114.72095 -93.353484 
L 113.575201 -93.288741 
L 112.429451 -93.176915 
L 111.283701 -93.078379 
L 110.137952 -92.990915 
L 108.992202 -92.892964 
L 107.846452 -92.809972 
L 106.700703 -92.719504 
L 105.554953 -92.653553 
L 104.409204 -92.5797 
L 103.263454 -92.506995 
L 102.117704 -92.407134 
L 100.971955 -92.31557 
L 99.826205 -92.196138 
L 98.680455 -92.110273 
L 97.534706 -92.0239 
L 96.388956 -91.940565 
L 95.243207 -91.870409 
L 94.097457 -91.791491 
L 92.951707 -91.681449 
L 91.805958 -91.569182 
L 90.660208 -91.482357 
L 89.514458 -91.404497 
L 88.368709 -91.304392 
L 87.222959 -91.192234 
L 86.07721 -91.084206 
L 84.93146 -90.995675 
L 83.78571 -90.882374 
L 82.639961 -90.786461 
L 81.494211 -90.682577 
L 80.348461 -90.561341 
L 79.202712 -90.505626 
L 78.056962 -90.398823 
L 76.911213 -90.292629 
L 75.765463 -90.201986 
L 74.619713 -90.075427 
L 73.473964 -89.974644 
L 72.328214 -89.855887 
L 71.182464 -89.748307 
L 70.036715 -89.660412 
L 68.890965 -89.55325 
L 67.745216 -89.442381 
L 66.599466 -89.316734 
L 65.453716 -89.20447 
L 64.307967 -89.114863 
L 63.162217 -89.003862 
L 62.016467 -88.905324 
L 60.870718 -88.800267 
L 59.724968 -88.689134 
L 58.579219 -88.559125 
L 57.433469 -88.459637 
L 56.287719 -88.323585 
L 55.14197 -88.218545 
L 53.99622 -88.094402 
L 52.85047 -87.99388 
L 51.704721 -87.868231 
L 50.558971 -87.751422 
L 49.413222 -87.646855 
L 48.267472 -87.523961 
L 47.121722 -87.367102 
L 45.975973 -87.242343 
L 44.830223 -87.133092 
L 43.684473 -86.996936 
L 42.538724 -86.874904 
L 41.392974 -86.746931 
L 40.247225 -86.603274 
L 39.101475 -86.458465 
L 37.955725 -86.318166 
L 36.809976 -86.173966 
L 35.664226 -86.051762 
L 34.518476 -85.884652 
L 33.372727 -85.726411 
L 32.226977 -85.565834 
L 31.081228 -85.395192 
L 29.935478 -85.234794 
L 28.789728 -85.052126 
L 27.643979 -84.901995 
L 26.498229 -84.712767 
L 25.352479 -84.534926 
L 24.20673 -84.322961 
L 23.06098 -84.133361 
L 21.915231 -83.902169 
L 20.769481 -83.682516 
L 19.623731 -83.454298 
L 18.477982 -83.199025 
L 17.332232 -82.936615 
L 16.186482 -82.633711 
L 15.040733 -82.297276 
L 13.894983 -81.907371 
L 12.749234 -81.459974 
L 11.603484 -80.850606 
L 10.457734 -79.31332 
z
" style="stroke: #c6dbef; stroke-opacity: 0.8"/>
    </defs>
    <g clip-path="url(#p8e05edce35)">
     <use xlink:href="#m55744c6808" x="0" y="158.646338" style="fill: #c6dbef; fill-opacity: 0.8; stroke: #c6dbef; stroke-opacity: 0.8"/>
    </g>
   </g>
   <g id="PolyCollection_2">
    <defs>
     <path id="me0a8ee7da1" d="M 10.457734 -79.31332 
L 10.457734 -79.31332 
L 11.603484 -78.713566 
L 12.749234 -78.488071 
L 13.894983 -78.318159 
L 15.040733 -78.183947 
L 16.186482 -78.072575 
L 17.332232 -77.962554 
L 18.477982 -77.882049 
L 19.623731 -77.798642 
L 20.769481 -77.721596 
L 21.915231 -77.673392 
L 23.06098 -77.593194 
L 24.20673 -77.53759 
L 25.352479 -77.478734 
L 26.498229 -77.43172 
L 27.643979 -77.390679 
L 28.789728 -77.344989 
L 29.935478 -77.297976 
L 31.081228 -77.27027 
L 32.226977 -77.237028 
L 33.372727 -77.212796 
L 34.518476 -77.171476 
L 35.664226 -77.128942 
L 36.809976 -77.095142 
L 37.955725 -77.086036 
L 39.101475 -77.065236 
L 40.247225 -77.019111 
L 41.392974 -76.984677 
L 42.538724 -76.953835 
L 43.684473 -76.904331 
L 44.830223 -76.906869 
L 45.975973 -76.882451 
L 47.121722 -76.863323 
L 48.267472 -76.839527 
L 49.413222 -76.823678 
L 50.558971 -76.790017 
L 51.704721 -76.76707 
L 52.85047 -76.744056 
L 53.99622 -76.709023 
L 55.14197 -76.692556 
L 56.287719 -76.662068 
L 57.433469 -76.643095 
L 58.579219 -76.606277 
L 59.724968 -76.618298 
L 60.870718 -76.583471 
L 62.016467 -76.575047 
L 63.162217 -76.558217 
L 64.307967 -76.539638 
L 65.453716 -76.499919 
L 66.599466 -76.494926 
L 67.745216 -76.478888 
L 68.890965 -76.459715 
L 70.036715 -76.456788 
L 71.182464 -76.461505 
L 72.328214 -76.437846 
L 73.473964 -76.427678 
L 74.619713 -76.400493 
L 75.765463 -76.409391 
L 76.911213 -76.392475 
L 78.056962 -76.388385 
L 79.202712 -76.369166 
L 80.348461 -76.36266 
L 81.494211 -76.373168 
L 82.639961 -76.368953 
L 83.78571 -76.357922 
L 84.93146 -76.348274 
L 86.07721 -76.327039 
L 87.222959 -76.320668 
L 88.368709 -76.326261 
L 89.514458 -76.301278 
L 90.660208 -76.284463 
L 91.805958 -76.272054 
L 92.951707 -76.290321 
L 94.097457 -76.271183 
L 95.243207 -76.244628 
L 96.388956 -76.23267 
L 97.534706 -76.240431 
L 98.680455 -76.246085 
L 99.826205 -76.238678 
L 100.971955 -76.225469 
L 102.117704 -76.220468 
L 103.263454 -76.214289 
L 104.409204 -76.200622 
L 105.554953 -76.194868 
L 106.700703 -76.21208 
L 107.846452 -76.207784 
L 108.992202 -76.19557 
L 110.137952 -76.18905 
L 111.283701 -76.181567 
L 112.429451 -76.150447 
L 113.575201 -76.157136 
L 114.72095 -76.160531 
L 115.8667 -76.156367 
L 117.012449 -76.134662 
L 118.158199 -76.13075 
L 119.303949 -76.121147 
L 120.449698 -76.108903 
L 121.595448 -76.116341 
L 122.741198 -76.099738 
L 123.886947 -76.075056 
L 125.032697 -76.052269 
L 126.178446 -76.048107 
L 127.324196 -76.028975 
L 128.469946 -76.038598 
L 129.615695 -76.045577 
L 130.761445 -76.035732 
L 131.907195 -76.014806 
L 133.052944 -75.998182 
L 134.198694 -75.993962 
L 135.344443 -75.99881 
L 136.490193 -75.984884 
L 137.635943 -75.966843 
L 138.781692 -75.98311 
L 139.927442 -76.001842 
L 141.073192 -75.969164 
L 142.218941 -75.958435 
L 143.364691 -75.95828 
L 144.51044 -75.962708 
L 145.65619 -75.951897 
L 146.80194 -75.946 
L 147.947689 -75.968141 
L 149.093439 -75.925882 
L 150.239189 -75.910211 
L 151.384938 -75.890152 
L 152.530688 -75.884293 
L 153.676437 -75.876549 
L 154.822187 -75.886836 
L 155.967937 -75.878698 
L 157.113686 -75.867401 
L 158.259436 -75.880788 
L 159.405186 -75.878449 
L 160.550935 -75.89621 
L 161.696685 -75.87164 
L 162.842434 -75.866861 
L 163.988184 -75.86248 
L 165.133934 -75.860617 
L 166.279683 -75.865554 
L 167.425433 -75.841947 
L 168.571183 -75.842794 
L 169.716932 -75.848013 
L 170.862682 -75.868544 
L 172.008431 -75.866315 
L 173.154181 -75.859937 
L 174.299931 -75.843992 
L 175.44568 -75.842111 
L 176.59143 -75.818079 
L 177.73718 -75.803118 
L 178.882929 -75.79553 
L 180.028679 -75.81453 
L 181.174428 -75.795312 
L 182.320178 -75.785155 
L 183.465928 -75.72903 
L 184.611677 -75.737774 
L 185.757427 -75.756667 
L 186.903177 -75.748947 
L 188.048926 -75.725337 
L 189.194676 -75.769034 
L 190.340425 -75.748749 
L 191.486175 -75.728012 
L 192.631925 -75.749325 
L 193.777674 -75.723403 
L 194.923424 -75.734676 
L 196.069174 -75.690287 
L 197.214923 -75.665024 
L 198.360673 -75.683334 
L 199.506422 -75.696018 
L 200.652172 -75.696383 
L 201.797922 -75.642293 
L 202.943671 -75.644429 
L 204.089421 -75.633342 
L 205.235171 -75.652695 
L 206.38092 -75.686763 
L 207.52667 -75.683841 
L 208.672419 -75.651762 
L 209.818169 -75.664816 
L 210.963919 -75.683308 
L 212.109668 -75.682598 
L 213.255418 -75.675076 
L 214.401168 -75.638656 
L 215.546917 -75.658035 
L 216.692667 -75.632688 
L 217.838416 -75.641181 
L 218.984166 -75.627737 
L 220.129916 -75.644322 
L 221.275665 -75.643735 
L 222.421415 -75.628425 
L 223.567165 -75.641045 
L 224.712914 -75.62138 
L 225.858664 -75.612363 
L 227.004413 -75.602859 
L 228.150163 -75.631814 
L 229.295913 -75.602086 
L 230.441662 -75.573645 
L 231.587412 -75.564625 
L 232.733162 -75.568157 
L 233.878911 -75.548134 
L 235.024661 -75.573907 
L 236.17041 -75.527718 
L 237.31616 -75.545109 
L 238.46191 -75.561593 
L 239.607659 -75.56265 
L 240.753409 -75.549576 
L 241.899159 -75.556853 
L 243.044908 -75.53206 
L 244.190658 -75.522016 
L 245.336407 -75.491512 
L 246.482157 -75.519605 
L 247.627907 -75.526257 
L 248.773656 -75.500211 
L 249.919406 -75.495801 
L 251.065156 -75.506367 
L 252.210905 -75.484711 
L 253.356655 -75.499185 
L 254.502404 -75.49054 
L 255.648154 -75.49842 
L 256.793904 -75.486203 
L 257.939653 -75.453082 
L 259.085403 -75.449256 
L 260.231153 -75.422562 
L 261.376902 -75.446838 
L 262.522652 -75.47358 
L 263.668401 -75.482669 
L 264.814151 -75.483597 
L 265.959901 -75.480393 
L 267.10565 -75.484477 
L 268.2514 -75.461912 
L 269.39715 -75.441894 
L 270.542899 -75.453203 
L 271.688649 -75.480081 
L 272.834398 -75.482362 
L 273.980148 -75.499848 
L 275.125898 -75.475397 
L 276.271647 -75.489095 
L 277.417397 -75.478561 
L 278.563147 -75.453323 
L 279.708896 -75.43525 
L 280.854646 -75.454231 
L 282.000395 -75.443324 
L 283.146145 -75.472162 
L 284.291895 -75.457622 
L 285.437644 -75.468143 
L 286.583394 -75.454931 
L 287.729144 -75.459694 
L 288.874893 -75.406829 
L 290.020643 -75.411018 
L 291.166392 -75.39894 
L 292.312142 -75.396773 
L 293.457892 -75.407832 
L 294.603641 -75.384691 
L 295.749391 -75.375495 
L 296.89514 -75.418279 
L 298.04089 -75.407476 
L 299.18664 -75.414887 
L 299.18664 -94.671941 
L 299.18664 -94.671941 
L 298.04089 -94.627844 
L 296.89514 -94.570589 
L 295.749391 -94.535971 
L 294.603641 -94.476036 
L 293.457892 -94.448523 
L 292.312142 -94.415256 
L 291.166392 -94.376022 
L 290.020643 -94.345626 
L 288.874893 -94.301228 
L 287.729144 -94.244653 
L 286.583394 -94.182012 
L 285.437644 -94.14902 
L 284.291895 -94.11888 
L 283.146145 -94.076719 
L 282.000395 -94.017314 
L 280.854646 -93.974643 
L 279.708896 -93.92243 
L 278.563147 -93.926863 
L 277.417397 -93.871494 
L 276.271647 -93.826773 
L 275.125898 -93.801894 
L 273.980148 -93.745801 
L 272.834398 -93.693681 
L 271.688649 -93.6447 
L 270.542899 -93.609953 
L 269.39715 -93.553687 
L 268.2514 -93.5438 
L 267.10565 -93.490152 
L 265.959901 -93.451102 
L 264.814151 -93.396059 
L 263.668401 -93.33681 
L 262.522652 -93.290724 
L 261.376902 -93.249203 
L 260.231153 -93.209409 
L 259.085403 -93.174412 
L 257.939653 -93.107391 
L 256.793904 -93.070305 
L 255.648154 -93.023803 
L 254.502404 -92.968613 
L 253.356655 -92.939936 
L 252.210905 -92.893349 
L 251.065156 -92.84121 
L 249.919406 -92.827192 
L 248.773656 -92.746258 
L 247.627907 -92.70238 
L 246.482157 -92.674957 
L 245.336407 -92.611736 
L 244.190658 -92.545175 
L 243.044908 -92.51519 
L 241.899159 -92.48015 
L 240.753409 -92.440123 
L 239.607659 -92.399066 
L 238.46191 -92.336859 
L 237.31616 -92.308752 
L 236.17041 -92.254354 
L 235.024661 -92.231048 
L 233.878911 -92.161131 
L 232.733162 -92.125394 
L 231.587412 -92.090435 
L 230.441662 -92.039341 
L 229.295913 -91.982192 
L 228.150163 -91.961067 
L 227.004413 -91.900236 
L 225.858664 -91.858121 
L 224.712914 -91.824017 
L 223.567165 -91.774263 
L 222.421415 -91.71715 
L 221.275665 -91.683638 
L 220.129916 -91.64345 
L 218.984166 -91.600537 
L 217.838416 -91.584236 
L 216.692667 -91.525326 
L 215.546917 -91.463699 
L 214.401168 -91.412128 
L 213.255418 -91.370438 
L 212.109668 -91.349739 
L 210.963919 -91.289379 
L 209.818169 -91.252821 
L 208.672419 -91.195519 
L 207.52667 -91.146178 
L 206.38092 -91.091137 
L 205.235171 -91.051049 
L 204.089421 -90.995772 
L 202.943671 -90.935624 
L 201.797922 -90.905895 
L 200.652172 -90.866731 
L 199.506422 -90.811216 
L 198.360673 -90.764771 
L 197.214923 -90.726201 
L 196.069174 -90.659901 
L 194.923424 -90.614551 
L 193.777674 -90.548458 
L 192.631925 -90.520497 
L 191.486175 -90.452483 
L 190.340425 -90.413731 
L 189.194676 -90.373084 
L 188.048926 -90.339467 
L 186.903177 -90.30479 
L 185.757427 -90.267491 
L 184.611677 -90.236071 
L 183.465928 -90.167694 
L 182.320178 -90.127319 
L 181.174428 -90.071161 
L 180.028679 -90.000504 
L 178.882929 -89.974995 
L 177.73718 -89.928802 
L 176.59143 -89.87679 
L 175.44568 -89.821462 
L 174.299931 -89.795912 
L 173.154181 -89.736381 
L 172.008431 -89.674123 
L 170.862682 -89.631087 
L 169.716932 -89.590696 
L 168.571183 -89.545065 
L 167.425433 -89.495276 
L 166.279683 -89.450027 
L 165.133934 -89.390472 
L 163.988184 -89.356155 
L 162.842434 -89.313417 
L 161.696685 -89.255681 
L 160.550935 -89.21646 
L 159.405186 -89.158765 
L 158.259436 -89.103261 
L 157.113686 -89.054147 
L 155.967937 -89.012187 
L 154.822187 -88.97075 
L 153.676437 -88.92575 
L 152.530688 -88.867752 
L 151.384938 -88.815459 
L 150.239189 -88.774745 
L 149.093439 -88.736299 
L 147.947689 -88.698701 
L 146.80194 -88.660334 
L 145.65619 -88.587591 
L 144.51044 -88.559925 
L 143.364691 -88.479656 
L 142.218941 -88.447332 
L 141.073192 -88.384185 
L 139.927442 -88.324748 
L 138.781692 -88.28771 
L 137.635943 -88.214466 
L 136.490193 -88.154771 
L 135.344443 -88.128927 
L 134.198694 -88.071593 
L 133.052944 -88.038826 
L 131.907195 -87.992782 
L 130.761445 -87.937999 
L 129.615695 -87.87202 
L 128.469946 -87.818188 
L 127.324196 -87.786533 
L 126.178446 -87.737067 
L 125.032697 -87.696202 
L 123.886947 -87.648846 
L 122.741198 -87.616393 
L 121.595448 -87.531374 
L 120.449698 -87.470514 
L 119.303949 -87.429274 
L 118.158199 -87.371708 
L 117.012449 -87.311337 
L 115.8667 -87.241739 
L 114.72095 -87.181429 
L 113.575201 -87.138038 
L 112.429451 -87.093476 
L 111.283701 -87.043728 
L 110.137952 -86.986374 
L 108.992202 -86.9236 
L 107.846452 -86.876498 
L 106.700703 -86.838332 
L 105.554953 -86.785036 
L 104.409204 -86.737216 
L 103.263454 -86.681653 
L 102.117704 -86.612131 
L 100.971955 -86.558715 
L 99.826205 -86.493391 
L 98.680455 -86.444843 
L 97.534706 -86.395823 
L 96.388956 -86.343186 
L 95.243207 -86.287231 
L 94.097457 -86.226326 
L 92.951707 -86.162505 
L 91.805958 -86.118269 
L 90.660208 -86.064667 
L 89.514458 -86.014872 
L 88.368709 -85.941729 
L 87.222959 -85.885544 
L 86.07721 -85.856607 
L 84.93146 -85.779202 
L 83.78571 -85.711091 
L 82.639961 -85.629162 
L 81.494211 -85.574003 
L 80.348461 -85.513756 
L 79.202712 -85.442044 
L 78.056962 -85.376392 
L 76.911213 -85.3321 
L 75.765463 -85.272335 
L 74.619713 -85.20682 
L 73.473964 -85.148258 
L 72.328214 -85.080172 
L 71.182464 -85.03133 
L 70.036715 -84.9649 
L 68.890965 -84.903388 
L 67.745216 -84.849143 
L 66.599466 -84.796917 
L 65.453716 -84.73265 
L 64.307967 -84.659367 
L 63.162217 -84.596375 
L 62.016467 -84.532646 
L 60.870718 -84.470429 
L 59.724968 -84.392007 
L 58.579219 -84.325878 
L 57.433469 -84.24929 
L 56.287719 -84.187964 
L 55.14197 -84.113148 
L 53.99622 -84.038405 
L 52.85047 -83.966031 
L 51.704721 -83.904325 
L 50.558971 -83.826758 
L 49.413222 -83.753713 
L 48.267472 -83.686097 
L 47.121722 -83.597459 
L 45.975973 -83.519256 
L 44.830223 -83.436629 
L 43.684473 -83.349279 
L 42.538724 -83.263173 
L 41.392974 -83.180972 
L 40.247225 -83.098249 
L 39.101475 -83.012463 
L 37.955725 -82.944128 
L 36.809976 -82.862892 
L 35.664226 -82.76587 
L 34.518476 -82.670108 
L 33.372727 -82.589069 
L 32.226977 -82.502418 
L 31.081228 -82.411905 
L 29.935478 -82.305756 
L 28.789728 -82.208598 
L 27.643979 -82.101754 
L 26.498229 -82.004793 
L 25.352479 -81.895193 
L 24.20673 -81.785262 
L 23.06098 -81.654547 
L 21.915231 -81.543571 
L 20.769481 -81.412032 
L 19.623731 -81.279991 
L 18.477982 -81.134731 
L 17.332232 -80.99029 
L 16.186482 -80.829931 
L 15.040733 -80.652685 
L 13.894983 -80.45827 
L 12.749234 -80.235006 
L 11.603484 -79.950324 
L 10.457734 -79.31332 
z
" style="stroke: #6aaed6; stroke-opacity: 0.8"/>
    </defs>
    <g clip-path="url(#p8e05edce35)">
     <use xlink:href="#me0a8ee7da1" x="0" y="158.646338" style="fill: #6aaed6; fill-opacity: 0.8; stroke: #6aaed6; stroke-opacity: 0.8"/>
    </g>
   </g>
   <g id="line2d_19">
    <path d="M 10.457734 79.333018 
L 17.332232 79.118369 
L 28.789728 78.715436 
L 48.267472 78.134702 
L 74.619713 77.409216 
L 80.348461 77.26024 
L 97.534706 76.813471 
L 106.700703 76.625679 
L 126.178446 76.161536 
L 141.073192 75.865962 
L 150.239189 75.659173 
L 170.862682 75.278108 
L 178.882929 75.100345 
L 191.486175 74.893412 
L 207.52667 74.585063 
L 222.421415 74.269547 
L 232.733162 74.104717 
L 259.085403 73.664637 
L 265.959901 73.519221 
L 272.834398 73.38816 
L 292.312142 73.065913 
L 299.18664 72.946034 
L 299.18664 72.946034 
" clip-path="url(#p8e05edce35)" style="fill: none; stroke: #000000; stroke-width: 2; stroke-linecap: round"/>
   </g>
   <g id="line2d_20">
    <path d="M 10.457734 79.333018 
L 313.623085 79.333018 
" clip-path="url(#p8e05edce35)" style="fill: none; stroke-dasharray: 7.4,3.2; stroke-dashoffset: 0; stroke: #b3a369; stroke-width: 2"/>
   </g>
   <g id="patch_3">
    <path d="M 313.623085 117.896182 
L 313.623085 9.777422 
" style="fill: none; stroke: #262626; stroke-width: 0.5; stroke-linejoin: miter; stroke-linecap: square"/>
   </g>
   <g id="patch_4">
    <path d="M 10.457734 117.896182 
L 313.623085 117.896182 
" style="fill: none; stroke: #262626; stroke-width: 0.5; stroke-linejoin: miter; stroke-linecap: square"/>
   </g>
   <g id="text_19">
    <g id="patch_5">
     <path d="M 317.518634 83.990752 
L 377.942852 83.990752 
Q 379.342852 83.990752 379.342852 82.590752 
L 379.342852 76.075284 
Q 379.342852 74.675284 377.942852 74.675284 
L 317.518634 74.675284 
Q 316.118634 74.675284 316.118634 76.075284 
L 316.118634 82.590752 
Q 316.118634 83.990752 317.518634 83.990752 
z
" style="fill: #ffffff; opacity: 0.7"/>
    </g>
    <!-- Valor Inicial: 4,770 -->
    <g style="fill: #b3a369" transform="translate(317.518634 81.230127) scale(0.07 -0.07)">
     <defs>
      <path id="CenturyGothic-56" d="M 209 4597 
L 709 4597 
L 2231 1044 
L 3781 4597 
L 4281 4597 
L 2281 0 
L 2181 0 
L 209 4597 
z
" transform="scale(0.015625)"/>
      <path id="CenturyGothic-20" transform="scale(0.015625)"/>
      <path id="CenturyGothic-49" d="M 494 4597 
L 953 4597 
L 953 0 
L 494 0 
L 494 4597 
z
" transform="scale(0.015625)"/>
      <path id="CenturyGothic-3a" d="M 969 3488 
Q 1128 3488 1240 3375 
Q 1353 3263 1353 3100 
Q 1353 2938 1240 2825 
Q 1128 2713 969 2713 
Q 809 2713 696 2825 
Q 584 2938 584 3100 
Q 584 3259 696 3373 
Q 809 3488 969 3488 
z
M 969 688 
Q 1128 688 1240 575 
Q 1353 463 1353 300 
Q 1353 141 1240 26 
Q 1128 -88 969 -88 
Q 809 -88 696 26 
Q 584 141 584 300 
Q 584 463 696 575 
Q 809 688 969 688 
z
" transform="scale(0.015625)"/>
      <path id="CenturyGothic-2c" d="M 922 844 
L 1344 644 
L 709 -538 
L 400 -406 
L 922 844 
z
" transform="scale(0.015625)"/>
     </defs>
     <use xlink:href="#CenturyGothic-56"/>
     <use xlink:href="#CenturyGothic-61" x="70.214844"/>
     <use xlink:href="#CenturyGothic-6c" x="138.525391"/>
     <use xlink:href="#CenturyGothic-6f" x="158.544922"/>
     <use xlink:href="#CenturyGothic-72" x="224.023438"/>
     <use xlink:href="#CenturyGothic-20" x="254.101562"/>
     <use xlink:href="#CenturyGothic-49" x="281.787109"/>
     <use xlink:href="#CenturyGothic-6e" x="304.394531"/>
     <use xlink:href="#CenturyGothic-69" x="365.380859"/>
     <use xlink:href="#CenturyGothic-63" x="385.400391"/>
     <use xlink:href="#CenturyGothic-69" x="450.097656"/>
     <use xlink:href="#CenturyGothic-61" x="470.117188"/>
     <use xlink:href="#CenturyGothic-6c" x="538.427734"/>
     <use xlink:href="#CenturyGothic-3a" x="558.447266"/>
     <use xlink:href="#CenturyGothic-20" x="586.132812"/>
     <use xlink:href="#CenturyGothic-34" x="613.818359"/>
     <use xlink:href="#CenturyGothic-2c" x="669.238281"/>
     <use xlink:href="#CenturyGothic-37" x="696.923828"/>
     <use xlink:href="#CenturyGothic-37" x="752.34375"/>
     <use xlink:href="#CenturyGothic-30" x="807.763672"/>
    </g>
   </g>
  </g>
 </g>
 <defs>
  <clipPath id="p8e05edce35">
   <rect x="10.457734" y="9.777422" width="303.165351" height="108.11876"/>
  </clipPath>
 </defs>
</svg>
