<?xml version="1.0" encoding="utf-8" standalone="no"?>
<!DOCTYPE svg PUBLIC "-//W3C//DTD SVG 1.1//EN"
  "http://www.w3.org/Graphics/SVG/1.1/DTD/svg11.dtd">
<svg xmlns:xlink="http://www.w3.org/1999/xlink" width="568.788125pt" height="279.99pt" viewBox="0 0 568.788125 279.99" xmlns="http://www.w3.org/2000/svg" version="1.1">
 <metadata>
  <rdf:RDF xmlns:dc="http://purl.org/dc/elements/1.1/" xmlns:cc="http://creativecommons.org/ns#" xmlns:rdf="http://www.w3.org/1999/02/22-rdf-syntax-ns#">
   <cc:Work>
    <dc:type rdf:resource="http://purl.org/dc/dcmitype/StillImage"/>
    <dc:date>2025-05-26T12:31:40.699918</dc:date>
    <dc:format>image/svg+xml</dc:format>
    <dc:creator>
     <cc:Agent>
      <dc:title>Matplotlib v3.9.2, https://matplotlib.org/</dc:title>
     </cc:Agent>
    </dc:creator>
   </cc:Work>
  </rdf:RDF>
 </metadata>
 <defs>
  <style type="text/css">*{stroke-linejoin: round; stroke-linecap: butt}</style>
 </defs>
 <g id="figure_1">
  <g id="patch_1">
   <path d="M 0 279.99 
L 568.788125 279.99 
L 568.788125 0 
L 0 0 
z
" style="fill: #ffffff"/>
  </g>
  <g id="axes_1">
   <g id="patch_2">
    <path d="M 17.381875 244.9 
L 459.821875 244.9 
L 459.821875 20.7 
L 17.381875 20.7 
z
" style="fill: #ffffff"/>
   </g>
   <g id="PolyCollection_1">
    <defs>
     <path id="mcc520c3b18" d="M 79.641145 -73.912511 
L 79.641145 -35.09 
L 83.071183 -35.09 
L 83.071183 -35.09 
L 86.50122 -35.09 
L 86.50122 -35.09 
L 89.931258 -35.09 
L 89.931258 -35.09 
L 93.361296 -35.09 
L 93.361296 -35.09 
L 96.791334 -35.09 
L 96.791334 -35.09 
L 100.221372 -35.09 
L 100.221372 -35.09 
L 103.651409 -35.09 
L 103.651409 -35.09 
L 107.081447 -35.09 
L 107.081447 -35.09 
L 110.511485 -35.09 
L 110.511485 -35.09 
L 113.941523 -35.09 
L 113.941523 -35.09 
L 117.371561 -35.09 
L 117.371561 -35.09 
L 120.801599 -35.09 
L 120.801599 -35.09 
L 124.231636 -35.09 
L 124.231636 -35.09 
L 127.661674 -35.09 
L 127.661674 -35.09 
L 131.091712 -35.09 
L 131.091712 -35.09 
L 134.52175 -35.09 
L 134.52175 -35.09 
L 137.951788 -35.09 
L 137.951788 -35.09 
L 141.381826 -35.09 
L 141.381826 -35.09 
L 144.811863 -35.09 
L 144.811863 -35.09 
L 148.241901 -35.09 
L 148.241901 -35.09 
L 151.671939 -35.09 
L 151.671939 -35.09 
L 155.101977 -35.09 
L 155.101977 -35.09 
L 158.532015 -35.09 
L 158.532015 -35.09 
L 161.962052 -35.09 
L 161.962052 -35.09 
L 165.39209 -35.09 
L 165.39209 -35.09 
L 168.822128 -35.09 
L 168.822128 -35.09 
L 172.252166 -35.09 
L 172.252166 -35.09 
L 175.682204 -35.09 
L 175.682204 -35.09 
L 179.112242 -35.09 
L 179.112242 -35.09 
L 182.542279 -35.09 
L 182.542279 -35.09 
L 185.972317 -35.09 
L 185.972317 -35.09 
L 189.402355 -35.09 
L 189.402355 -35.09 
L 192.832393 -35.09 
L 192.832393 -35.09 
L 196.262431 -35.09 
L 196.262431 -35.09 
L 199.692469 -35.09 
L 199.692469 -35.09 
L 203.122506 -35.09 
L 203.122506 -35.09 
L 206.552544 -35.09 
L 206.552544 -35.09 
L 209.982582 -35.09 
L 209.982582 -35.09 
L 213.41262 -35.09 
L 213.41262 -35.09 
L 216.842658 -35.09 
L 216.842658 -35.09 
L 220.272696 -35.09 
L 220.272696 -35.09 
L 223.702733 -35.09 
L 223.702733 -35.09 
L 227.132771 -35.09 
L 227.132771 -35.09 
L 230.562809 -35.09 
L 230.562809 -35.09 
L 233.992847 -35.09 
L 233.992847 -35.09 
L 237.422885 -35.09 
L 237.422885 -35.09 
L 240.852922 -35.09 
L 240.852922 -35.09 
L 244.28296 -35.09 
L 244.28296 -35.09 
L 247.712998 -35.09 
L 247.712998 -35.09 
L 251.143036 -35.09 
L 251.143036 -35.09 
L 254.573074 -35.09 
L 254.573074 -35.09 
L 258.003112 -35.09 
L 258.003112 -35.09 
L 261.433149 -35.09 
L 261.433149 -35.09 
L 264.863187 -35.09 
L 264.863187 -35.09 
L 268.293225 -35.09 
L 268.293225 -35.09 
L 271.723263 -35.09 
L 271.723263 -35.09 
L 275.153301 -35.09 
L 275.153301 -35.09 
L 278.583339 -35.09 
L 278.583339 -35.09 
L 282.013376 -35.09 
L 282.013376 -35.09 
L 285.443414 -35.09 
L 285.443414 -35.09 
L 288.873452 -35.09 
L 288.873452 -35.09 
L 292.30349 -35.09 
L 292.30349 -35.09 
L 295.733528 -35.09 
L 295.733528 -35.09 
L 299.163566 -35.09 
L 299.163566 -35.09 
L 302.593603 -35.09 
L 302.593603 -35.09 
L 306.023641 -35.09 
L 306.023641 -35.09 
L 309.453679 -35.09 
L 309.453679 -35.09 
L 312.883717 -35.09 
L 312.883717 -35.09 
L 316.313755 -35.09 
L 316.313755 -35.09 
L 319.743792 -35.09 
L 319.743792 -35.09 
L 323.17383 -35.09 
L 323.17383 -35.09 
L 326.603868 -35.09 
L 326.603868 -35.09 
L 330.033906 -35.09 
L 330.033906 -35.09 
L 333.463944 -35.09 
L 333.463944 -35.09 
L 336.893982 -35.09 
L 336.893982 -35.09 
L 340.324019 -35.09 
L 340.324019 -35.09 
L 343.754057 -35.09 
L 343.754057 -35.09 
L 347.184095 -35.09 
L 347.184095 -35.09 
L 350.614133 -35.09 
L 350.614133 -35.09 
L 354.044171 -35.09 
L 354.044171 -35.09 
L 357.474209 -35.09 
L 357.474209 -35.09 
L 360.904246 -35.09 
L 360.904246 -35.09 
L 364.334284 -35.09 
L 364.334284 -35.09 
L 367.764322 -35.09 
L 367.764322 -35.09 
L 371.19436 -35.09 
L 371.19436 -35.09 
L 374.624398 -35.09 
L 374.624398 -35.09 
L 378.054436 -35.09 
L 378.054436 -35.09 
L 381.484473 -35.09 
L 381.484473 -35.09 
L 384.914511 -35.09 
L 384.914511 -35.09 
L 388.344549 -35.09 
L 388.344549 -35.09 
L 391.774587 -35.09 
L 391.774587 -35.09 
L 395.204625 -35.09 
L 395.204625 -35.09 
L 398.634662 -35.09 
L 398.634662 -35.09 
L 402.0647 -35.09 
L 402.0647 -35.09 
L 405.494738 -35.09 
L 405.494738 -35.09 
L 408.924776 -35.09 
L 408.924776 -35.09 
L 412.354814 -35.09 
L 412.354814 -35.09 
L 415.784852 -35.09 
L 415.784852 -35.09 
L 419.214889 -35.09 
L 419.214889 -35.09 
L 422.644927 -35.09 
L 422.644927 -35.09 
L 422.644927 -54.501255 
L 422.644927 -54.501255 
L 422.644927 -54.501255 
L 419.214889 -54.501255 
L 419.214889 -35.09 
L 415.784852 -35.09 
L 415.784852 -35.09 
L 412.354814 -35.09 
L 412.354814 -35.09 
L 408.924776 -35.09 
L 408.924776 -54.501255 
L 405.494738 -54.501255 
L 405.494738 -35.09 
L 402.0647 -35.09 
L 402.0647 -35.09 
L 398.634662 -35.09 
L 398.634662 -54.501255 
L 395.204625 -54.501255 
L 395.204625 -35.09 
L 391.774587 -35.09 
L 391.774587 -35.09 
L 388.344549 -35.09 
L 388.344549 -35.09 
L 384.914511 -35.09 
L 384.914511 -35.09 
L 381.484473 -35.09 
L 381.484473 -35.09 
L 378.054436 -35.09 
L 378.054436 -35.09 
L 374.624398 -35.09 
L 374.624398 -35.09 
L 371.19436 -35.09 
L 371.19436 -73.912511 
L 367.764322 -73.912511 
L 367.764322 -54.501255 
L 364.334284 -54.501255 
L 364.334284 -54.501255 
L 360.904246 -54.501255 
L 360.904246 -35.09 
L 357.474209 -35.09 
L 357.474209 -35.09 
L 354.044171 -35.09 
L 354.044171 -54.501255 
L 350.614133 -54.501255 
L 350.614133 -35.09 
L 347.184095 -35.09 
L 347.184095 -35.09 
L 343.754057 -35.09 
L 343.754057 -112.735022 
L 340.324019 -112.735022 
L 340.324019 -132.146277 
L 336.893982 -132.146277 
L 336.893982 -112.735022 
L 333.463944 -112.735022 
L 333.463944 -112.735022 
L 330.033906 -112.735022 
L 330.033906 -151.557532 
L 326.603868 -151.557532 
L 326.603868 -93.323766 
L 323.17383 -93.323766 
L 323.17383 -132.146277 
L 319.743792 -132.146277 
L 319.743792 -112.735022 
L 316.313755 -112.735022 
L 316.313755 -112.735022 
L 312.883717 -112.735022 
L 312.883717 -151.557532 
L 309.453679 -151.557532 
L 309.453679 -54.501255 
L 306.023641 -54.501255 
L 306.023641 -132.146277 
L 302.593603 -132.146277 
L 302.593603 -209.791299 
L 299.163566 -209.791299 
L 299.163566 -151.557532 
L 295.733528 -151.557532 
L 295.733528 -112.735022 
L 292.30349 -112.735022 
L 292.30349 -248.61381 
L 288.873452 -248.61381 
L 288.873452 -73.912511 
L 285.443414 -73.912511 
L 285.443414 -190.380043 
L 282.013376 -190.380043 
L 282.013376 -229.202554 
L 278.583339 -229.202554 
L 278.583339 -170.968788 
L 275.153301 -170.968788 
L 275.153301 -229.202554 
L 271.723263 -229.202554 
L 271.723263 -209.791299 
L 268.293225 -209.791299 
L 268.293225 -248.61381 
L 264.863187 -248.61381 
L 264.863187 -248.61381 
L 261.433149 -248.61381 
L 261.433149 -132.146277 
L 258.003112 -132.146277 
L 258.003112 -190.380043 
L 254.573074 -190.380043 
L 254.573074 -248.61381 
L 251.143036 -248.61381 
L 251.143036 -132.146277 
L 247.712998 -132.146277 
L 247.712998 -248.61381 
L 244.28296 -248.61381 
L 244.28296 -112.735022 
L 240.852922 -112.735022 
L 240.852922 -73.912511 
L 237.422885 -73.912511 
L 237.422885 -93.323766 
L 233.992847 -93.323766 
L 233.992847 -93.323766 
L 230.562809 -93.323766 
L 230.562809 -151.557532 
L 227.132771 -151.557532 
L 227.132771 -73.912511 
L 223.702733 -73.912511 
L 223.702733 -73.912511 
L 220.272696 -73.912511 
L 220.272696 -132.146277 
L 216.842658 -132.146277 
L 216.842658 -54.501255 
L 213.41262 -54.501255 
L 213.41262 -93.323766 
L 209.982582 -93.323766 
L 209.982582 -93.323766 
L 206.552544 -93.323766 
L 206.552544 -54.501255 
L 203.122506 -54.501255 
L 203.122506 -54.501255 
L 199.692469 -54.501255 
L 199.692469 -73.912511 
L 196.262431 -73.912511 
L 196.262431 -35.09 
L 192.832393 -35.09 
L 192.832393 -54.501255 
L 189.402355 -54.501255 
L 189.402355 -54.501255 
L 185.972317 -54.501255 
L 185.972317 -54.501255 
L 182.542279 -54.501255 
L 182.542279 -93.323766 
L 179.112242 -93.323766 
L 179.112242 -35.09 
L 175.682204 -35.09 
L 175.682204 -54.501255 
L 172.252166 -54.501255 
L 172.252166 -35.09 
L 168.822128 -35.09 
L 168.822128 -73.912511 
L 165.39209 -73.912511 
L 165.39209 -35.09 
L 161.962052 -35.09 
L 161.962052 -35.09 
L 158.532015 -35.09 
L 158.532015 -54.501255 
L 155.101977 -54.501255 
L 155.101977 -35.09 
L 151.671939 -35.09 
L 151.671939 -73.912511 
L 148.241901 -73.912511 
L 148.241901 -35.09 
L 144.811863 -35.09 
L 144.811863 -35.09 
L 141.381826 -35.09 
L 141.381826 -35.09 
L 137.951788 -35.09 
L 137.951788 -35.09 
L 134.52175 -35.09 
L 134.52175 -54.501255 
L 131.091712 -54.501255 
L 131.091712 -35.09 
L 127.661674 -35.09 
L 127.661674 -35.09 
L 124.231636 -35.09 
L 124.231636 -54.501255 
L 120.801599 -54.501255 
L 120.801599 -35.09 
L 117.371561 -35.09 
L 117.371561 -35.09 
L 113.941523 -35.09 
L 113.941523 -35.09 
L 110.511485 -35.09 
L 110.511485 -35.09 
L 107.081447 -35.09 
L 107.081447 -35.09 
L 103.651409 -35.09 
L 103.651409 -35.09 
L 100.221372 -35.09 
L 100.221372 -35.09 
L 96.791334 -35.09 
L 96.791334 -35.09 
L 93.361296 -35.09 
L 93.361296 -35.09 
L 89.931258 -35.09 
L 89.931258 -35.09 
L 86.50122 -35.09 
L 86.50122 -35.09 
L 83.071183 -35.09 
L 83.071183 -73.912511 
L 79.641145 -73.912511 
z
" style="stroke: #888888"/>
    </defs>
    <g clip-path="url(#p5d1f628da5)">
     <use xlink:href="#mcc520c3b18" x="0" y="279.99" style="fill: #888888; fill-opacity: 0.75; stroke: #888888"/>
    </g>
   </g>
   <g id="PolyCollection_2">
    <defs>
     <path id="m1685639256" d="M 96.850435 -54.396349 
L 96.850435 -35.09 
L 100.299111 -35.09 
L 100.299111 -35.09 
L 103.747787 -35.09 
L 103.747787 -35.09 
L 107.196463 -35.09 
L 107.196463 -35.09 
L 110.645139 -35.09 
L 110.645139 -35.09 
L 114.093815 -35.09 
L 114.093815 -35.09 
L 117.542491 -35.09 
L 117.542491 -35.09 
L 120.991166 -35.09 
L 120.991166 -35.09 
L 124.439842 -35.09 
L 124.439842 -35.09 
L 127.888518 -35.09 
L 127.888518 -35.09 
L 131.337194 -35.09 
L 131.337194 -35.09 
L 134.78587 -35.09 
L 134.78587 -35.09 
L 138.234546 -35.09 
L 138.234546 -35.09 
L 141.683222 -35.09 
L 141.683222 -35.09 
L 145.131898 -35.09 
L 145.131898 -35.09 
L 148.580574 -35.09 
L 148.580574 -35.09 
L 152.02925 -35.09 
L 152.02925 -35.09 
L 155.477926 -35.09 
L 155.477926 -35.09 
L 158.926602 -35.09 
L 158.926602 -35.09 
L 162.375278 -35.09 
L 162.375278 -35.09 
L 165.823954 -35.09 
L 165.823954 -35.09 
L 169.27263 -35.09 
L 169.27263 -35.09 
L 172.721306 -35.09 
L 172.721306 -35.09 
L 176.169982 -35.09 
L 176.169982 -35.09 
L 179.618658 -35.09 
L 179.618658 -35.09 
L 183.067334 -35.09 
L 183.067334 -35.09 
L 186.51601 -35.09 
L 186.51601 -35.09 
L 189.964686 -35.09 
L 189.964686 -35.09 
L 193.413362 -35.09 
L 193.413362 -35.09 
L 196.862038 -35.09 
L 196.862038 -35.09 
L 200.310714 -35.09 
L 200.310714 -35.09 
L 203.759389 -35.09 
L 203.759389 -35.09 
L 207.208065 -35.09 
L 207.208065 -35.09 
L 210.656741 -35.09 
L 210.656741 -35.09 
L 214.105417 -35.09 
L 214.105417 -35.09 
L 217.554093 -35.09 
L 217.554093 -35.09 
L 221.002769 -35.09 
L 221.002769 -35.09 
L 224.451445 -35.09 
L 224.451445 -35.09 
L 227.900121 -35.09 
L 227.900121 -35.09 
L 231.348797 -35.09 
L 231.348797 -35.09 
L 234.797473 -35.09 
L 234.797473 -35.09 
L 238.246149 -35.09 
L 238.246149 -35.09 
L 241.694825 -35.09 
L 241.694825 -35.09 
L 245.143501 -35.09 
L 245.143501 -35.09 
L 248.592177 -35.09 
L 248.592177 -35.09 
L 252.040853 -35.09 
L 252.040853 -35.09 
L 255.489529 -35.09 
L 255.489529 -35.09 
L 258.938205 -35.09 
L 258.938205 -35.09 
L 262.386881 -35.09 
L 262.386881 -35.09 
L 265.835557 -35.09 
L 265.835557 -35.09 
L 269.284233 -35.09 
L 269.284233 -35.09 
L 272.732909 -35.09 
L 272.732909 -35.09 
L 276.181585 -35.09 
L 276.181585 -35.09 
L 279.630261 -35.09 
L 279.630261 -35.09 
L 283.078937 -35.09 
L 283.078937 -35.09 
L 286.527613 -35.09 
L 286.527613 -35.09 
L 289.976288 -35.09 
L 289.976288 -35.09 
L 293.424964 -35.09 
L 293.424964 -35.09 
L 296.87364 -35.09 
L 296.87364 -35.09 
L 300.322316 -35.09 
L 300.322316 -35.09 
L 303.770992 -35.09 
L 303.770992 -35.09 
L 307.219668 -35.09 
L 307.219668 -35.09 
L 310.668344 -35.09 
L 310.668344 -35.09 
L 314.11702 -35.09 
L 314.11702 -35.09 
L 317.565696 -35.09 
L 317.565696 -35.09 
L 321.014372 -35.09 
L 321.014372 -35.09 
L 324.463048 -35.09 
L 324.463048 -35.09 
L 327.911724 -35.09 
L 327.911724 -35.09 
L 331.3604 -35.09 
L 331.3604 -35.09 
L 334.809076 -35.09 
L 334.809076 -35.09 
L 338.257752 -35.09 
L 338.257752 -35.09 
L 341.706428 -35.09 
L 341.706428 -35.09 
L 345.155104 -35.09 
L 345.155104 -35.09 
L 348.60378 -35.09 
L 348.60378 -35.09 
L 352.052456 -35.09 
L 352.052456 -35.09 
L 355.501132 -35.09 
L 355.501132 -35.09 
L 358.949808 -35.09 
L 358.949808 -35.09 
L 362.398484 -35.09 
L 362.398484 -35.09 
L 365.84716 -35.09 
L 365.84716 -35.09 
L 369.295836 -35.09 
L 369.295836 -35.09 
L 372.744512 -35.09 
L 372.744512 -35.09 
L 376.193187 -35.09 
L 376.193187 -35.09 
L 379.641863 -35.09 
L 379.641863 -35.09 
L 383.090539 -35.09 
L 383.090539 -35.09 
L 386.539215 -35.09 
L 386.539215 -35.09 
L 389.987891 -35.09 
L 389.987891 -35.09 
L 393.436567 -35.09 
L 393.436567 -35.09 
L 396.885243 -35.09 
L 396.885243 -35.09 
L 400.333919 -35.09 
L 400.333919 -35.09 
L 403.782595 -35.09 
L 403.782595 -35.09 
L 407.231271 -35.09 
L 407.231271 -35.09 
L 410.679947 -35.09 
L 410.679947 -35.09 
L 414.128623 -35.09 
L 414.128623 -35.09 
L 417.577299 -35.09 
L 417.577299 -35.09 
L 421.025975 -35.09 
L 421.025975 -35.09 
L 424.474651 -35.09 
L 424.474651 -35.09 
L 427.923327 -35.09 
L 427.923327 -35.09 
L 431.372003 -35.09 
L 431.372003 -35.09 
L 434.820679 -35.09 
L 434.820679 -35.09 
L 438.269355 -35.09 
L 438.269355 -35.09 
L 441.718031 -35.09 
L 441.718031 -35.09 
L 441.718031 -54.396349 
L 441.718031 -54.396349 
L 441.718031 -54.396349 
L 438.269355 -54.396349 
L 438.269355 -35.09 
L 434.820679 -35.09 
L 434.820679 -35.09 
L 431.372003 -35.09 
L 431.372003 -54.396349 
L 427.923327 -54.396349 
L 427.923327 -54.396349 
L 424.474651 -54.396349 
L 424.474651 -35.09 
L 421.025975 -35.09 
L 421.025975 -73.702697 
L 417.577299 -73.702697 
L 417.577299 -35.09 
L 414.128623 -35.09 
L 414.128623 -35.09 
L 410.679947 -35.09 
L 410.679947 -54.396349 
L 407.231271 -54.396349 
L 407.231271 -35.09 
L 403.782595 -35.09 
L 403.782595 -35.09 
L 400.333919 -35.09 
L 400.333919 -54.396349 
L 396.885243 -54.396349 
L 396.885243 -35.09 
L 393.436567 -35.09 
L 393.436567 -54.396349 
L 389.987891 -54.396349 
L 389.987891 -35.09 
L 386.539215 -35.09 
L 386.539215 -35.09 
L 383.090539 -35.09 
L 383.090539 -73.702697 
L 379.641863 -73.702697 
L 379.641863 -54.396349 
L 376.193187 -54.396349 
L 376.193187 -35.09 
L 372.744512 -35.09 
L 372.744512 -112.315394 
L 369.295836 -112.315394 
L 369.295836 -35.09 
L 365.84716 -35.09 
L 365.84716 -35.09 
L 362.398484 -35.09 
L 362.398484 -54.396349 
L 358.949808 -54.396349 
L 358.949808 -54.396349 
L 355.501132 -54.396349 
L 355.501132 -35.09 
L 352.052456 -35.09 
L 352.052456 -93.009046 
L 348.60378 -93.009046 
L 348.60378 -35.09 
L 345.155104 -35.09 
L 345.155104 -54.396349 
L 341.706428 -54.396349 
L 341.706428 -54.396349 
L 338.257752 -54.396349 
L 338.257752 -54.396349 
L 334.809076 -54.396349 
L 334.809076 -35.09 
L 331.3604 -35.09 
L 331.3604 -93.009046 
L 327.911724 -93.009046 
L 327.911724 -112.315394 
L 324.463048 -112.315394 
L 324.463048 -54.396349 
L 321.014372 -54.396349 
L 321.014372 -73.702697 
L 317.565696 -73.702697 
L 317.565696 -150.928092 
L 314.11702 -150.928092 
L 314.11702 -112.315394 
L 310.668344 -112.315394 
L 310.668344 -112.315394 
L 307.219668 -112.315394 
L 307.219668 -150.928092 
L 303.770992 -150.928092 
L 303.770992 -112.315394 
L 300.322316 -112.315394 
L 300.322316 -150.928092 
L 296.87364 -150.928092 
L 296.87364 -93.009046 
L 293.424964 -93.009046 
L 293.424964 -189.540789 
L 289.976288 -189.540789 
L 289.976288 -228.153486 
L 286.527613 -228.153486 
L 286.527613 -150.928092 
L 283.078937 -150.928092 
L 283.078937 -150.928092 
L 279.630261 -150.928092 
L 279.630261 -208.847137 
L 276.181585 -208.847137 
L 276.181585 -189.540789 
L 272.732909 -189.540789 
L 272.732909 -228.153486 
L 269.284233 -228.153486 
L 269.284233 -189.540789 
L 265.835557 -189.540789 
L 265.835557 -170.23444 
L 262.386881 -170.23444 
L 262.386881 -150.928092 
L 258.938205 -150.928092 
L 258.938205 -131.621743 
L 255.489529 -131.621743 
L 255.489529 -112.315394 
L 252.040853 -112.315394 
L 252.040853 -247.459835 
L 248.592177 -247.459835 
L 248.592177 -150.928092 
L 245.143501 -150.928092 
L 245.143501 -150.928092 
L 241.694825 -150.928092 
L 241.694825 -228.153486 
L 238.246149 -228.153486 
L 238.246149 -73.702697 
L 234.797473 -73.702697 
L 234.797473 -93.009046 
L 231.348797 -93.009046 
L 231.348797 -189.540789 
L 227.900121 -189.540789 
L 227.900121 -208.847137 
L 224.451445 -208.847137 
L 224.451445 -150.928092 
L 221.002769 -150.928092 
L 221.002769 -93.009046 
L 217.554093 -93.009046 
L 217.554093 -112.315394 
L 214.105417 -112.315394 
L 214.105417 -73.702697 
L 210.656741 -73.702697 
L 210.656741 -112.315394 
L 207.208065 -112.315394 
L 207.208065 -73.702697 
L 203.759389 -73.702697 
L 203.759389 -54.396349 
L 200.310714 -54.396349 
L 200.310714 -93.009046 
L 196.862038 -93.009046 
L 196.862038 -73.702697 
L 193.413362 -73.702697 
L 193.413362 -73.702697 
L 189.964686 -73.702697 
L 189.964686 -73.702697 
L 186.51601 -73.702697 
L 186.51601 -73.702697 
L 183.067334 -73.702697 
L 183.067334 -54.396349 
L 179.618658 -54.396349 
L 179.618658 -73.702697 
L 176.169982 -73.702697 
L 176.169982 -35.09 
L 172.721306 -35.09 
L 172.721306 -35.09 
L 169.27263 -35.09 
L 169.27263 -54.396349 
L 165.823954 -54.396349 
L 165.823954 -35.09 
L 162.375278 -35.09 
L 162.375278 -54.396349 
L 158.926602 -54.396349 
L 158.926602 -35.09 
L 155.477926 -35.09 
L 155.477926 -35.09 
L 152.02925 -35.09 
L 152.02925 -35.09 
L 148.580574 -35.09 
L 148.580574 -35.09 
L 145.131898 -35.09 
L 145.131898 -35.09 
L 141.683222 -35.09 
L 141.683222 -54.396349 
L 138.234546 -54.396349 
L 138.234546 -54.396349 
L 134.78587 -54.396349 
L 134.78587 -54.396349 
L 131.337194 -54.396349 
L 131.337194 -35.09 
L 127.888518 -35.09 
L 127.888518 -35.09 
L 124.439842 -35.09 
L 124.439842 -35.09 
L 120.991166 -35.09 
L 120.991166 -54.396349 
L 117.542491 -54.396349 
L 117.542491 -35.09 
L 114.093815 -35.09 
L 114.093815 -35.09 
L 110.645139 -35.09 
L 110.645139 -35.09 
L 107.196463 -35.09 
L 107.196463 -35.09 
L 103.747787 -35.09 
L 103.747787 -35.09 
L 100.299111 -35.09 
L 100.299111 -54.396349 
L 96.850435 -54.396349 
z
" style="stroke: #1f77b4"/>
    </defs>
    <g clip-path="url(#p5d1f628da5)">
     <use xlink:href="#m1685639256" x="0" y="279.99" style="fill: #1f77b4; fill-opacity: 0.75; stroke: #1f77b4"/>
    </g>
   </g>
   <g id="matplotlib.axis_1">
    <g id="xtick_1">
     <g id="line2d_1">
      <defs>
       <path id="m6556cbe93b" d="M 0 0 
L 0 3.5 
" style="stroke: #000000; stroke-width: 0.8"/>
      </defs>
      <g>
       <use xlink:href="#m6556cbe93b" x="17.381875" y="244.9" style="stroke: #000000; stroke-width: 0.8"/>
      </g>
     </g>
     <g id="text_1">
      <!-- −0.04 -->
      <g transform="translate(7.2 257.79125) scale(0.08 -0.08)">
       <defs>
        <path id="CenturyGothic-2212" d="M 359 2513 
L 3522 2513 
L 3522 2084 
L 359 2084 
L 359 2513 
z
" transform="scale(0.015625)"/>
        <path id="CenturyGothic-30" d="M 203 2297 
Q 203 3206 398 3703 
Q 594 4200 950 4456 
Q 1306 4713 1747 4713 
Q 2194 4713 2556 4455 
Q 2919 4197 3130 3681 
Q 3341 3166 3341 2297 
Q 3341 1431 3133 918 
Q 2925 406 2559 145 
Q 2194 -116 1747 -116 
Q 1306 -116 953 137 
Q 600 391 401 892 
Q 203 1394 203 2297 
z
M 638 2288 
Q 638 1509 777 1111 
Q 916 713 1187 506 
Q 1459 300 1763 300 
Q 2069 300 2334 501 
Q 2600 703 2738 1106 
Q 2909 1597 2909 2288 
Q 2909 2981 2756 3423 
Q 2603 3866 2333 4070 
Q 2063 4275 1763 4275 
Q 1456 4275 1187 4070 
Q 919 3866 778 3467 
Q 638 3069 638 2288 
z
" transform="scale(0.015625)"/>
        <path id="CenturyGothic-2e" d="M 969 688 
Q 1128 688 1240 575 
Q 1353 463 1353 300 
Q 1353 141 1240 26 
Q 1128 -88 969 -88 
Q 809 -88 696 26 
Q 584 141 584 300 
Q 584 463 696 575 
Q 809 688 969 688 
z
" transform="scale(0.015625)"/>
        <path id="CenturyGothic-34" d="M 2725 4713 
L 2819 4713 
L 2819 1509 
L 3375 1509 
L 3375 1069 
L 2819 1069 
L 2819 0 
L 2359 0 
L 2359 1069 
L 163 1069 
L 2725 4713 
z
M 2359 1509 
L 2359 3425 
L 1006 1509 
L 2359 1509 
z
" transform="scale(0.015625)"/>
       </defs>
       <use xlink:href="#CenturyGothic-2212"/>
       <use xlink:href="#CenturyGothic-30" x="60.595703"/>
       <use xlink:href="#CenturyGothic-2e" x="116.015625"/>
       <use xlink:href="#CenturyGothic-30" x="143.701172"/>
       <use xlink:href="#CenturyGothic-34" x="199.121094"/>
      </g>
     </g>
    </g>
    <g id="xtick_2">
     <g id="line2d_2">
      <g>
       <use xlink:href="#m6556cbe93b" x="79.447515" y="244.9" style="stroke: #000000; stroke-width: 0.8"/>
      </g>
     </g>
     <g id="text_2">
      <!-- −0.03 -->
      <g transform="translate(69.26564 257.79125) scale(0.08 -0.08)">
       <defs>
        <path id="CenturyGothic-33" d="M 847 3531 
L 378 3531 
Q 506 4100 868 4406 
Q 1231 4713 1725 4713 
Q 2084 4713 2395 4548 
Q 2706 4384 2876 4106 
Q 3047 3828 3047 3525 
Q 3047 2931 2456 2584 
Q 2788 2450 3000 2191 
Q 3300 1825 3300 1372 
Q 3300 981 3094 626 
Q 2888 272 2531 78 
Q 2175 -116 1734 -116 
Q 1141 -116 744 226 
Q 347 569 225 1231 
L 675 1231 
Q 794 784 1016 584 
Q 1300 331 1741 331 
Q 2241 331 2544 631 
Q 2847 931 2847 1334 
Q 2847 1603 2695 1837 
Q 2544 2072 2289 2190 
Q 2034 2309 1500 2338 
L 1500 2759 
Q 1816 2759 2075 2870 
Q 2334 2981 2451 3153 
Q 2569 3325 2569 3528 
Q 2569 3828 2330 4047 
Q 2091 4266 1725 4266 
Q 1428 4266 1212 4098 
Q 997 3931 847 3531 
z
" transform="scale(0.015625)"/>
       </defs>
       <use xlink:href="#CenturyGothic-2212"/>
       <use xlink:href="#CenturyGothic-30" x="60.595703"/>
       <use xlink:href="#CenturyGothic-2e" x="116.015625"/>
       <use xlink:href="#CenturyGothic-30" x="143.701172"/>
       <use xlink:href="#CenturyGothic-33" x="199.121094"/>
      </g>
     </g>
    </g>
    <g id="xtick_3">
     <g id="line2d_3">
      <g>
       <use xlink:href="#m6556cbe93b" x="141.513154" y="244.9" style="stroke: #000000; stroke-width: 0.8"/>
      </g>
     </g>
     <g id="text_3">
      <!-- −0.02 -->
      <g transform="translate(131.331279 257.79125) scale(0.08 -0.08)">
       <defs>
        <path id="CenturyGothic-32" d="M 741 3156 
L 300 3156 
Q 319 3838 755 4275 
Q 1191 4713 1831 4713 
Q 2466 4713 2858 4303 
Q 3250 3894 3250 3338 
Q 3250 2947 3062 2605 
Q 2875 2263 2334 1678 
L 1191 444 
L 3313 444 
L 3313 0 
L 191 0 
L 1947 1897 
Q 2481 2469 2642 2745 
Q 2803 3022 2803 3328 
Q 2803 3716 2514 3995 
Q 2225 4275 1806 4275 
Q 1366 4275 1073 3981 
Q 781 3688 741 3156 
z
" transform="scale(0.015625)"/>
       </defs>
       <use xlink:href="#CenturyGothic-2212"/>
       <use xlink:href="#CenturyGothic-30" x="60.595703"/>
       <use xlink:href="#CenturyGothic-2e" x="116.015625"/>
       <use xlink:href="#CenturyGothic-30" x="143.701172"/>
       <use xlink:href="#CenturyGothic-32" x="199.121094"/>
      </g>
     </g>
    </g>
    <g id="xtick_4">
     <g id="line2d_4">
      <g>
       <use xlink:href="#m6556cbe93b" x="203.578794" y="244.9" style="stroke: #000000; stroke-width: 0.8"/>
      </g>
     </g>
     <g id="text_4">
      <!-- −0.01 -->
      <g transform="translate(193.396919 257.79125) scale(0.08 -0.08)">
       <defs>
        <path id="CenturyGothic-31" d="M 1184 4597 
L 2088 4597 
L 2088 0 
L 1631 0 
L 1631 4147 
L 909 4147 
L 1184 4597 
z
" transform="scale(0.015625)"/>
       </defs>
       <use xlink:href="#CenturyGothic-2212"/>
       <use xlink:href="#CenturyGothic-30" x="60.595703"/>
       <use xlink:href="#CenturyGothic-2e" x="116.015625"/>
       <use xlink:href="#CenturyGothic-30" x="143.701172"/>
       <use xlink:href="#CenturyGothic-31" x="199.121094"/>
      </g>
     </g>
    </g>
    <g id="xtick_5">
     <g id="line2d_5">
      <g>
       <use xlink:href="#m6556cbe93b" x="265.644433" y="244.9" style="stroke: #000000; stroke-width: 0.8"/>
      </g>
     </g>
     <g id="text_5">
      <!-- 0.00 -->
      <g transform="translate(257.886308 257.79125) scale(0.08 -0.08)">
       <use xlink:href="#CenturyGothic-30"/>
       <use xlink:href="#CenturyGothic-2e" x="55.419922"/>
       <use xlink:href="#CenturyGothic-30" x="83.105469"/>
       <use xlink:href="#CenturyGothic-30" x="138.525391"/>
      </g>
     </g>
    </g>
    <g id="xtick_6">
     <g id="line2d_6">
      <g>
       <use xlink:href="#m6556cbe93b" x="327.710073" y="244.9" style="stroke: #000000; stroke-width: 0.8"/>
      </g>
     </g>
     <g id="text_6">
      <!-- 0.01 -->
      <g transform="translate(319.951948 257.79125) scale(0.08 -0.08)">
       <use xlink:href="#CenturyGothic-30"/>
       <use xlink:href="#CenturyGothic-2e" x="55.419922"/>
       <use xlink:href="#CenturyGothic-30" x="83.105469"/>
       <use xlink:href="#CenturyGothic-31" x="138.525391"/>
      </g>
     </g>
    </g>
    <g id="xtick_7">
     <g id="line2d_7">
      <g>
       <use xlink:href="#m6556cbe93b" x="389.775713" y="244.9" style="stroke: #000000; stroke-width: 0.8"/>
      </g>
     </g>
     <g id="text_7">
      <!-- 0.02 -->
      <g transform="translate(382.017588 257.79125) scale(0.08 -0.08)">
       <use xlink:href="#CenturyGothic-30"/>
       <use xlink:href="#CenturyGothic-2e" x="55.419922"/>
       <use xlink:href="#CenturyGothic-30" x="83.105469"/>
       <use xlink:href="#CenturyGothic-32" x="138.525391"/>
      </g>
     </g>
    </g>
    <g id="xtick_8">
     <g id="line2d_8">
      <g>
       <use xlink:href="#m6556cbe93b" x="451.841352" y="244.9" style="stroke: #000000; stroke-width: 0.8"/>
      </g>
     </g>
     <g id="text_8">
      <!-- 0.03 -->
      <g transform="translate(444.083227 257.79125) scale(0.08 -0.08)">
       <use xlink:href="#CenturyGothic-30"/>
       <use xlink:href="#CenturyGothic-2e" x="55.419922"/>
       <use xlink:href="#CenturyGothic-30" x="83.105469"/>
       <use xlink:href="#CenturyGothic-33" x="138.525391"/>
      </g>
     </g>
    </g>
    <g id="text_9">
     <!-- Simple Returns -->
     <g transform="translate(203.863594 270.84625) scale(0.1 -0.1)">
      <defs>
       <path id="CenturyGothic-53" d="M 84 856 
L 475 1091 
Q 888 331 1428 331 
Q 1659 331 1862 439 
Q 2066 547 2172 728 
Q 2278 909 2278 1113 
Q 2278 1344 2122 1566 
Q 1906 1872 1334 2303 
Q 759 2738 619 2931 
Q 375 3256 375 3634 
Q 375 3934 519 4181 
Q 663 4428 923 4570 
Q 1184 4713 1491 4713 
Q 1816 4713 2098 4552 
Q 2381 4391 2697 3959 
L 2322 3675 
Q 2063 4019 1880 4128 
Q 1697 4238 1481 4238 
Q 1203 4238 1026 4069 
Q 850 3900 850 3653 
Q 850 3503 912 3362 
Q 975 3222 1141 3056 
Q 1231 2969 1734 2597 
Q 2331 2156 2553 1812 
Q 2775 1469 2775 1122 
Q 2775 622 2395 253 
Q 2016 -116 1472 -116 
Q 1053 -116 712 107 
Q 372 331 84 856 
z
" transform="scale(0.015625)"/>
       <path id="CenturyGothic-69" d="M 641 4800 
Q 791 4800 897 4694 
Q 1003 4588 1003 4438 
Q 1003 4291 897 4184 
Q 791 4078 641 4078 
Q 494 4078 387 4184 
Q 281 4291 281 4438 
Q 281 4588 387 4694 
Q 494 4800 641 4800 
z
M 422 3400 
L 863 3400 
L 863 0 
L 422 0 
L 422 3400 
z
" transform="scale(0.015625)"/>
       <path id="CenturyGothic-6d" d="M 484 3400 
L 919 3400 
L 919 2813 
Q 1147 3138 1388 3288 
Q 1719 3488 2084 3488 
Q 2331 3488 2553 3391 
Q 2775 3294 2915 3133 
Q 3056 2972 3159 2672 
Q 3378 3072 3706 3280 
Q 4034 3488 4413 3488 
Q 4766 3488 5036 3309 
Q 5306 3131 5437 2812 
Q 5569 2494 5569 1856 
L 5569 0 
L 5122 0 
L 5122 1856 
Q 5122 2403 5044 2608 
Q 4966 2813 4777 2938 
Q 4588 3063 4325 3063 
Q 4006 3063 3742 2875 
Q 3478 2688 3356 2375 
Q 3234 2063 3234 1331 
L 3234 0 
L 2800 0 
L 2800 1741 
Q 2800 2356 2723 2576 
Q 2647 2797 2456 2930 
Q 2266 3063 2003 3063 
Q 1700 3063 1436 2880 
Q 1172 2697 1045 2387 
Q 919 2078 919 1441 
L 919 0 
L 484 0 
L 484 3400 
z
" transform="scale(0.015625)"/>
       <path id="CenturyGothic-70" d="M 494 3400 
L 928 3400 
L 928 2775 
Q 1188 3131 1525 3309 
Q 1863 3488 2278 3488 
Q 3003 3488 3518 2966 
Q 4034 2444 4034 1709 
Q 4034 959 3523 435 
Q 3013 -88 2291 -88 
Q 1884 -88 1543 81 
Q 1203 250 928 584 
L 928 -1244 
L 494 -1244 
L 494 3400 
z
M 2244 3066 
Q 1675 3066 1286 2669 
Q 897 2272 897 1681 
Q 897 1294 1070 984 
Q 1244 675 1567 494 
Q 1891 313 2250 313 
Q 2603 313 2914 495 
Q 3225 678 3409 1006 
Q 3594 1334 3594 1694 
Q 3594 2056 3411 2381 
Q 3228 2706 2918 2886 
Q 2609 3066 2244 3066 
z
" transform="scale(0.015625)"/>
       <path id="CenturyGothic-6c" d="M 422 4713 
L 859 4713 
L 859 0 
L 422 0 
L 422 4713 
z
" transform="scale(0.015625)"/>
       <path id="CenturyGothic-65" d="M 3350 1128 
L 3719 934 
Q 3538 578 3300 359 
Q 3063 141 2766 26 
Q 2469 -88 2094 -88 
Q 1263 -88 794 457 
Q 325 1003 325 1691 
Q 325 2338 722 2844 
Q 1225 3488 2069 3488 
Q 2938 3488 3456 2828 
Q 3825 2363 3831 1666 
L 775 1666 
Q 788 1072 1153 692 
Q 1519 313 2056 313 
Q 2316 313 2561 403 
Q 2806 494 2978 644 
Q 3150 794 3350 1128 
z
M 3350 2044 
Q 3263 2394 3095 2603 
Q 2928 2813 2653 2941 
Q 2378 3069 2075 3069 
Q 1575 3069 1216 2747 
Q 953 2513 819 2044 
L 3350 2044 
z
" transform="scale(0.015625)"/>
       <path id="CenturyGothic-20" transform="scale(0.015625)"/>
       <path id="CenturyGothic-52" d="M 584 4597 
L 1500 4597 
Q 2266 4597 2538 4534 
Q 2947 4441 3203 4133 
Q 3459 3825 3459 3375 
Q 3459 3000 3282 2715 
Q 3106 2431 2778 2286 
Q 2450 2141 1872 2138 
L 3525 0 
L 2956 0 
L 1306 2138 
L 1044 2138 
L 1044 0 
L 584 0 
L 584 4597 
z
M 1044 4147 
L 1044 2584 
L 1834 2578 
Q 2294 2578 2514 2665 
Q 2734 2753 2857 2945 
Q 2981 3138 2981 3375 
Q 2981 3606 2856 3795 
Q 2731 3984 2528 4065 
Q 2325 4147 1853 4147 
L 1044 4147 
z
" transform="scale(0.015625)"/>
       <path id="CenturyGothic-74" d="M 869 4663 
L 1309 4663 
L 1309 3400 
L 2003 3400 
L 2003 3025 
L 1309 3025 
L 1309 0 
L 869 0 
L 869 3025 
L 272 3025 
L 272 3400 
L 869 3400 
L 869 4663 
z
" transform="scale(0.015625)"/>
       <path id="CenturyGothic-75" d="M 431 3400 
L 872 3400 
L 872 1813 
Q 872 1231 934 1013 
Q 1028 700 1292 519 
Q 1556 338 1922 338 
Q 2288 338 2542 514 
Q 2797 691 2894 978 
Q 2959 1175 2959 1813 
L 2959 3400 
L 3406 3400 
L 3406 1731 
Q 3406 1028 3242 672 
Q 3078 316 2748 114 
Q 2419 -88 1922 -88 
Q 1425 -88 1092 114 
Q 759 316 595 677 
Q 431 1038 431 1763 
L 431 3400 
z
" transform="scale(0.015625)"/>
       <path id="CenturyGothic-72" d="M 322 3400 
L 769 3400 
L 769 2903 
Q 969 3197 1191 3342 
Q 1413 3488 1653 3488 
Q 1834 3488 2041 3372 
L 1813 3003 
Q 1675 3063 1581 3063 
Q 1363 3063 1159 2883 
Q 956 2703 850 2325 
Q 769 2034 769 1150 
L 769 0 
L 322 0 
L 322 3400 
z
" transform="scale(0.015625)"/>
       <path id="CenturyGothic-6e" d="M 488 3400 
L 925 3400 
L 925 2791 
Q 1188 3141 1506 3314 
Q 1825 3488 2200 3488 
Q 2581 3488 2876 3294 
Q 3172 3100 3312 2772 
Q 3453 2444 3453 1750 
L 3453 0 
L 3019 0 
L 3019 1622 
Q 3019 2209 2969 2406 
Q 2891 2744 2675 2914 
Q 2459 3084 2113 3084 
Q 1716 3084 1402 2821 
Q 1088 2559 988 2172 
Q 925 1919 925 1247 
L 925 0 
L 488 0 
L 488 3400 
z
" transform="scale(0.015625)"/>
       <path id="CenturyGothic-73" d="M 2197 3028 
L 1916 2738 
Q 1566 3078 1231 3078 
Q 1019 3078 867 2937 
Q 716 2797 716 2609 
Q 716 2444 841 2294 
Q 966 2141 1366 1934 
Q 1853 1681 2028 1447 
Q 2200 1209 2200 913 
Q 2200 494 1906 203 
Q 1613 -88 1172 -88 
Q 878 -88 611 40 
Q 344 169 169 394 
L 444 706 
Q 778 328 1153 328 
Q 1416 328 1600 497 
Q 1784 666 1784 894 
Q 1784 1081 1663 1228 
Q 1541 1372 1113 1591 
Q 653 1828 488 2059 
Q 322 2291 322 2588 
Q 322 2975 586 3231 
Q 850 3488 1253 3488 
Q 1722 3488 2197 3028 
z
" transform="scale(0.015625)"/>
      </defs>
      <use xlink:href="#CenturyGothic-53"/>
      <use xlink:href="#CenturyGothic-69" x="49.804688"/>
      <use xlink:href="#CenturyGothic-6d" x="69.824219"/>
      <use xlink:href="#CenturyGothic-70" x="163.623047"/>
      <use xlink:href="#CenturyGothic-6c" x="231.835938"/>
      <use xlink:href="#CenturyGothic-65" x="251.855469"/>
      <use xlink:href="#CenturyGothic-20" x="316.845703"/>
      <use xlink:href="#CenturyGothic-52" x="344.53125"/>
      <use xlink:href="#CenturyGothic-65" x="405.224609"/>
      <use xlink:href="#CenturyGothic-74" x="470.214844"/>
      <use xlink:href="#CenturyGothic-75" x="504.101562"/>
      <use xlink:href="#CenturyGothic-72" x="564.892578"/>
      <use xlink:href="#CenturyGothic-6e" x="594.970703"/>
      <use xlink:href="#CenturyGothic-73" x="655.957031"/>
     </g>
    </g>
   </g>
   <g id="matplotlib.axis_2">
    <g id="ytick_1">
     <g id="line2d_9">
      <defs>
       <path id="ma29d3a28eb" d="M 0 0 
L 3.5 0 
" style="stroke: #000000; stroke-width: 0.8"/>
      </defs>
      <g>
       <use xlink:href="#ma29d3a28eb" x="459.821875" y="244.9" style="stroke: #000000; stroke-width: 0.8"/>
      </g>
     </g>
     <g id="text_10">
      <!-- 0 -->
      <g transform="translate(466.821875 247.845625) scale(0.08 -0.08)">
       <use xlink:href="#CenturyGothic-30"/>
      </g>
     </g>
    </g>
    <g id="ytick_2">
     <g id="line2d_10">
      <g>
       <use xlink:href="#ma29d3a28eb" x="459.821875" y="217.973803" style="stroke: #000000; stroke-width: 0.8"/>
      </g>
     </g>
     <g id="text_11">
      <!-- 10 -->
      <g transform="translate(466.821875 220.919428) scale(0.08 -0.08)">
       <use xlink:href="#CenturyGothic-31"/>
       <use xlink:href="#CenturyGothic-30" x="55.419922"/>
      </g>
     </g>
    </g>
    <g id="ytick_3">
     <g id="line2d_11">
      <g>
       <use xlink:href="#ma29d3a28eb" x="459.821875" y="191.047606" style="stroke: #000000; stroke-width: 0.8"/>
      </g>
     </g>
     <g id="text_12">
      <!-- 20 -->
      <g transform="translate(466.821875 193.993231) scale(0.08 -0.08)">
       <use xlink:href="#CenturyGothic-32"/>
       <use xlink:href="#CenturyGothic-30" x="55.419922"/>
      </g>
     </g>
    </g>
    <g id="ytick_4">
     <g id="line2d_12">
      <g>
       <use xlink:href="#ma29d3a28eb" x="459.821875" y="164.121409" style="stroke: #000000; stroke-width: 0.8"/>
      </g>
     </g>
     <g id="text_13">
      <!-- 30 -->
      <g transform="translate(466.821875 167.067034) scale(0.08 -0.08)">
       <use xlink:href="#CenturyGothic-33"/>
       <use xlink:href="#CenturyGothic-30" x="55.419922"/>
      </g>
     </g>
    </g>
    <g id="ytick_5">
     <g id="line2d_13">
      <g>
       <use xlink:href="#ma29d3a28eb" x="459.821875" y="137.195212" style="stroke: #000000; stroke-width: 0.8"/>
      </g>
     </g>
     <g id="text_14">
      <!-- 40 -->
      <g transform="translate(466.821875 140.140837) scale(0.08 -0.08)">
       <use xlink:href="#CenturyGothic-34"/>
       <use xlink:href="#CenturyGothic-30" x="55.419922"/>
      </g>
     </g>
    </g>
    <g id="ytick_6">
     <g id="line2d_14">
      <g>
       <use xlink:href="#ma29d3a28eb" x="459.821875" y="110.269015" style="stroke: #000000; stroke-width: 0.8"/>
      </g>
     </g>
     <g id="text_15">
      <!-- 50 -->
      <g transform="translate(466.821875 113.21464) scale(0.08 -0.08)">
       <defs>
        <path id="CenturyGothic-35" d="M 3147 4597 
L 3147 4159 
L 1509 4159 
L 1281 2906 
Q 1581 2994 1822 2994 
Q 2450 2994 2858 2573 
Q 3266 2153 3266 1497 
Q 3266 1044 3056 666 
Q 2847 288 2489 86 
Q 2131 -116 1663 -116 
Q 1103 -116 718 226 
Q 334 569 259 1113 
L 731 1113 
Q 784 847 911 681 
Q 1038 516 1248 414 
Q 1459 313 1691 313 
Q 2144 313 2469 656 
Q 2794 1000 2794 1516 
Q 2794 1981 2500 2272 
Q 2206 2563 1716 2563 
Q 1309 2563 731 2316 
L 1156 4597 
L 3147 4597 
z
" transform="scale(0.015625)"/>
       </defs>
       <use xlink:href="#CenturyGothic-35"/>
       <use xlink:href="#CenturyGothic-30" x="55.419922"/>
      </g>
     </g>
    </g>
    <g id="ytick_7">
     <g id="line2d_15">
      <g>
       <use xlink:href="#ma29d3a28eb" x="459.821875" y="83.342818" style="stroke: #000000; stroke-width: 0.8"/>
      </g>
     </g>
     <g id="text_16">
      <!-- 60 -->
      <g transform="translate(466.821875 86.288443) scale(0.08 -0.08)">
       <defs>
        <path id="CenturyGothic-36" d="M 2347 4713 
L 2725 4466 
L 1484 2584 
Q 1734 2669 1953 2669 
Q 2500 2669 2881 2273 
Q 3263 1878 3263 1300 
Q 3263 903 3078 583 
Q 2894 263 2555 73 
Q 2216 -116 1825 -116 
Q 1447 -116 1123 67 
Q 800 250 615 581 
Q 431 913 431 1291 
Q 431 1572 545 1883 
Q 659 2194 953 2631 
L 2347 4713 
z
M 1844 2266 
Q 1444 2266 1161 1983 
Q 878 1700 878 1297 
Q 878 897 1161 614 
Q 1444 331 1844 331 
Q 2244 331 2526 614 
Q 2809 897 2809 1297 
Q 2809 1700 2526 1983 
Q 2244 2266 1844 2266 
z
" transform="scale(0.015625)"/>
       </defs>
       <use xlink:href="#CenturyGothic-36"/>
       <use xlink:href="#CenturyGothic-30" x="55.419922"/>
      </g>
     </g>
    </g>
    <g id="ytick_8">
     <g id="line2d_16">
      <g>
       <use xlink:href="#ma29d3a28eb" x="459.821875" y="56.416621" style="stroke: #000000; stroke-width: 0.8"/>
      </g>
     </g>
     <g id="text_17">
      <!-- 70 -->
      <g transform="translate(466.821875 59.362246) scale(0.08 -0.08)">
       <defs>
        <path id="CenturyGothic-37" d="M 459 4597 
L 3375 4597 
L 916 -116 
L 538 78 
L 2663 4163 
L 459 4163 
L 459 4597 
z
" transform="scale(0.015625)"/>
       </defs>
       <use xlink:href="#CenturyGothic-37"/>
       <use xlink:href="#CenturyGothic-30" x="55.419922"/>
      </g>
     </g>
    </g>
    <g id="ytick_9">
     <g id="line2d_17">
      <g>
       <use xlink:href="#ma29d3a28eb" x="459.821875" y="29.490424" style="stroke: #000000; stroke-width: 0.8"/>
      </g>
     </g>
     <g id="text_18">
      <!-- 80 -->
      <g transform="translate(466.821875 32.436049) scale(0.08 -0.08)">
       <defs>
        <path id="CenturyGothic-38" d="M 2459 2522 
Q 2925 2291 3126 1994 
Q 3328 1697 3328 1319 
Q 3328 788 2981 381 
Q 2556 -116 1766 -116 
Q 1003 -116 609 320 
Q 216 756 216 1281 
Q 216 1666 422 1973 
Q 628 2281 1109 2522 
Q 772 2697 603 2956 
Q 434 3216 434 3513 
Q 434 3813 614 4098 
Q 794 4384 1111 4548 
Q 1428 4713 1797 4713 
Q 2156 4713 2462 4547 
Q 2769 4381 2942 4097 
Q 3116 3813 3116 3500 
Q 3116 3188 2952 2944 
Q 2788 2700 2459 2522 
z
M 1775 4266 
Q 1397 4266 1148 4042 
Q 900 3819 900 3509 
Q 900 3203 1167 2954 
Q 1434 2706 1791 2706 
Q 2019 2706 2222 2818 
Q 2425 2931 2539 3126 
Q 2653 3322 2653 3519 
Q 2653 3797 2428 4031 
Q 2203 4266 1775 4266 
z
M 1797 2291 
Q 1322 2291 1000 1983 
Q 678 1675 678 1266 
Q 678 1013 815 788 
Q 953 563 1200 441 
Q 1447 319 1772 319 
Q 2275 319 2572 616 
Q 2869 913 2869 1309 
Q 2869 1694 2555 1992 
Q 2241 2291 1797 2291 
z
" transform="scale(0.015625)"/>
       </defs>
       <use xlink:href="#CenturyGothic-38"/>
       <use xlink:href="#CenturyGothic-30" x="55.419922"/>
      </g>
     </g>
    </g>
    <g id="text_19">
     <!-- Density -->
     <g transform="translate(487.189375 150.135938) rotate(-90) scale(0.1 -0.1)">
      <defs>
       <path id="CenturyGothic-44" d="M 559 0 
L 559 4597 
L 1513 4597 
Q 2544 4597 3009 4431 
Q 3678 4197 4054 3619 
Q 4431 3041 4431 2241 
Q 4431 1550 4132 1025 
Q 3834 500 3357 250 
Q 2881 0 2022 0 
L 559 0 
z
M 1000 434 
L 1531 434 
Q 2484 434 2853 553 
Q 3372 722 3669 1161 
Q 3966 1600 3966 2234 
Q 3966 2900 3644 3372 
Q 3322 3844 2747 4019 
Q 2316 4150 1325 4150 
L 1000 4150 
L 1000 434 
z
" transform="scale(0.015625)"/>
       <path id="CenturyGothic-79" d="M 122 3400 
L 584 3400 
L 1753 781 
L 2888 3400 
L 3353 3400 
L 1325 -1244 
L 863 -1244 
L 1519 256 
L 122 3400 
z
" transform="scale(0.015625)"/>
      </defs>
      <use xlink:href="#CenturyGothic-44"/>
      <use xlink:href="#CenturyGothic-65" x="74.414062"/>
      <use xlink:href="#CenturyGothic-6e" x="139.404297"/>
      <use xlink:href="#CenturyGothic-73" x="200.390625"/>
      <use xlink:href="#CenturyGothic-69" x="239.208984"/>
      <use xlink:href="#CenturyGothic-74" x="259.228516"/>
      <use xlink:href="#CenturyGothic-79" x="293.115234"/>
     </g>
    </g>
   </g>
   <g id="patch_3">
    <path d="M 459.821875 244.9 
L 459.821875 20.7 
" style="fill: none; stroke: #000000; stroke-width: 0.8; stroke-linejoin: miter; stroke-linecap: square"/>
   </g>
   <g id="patch_4">
    <path d="M 17.381875 244.9 
L 459.821875 244.9 
" style="fill: none; stroke: #000000; stroke-width: 0.8; stroke-linejoin: miter; stroke-linecap: square"/>
   </g>
   <g id="text_20">
    <!-- Histogram Comparison: SPX -->
    <g transform="translate(172.030781 14.7) scale(0.1 -0.1)">
     <defs>
      <path id="CenturyGothic-48" d="M 553 4597 
L 1016 4597 
L 1016 2669 
L 3353 2669 
L 3353 4597 
L 3816 4597 
L 3816 0 
L 3353 0 
L 3353 2219 
L 1016 2219 
L 1016 0 
L 553 0 
L 553 4597 
z
" transform="scale(0.015625)"/>
      <path id="CenturyGothic-6f" d="M 2097 3488 
Q 2881 3488 3397 2919 
Q 3866 2400 3866 1691 
Q 3866 978 3370 445 
Q 2875 -88 2097 -88 
Q 1316 -88 820 445 
Q 325 978 325 1691 
Q 325 2397 794 2916 
Q 1309 3488 2097 3488 
z
M 2097 3059 
Q 1553 3059 1162 2656 
Q 772 2253 772 1681 
Q 772 1313 950 994 
Q 1128 675 1431 501 
Q 1734 328 2097 328 
Q 2459 328 2762 501 
Q 3066 675 3244 994 
Q 3422 1313 3422 1681 
Q 3422 2253 3030 2656 
Q 2638 3059 2097 3059 
z
" transform="scale(0.015625)"/>
      <path id="CenturyGothic-67" d="M 3416 3400 
L 3856 3400 
L 3856 691 
Q 3856 -25 3731 -356 
Q 3559 -825 3134 -1078 
Q 2709 -1331 2113 -1331 
Q 1675 -1331 1326 -1207 
Q 978 -1084 759 -876 
Q 541 -669 356 -269 
L 831 -269 
Q 1025 -606 1331 -768 
Q 1638 -931 2091 -931 
Q 2538 -931 2845 -764 
Q 3153 -597 3284 -344 
Q 3416 -91 3416 472 
L 3416 647 
Q 3169 334 2812 167 
Q 2456 0 2056 0 
Q 1588 0 1175 233 
Q 763 466 538 859 
Q 313 1253 313 1725 
Q 313 2197 547 2605 
Q 781 3013 1195 3250 
Q 1609 3488 2069 3488 
Q 2450 3488 2779 3330 
Q 3109 3172 3416 2809 
L 3416 3400 
z
M 2125 3066 
Q 1753 3066 1434 2886 
Q 1116 2706 934 2389 
Q 753 2072 753 1703 
Q 753 1144 1128 778 
Q 1503 413 2100 413 
Q 2703 413 3070 775 
Q 3438 1138 3438 1728 
Q 3438 2113 3269 2414 
Q 3100 2716 2790 2891 
Q 2481 3066 2125 3066 
z
" transform="scale(0.015625)"/>
      <path id="CenturyGothic-61" d="M 3875 3400 
L 3875 0 
L 3444 0 
L 3444 584 
Q 3169 250 2826 81 
Q 2484 -88 2078 -88 
Q 1356 -88 845 435 
Q 334 959 334 1709 
Q 334 2444 850 2966 
Q 1366 3488 2091 3488 
Q 2509 3488 2848 3309 
Q 3188 3131 3444 2775 
L 3444 3400 
L 3875 3400 
z
M 2125 3066 
Q 1759 3066 1450 2886 
Q 1141 2706 958 2381 
Q 775 2056 775 1694 
Q 775 1334 959 1006 
Q 1144 678 1455 495 
Q 1766 313 2122 313 
Q 2481 313 2803 494 
Q 3125 675 3298 984 
Q 3472 1294 3472 1681 
Q 3472 2272 3083 2669 
Q 2694 3066 2125 3066 
z
" transform="scale(0.015625)"/>
      <path id="CenturyGothic-43" d="M 4841 3744 
L 4478 3466 
Q 4178 3856 3758 4057 
Q 3338 4259 2834 4259 
Q 2284 4259 1815 3995 
Q 1347 3731 1089 3286 
Q 831 2841 831 2284 
Q 831 1444 1407 881 
Q 1984 319 2863 319 
Q 3828 319 4478 1075 
L 4841 800 
Q 4497 363 3983 123 
Q 3469 -116 2834 -116 
Q 1628 -116 931 688 
Q 347 1366 347 2325 
Q 347 3334 1055 4023 
Q 1763 4713 2828 4713 
Q 3472 4713 3990 4458 
Q 4509 4203 4841 3744 
z
" transform="scale(0.015625)"/>
      <path id="CenturyGothic-3a" d="M 969 3488 
Q 1128 3488 1240 3375 
Q 1353 3263 1353 3100 
Q 1353 2938 1240 2825 
Q 1128 2713 969 2713 
Q 809 2713 696 2825 
Q 584 2938 584 3100 
Q 584 3259 696 3373 
Q 809 3488 969 3488 
z
M 969 688 
Q 1128 688 1240 575 
Q 1353 463 1353 300 
Q 1353 141 1240 26 
Q 1128 -88 969 -88 
Q 809 -88 696 26 
Q 584 141 584 300 
Q 584 463 696 575 
Q 809 688 969 688 
z
" transform="scale(0.015625)"/>
      <path id="CenturyGothic-50" d="M 556 4597 
L 1472 4597 
Q 2259 4597 2534 4528 
Q 2928 4431 3178 4129 
Q 3428 3828 3428 3372 
Q 3428 2913 3184 2614 
Q 2941 2316 2513 2213 
Q 2200 2138 1344 2138 
L 1016 2138 
L 1016 0 
L 556 0 
L 556 4597 
z
M 1016 4150 
L 1016 2588 
L 1794 2578 
Q 2266 2578 2484 2664 
Q 2703 2750 2828 2942 
Q 2953 3134 2953 3372 
Q 2953 3603 2828 3795 
Q 2703 3988 2498 4069 
Q 2294 4150 1828 4150 
L 1016 4150 
z
" transform="scale(0.015625)"/>
      <path id="CenturyGothic-58" d="M 316 4597 
L 853 4597 
L 1953 2803 
L 3063 4597 
L 3594 4597 
L 2225 2369 
L 3684 0 
L 3147 0 
L 1953 1928 
L 753 0 
L 216 0 
L 1681 2369 
L 316 4597 
z
" transform="scale(0.015625)"/>
     </defs>
     <use xlink:href="#CenturyGothic-48"/>
     <use xlink:href="#CenturyGothic-69" x="68.310547"/>
     <use xlink:href="#CenturyGothic-73" x="88.330078"/>
     <use xlink:href="#CenturyGothic-74" x="127.148438"/>
     <use xlink:href="#CenturyGothic-6f" x="161.035156"/>
     <use xlink:href="#CenturyGothic-67" x="226.513672"/>
     <use xlink:href="#CenturyGothic-72" x="293.798828"/>
     <use xlink:href="#CenturyGothic-61" x="323.876953"/>
     <use xlink:href="#CenturyGothic-6d" x="392.1875"/>
     <use xlink:href="#CenturyGothic-20" x="485.986328"/>
     <use xlink:href="#CenturyGothic-43" x="513.671875"/>
     <use xlink:href="#CenturyGothic-6f" x="594.970703"/>
     <use xlink:href="#CenturyGothic-6d" x="660.449219"/>
     <use xlink:href="#CenturyGothic-70" x="754.248047"/>
     <use xlink:href="#CenturyGothic-61" x="822.460938"/>
     <use xlink:href="#CenturyGothic-72" x="890.771484"/>
     <use xlink:href="#CenturyGothic-69" x="920.849609"/>
     <use xlink:href="#CenturyGothic-73" x="940.869141"/>
     <use xlink:href="#CenturyGothic-6f" x="979.6875"/>
     <use xlink:href="#CenturyGothic-6e" x="1045.166016"/>
     <use xlink:href="#CenturyGothic-3a" x="1106.152344"/>
     <use xlink:href="#CenturyGothic-20" x="1133.837891"/>
     <use xlink:href="#CenturyGothic-53" x="1161.523438"/>
     <use xlink:href="#CenturyGothic-50" x="1211.328125"/>
     <use xlink:href="#CenturyGothic-58" x="1270.507812"/>
    </g>
   </g>
   <g id="legend_1">
    <g id="patch_5">
     <path d="M 463.021875 25.49475 
L 479.021875 25.49475 
L 479.021875 19.89475 
L 463.021875 19.89475 
z
" style="fill: #888888; fill-opacity: 0.75; stroke: #888888; stroke-linejoin: miter"/>
    </g>
    <g id="text_21">
     <!-- Real Returns -->
     <g transform="translate(485.421875 25.49475) scale(0.08 -0.08)">
      <defs>
       <path id="DejaVuSans-52" d="M 2841 2188 
Q 3044 2119 3236 1894 
Q 3428 1669 3622 1275 
L 4263 0 
L 3584 0 
L 2988 1197 
Q 2756 1666 2539 1819 
Q 2322 1972 1947 1972 
L 1259 1972 
L 1259 0 
L 628 0 
L 628 4666 
L 2053 4666 
Q 2853 4666 3247 4331 
Q 3641 3997 3641 3322 
Q 3641 2881 3436 2590 
Q 3231 2300 2841 2188 
z
M 1259 4147 
L 1259 2491 
L 2053 2491 
Q 2509 2491 2742 2702 
Q 2975 2913 2975 3322 
Q 2975 3731 2742 3939 
Q 2509 4147 2053 4147 
L 1259 4147 
z
" transform="scale(0.015625)"/>
       <path id="DejaVuSans-65" d="M 3597 1894 
L 3597 1613 
L 953 1613 
Q 991 1019 1311 708 
Q 1631 397 2203 397 
Q 2534 397 2845 478 
Q 3156 559 3463 722 
L 3463 178 
Q 3153 47 2828 -22 
Q 2503 -91 2169 -91 
Q 1331 -91 842 396 
Q 353 884 353 1716 
Q 353 2575 817 3079 
Q 1281 3584 2069 3584 
Q 2775 3584 3186 3129 
Q 3597 2675 3597 1894 
z
M 3022 2063 
Q 3016 2534 2758 2815 
Q 2500 3097 2075 3097 
Q 1594 3097 1305 2825 
Q 1016 2553 972 2059 
L 3022 2063 
z
" transform="scale(0.015625)"/>
       <path id="DejaVuSans-61" d="M 2194 1759 
Q 1497 1759 1228 1600 
Q 959 1441 959 1056 
Q 959 750 1161 570 
Q 1363 391 1709 391 
Q 2188 391 2477 730 
Q 2766 1069 2766 1631 
L 2766 1759 
L 2194 1759 
z
M 3341 1997 
L 3341 0 
L 2766 0 
L 2766 531 
Q 2569 213 2275 61 
Q 1981 -91 1556 -91 
Q 1019 -91 701 211 
Q 384 513 384 1019 
Q 384 1609 779 1909 
Q 1175 2209 1959 2209 
L 2766 2209 
L 2766 2266 
Q 2766 2663 2505 2880 
Q 2244 3097 1772 3097 
Q 1472 3097 1187 3025 
Q 903 2953 641 2809 
L 641 3341 
Q 956 3463 1253 3523 
Q 1550 3584 1831 3584 
Q 2591 3584 2966 3190 
Q 3341 2797 3341 1997 
z
" transform="scale(0.015625)"/>
       <path id="DejaVuSans-6c" d="M 603 4863 
L 1178 4863 
L 1178 0 
L 603 0 
L 603 4863 
z
" transform="scale(0.015625)"/>
       <path id="DejaVuSans-20" transform="scale(0.015625)"/>
       <path id="DejaVuSans-74" d="M 1172 4494 
L 1172 3500 
L 2356 3500 
L 2356 3053 
L 1172 3053 
L 1172 1153 
Q 1172 725 1289 603 
Q 1406 481 1766 481 
L 2356 481 
L 2356 0 
L 1766 0 
Q 1100 0 847 248 
Q 594 497 594 1153 
L 594 3053 
L 172 3053 
L 172 3500 
L 594 3500 
L 594 4494 
L 1172 4494 
z
" transform="scale(0.015625)"/>
       <path id="DejaVuSans-75" d="M 544 1381 
L 544 3500 
L 1119 3500 
L 1119 1403 
Q 1119 906 1312 657 
Q 1506 409 1894 409 
Q 2359 409 2629 706 
Q 2900 1003 2900 1516 
L 2900 3500 
L 3475 3500 
L 3475 0 
L 2900 0 
L 2900 538 
Q 2691 219 2414 64 
Q 2138 -91 1772 -91 
Q 1169 -91 856 284 
Q 544 659 544 1381 
z
M 1991 3584 
L 1991 3584 
z
" transform="scale(0.015625)"/>
       <path id="DejaVuSans-72" d="M 2631 2963 
Q 2534 3019 2420 3045 
Q 2306 3072 2169 3072 
Q 1681 3072 1420 2755 
Q 1159 2438 1159 1844 
L 1159 0 
L 581 0 
L 581 3500 
L 1159 3500 
L 1159 2956 
Q 1341 3275 1631 3429 
Q 1922 3584 2338 3584 
Q 2397 3584 2469 3576 
Q 2541 3569 2628 3553 
L 2631 2963 
z
" transform="scale(0.015625)"/>
       <path id="DejaVuSans-6e" d="M 3513 2113 
L 3513 0 
L 2938 0 
L 2938 2094 
Q 2938 2591 2744 2837 
Q 2550 3084 2163 3084 
Q 1697 3084 1428 2787 
Q 1159 2491 1159 1978 
L 1159 0 
L 581 0 
L 581 3500 
L 1159 3500 
L 1159 2956 
Q 1366 3272 1645 3428 
Q 1925 3584 2291 3584 
Q 2894 3584 3203 3211 
Q 3513 2838 3513 2113 
z
" transform="scale(0.015625)"/>
       <path id="DejaVuSans-73" d="M 2834 3397 
L 2834 2853 
Q 2591 2978 2328 3040 
Q 2066 3103 1784 3103 
Q 1356 3103 1142 2972 
Q 928 2841 928 2578 
Q 928 2378 1081 2264 
Q 1234 2150 1697 2047 
L 1894 2003 
Q 2506 1872 2764 1633 
Q 3022 1394 3022 966 
Q 3022 478 2636 193 
Q 2250 -91 1575 -91 
Q 1294 -91 989 -36 
Q 684 19 347 128 
L 347 722 
Q 666 556 975 473 
Q 1284 391 1588 391 
Q 1994 391 2212 530 
Q 2431 669 2431 922 
Q 2431 1156 2273 1281 
Q 2116 1406 1581 1522 
L 1381 1569 
Q 847 1681 609 1914 
Q 372 2147 372 2553 
Q 372 3047 722 3315 
Q 1072 3584 1716 3584 
Q 2034 3584 2315 3537 
Q 2597 3491 2834 3397 
z
" transform="scale(0.015625)"/>
      </defs>
      <use xlink:href="#DejaVuSans-52"/>
      <use xlink:href="#DejaVuSans-65" x="64.982422"/>
      <use xlink:href="#DejaVuSans-61" x="126.505859"/>
      <use xlink:href="#DejaVuSans-6c" x="187.785156"/>
      <use xlink:href="#DejaVuSans-20" x="215.568359"/>
      <use xlink:href="#DejaVuSans-52" x="247.355469"/>
      <use xlink:href="#DejaVuSans-65" x="312.337891"/>
      <use xlink:href="#DejaVuSans-74" x="373.861328"/>
      <use xlink:href="#DejaVuSans-75" x="413.070312"/>
      <use xlink:href="#DejaVuSans-72" x="476.449219"/>
      <use xlink:href="#DejaVuSans-6e" x="515.8125"/>
      <use xlink:href="#DejaVuSans-73" x="579.191406"/>
     </g>
    </g>
    <g id="patch_6">
     <path d="M 463.021875 37.23725 
L 479.021875 37.23725 
L 479.021875 31.63725 
L 463.021875 31.63725 
z
" style="fill: #1f77b4; fill-opacity: 0.75; stroke: #1f77b4; stroke-linejoin: miter"/>
    </g>
    <g id="text_22">
     <!-- Simulated Sample -->
     <g transform="translate(485.421875 37.23725) scale(0.08 -0.08)">
      <defs>
       <path id="DejaVuSans-53" d="M 3425 4513 
L 3425 3897 
Q 3066 4069 2747 4153 
Q 2428 4238 2131 4238 
Q 1616 4238 1336 4038 
Q 1056 3838 1056 3469 
Q 1056 3159 1242 3001 
Q 1428 2844 1947 2747 
L 2328 2669 
Q 3034 2534 3370 2195 
Q 3706 1856 3706 1288 
Q 3706 609 3251 259 
Q 2797 -91 1919 -91 
Q 1588 -91 1214 -16 
Q 841 59 441 206 
L 441 856 
Q 825 641 1194 531 
Q 1563 422 1919 422 
Q 2459 422 2753 634 
Q 3047 847 3047 1241 
Q 3047 1584 2836 1778 
Q 2625 1972 2144 2069 
L 1759 2144 
Q 1053 2284 737 2584 
Q 422 2884 422 3419 
Q 422 4038 858 4394 
Q 1294 4750 2059 4750 
Q 2388 4750 2728 4690 
Q 3069 4631 3425 4513 
z
" transform="scale(0.015625)"/>
       <path id="DejaVuSans-69" d="M 603 3500 
L 1178 3500 
L 1178 0 
L 603 0 
L 603 3500 
z
M 603 4863 
L 1178 4863 
L 1178 4134 
L 603 4134 
L 603 4863 
z
" transform="scale(0.015625)"/>
       <path id="DejaVuSans-6d" d="M 3328 2828 
Q 3544 3216 3844 3400 
Q 4144 3584 4550 3584 
Q 5097 3584 5394 3201 
Q 5691 2819 5691 2113 
L 5691 0 
L 5113 0 
L 5113 2094 
Q 5113 2597 4934 2840 
Q 4756 3084 4391 3084 
Q 3944 3084 3684 2787 
Q 3425 2491 3425 1978 
L 3425 0 
L 2847 0 
L 2847 2094 
Q 2847 2600 2669 2842 
Q 2491 3084 2119 3084 
Q 1678 3084 1418 2786 
Q 1159 2488 1159 1978 
L 1159 0 
L 581 0 
L 581 3500 
L 1159 3500 
L 1159 2956 
Q 1356 3278 1631 3431 
Q 1906 3584 2284 3584 
Q 2666 3584 2933 3390 
Q 3200 3197 3328 2828 
z
" transform="scale(0.015625)"/>
       <path id="DejaVuSans-64" d="M 2906 2969 
L 2906 4863 
L 3481 4863 
L 3481 0 
L 2906 0 
L 2906 525 
Q 2725 213 2448 61 
Q 2172 -91 1784 -91 
Q 1150 -91 751 415 
Q 353 922 353 1747 
Q 353 2572 751 3078 
Q 1150 3584 1784 3584 
Q 2172 3584 2448 3432 
Q 2725 3281 2906 2969 
z
M 947 1747 
Q 947 1113 1208 752 
Q 1469 391 1925 391 
Q 2381 391 2643 752 
Q 2906 1113 2906 1747 
Q 2906 2381 2643 2742 
Q 2381 3103 1925 3103 
Q 1469 3103 1208 2742 
Q 947 2381 947 1747 
z
" transform="scale(0.015625)"/>
       <path id="DejaVuSans-70" d="M 1159 525 
L 1159 -1331 
L 581 -1331 
L 581 3500 
L 1159 3500 
L 1159 2969 
Q 1341 3281 1617 3432 
Q 1894 3584 2278 3584 
Q 2916 3584 3314 3078 
Q 3713 2572 3713 1747 
Q 3713 922 3314 415 
Q 2916 -91 2278 -91 
Q 1894 -91 1617 61 
Q 1341 213 1159 525 
z
M 3116 1747 
Q 3116 2381 2855 2742 
Q 2594 3103 2138 3103 
Q 1681 3103 1420 2742 
Q 1159 2381 1159 1747 
Q 1159 1113 1420 752 
Q 1681 391 2138 391 
Q 2594 391 2855 752 
Q 3116 1113 3116 1747 
z
" transform="scale(0.015625)"/>
      </defs>
      <use xlink:href="#DejaVuSans-53"/>
      <use xlink:href="#DejaVuSans-69" x="63.476562"/>
      <use xlink:href="#DejaVuSans-6d" x="91.259766"/>
      <use xlink:href="#DejaVuSans-75" x="188.671875"/>
      <use xlink:href="#DejaVuSans-6c" x="252.050781"/>
      <use xlink:href="#DejaVuSans-61" x="279.833984"/>
      <use xlink:href="#DejaVuSans-74" x="341.113281"/>
      <use xlink:href="#DejaVuSans-65" x="380.322266"/>
      <use xlink:href="#DejaVuSans-64" x="441.845703"/>
      <use xlink:href="#DejaVuSans-20" x="505.322266"/>
      <use xlink:href="#DejaVuSans-53" x="537.109375"/>
      <use xlink:href="#DejaVuSans-61" x="600.585938"/>
      <use xlink:href="#DejaVuSans-6d" x="661.865234"/>
      <use xlink:href="#DejaVuSans-70" x="759.277344"/>
      <use xlink:href="#DejaVuSans-6c" x="822.753906"/>
      <use xlink:href="#DejaVuSans-65" x="850.537109"/>
     </g>
    </g>
   </g>
  </g>
 </g>
 <defs>
  <clipPath id="p5d1f628da5">
   <rect x="17.381875" y="20.7" width="442.44" height="224.2"/>
  </clipPath>
 </defs>
</svg>
