<?xml version="1.0" encoding="utf-8" standalone="no"?>
<!DOCTYPE svg PUBLIC "-//W3C//DTD SVG 1.1//EN"
  "http://www.w3.org/Graphics/SVG/1.1/DTD/svg11.dtd">
<svg xmlns:xlink="http://www.w3.org/1999/xlink" width="568.87125pt" height="281.111875pt" viewBox="0 0 568.87125 281.111875" xmlns="http://www.w3.org/2000/svg" version="1.1">
 <metadata>
  <rdf:RDF xmlns:dc="http://purl.org/dc/elements/1.1/" xmlns:cc="http://creativecommons.org/ns#" xmlns:rdf="http://www.w3.org/1999/02/22-rdf-syntax-ns#">
   <cc:Work>
    <dc:type rdf:resource="http://purl.org/dc/dcmitype/StillImage"/>
    <dc:date>2025-05-26T12:32:56.615773</dc:date>
    <dc:format>image/svg+xml</dc:format>
    <dc:creator>
     <cc:Agent>
      <dc:title>Matplotlib v3.9.2, https://matplotlib.org/</dc:title>
     </cc:Agent>
    </dc:creator>
   </cc:Work>
  </rdf:RDF>
 </metadata>
 <defs>
  <style type="text/css">*{stroke-linejoin: round; stroke-linecap: butt}</style>
 </defs>
 <g id="figure_1">
  <g id="patch_1">
   <path d="M 0 281.111875 
L 568.87125 281.111875 
L 568.87125 0 
L 0 0 
z
" style="fill: #ffffff"/>
  </g>
  <g id="axes_1">
   <g id="patch_2">
    <path d="M 19.59875 259.465625 
L 545.80375 259.465625 
L 545.80375 10.145625 
L 19.59875 10.145625 
z
" style="fill: #ffffff"/>
   </g>
   <g id="PolyCollection_1">
    <defs>
     <path id="m425497e83d" d="M 183.379934 -61.587643 
L 183.379934 -21.64625 
L 184.672403 -21.64625 
L 184.672403 -21.64625 
L 185.964872 -21.64625 
L 185.964872 -21.64625 
L 187.257341 -21.64625 
L 187.257341 -21.64625 
L 188.54981 -21.64625 
L 188.54981 -21.64625 
L 189.842279 -21.64625 
L 189.842279 -21.64625 
L 191.134748 -21.64625 
L 191.134748 -21.64625 
L 192.427217 -21.64625 
L 192.427217 -21.64625 
L 193.719686 -21.64625 
L 193.719686 -21.64625 
L 195.012155 -21.64625 
L 195.012155 -21.64625 
L 196.304624 -21.64625 
L 196.304624 -21.64625 
L 197.597092 -21.64625 
L 197.597092 -21.64625 
L 198.889561 -21.64625 
L 198.889561 -21.64625 
L 200.18203 -21.64625 
L 200.18203 -21.64625 
L 201.474499 -21.64625 
L 201.474499 -21.64625 
L 202.766968 -21.64625 
L 202.766968 -21.64625 
L 204.059437 -21.64625 
L 204.059437 -21.64625 
L 205.351906 -21.64625 
L 205.351906 -21.64625 
L 206.644375 -21.64625 
L 206.644375 -21.64625 
L 207.936844 -21.64625 
L 207.936844 -21.64625 
L 209.229313 -21.64625 
L 209.229313 -21.64625 
L 210.521782 -21.64625 
L 210.521782 -21.64625 
L 211.814251 -21.64625 
L 211.814251 -21.64625 
L 213.10672 -21.64625 
L 213.10672 -21.64625 
L 214.399189 -21.64625 
L 214.399189 -21.64625 
L 215.691658 -21.64625 
L 215.691658 -21.64625 
L 216.984127 -21.64625 
L 216.984127 -21.64625 
L 218.276596 -21.64625 
L 218.276596 -21.64625 
L 219.569065 -21.64625 
L 219.569065 -21.64625 
L 220.861534 -21.64625 
L 220.861534 -21.64625 
L 222.154003 -21.64625 
L 222.154003 -21.64625 
L 223.446472 -21.64625 
L 223.446472 -21.64625 
L 224.738941 -21.64625 
L 224.738941 -21.64625 
L 226.03141 -21.64625 
L 226.03141 -21.64625 
L 227.323879 -21.64625 
L 227.323879 -21.64625 
L 228.616348 -21.64625 
L 228.616348 -21.64625 
L 229.908817 -21.64625 
L 229.908817 -21.64625 
L 231.201286 -21.64625 
L 231.201286 -21.64625 
L 232.493755 -21.64625 
L 232.493755 -21.64625 
L 233.786224 -21.64625 
L 233.786224 -21.64625 
L 235.078693 -21.64625 
L 235.078693 -21.64625 
L 236.371162 -21.64625 
L 236.371162 -21.64625 
L 237.663631 -21.64625 
L 237.663631 -21.64625 
L 238.9561 -21.64625 
L 238.9561 -21.64625 
L 240.248569 -21.64625 
L 240.248569 -21.64625 
L 241.541038 -21.64625 
L 241.541038 -21.64625 
L 242.833507 -21.64625 
L 242.833507 -21.64625 
L 244.125976 -21.64625 
L 244.125976 -21.64625 
L 245.418445 -21.64625 
L 245.418445 -21.64625 
L 246.710913 -21.64625 
L 246.710913 -21.64625 
L 248.003382 -21.64625 
L 248.003382 -21.64625 
L 249.295851 -21.64625 
L 249.295851 -21.64625 
L 250.58832 -21.64625 
L 250.58832 -21.64625 
L 251.880789 -21.64625 
L 251.880789 -21.64625 
L 253.173258 -21.64625 
L 253.173258 -21.64625 
L 254.465727 -21.64625 
L 254.465727 -21.64625 
L 255.758196 -21.64625 
L 255.758196 -21.64625 
L 257.050665 -21.64625 
L 257.050665 -21.64625 
L 258.343134 -21.64625 
L 258.343134 -21.64625 
L 259.635603 -21.64625 
L 259.635603 -21.64625 
L 260.928072 -21.64625 
L 260.928072 -21.64625 
L 262.220541 -21.64625 
L 262.220541 -21.64625 
L 263.51301 -21.64625 
L 263.51301 -21.64625 
L 264.805479 -21.64625 
L 264.805479 -21.64625 
L 266.097948 -21.64625 
L 266.097948 -21.64625 
L 267.390417 -21.64625 
L 267.390417 -21.64625 
L 268.682886 -21.64625 
L 268.682886 -21.64625 
L 269.975355 -21.64625 
L 269.975355 -21.64625 
L 271.267824 -21.64625 
L 271.267824 -21.64625 
L 272.560293 -21.64625 
L 272.560293 -21.64625 
L 273.852762 -21.64625 
L 273.852762 -21.64625 
L 275.145231 -21.64625 
L 275.145231 -21.64625 
L 276.4377 -21.64625 
L 276.4377 -21.64625 
L 277.730169 -21.64625 
L 277.730169 -21.64625 
L 279.022638 -21.64625 
L 279.022638 -21.64625 
L 280.315107 -21.64625 
L 280.315107 -21.64625 
L 281.607576 -21.64625 
L 281.607576 -21.64625 
L 282.900045 -21.64625 
L 282.900045 -21.64625 
L 284.192514 -21.64625 
L 284.192514 -21.64625 
L 285.484983 -21.64625 
L 285.484983 -21.64625 
L 286.777452 -21.64625 
L 286.777452 -21.64625 
L 288.069921 -21.64625 
L 288.069921 -21.64625 
L 289.36239 -21.64625 
L 289.36239 -21.64625 
L 290.654859 -21.64625 
L 290.654859 -21.64625 
L 291.947328 -21.64625 
L 291.947328 -21.64625 
L 293.239797 -21.64625 
L 293.239797 -21.64625 
L 294.532266 -21.64625 
L 294.532266 -21.64625 
L 295.824734 -21.64625 
L 295.824734 -21.64625 
L 297.117203 -21.64625 
L 297.117203 -21.64625 
L 298.409672 -21.64625 
L 298.409672 -21.64625 
L 299.702141 -21.64625 
L 299.702141 -21.64625 
L 300.99461 -21.64625 
L 300.99461 -21.64625 
L 302.287079 -21.64625 
L 302.287079 -21.64625 
L 303.579548 -21.64625 
L 303.579548 -21.64625 
L 304.872017 -21.64625 
L 304.872017 -21.64625 
L 306.164486 -21.64625 
L 306.164486 -21.64625 
L 307.456955 -21.64625 
L 307.456955 -21.64625 
L 308.749424 -21.64625 
L 308.749424 -21.64625 
L 310.041893 -21.64625 
L 310.041893 -21.64625 
L 311.334362 -21.64625 
L 311.334362 -21.64625 
L 312.626831 -21.64625 
L 312.626831 -21.64625 
L 312.626831 -41.616947 
L 312.626831 -41.616947 
L 312.626831 -41.616947 
L 311.334362 -41.616947 
L 311.334362 -21.64625 
L 310.041893 -21.64625 
L 310.041893 -21.64625 
L 308.749424 -21.64625 
L 308.749424 -21.64625 
L 307.456955 -21.64625 
L 307.456955 -41.616947 
L 306.164486 -41.616947 
L 306.164486 -21.64625 
L 304.872017 -21.64625 
L 304.872017 -21.64625 
L 303.579548 -21.64625 
L 303.579548 -41.616947 
L 302.287079 -41.616947 
L 302.287079 -21.64625 
L 300.99461 -21.64625 
L 300.99461 -21.64625 
L 299.702141 -21.64625 
L 299.702141 -21.64625 
L 298.409672 -21.64625 
L 298.409672 -21.64625 
L 297.117203 -21.64625 
L 297.117203 -21.64625 
L 295.824734 -21.64625 
L 295.824734 -21.64625 
L 294.532266 -21.64625 
L 294.532266 -21.64625 
L 293.239797 -21.64625 
L 293.239797 -61.587643 
L 291.947328 -61.587643 
L 291.947328 -41.616947 
L 290.654859 -41.616947 
L 290.654859 -41.616947 
L 289.36239 -41.616947 
L 289.36239 -21.64625 
L 288.069921 -21.64625 
L 288.069921 -21.64625 
L 286.777452 -21.64625 
L 286.777452 -41.616947 
L 285.484983 -41.616947 
L 285.484983 -21.64625 
L 284.192514 -21.64625 
L 284.192514 -21.64625 
L 282.900045 -21.64625 
L 282.900045 -101.529036 
L 281.607576 -101.529036 
L 281.607576 -121.499733 
L 280.315107 -121.499733 
L 280.315107 -101.529036 
L 279.022638 -101.529036 
L 279.022638 -101.529036 
L 277.730169 -101.529036 
L 277.730169 -141.470429 
L 276.4377 -141.470429 
L 276.4377 -81.55834 
L 275.145231 -81.55834 
L 275.145231 -121.499733 
L 273.852762 -121.499733 
L 273.852762 -101.529036 
L 272.560293 -101.529036 
L 272.560293 -101.529036 
L 271.267824 -101.529036 
L 271.267824 -141.470429 
L 269.975355 -141.470429 
L 269.975355 -41.616947 
L 268.682886 -41.616947 
L 268.682886 -121.499733 
L 267.390417 -121.499733 
L 267.390417 -201.382519 
L 266.097948 -201.382519 
L 266.097948 -141.470429 
L 264.805479 -141.470429 
L 264.805479 -101.529036 
L 263.51301 -101.529036 
L 263.51301 -241.323912 
L 262.220541 -241.323912 
L 262.220541 -61.587643 
L 260.928072 -61.587643 
L 260.928072 -181.411823 
L 259.635603 -181.411823 
L 259.635603 -221.353216 
L 258.343134 -221.353216 
L 258.343134 -161.441126 
L 257.050665 -161.441126 
L 257.050665 -221.353216 
L 255.758196 -221.353216 
L 255.758196 -201.382519 
L 254.465727 -201.382519 
L 254.465727 -241.323912 
L 253.173258 -241.323912 
L 253.173258 -241.323912 
L 251.880789 -241.323912 
L 251.880789 -121.499733 
L 250.58832 -121.499733 
L 250.58832 -181.411823 
L 249.295851 -181.411823 
L 249.295851 -241.323912 
L 248.003382 -241.323912 
L 248.003382 -121.499733 
L 246.710913 -121.499733 
L 246.710913 -241.323912 
L 245.418445 -241.323912 
L 245.418445 -101.529036 
L 244.125976 -101.529036 
L 244.125976 -61.587643 
L 242.833507 -61.587643 
L 242.833507 -81.55834 
L 241.541038 -81.55834 
L 241.541038 -81.55834 
L 240.248569 -81.55834 
L 240.248569 -141.470429 
L 238.9561 -141.470429 
L 238.9561 -61.587643 
L 237.663631 -61.587643 
L 237.663631 -61.587643 
L 236.371162 -61.587643 
L 236.371162 -121.499733 
L 235.078693 -121.499733 
L 235.078693 -41.616947 
L 233.786224 -41.616947 
L 233.786224 -81.55834 
L 232.493755 -81.55834 
L 232.493755 -81.55834 
L 231.201286 -81.55834 
L 231.201286 -41.616947 
L 229.908817 -41.616947 
L 229.908817 -41.616947 
L 228.616348 -41.616947 
L 228.616348 -61.587643 
L 227.323879 -61.587643 
L 227.323879 -21.64625 
L 226.03141 -21.64625 
L 226.03141 -41.616947 
L 224.738941 -41.616947 
L 224.738941 -41.616947 
L 223.446472 -41.616947 
L 223.446472 -41.616947 
L 222.154003 -41.616947 
L 222.154003 -81.55834 
L 220.861534 -81.55834 
L 220.861534 -21.64625 
L 219.569065 -21.64625 
L 219.569065 -41.616947 
L 218.276596 -41.616947 
L 218.276596 -21.64625 
L 216.984127 -21.64625 
L 216.984127 -61.587643 
L 215.691658 -61.587643 
L 215.691658 -21.64625 
L 214.399189 -21.64625 
L 214.399189 -21.64625 
L 213.10672 -21.64625 
L 213.10672 -41.616947 
L 211.814251 -41.616947 
L 211.814251 -21.64625 
L 210.521782 -21.64625 
L 210.521782 -61.587643 
L 209.229313 -61.587643 
L 209.229313 -21.64625 
L 207.936844 -21.64625 
L 207.936844 -21.64625 
L 206.644375 -21.64625 
L 206.644375 -21.64625 
L 205.351906 -21.64625 
L 205.351906 -21.64625 
L 204.059437 -21.64625 
L 204.059437 -41.616947 
L 202.766968 -41.616947 
L 202.766968 -21.64625 
L 201.474499 -21.64625 
L 201.474499 -21.64625 
L 200.18203 -21.64625 
L 200.18203 -41.616947 
L 198.889561 -41.616947 
L 198.889561 -21.64625 
L 197.597092 -21.64625 
L 197.597092 -21.64625 
L 196.304624 -21.64625 
L 196.304624 -21.64625 
L 195.012155 -21.64625 
L 195.012155 -21.64625 
L 193.719686 -21.64625 
L 193.719686 -21.64625 
L 192.427217 -21.64625 
L 192.427217 -21.64625 
L 191.134748 -21.64625 
L 191.134748 -21.64625 
L 189.842279 -21.64625 
L 189.842279 -21.64625 
L 188.54981 -21.64625 
L 188.54981 -21.64625 
L 187.257341 -21.64625 
L 187.257341 -21.64625 
L 185.964872 -21.64625 
L 185.964872 -21.64625 
L 184.672403 -21.64625 
L 184.672403 -61.587643 
L 183.379934 -61.587643 
z
" style="stroke: #888888"/>
    </defs>
    <g clip-path="url(#p1ac85e5aab)">
     <use xlink:href="#m425497e83d" x="0" y="281.111875" style="fill: #888888; fill-opacity: 0.75; stroke: #888888"/>
    </g>
   </g>
   <g id="PolyCollection_2">
    <defs>
     <path id="m0753e32191" d="M 71.952778 -29.085241 
L 71.952778 -21.64625 
L 75.422536 -21.64625 
L 75.422536 -21.64625 
L 78.892295 -21.64625 
L 78.892295 -21.64625 
L 82.362054 -21.64625 
L 82.362054 -21.64625 
L 85.831813 -21.64625 
L 85.831813 -21.64625 
L 89.301572 -21.64625 
L 89.301572 -21.64625 
L 92.771331 -21.64625 
L 92.771331 -21.64625 
L 96.241089 -21.64625 
L 96.241089 -21.64625 
L 99.710848 -21.64625 
L 99.710848 -21.64625 
L 103.180607 -21.64625 
L 103.180607 -21.64625 
L 106.650366 -21.64625 
L 106.650366 -21.64625 
L 110.120125 -21.64625 
L 110.120125 -21.64625 
L 113.589883 -21.64625 
L 113.589883 -21.64625 
L 117.059642 -21.64625 
L 117.059642 -21.64625 
L 120.529401 -21.64625 
L 120.529401 -21.64625 
L 123.99916 -21.64625 
L 123.99916 -21.64625 
L 127.468919 -21.64625 
L 127.468919 -21.64625 
L 130.938677 -21.64625 
L 130.938677 -21.64625 
L 134.408436 -21.64625 
L 134.408436 -21.64625 
L 137.878195 -21.64625 
L 137.878195 -21.64625 
L 141.347954 -21.64625 
L 141.347954 -21.64625 
L 144.817713 -21.64625 
L 144.817713 -21.64625 
L 148.287471 -21.64625 
L 148.287471 -21.64625 
L 151.75723 -21.64625 
L 151.75723 -21.64625 
L 155.226989 -21.64625 
L 155.226989 -21.64625 
L 158.696748 -21.64625 
L 158.696748 -21.64625 
L 162.166507 -21.64625 
L 162.166507 -21.64625 
L 165.636265 -21.64625 
L 165.636265 -21.64625 
L 169.106024 -21.64625 
L 169.106024 -21.64625 
L 172.575783 -21.64625 
L 172.575783 -21.64625 
L 176.045542 -21.64625 
L 176.045542 -21.64625 
L 179.515301 -21.64625 
L 179.515301 -21.64625 
L 182.98506 -21.64625 
L 182.98506 -21.64625 
L 186.454818 -21.64625 
L 186.454818 -21.64625 
L 189.924577 -21.64625 
L 189.924577 -21.64625 
L 193.394336 -21.64625 
L 193.394336 -21.64625 
L 196.864095 -21.64625 
L 196.864095 -21.64625 
L 200.333854 -21.64625 
L 200.333854 -21.64625 
L 203.803612 -21.64625 
L 203.803612 -21.64625 
L 207.273371 -21.64625 
L 207.273371 -21.64625 
L 210.74313 -21.64625 
L 210.74313 -21.64625 
L 214.212889 -21.64625 
L 214.212889 -21.64625 
L 217.682648 -21.64625 
L 217.682648 -21.64625 
L 221.152406 -21.64625 
L 221.152406 -21.64625 
L 224.622165 -21.64625 
L 224.622165 -21.64625 
L 228.091924 -21.64625 
L 228.091924 -21.64625 
L 231.561683 -21.64625 
L 231.561683 -21.64625 
L 235.031442 -21.64625 
L 235.031442 -21.64625 
L 238.5012 -21.64625 
L 238.5012 -21.64625 
L 241.970959 -21.64625 
L 241.970959 -21.64625 
L 245.440718 -21.64625 
L 245.440718 -21.64625 
L 248.910477 -21.64625 
L 248.910477 -21.64625 
L 252.380236 -21.64625 
L 252.380236 -21.64625 
L 255.849994 -21.64625 
L 255.849994 -21.64625 
L 259.319753 -21.64625 
L 259.319753 -21.64625 
L 262.789512 -21.64625 
L 262.789512 -21.64625 
L 266.259271 -21.64625 
L 266.259271 -21.64625 
L 269.72903 -21.64625 
L 269.72903 -21.64625 
L 273.198788 -21.64625 
L 273.198788 -21.64625 
L 276.668547 -21.64625 
L 276.668547 -21.64625 
L 280.138306 -21.64625 
L 280.138306 -21.64625 
L 283.608065 -21.64625 
L 283.608065 -21.64625 
L 287.077824 -21.64625 
L 287.077824 -21.64625 
L 290.547583 -21.64625 
L 290.547583 -21.64625 
L 294.017341 -21.64625 
L 294.017341 -21.64625 
L 297.4871 -21.64625 
L 297.4871 -21.64625 
L 300.956859 -21.64625 
L 300.956859 -21.64625 
L 304.426618 -21.64625 
L 304.426618 -21.64625 
L 307.896377 -21.64625 
L 307.896377 -21.64625 
L 311.366135 -21.64625 
L 311.366135 -21.64625 
L 314.835894 -21.64625 
L 314.835894 -21.64625 
L 318.305653 -21.64625 
L 318.305653 -21.64625 
L 321.775412 -21.64625 
L 321.775412 -21.64625 
L 325.245171 -21.64625 
L 325.245171 -21.64625 
L 328.714929 -21.64625 
L 328.714929 -21.64625 
L 332.184688 -21.64625 
L 332.184688 -21.64625 
L 335.654447 -21.64625 
L 335.654447 -21.64625 
L 339.124206 -21.64625 
L 339.124206 -21.64625 
L 342.593965 -21.64625 
L 342.593965 -21.64625 
L 346.063723 -21.64625 
L 346.063723 -21.64625 
L 349.533482 -21.64625 
L 349.533482 -21.64625 
L 353.003241 -21.64625 
L 353.003241 -21.64625 
L 356.473 -21.64625 
L 356.473 -21.64625 
L 359.942759 -21.64625 
L 359.942759 -21.64625 
L 363.412517 -21.64625 
L 363.412517 -21.64625 
L 366.882276 -21.64625 
L 366.882276 -21.64625 
L 370.352035 -21.64625 
L 370.352035 -21.64625 
L 373.821794 -21.64625 
L 373.821794 -21.64625 
L 377.291553 -21.64625 
L 377.291553 -21.64625 
L 380.761311 -21.64625 
L 380.761311 -21.64625 
L 384.23107 -21.64625 
L 384.23107 -21.64625 
L 387.700829 -21.64625 
L 387.700829 -21.64625 
L 391.170588 -21.64625 
L 391.170588 -21.64625 
L 394.640347 -21.64625 
L 394.640347 -21.64625 
L 398.110106 -21.64625 
L 398.110106 -21.64625 
L 401.579864 -21.64625 
L 401.579864 -21.64625 
L 405.049623 -21.64625 
L 405.049623 -21.64625 
L 408.519382 -21.64625 
L 408.519382 -21.64625 
L 411.989141 -21.64625 
L 411.989141 -21.64625 
L 415.4589 -21.64625 
L 415.4589 -21.64625 
L 418.928658 -21.64625 
L 418.928658 -21.64625 
L 418.928658 -29.085241 
L 418.928658 -29.085241 
L 418.928658 -29.085241 
L 415.4589 -29.085241 
L 415.4589 -21.64625 
L 411.989141 -21.64625 
L 411.989141 -21.64625 
L 408.519382 -21.64625 
L 408.519382 -21.64625 
L 405.049623 -21.64625 
L 405.049623 -21.64625 
L 401.579864 -21.64625 
L 401.579864 -29.085241 
L 398.110106 -29.085241 
L 398.110106 -21.64625 
L 394.640347 -21.64625 
L 394.640347 -21.64625 
L 391.170588 -21.64625 
L 391.170588 -21.64625 
L 387.700829 -21.64625 
L 387.700829 -21.64625 
L 384.23107 -21.64625 
L 384.23107 -21.64625 
L 380.761311 -21.64625 
L 380.761311 -21.64625 
L 377.291553 -21.64625 
L 377.291553 -21.64625 
L 373.821794 -21.64625 
L 373.821794 -21.64625 
L 370.352035 -21.64625 
L 370.352035 -21.64625 
L 366.882276 -21.64625 
L 366.882276 -21.64625 
L 363.412517 -21.64625 
L 363.412517 -21.64625 
L 359.942759 -21.64625 
L 359.942759 -21.64625 
L 356.473 -21.64625 
L 356.473 -21.64625 
L 353.003241 -21.64625 
L 353.003241 -21.64625 
L 349.533482 -21.64625 
L 349.533482 -21.64625 
L 346.063723 -21.64625 
L 346.063723 -21.64625 
L 342.593965 -21.64625 
L 342.593965 -29.085241 
L 339.124206 -29.085241 
L 339.124206 -36.524233 
L 335.654447 -36.524233 
L 335.654447 -21.64625 
L 332.184688 -21.64625 
L 332.184688 -36.524233 
L 328.714929 -36.524233 
L 328.714929 -36.524233 
L 325.245171 -36.524233 
L 325.245171 -29.085241 
L 321.775412 -29.085241 
L 321.775412 -36.524233 
L 318.305653 -36.524233 
L 318.305653 -29.085241 
L 314.835894 -29.085241 
L 314.835894 -43.963224 
L 311.366135 -43.963224 
L 311.366135 -36.524233 
L 307.896377 -36.524233 
L 307.896377 -51.402215 
L 304.426618 -51.402215 
L 304.426618 -43.963224 
L 300.956859 -43.963224 
L 300.956859 -36.524233 
L 297.4871 -36.524233 
L 297.4871 -66.280198 
L 294.017341 -66.280198 
L 294.017341 -43.963224 
L 290.547583 -43.963224 
L 290.547583 -43.963224 
L 287.077824 -43.963224 
L 287.077824 -81.158181 
L 283.608065 -81.158181 
L 283.608065 -81.158181 
L 280.138306 -81.158181 
L 280.138306 -88.597172 
L 276.668547 -88.597172 
L 276.668547 -140.670111 
L 273.198788 -140.670111 
L 273.198788 -73.719189 
L 269.72903 -73.719189 
L 269.72903 -103.475155 
L 266.259271 -103.475155 
L 266.259271 -88.597172 
L 262.789512 -88.597172 
L 262.789512 -88.597172 
L 259.319753 -88.597172 
L 259.319753 -73.719189 
L 255.849994 -73.719189 
L 255.849994 -118.353137 
L 252.380236 -118.353137 
L 252.380236 -73.719189 
L 248.910477 -73.719189 
L 248.910477 -88.597172 
L 245.440718 -88.597172 
L 245.440718 -88.597172 
L 241.970959 -88.597172 
L 241.970959 -73.719189 
L 238.5012 -73.719189 
L 238.5012 -133.23112 
L 235.031442 -133.23112 
L 235.031442 -66.280198 
L 231.561683 -66.280198 
L 231.561683 -73.719189 
L 228.091924 -73.719189 
L 228.091924 -88.597172 
L 224.622165 -88.597172 
L 224.622165 -58.841207 
L 221.152406 -58.841207 
L 221.152406 -81.158181 
L 217.682648 -81.158181 
L 217.682648 -58.841207 
L 214.212889 -58.841207 
L 214.212889 -66.280198 
L 210.74313 -66.280198 
L 210.74313 -51.402215 
L 207.273371 -51.402215 
L 207.273371 -29.085241 
L 203.803612 -29.085241 
L 203.803612 -29.085241 
L 200.333854 -29.085241 
L 200.333854 -36.524233 
L 196.864095 -36.524233 
L 196.864095 -36.524233 
L 193.394336 -36.524233 
L 193.394336 -36.524233 
L 189.924577 -36.524233 
L 189.924577 -29.085241 
L 186.454818 -29.085241 
L 186.454818 -43.963224 
L 182.98506 -43.963224 
L 182.98506 -29.085241 
L 179.515301 -29.085241 
L 179.515301 -29.085241 
L 176.045542 -29.085241 
L 176.045542 -21.64625 
L 172.575783 -21.64625 
L 172.575783 -21.64625 
L 169.106024 -21.64625 
L 169.106024 -36.524233 
L 165.636265 -36.524233 
L 165.636265 -29.085241 
L 162.166507 -29.085241 
L 162.166507 -21.64625 
L 158.696748 -21.64625 
L 158.696748 -21.64625 
L 155.226989 -21.64625 
L 155.226989 -21.64625 
L 151.75723 -21.64625 
L 151.75723 -21.64625 
L 148.287471 -21.64625 
L 148.287471 -21.64625 
L 144.817713 -21.64625 
L 144.817713 -21.64625 
L 141.347954 -21.64625 
L 141.347954 -21.64625 
L 137.878195 -21.64625 
L 137.878195 -21.64625 
L 134.408436 -21.64625 
L 134.408436 -21.64625 
L 130.938677 -21.64625 
L 130.938677 -21.64625 
L 127.468919 -21.64625 
L 127.468919 -21.64625 
L 123.99916 -21.64625 
L 123.99916 -21.64625 
L 120.529401 -21.64625 
L 120.529401 -21.64625 
L 117.059642 -21.64625 
L 117.059642 -21.64625 
L 113.589883 -21.64625 
L 113.589883 -21.64625 
L 110.120125 -21.64625 
L 110.120125 -21.64625 
L 106.650366 -21.64625 
L 106.650366 -21.64625 
L 103.180607 -21.64625 
L 103.180607 -21.64625 
L 99.710848 -21.64625 
L 99.710848 -21.64625 
L 96.241089 -21.64625 
L 96.241089 -21.64625 
L 92.771331 -21.64625 
L 92.771331 -21.64625 
L 89.301572 -21.64625 
L 89.301572 -21.64625 
L 85.831813 -21.64625 
L 85.831813 -21.64625 
L 82.362054 -21.64625 
L 82.362054 -21.64625 
L 78.892295 -21.64625 
L 78.892295 -21.64625 
L 75.422536 -21.64625 
L 75.422536 -29.085241 
L 71.952778 -29.085241 
z
" style="stroke: #1f77b4"/>
    </defs>
    <g clip-path="url(#p1ac85e5aab)">
     <use xlink:href="#m0753e32191" x="0" y="281.111875" style="fill: #1f77b4; fill-opacity: 0.75; stroke: #1f77b4"/>
    </g>
   </g>
   <g id="matplotlib.axis_1">
    <g id="xtick_1">
     <g id="line2d_1">
      <defs>
       <path id="mcac9b30ea9" d="M 0 0 
L 0 3.5 
" style="stroke: #000000; stroke-width: 0.8"/>
      </defs>
      <g>
       <use xlink:href="#mcac9b30ea9" x="19.59875" y="259.465625" style="stroke: #000000; stroke-width: 0.8"/>
      </g>
     </g>
     <g id="text_1">
      <!-- −0.100 -->
      <g transform="translate(7.2 272.356875) scale(0.08 -0.08)">
       <defs>
        <path id="CenturyGothic-2212" d="M 359 2513 
L 3522 2513 
L 3522 2084 
L 359 2084 
L 359 2513 
z
" transform="scale(0.015625)"/>
        <path id="CenturyGothic-30" d="M 203 2297 
Q 203 3206 398 3703 
Q 594 4200 950 4456 
Q 1306 4713 1747 4713 
Q 2194 4713 2556 4455 
Q 2919 4197 3130 3681 
Q 3341 3166 3341 2297 
Q 3341 1431 3133 918 
Q 2925 406 2559 145 
Q 2194 -116 1747 -116 
Q 1306 -116 953 137 
Q 600 391 401 892 
Q 203 1394 203 2297 
z
M 638 2288 
Q 638 1509 777 1111 
Q 916 713 1187 506 
Q 1459 300 1763 300 
Q 2069 300 2334 501 
Q 2600 703 2738 1106 
Q 2909 1597 2909 2288 
Q 2909 2981 2756 3423 
Q 2603 3866 2333 4070 
Q 2063 4275 1763 4275 
Q 1456 4275 1187 4070 
Q 919 3866 778 3467 
Q 638 3069 638 2288 
z
" transform="scale(0.015625)"/>
        <path id="CenturyGothic-2e" d="M 969 688 
Q 1128 688 1240 575 
Q 1353 463 1353 300 
Q 1353 141 1240 26 
Q 1128 -88 969 -88 
Q 809 -88 696 26 
Q 584 141 584 300 
Q 584 463 696 575 
Q 809 688 969 688 
z
" transform="scale(0.015625)"/>
        <path id="CenturyGothic-31" d="M 1184 4597 
L 2088 4597 
L 2088 0 
L 1631 0 
L 1631 4147 
L 909 4147 
L 1184 4597 
z
" transform="scale(0.015625)"/>
       </defs>
       <use xlink:href="#CenturyGothic-2212"/>
       <use xlink:href="#CenturyGothic-30" x="60.595703"/>
       <use xlink:href="#CenturyGothic-2e" x="116.015625"/>
       <use xlink:href="#CenturyGothic-31" x="143.701172"/>
       <use xlink:href="#CenturyGothic-30" x="199.121094"/>
       <use xlink:href="#CenturyGothic-30" x="254.541016"/>
      </g>
     </g>
    </g>
    <g id="xtick_2">
     <g id="line2d_2">
      <g>
       <use xlink:href="#mcac9b30ea9" x="78.065972" y="259.465625" style="stroke: #000000; stroke-width: 0.8"/>
      </g>
     </g>
     <g id="text_2">
      <!-- −0.075 -->
      <g transform="translate(65.667222 272.356875) scale(0.08 -0.08)">
       <defs>
        <path id="CenturyGothic-37" d="M 459 4597 
L 3375 4597 
L 916 -116 
L 538 78 
L 2663 4163 
L 459 4163 
L 459 4597 
z
" transform="scale(0.015625)"/>
        <path id="CenturyGothic-35" d="M 3147 4597 
L 3147 4159 
L 1509 4159 
L 1281 2906 
Q 1581 2994 1822 2994 
Q 2450 2994 2858 2573 
Q 3266 2153 3266 1497 
Q 3266 1044 3056 666 
Q 2847 288 2489 86 
Q 2131 -116 1663 -116 
Q 1103 -116 718 226 
Q 334 569 259 1113 
L 731 1113 
Q 784 847 911 681 
Q 1038 516 1248 414 
Q 1459 313 1691 313 
Q 2144 313 2469 656 
Q 2794 1000 2794 1516 
Q 2794 1981 2500 2272 
Q 2206 2563 1716 2563 
Q 1309 2563 731 2316 
L 1156 4597 
L 3147 4597 
z
" transform="scale(0.015625)"/>
       </defs>
       <use xlink:href="#CenturyGothic-2212"/>
       <use xlink:href="#CenturyGothic-30" x="60.595703"/>
       <use xlink:href="#CenturyGothic-2e" x="116.015625"/>
       <use xlink:href="#CenturyGothic-30" x="143.701172"/>
       <use xlink:href="#CenturyGothic-37" x="199.121094"/>
       <use xlink:href="#CenturyGothic-35" x="254.541016"/>
      </g>
     </g>
    </g>
    <g id="xtick_3">
     <g id="line2d_3">
      <g>
       <use xlink:href="#mcac9b30ea9" x="136.533194" y="259.465625" style="stroke: #000000; stroke-width: 0.8"/>
      </g>
     </g>
     <g id="text_3">
      <!-- −0.050 -->
      <g transform="translate(124.134444 272.356875) scale(0.08 -0.08)">
       <use xlink:href="#CenturyGothic-2212"/>
       <use xlink:href="#CenturyGothic-30" x="60.595703"/>
       <use xlink:href="#CenturyGothic-2e" x="116.015625"/>
       <use xlink:href="#CenturyGothic-30" x="143.701172"/>
       <use xlink:href="#CenturyGothic-35" x="199.121094"/>
       <use xlink:href="#CenturyGothic-30" x="254.541016"/>
      </g>
     </g>
    </g>
    <g id="xtick_4">
     <g id="line2d_4">
      <g>
       <use xlink:href="#mcac9b30ea9" x="195.000417" y="259.465625" style="stroke: #000000; stroke-width: 0.8"/>
      </g>
     </g>
     <g id="text_4">
      <!-- −0.025 -->
      <g transform="translate(182.601667 272.356875) scale(0.08 -0.08)">
       <defs>
        <path id="CenturyGothic-32" d="M 741 3156 
L 300 3156 
Q 319 3838 755 4275 
Q 1191 4713 1831 4713 
Q 2466 4713 2858 4303 
Q 3250 3894 3250 3338 
Q 3250 2947 3062 2605 
Q 2875 2263 2334 1678 
L 1191 444 
L 3313 444 
L 3313 0 
L 191 0 
L 1947 1897 
Q 2481 2469 2642 2745 
Q 2803 3022 2803 3328 
Q 2803 3716 2514 3995 
Q 2225 4275 1806 4275 
Q 1366 4275 1073 3981 
Q 781 3688 741 3156 
z
" transform="scale(0.015625)"/>
       </defs>
       <use xlink:href="#CenturyGothic-2212"/>
       <use xlink:href="#CenturyGothic-30" x="60.595703"/>
       <use xlink:href="#CenturyGothic-2e" x="116.015625"/>
       <use xlink:href="#CenturyGothic-30" x="143.701172"/>
       <use xlink:href="#CenturyGothic-32" x="199.121094"/>
       <use xlink:href="#CenturyGothic-35" x="254.541016"/>
      </g>
     </g>
    </g>
    <g id="xtick_5">
     <g id="line2d_5">
      <g>
       <use xlink:href="#mcac9b30ea9" x="253.467639" y="259.465625" style="stroke: #000000; stroke-width: 0.8"/>
      </g>
     </g>
     <g id="text_5">
      <!-- 0.000 -->
      <g transform="translate(243.492639 272.356875) scale(0.08 -0.08)">
       <use xlink:href="#CenturyGothic-30"/>
       <use xlink:href="#CenturyGothic-2e" x="55.419922"/>
       <use xlink:href="#CenturyGothic-30" x="83.105469"/>
       <use xlink:href="#CenturyGothic-30" x="138.525391"/>
       <use xlink:href="#CenturyGothic-30" x="193.945312"/>
      </g>
     </g>
    </g>
    <g id="xtick_6">
     <g id="line2d_6">
      <g>
       <use xlink:href="#mcac9b30ea9" x="311.934861" y="259.465625" style="stroke: #000000; stroke-width: 0.8"/>
      </g>
     </g>
     <g id="text_6">
      <!-- 0.025 -->
      <g transform="translate(301.959861 272.356875) scale(0.08 -0.08)">
       <use xlink:href="#CenturyGothic-30"/>
       <use xlink:href="#CenturyGothic-2e" x="55.419922"/>
       <use xlink:href="#CenturyGothic-30" x="83.105469"/>
       <use xlink:href="#CenturyGothic-32" x="138.525391"/>
       <use xlink:href="#CenturyGothic-35" x="193.945312"/>
      </g>
     </g>
    </g>
    <g id="xtick_7">
     <g id="line2d_7">
      <g>
       <use xlink:href="#mcac9b30ea9" x="370.402083" y="259.465625" style="stroke: #000000; stroke-width: 0.8"/>
      </g>
     </g>
     <g id="text_7">
      <!-- 0.050 -->
      <g transform="translate(360.427083 272.356875) scale(0.08 -0.08)">
       <use xlink:href="#CenturyGothic-30"/>
       <use xlink:href="#CenturyGothic-2e" x="55.419922"/>
       <use xlink:href="#CenturyGothic-30" x="83.105469"/>
       <use xlink:href="#CenturyGothic-35" x="138.525391"/>
       <use xlink:href="#CenturyGothic-30" x="193.945312"/>
      </g>
     </g>
    </g>
    <g id="xtick_8">
     <g id="line2d_8">
      <g>
       <use xlink:href="#mcac9b30ea9" x="428.869306" y="259.465625" style="stroke: #000000; stroke-width: 0.8"/>
      </g>
     </g>
     <g id="text_8">
      <!-- 0.075 -->
      <g transform="translate(418.894306 272.356875) scale(0.08 -0.08)">
       <use xlink:href="#CenturyGothic-30"/>
       <use xlink:href="#CenturyGothic-2e" x="55.419922"/>
       <use xlink:href="#CenturyGothic-30" x="83.105469"/>
       <use xlink:href="#CenturyGothic-37" x="138.525391"/>
       <use xlink:href="#CenturyGothic-35" x="193.945312"/>
      </g>
     </g>
    </g>
    <g id="xtick_9">
     <g id="line2d_9">
      <g>
       <use xlink:href="#mcac9b30ea9" x="487.336528" y="259.465625" style="stroke: #000000; stroke-width: 0.8"/>
      </g>
     </g>
     <g id="text_9">
      <!-- 0.100 -->
      <g transform="translate(477.361528 272.356875) scale(0.08 -0.08)">
       <use xlink:href="#CenturyGothic-30"/>
       <use xlink:href="#CenturyGothic-2e" x="55.419922"/>
       <use xlink:href="#CenturyGothic-31" x="83.105469"/>
       <use xlink:href="#CenturyGothic-30" x="138.525391"/>
       <use xlink:href="#CenturyGothic-30" x="193.945312"/>
      </g>
     </g>
    </g>
    <g id="xtick_10">
     <g id="line2d_10">
      <g>
       <use xlink:href="#mcac9b30ea9" x="545.80375" y="259.465625" style="stroke: #000000; stroke-width: 0.8"/>
      </g>
     </g>
     <g id="text_10">
      <!-- 0.125 -->
      <g transform="translate(535.82875 272.356875) scale(0.08 -0.08)">
       <use xlink:href="#CenturyGothic-30"/>
       <use xlink:href="#CenturyGothic-2e" x="55.419922"/>
       <use xlink:href="#CenturyGothic-31" x="83.105469"/>
       <use xlink:href="#CenturyGothic-32" x="138.525391"/>
       <use xlink:href="#CenturyGothic-35" x="193.945312"/>
      </g>
     </g>
    </g>
   </g>
   <g id="matplotlib.axis_2">
    <g id="ytick_1">
     <g id="line2d_11">
      <defs>
       <path id="ma639f546fd" d="M 0 0 
L 3.5 0 
" style="stroke: #000000; stroke-width: 0.8"/>
      </defs>
      <g>
       <use xlink:href="#ma639f546fd" x="545.80375" y="259.465625" style="stroke: #000000; stroke-width: 0.8"/>
      </g>
     </g>
     <g id="text_11">
      <!-- 0 -->
      <g transform="translate(552.80375 262.41125) scale(0.08 -0.08)">
       <use xlink:href="#CenturyGothic-30"/>
      </g>
     </g>
    </g>
    <g id="ytick_2">
     <g id="line2d_12">
      <g>
       <use xlink:href="#ma639f546fd" x="545.80375" y="231.763403" style="stroke: #000000; stroke-width: 0.8"/>
      </g>
     </g>
     <g id="text_12">
      <!-- 10 -->
      <g transform="translate(552.80375 234.709028) scale(0.08 -0.08)">
       <use xlink:href="#CenturyGothic-31"/>
       <use xlink:href="#CenturyGothic-30" x="55.419922"/>
      </g>
     </g>
    </g>
    <g id="ytick_3">
     <g id="line2d_13">
      <g>
       <use xlink:href="#ma639f546fd" x="545.80375" y="204.061181" style="stroke: #000000; stroke-width: 0.8"/>
      </g>
     </g>
     <g id="text_13">
      <!-- 20 -->
      <g transform="translate(552.80375 207.006806) scale(0.08 -0.08)">
       <use xlink:href="#CenturyGothic-32"/>
       <use xlink:href="#CenturyGothic-30" x="55.419922"/>
      </g>
     </g>
    </g>
    <g id="ytick_4">
     <g id="line2d_14">
      <g>
       <use xlink:href="#ma639f546fd" x="545.80375" y="176.358958" style="stroke: #000000; stroke-width: 0.8"/>
      </g>
     </g>
     <g id="text_14">
      <!-- 30 -->
      <g transform="translate(552.80375 179.304583) scale(0.08 -0.08)">
       <defs>
        <path id="CenturyGothic-33" d="M 847 3531 
L 378 3531 
Q 506 4100 868 4406 
Q 1231 4713 1725 4713 
Q 2084 4713 2395 4548 
Q 2706 4384 2876 4106 
Q 3047 3828 3047 3525 
Q 3047 2931 2456 2584 
Q 2788 2450 3000 2191 
Q 3300 1825 3300 1372 
Q 3300 981 3094 626 
Q 2888 272 2531 78 
Q 2175 -116 1734 -116 
Q 1141 -116 744 226 
Q 347 569 225 1231 
L 675 1231 
Q 794 784 1016 584 
Q 1300 331 1741 331 
Q 2241 331 2544 631 
Q 2847 931 2847 1334 
Q 2847 1603 2695 1837 
Q 2544 2072 2289 2190 
Q 2034 2309 1500 2338 
L 1500 2759 
Q 1816 2759 2075 2870 
Q 2334 2981 2451 3153 
Q 2569 3325 2569 3528 
Q 2569 3828 2330 4047 
Q 2091 4266 1725 4266 
Q 1428 4266 1212 4098 
Q 997 3931 847 3531 
z
" transform="scale(0.015625)"/>
       </defs>
       <use xlink:href="#CenturyGothic-33"/>
       <use xlink:href="#CenturyGothic-30" x="55.419922"/>
      </g>
     </g>
    </g>
    <g id="ytick_5">
     <g id="line2d_15">
      <g>
       <use xlink:href="#ma639f546fd" x="545.80375" y="148.656736" style="stroke: #000000; stroke-width: 0.8"/>
      </g>
     </g>
     <g id="text_15">
      <!-- 40 -->
      <g transform="translate(552.80375 151.602361) scale(0.08 -0.08)">
       <defs>
        <path id="CenturyGothic-34" d="M 2725 4713 
L 2819 4713 
L 2819 1509 
L 3375 1509 
L 3375 1069 
L 2819 1069 
L 2819 0 
L 2359 0 
L 2359 1069 
L 163 1069 
L 2725 4713 
z
M 2359 1509 
L 2359 3425 
L 1006 1509 
L 2359 1509 
z
" transform="scale(0.015625)"/>
       </defs>
       <use xlink:href="#CenturyGothic-34"/>
       <use xlink:href="#CenturyGothic-30" x="55.419922"/>
      </g>
     </g>
    </g>
    <g id="ytick_6">
     <g id="line2d_16">
      <g>
       <use xlink:href="#ma639f546fd" x="545.80375" y="120.954514" style="stroke: #000000; stroke-width: 0.8"/>
      </g>
     </g>
     <g id="text_16">
      <!-- 50 -->
      <g transform="translate(552.80375 123.900139) scale(0.08 -0.08)">
       <use xlink:href="#CenturyGothic-35"/>
       <use xlink:href="#CenturyGothic-30" x="55.419922"/>
      </g>
     </g>
    </g>
    <g id="ytick_7">
     <g id="line2d_17">
      <g>
       <use xlink:href="#ma639f546fd" x="545.80375" y="93.252292" style="stroke: #000000; stroke-width: 0.8"/>
      </g>
     </g>
     <g id="text_17">
      <!-- 60 -->
      <g transform="translate(552.80375 96.197917) scale(0.08 -0.08)">
       <defs>
        <path id="CenturyGothic-36" d="M 2347 4713 
L 2725 4466 
L 1484 2584 
Q 1734 2669 1953 2669 
Q 2500 2669 2881 2273 
Q 3263 1878 3263 1300 
Q 3263 903 3078 583 
Q 2894 263 2555 73 
Q 2216 -116 1825 -116 
Q 1447 -116 1123 67 
Q 800 250 615 581 
Q 431 913 431 1291 
Q 431 1572 545 1883 
Q 659 2194 953 2631 
L 2347 4713 
z
M 1844 2266 
Q 1444 2266 1161 1983 
Q 878 1700 878 1297 
Q 878 897 1161 614 
Q 1444 331 1844 331 
Q 2244 331 2526 614 
Q 2809 897 2809 1297 
Q 2809 1700 2526 1983 
Q 2244 2266 1844 2266 
z
" transform="scale(0.015625)"/>
       </defs>
       <use xlink:href="#CenturyGothic-36"/>
       <use xlink:href="#CenturyGothic-30" x="55.419922"/>
      </g>
     </g>
    </g>
    <g id="ytick_8">
     <g id="line2d_18">
      <g>
       <use xlink:href="#ma639f546fd" x="545.80375" y="65.550069" style="stroke: #000000; stroke-width: 0.8"/>
      </g>
     </g>
     <g id="text_18">
      <!-- 70 -->
      <g transform="translate(552.80375 68.495694) scale(0.08 -0.08)">
       <use xlink:href="#CenturyGothic-37"/>
       <use xlink:href="#CenturyGothic-30" x="55.419922"/>
      </g>
     </g>
    </g>
    <g id="ytick_9">
     <g id="line2d_19">
      <g>
       <use xlink:href="#ma639f546fd" x="545.80375" y="37.847847" style="stroke: #000000; stroke-width: 0.8"/>
      </g>
     </g>
     <g id="text_19">
      <!-- 80 -->
      <g transform="translate(552.80375 40.793472) scale(0.08 -0.08)">
       <defs>
        <path id="CenturyGothic-38" d="M 2459 2522 
Q 2925 2291 3126 1994 
Q 3328 1697 3328 1319 
Q 3328 788 2981 381 
Q 2556 -116 1766 -116 
Q 1003 -116 609 320 
Q 216 756 216 1281 
Q 216 1666 422 1973 
Q 628 2281 1109 2522 
Q 772 2697 603 2956 
Q 434 3216 434 3513 
Q 434 3813 614 4098 
Q 794 4384 1111 4548 
Q 1428 4713 1797 4713 
Q 2156 4713 2462 4547 
Q 2769 4381 2942 4097 
Q 3116 3813 3116 3500 
Q 3116 3188 2952 2944 
Q 2788 2700 2459 2522 
z
M 1775 4266 
Q 1397 4266 1148 4042 
Q 900 3819 900 3509 
Q 900 3203 1167 2954 
Q 1434 2706 1791 2706 
Q 2019 2706 2222 2818 
Q 2425 2931 2539 3126 
Q 2653 3322 2653 3519 
Q 2653 3797 2428 4031 
Q 2203 4266 1775 4266 
z
M 1797 2291 
Q 1322 2291 1000 1983 
Q 678 1675 678 1266 
Q 678 1013 815 788 
Q 953 563 1200 441 
Q 1447 319 1772 319 
Q 2275 319 2572 616 
Q 2869 913 2869 1309 
Q 2869 1694 2555 1992 
Q 2241 2291 1797 2291 
z
" transform="scale(0.015625)"/>
       </defs>
       <use xlink:href="#CenturyGothic-38"/>
       <use xlink:href="#CenturyGothic-30" x="55.419922"/>
      </g>
     </g>
    </g>
    <g id="ytick_10">
     <g id="line2d_20">
      <g>
       <use xlink:href="#ma639f546fd" x="545.80375" y="10.145625" style="stroke: #000000; stroke-width: 0.8"/>
      </g>
     </g>
     <g id="text_20">
      <!-- 90 -->
      <g transform="translate(552.80375 13.09125) scale(0.08 -0.08)">
       <defs>
        <path id="CenturyGothic-39" d="M 1228 -116 
L 850 128 
L 2091 2009 
Q 1841 1928 1622 1928 
Q 1075 1928 694 2323 
Q 313 2719 313 3297 
Q 313 3694 497 4012 
Q 681 4331 1020 4522 
Q 1359 4713 1747 4713 
Q 2128 4713 2451 4528 
Q 2775 4344 2959 4012 
Q 3144 3681 3144 3306 
Q 3144 3022 3030 2711 
Q 2916 2400 2622 1963 
L 1228 -116 
z
M 1728 2331 
Q 2131 2331 2414 2614 
Q 2697 2897 2697 3297 
Q 2697 3697 2414 3980 
Q 2131 4263 1728 4263 
Q 1328 4263 1045 3980 
Q 763 3697 763 3297 
Q 763 2897 1045 2614 
Q 1328 2331 1728 2331 
z
" transform="scale(0.015625)"/>
       </defs>
       <use xlink:href="#CenturyGothic-39"/>
       <use xlink:href="#CenturyGothic-30" x="55.419922"/>
      </g>
     </g>
    </g>
   </g>
   <g id="patch_3">
    <path d="M 545.80375 259.465625 
L 545.80375 10.145625 
" style="fill: none; stroke: #000000; stroke-width: 0.8; stroke-linejoin: miter; stroke-linecap: square"/>
   </g>
   <g id="patch_4">
    <path d="M 19.59875 259.465625 
L 545.80375 259.465625 
" style="fill: none; stroke: #000000; stroke-width: 0.8; stroke-linejoin: miter; stroke-linecap: square"/>
   </g>
  </g>
 </g>
 <defs>
  <clipPath id="p1ac85e5aab">
   <rect x="19.59875" y="10.145625" width="526.205" height="249.32"/>
  </clipPath>
 </defs>
</svg>
