<?xml version="1.0" encoding="utf-8" standalone="no"?>
<!DOCTYPE svg PUBLIC "-//W3C//DTD SVG 1.1//EN"
  "http://www.w3.org/Graphics/SVG/1.1/DTD/svg11.dtd">
<svg xmlns:xlink="http://www.w3.org/1999/xlink" width="385.142852pt" height="158.646338pt" viewBox="0 0 385.142852 158.646338" xmlns="http://www.w3.org/2000/svg" version="1.1">
 <metadata>
  <rdf:RDF xmlns:dc="http://purl.org/dc/elements/1.1/" xmlns:cc="http://creativecommons.org/ns#" xmlns:rdf="http://www.w3.org/1999/02/22-rdf-syntax-ns#">
   <cc:Work>
    <dc:type rdf:resource="http://purl.org/dc/dcmitype/StillImage"/>
    <dc:date>2025-05-23T12:01:57.991131</dc:date>
    <dc:format>image/svg+xml</dc:format>
    <dc:creator>
     <cc:Agent>
      <dc:title>Matplotlib v3.9.2, https://matplotlib.org/</dc:title>
     </cc:Agent>
    </dc:creator>
   </cc:Work>
  </rdf:RDF>
 </metadata>
 <defs>
  <style type="text/css">*{stroke-linejoin: round; stroke-linecap: butt}</style>
 </defs>
 <g id="figure_1">
  <g id="patch_1">
   <path d="M -0 158.646338 
L 385.142852 158.646338 
L 385.142852 0 
L -0 0 
z
" style="fill: #ffffff"/>
  </g>
  <g id="axes_1">
   <g id="patch_2">
    <path d="M 10.457734 117.896182 
L 313.623085 117.896182 
L 313.623085 9.777422 
L 10.457734 9.777422 
z
" style="fill: #ffffff"/>
   </g>
   <g id="matplotlib.axis_1">
    <g id="xtick_1">
     <g id="line2d_1">
      <defs>
       <path id="m63c72e580d" d="M 0 0 
L 0 5 
" style="stroke: #262626; stroke-width: 0.5"/>
      </defs>
      <g>
       <use xlink:href="#m63c72e580d" x="10.457734" y="117.896182" style="fill: #262626; stroke: #262626; stroke-width: 0.5"/>
      </g>
     </g>
     <g id="text_1">
      <!-- 29-Dic -->
      <g style="fill: #262626" transform="translate(12.354844 147.619307) rotate(-90) scale(0.07 -0.07)">
       <defs>
        <path id="CenturyGothic-32" d="M 741 3156 
L 300 3156 
Q 319 3838 755 4275 
Q 1191 4713 1831 4713 
Q 2466 4713 2858 4303 
Q 3250 3894 3250 3338 
Q 3250 2947 3062 2605 
Q 2875 2263 2334 1678 
L 1191 444 
L 3313 444 
L 3313 0 
L 191 0 
L 1947 1897 
Q 2481 2469 2642 2745 
Q 2803 3022 2803 3328 
Q 2803 3716 2514 3995 
Q 2225 4275 1806 4275 
Q 1366 4275 1073 3981 
Q 781 3688 741 3156 
z
" transform="scale(0.015625)"/>
        <path id="CenturyGothic-39" d="M 1228 -116 
L 850 128 
L 2091 2009 
Q 1841 1928 1622 1928 
Q 1075 1928 694 2323 
Q 313 2719 313 3297 
Q 313 3694 497 4012 
Q 681 4331 1020 4522 
Q 1359 4713 1747 4713 
Q 2128 4713 2451 4528 
Q 2775 4344 2959 4012 
Q 3144 3681 3144 3306 
Q 3144 3022 3030 2711 
Q 2916 2400 2622 1963 
L 1228 -116 
z
M 1728 2331 
Q 2131 2331 2414 2614 
Q 2697 2897 2697 3297 
Q 2697 3697 2414 3980 
Q 2131 4263 1728 4263 
Q 1328 4263 1045 3980 
Q 763 3697 763 3297 
Q 763 2897 1045 2614 
Q 1328 2331 1728 2331 
z
" transform="scale(0.015625)"/>
        <path id="CenturyGothic-2d" d="M 203 1919 
L 1922 1919 
L 1922 1538 
L 203 1538 
L 203 1919 
z
" transform="scale(0.015625)"/>
        <path id="CenturyGothic-44" d="M 559 0 
L 559 4597 
L 1513 4597 
Q 2544 4597 3009 4431 
Q 3678 4197 4054 3619 
Q 4431 3041 4431 2241 
Q 4431 1550 4132 1025 
Q 3834 500 3357 250 
Q 2881 0 2022 0 
L 559 0 
z
M 1000 434 
L 1531 434 
Q 2484 434 2853 553 
Q 3372 722 3669 1161 
Q 3966 1600 3966 2234 
Q 3966 2900 3644 3372 
Q 3322 3844 2747 4019 
Q 2316 4150 1325 4150 
L 1000 4150 
L 1000 434 
z
" transform="scale(0.015625)"/>
        <path id="CenturyGothic-69" d="M 641 4800 
Q 791 4800 897 4694 
Q 1003 4588 1003 4438 
Q 1003 4291 897 4184 
Q 791 4078 641 4078 
Q 494 4078 387 4184 
Q 281 4291 281 4438 
Q 281 4588 387 4694 
Q 494 4800 641 4800 
z
M 422 3400 
L 863 3400 
L 863 0 
L 422 0 
L 422 3400 
z
" transform="scale(0.015625)"/>
        <path id="CenturyGothic-63" d="M 3788 2694 
L 3441 2478 
Q 2991 3075 2213 3075 
Q 1591 3075 1180 2675 
Q 769 2275 769 1703 
Q 769 1331 958 1003 
Q 1147 675 1476 494 
Q 1806 313 2216 313 
Q 2966 313 3441 909 
L 3788 681 
Q 3544 316 3133 114 
Q 2722 -88 2197 -88 
Q 1391 -88 859 425 
Q 328 938 328 1672 
Q 328 2166 576 2589 
Q 825 3013 1259 3250 
Q 1694 3488 2231 3488 
Q 2569 3488 2883 3384 
Q 3197 3281 3415 3115 
Q 3634 2950 3788 2694 
z
" transform="scale(0.015625)"/>
       </defs>
       <use xlink:href="#CenturyGothic-32"/>
       <use xlink:href="#CenturyGothic-39" x="55.419922"/>
       <use xlink:href="#CenturyGothic-2d" x="110.839844"/>
       <use xlink:href="#CenturyGothic-44" x="144.042969"/>
       <use xlink:href="#CenturyGothic-69" x="218.457031"/>
       <use xlink:href="#CenturyGothic-63" x="238.476562"/>
      </g>
     </g>
    </g>
    <g id="xtick_2">
     <g id="line2d_2">
      <g>
       <use xlink:href="#m63c72e580d" x="35.664226" y="117.896182" style="fill: #262626; stroke: #262626; stroke-width: 0.5"/>
      </g>
     </g>
     <g id="text_2">
      <!-- 01-Feb -->
      <g style="fill: #262626" transform="translate(37.561335 149.197588) rotate(-90) scale(0.07 -0.07)">
       <defs>
        <path id="CenturyGothic-30" d="M 203 2297 
Q 203 3206 398 3703 
Q 594 4200 950 4456 
Q 1306 4713 1747 4713 
Q 2194 4713 2556 4455 
Q 2919 4197 3130 3681 
Q 3341 3166 3341 2297 
Q 3341 1431 3133 918 
Q 2925 406 2559 145 
Q 2194 -116 1747 -116 
Q 1306 -116 953 137 
Q 600 391 401 892 
Q 203 1394 203 2297 
z
M 638 2288 
Q 638 1509 777 1111 
Q 916 713 1187 506 
Q 1459 300 1763 300 
Q 2069 300 2334 501 
Q 2600 703 2738 1106 
Q 2909 1597 2909 2288 
Q 2909 2981 2756 3423 
Q 2603 3866 2333 4070 
Q 2063 4275 1763 4275 
Q 1456 4275 1187 4070 
Q 919 3866 778 3467 
Q 638 3069 638 2288 
z
" transform="scale(0.015625)"/>
        <path id="CenturyGothic-31" d="M 1184 4597 
L 2088 4597 
L 2088 0 
L 1631 0 
L 1631 4147 
L 909 4147 
L 1184 4597 
z
" transform="scale(0.015625)"/>
        <path id="CenturyGothic-46" d="M 559 4597 
L 2863 4597 
L 2863 4144 
L 1016 4144 
L 1016 2706 
L 2863 2706 
L 2863 2253 
L 1016 2253 
L 1016 0 
L 559 0 
L 559 4597 
z
" transform="scale(0.015625)"/>
        <path id="CenturyGothic-65" d="M 3350 1128 
L 3719 934 
Q 3538 578 3300 359 
Q 3063 141 2766 26 
Q 2469 -88 2094 -88 
Q 1263 -88 794 457 
Q 325 1003 325 1691 
Q 325 2338 722 2844 
Q 1225 3488 2069 3488 
Q 2938 3488 3456 2828 
Q 3825 2363 3831 1666 
L 775 1666 
Q 788 1072 1153 692 
Q 1519 313 2056 313 
Q 2316 313 2561 403 
Q 2806 494 2978 644 
Q 3150 794 3350 1128 
z
M 3350 2044 
Q 3263 2394 3095 2603 
Q 2928 2813 2653 2941 
Q 2378 3069 2075 3069 
Q 1575 3069 1216 2747 
Q 953 2513 819 2044 
L 3350 2044 
z
" transform="scale(0.015625)"/>
        <path id="CenturyGothic-62" d="M 516 0 
L 516 4713 
L 950 4713 
L 950 2816 
Q 1225 3153 1565 3320 
Q 1906 3488 2313 3488 
Q 3034 3488 3545 2964 
Q 4056 2441 4056 1694 
Q 4056 956 3540 434 
Q 3025 -88 2300 -88 
Q 1884 -88 1546 90 
Q 1209 269 950 625 
L 950 0 
L 516 0 
z
M 2266 334 
Q 2631 334 2940 514 
Q 3250 694 3433 1019 
Q 3616 1344 3616 1706 
Q 3616 2069 3431 2397 
Q 3247 2725 2936 2908 
Q 2625 3091 2272 3091 
Q 1913 3091 1589 2908 
Q 1266 2725 1092 2415 
Q 919 2106 919 1719 
Q 919 1128 1308 731 
Q 1697 334 2266 334 
z
" transform="scale(0.015625)"/>
       </defs>
       <use xlink:href="#CenturyGothic-30"/>
       <use xlink:href="#CenturyGothic-31" x="55.419922"/>
       <use xlink:href="#CenturyGothic-2d" x="110.839844"/>
       <use xlink:href="#CenturyGothic-46" x="144.042969"/>
       <use xlink:href="#CenturyGothic-65" x="192.529297"/>
       <use xlink:href="#CenturyGothic-62" x="257.519531"/>
      </g>
     </g>
    </g>
    <g id="xtick_3">
     <g id="line2d_3">
      <g>
       <use xlink:href="#m63c72e580d" x="62.016467" y="117.896182" style="fill: #262626; stroke: #262626; stroke-width: 0.5"/>
      </g>
     </g>
     <g id="text_3">
      <!-- 06-Mar -->
      <g style="fill: #262626" transform="translate(63.913577 149.799151) rotate(-90) scale(0.07 -0.07)">
       <defs>
        <path id="CenturyGothic-36" d="M 2347 4713 
L 2725 4466 
L 1484 2584 
Q 1734 2669 1953 2669 
Q 2500 2669 2881 2273 
Q 3263 1878 3263 1300 
Q 3263 903 3078 583 
Q 2894 263 2555 73 
Q 2216 -116 1825 -116 
Q 1447 -116 1123 67 
Q 800 250 615 581 
Q 431 913 431 1291 
Q 431 1572 545 1883 
Q 659 2194 953 2631 
L 2347 4713 
z
M 1844 2266 
Q 1444 2266 1161 1983 
Q 878 1700 878 1297 
Q 878 897 1161 614 
Q 1444 331 1844 331 
Q 2244 331 2526 614 
Q 2809 897 2809 1297 
Q 2809 1700 2526 1983 
Q 2244 2266 1844 2266 
z
" transform="scale(0.015625)"/>
        <path id="CenturyGothic-4d" d="M 350 0 
L 1003 4597 
L 1078 4597 
L 2947 825 
L 4797 4597 
L 4872 4597 
L 5531 0 
L 5078 0 
L 4628 3288 
L 3003 0 
L 2888 0 
L 1241 3313 
L 794 0 
L 350 0 
z
" transform="scale(0.015625)"/>
        <path id="CenturyGothic-61" d="M 3875 3400 
L 3875 0 
L 3444 0 
L 3444 584 
Q 3169 250 2826 81 
Q 2484 -88 2078 -88 
Q 1356 -88 845 435 
Q 334 959 334 1709 
Q 334 2444 850 2966 
Q 1366 3488 2091 3488 
Q 2509 3488 2848 3309 
Q 3188 3131 3444 2775 
L 3444 3400 
L 3875 3400 
z
M 2125 3066 
Q 1759 3066 1450 2886 
Q 1141 2706 958 2381 
Q 775 2056 775 1694 
Q 775 1334 959 1006 
Q 1144 678 1455 495 
Q 1766 313 2122 313 
Q 2481 313 2803 494 
Q 3125 675 3298 984 
Q 3472 1294 3472 1681 
Q 3472 2272 3083 2669 
Q 2694 3066 2125 3066 
z
" transform="scale(0.015625)"/>
        <path id="CenturyGothic-72" d="M 322 3400 
L 769 3400 
L 769 2903 
Q 969 3197 1191 3342 
Q 1413 3488 1653 3488 
Q 1834 3488 2041 3372 
L 1813 3003 
Q 1675 3063 1581 3063 
Q 1363 3063 1159 2883 
Q 956 2703 850 2325 
Q 769 2034 769 1150 
L 769 0 
L 322 0 
L 322 3400 
z
" transform="scale(0.015625)"/>
       </defs>
       <use xlink:href="#CenturyGothic-30"/>
       <use xlink:href="#CenturyGothic-36" x="55.419922"/>
       <use xlink:href="#CenturyGothic-2d" x="110.839844"/>
       <use xlink:href="#CenturyGothic-4d" x="144.042969"/>
       <use xlink:href="#CenturyGothic-61" x="235.9375"/>
       <use xlink:href="#CenturyGothic-72" x="304.248047"/>
      </g>
     </g>
    </g>
    <g id="xtick_4">
     <g id="line2d_4">
      <g>
       <use xlink:href="#m63c72e580d" x="88.368709" y="117.896182" style="fill: #262626; stroke: #262626; stroke-width: 0.5"/>
      </g>
     </g>
     <g id="text_4">
      <!-- 09-Abr -->
      <g style="fill: #262626" transform="translate(90.265818 148.538057) rotate(-90) scale(0.07 -0.07)">
       <defs>
        <path id="CenturyGothic-41" d="M 2438 4597 
L 4581 0 
L 4088 0 
L 3366 1513 
L 1384 1513 
L 666 0 
L 153 0 
L 2325 4597 
L 2438 4597 
z
M 2381 3622 
L 1591 1956 
L 3163 1956 
L 2381 3622 
z
" transform="scale(0.015625)"/>
       </defs>
       <use xlink:href="#CenturyGothic-30"/>
       <use xlink:href="#CenturyGothic-39" x="55.419922"/>
       <use xlink:href="#CenturyGothic-2d" x="110.839844"/>
       <use xlink:href="#CenturyGothic-41" x="144.042969"/>
       <use xlink:href="#CenturyGothic-62" x="218.017578"/>
       <use xlink:href="#CenturyGothic-72" x="286.230469"/>
      </g>
     </g>
    </g>
    <g id="xtick_5">
     <g id="line2d_5">
      <g>
       <use xlink:href="#m63c72e580d" x="114.72095" y="117.896182" style="fill: #262626; stroke: #262626; stroke-width: 0.5"/>
      </g>
     </g>
     <g id="text_5">
      <!-- 10-May -->
      <g style="fill: #262626" transform="translate(116.61806 151.446338) rotate(-90) scale(0.07 -0.07)">
       <defs>
        <path id="CenturyGothic-79" d="M 122 3400 
L 584 3400 
L 1753 781 
L 2888 3400 
L 3353 3400 
L 1325 -1244 
L 863 -1244 
L 1519 256 
L 122 3400 
z
" transform="scale(0.015625)"/>
       </defs>
       <use xlink:href="#CenturyGothic-31"/>
       <use xlink:href="#CenturyGothic-30" x="55.419922"/>
       <use xlink:href="#CenturyGothic-2d" x="110.839844"/>
       <use xlink:href="#CenturyGothic-4d" x="144.042969"/>
       <use xlink:href="#CenturyGothic-61" x="235.9375"/>
       <use xlink:href="#CenturyGothic-79" x="304.248047"/>
      </g>
     </g>
    </g>
    <g id="xtick_6">
     <g id="line2d_6">
      <g>
       <use xlink:href="#m63c72e580d" x="141.073192" y="117.896182" style="fill: #262626; stroke: #262626; stroke-width: 0.5"/>
      </g>
     </g>
     <g id="text_6">
      <!-- 13-Jun -->
      <g style="fill: #262626" transform="translate(142.970301 148.377276) rotate(-90) scale(0.07 -0.07)">
       <defs>
        <path id="CenturyGothic-33" d="M 847 3531 
L 378 3531 
Q 506 4100 868 4406 
Q 1231 4713 1725 4713 
Q 2084 4713 2395 4548 
Q 2706 4384 2876 4106 
Q 3047 3828 3047 3525 
Q 3047 2931 2456 2584 
Q 2788 2450 3000 2191 
Q 3300 1825 3300 1372 
Q 3300 981 3094 626 
Q 2888 272 2531 78 
Q 2175 -116 1734 -116 
Q 1141 -116 744 226 
Q 347 569 225 1231 
L 675 1231 
Q 794 784 1016 584 
Q 1300 331 1741 331 
Q 2241 331 2544 631 
Q 2847 931 2847 1334 
Q 2847 1603 2695 1837 
Q 2544 2072 2289 2190 
Q 2034 2309 1500 2338 
L 1500 2759 
Q 1816 2759 2075 2870 
Q 2334 2981 2451 3153 
Q 2569 3325 2569 3528 
Q 2569 3828 2330 4047 
Q 2091 4266 1725 4266 
Q 1428 4266 1212 4098 
Q 997 3931 847 3531 
z
" transform="scale(0.015625)"/>
        <path id="CenturyGothic-4a" d="M 2063 4597 
L 2525 4597 
L 2525 1494 
Q 2525 778 2414 498 
Q 2303 219 2043 51 
Q 1784 -116 1416 -116 
Q 1138 -116 867 -8 
Q 597 100 269 372 
L 513 738 
Q 872 484 1109 381 
Q 1266 313 1416 313 
Q 1613 313 1773 431 
Q 1934 550 1998 747 
Q 2063 944 2063 1509 
L 2063 4597 
z
" transform="scale(0.015625)"/>
        <path id="CenturyGothic-75" d="M 431 3400 
L 872 3400 
L 872 1813 
Q 872 1231 934 1013 
Q 1028 700 1292 519 
Q 1556 338 1922 338 
Q 2288 338 2542 514 
Q 2797 691 2894 978 
Q 2959 1175 2959 1813 
L 2959 3400 
L 3406 3400 
L 3406 1731 
Q 3406 1028 3242 672 
Q 3078 316 2748 114 
Q 2419 -88 1922 -88 
Q 1425 -88 1092 114 
Q 759 316 595 677 
Q 431 1038 431 1763 
L 431 3400 
z
" transform="scale(0.015625)"/>
        <path id="CenturyGothic-6e" d="M 488 3400 
L 925 3400 
L 925 2791 
Q 1188 3141 1506 3314 
Q 1825 3488 2200 3488 
Q 2581 3488 2876 3294 
Q 3172 3100 3312 2772 
Q 3453 2444 3453 1750 
L 3453 0 
L 3019 0 
L 3019 1622 
Q 3019 2209 2969 2406 
Q 2891 2744 2675 2914 
Q 2459 3084 2113 3084 
Q 1716 3084 1402 2821 
Q 1088 2559 988 2172 
Q 925 1919 925 1247 
L 925 0 
L 488 0 
L 488 3400 
z
" transform="scale(0.015625)"/>
       </defs>
       <use xlink:href="#CenturyGothic-31"/>
       <use xlink:href="#CenturyGothic-33" x="55.419922"/>
       <use xlink:href="#CenturyGothic-2d" x="110.839844"/>
       <use xlink:href="#CenturyGothic-4a" x="144.042969"/>
       <use xlink:href="#CenturyGothic-75" x="192.236328"/>
       <use xlink:href="#CenturyGothic-6e" x="253.027344"/>
      </g>
     </g>
    </g>
    <g id="xtick_7">
     <g id="line2d_7">
      <g>
       <use xlink:href="#m63c72e580d" x="167.425433" y="117.896182" style="fill: #262626; stroke: #262626; stroke-width: 0.5"/>
      </g>
     </g>
     <g id="text_7">
      <!-- 18-Jul -->
      <g style="fill: #262626" transform="translate(169.322542 145.509463) rotate(-90) scale(0.07 -0.07)">
       <defs>
        <path id="CenturyGothic-38" d="M 2459 2522 
Q 2925 2291 3126 1994 
Q 3328 1697 3328 1319 
Q 3328 788 2981 381 
Q 2556 -116 1766 -116 
Q 1003 -116 609 320 
Q 216 756 216 1281 
Q 216 1666 422 1973 
Q 628 2281 1109 2522 
Q 772 2697 603 2956 
Q 434 3216 434 3513 
Q 434 3813 614 4098 
Q 794 4384 1111 4548 
Q 1428 4713 1797 4713 
Q 2156 4713 2462 4547 
Q 2769 4381 2942 4097 
Q 3116 3813 3116 3500 
Q 3116 3188 2952 2944 
Q 2788 2700 2459 2522 
z
M 1775 4266 
Q 1397 4266 1148 4042 
Q 900 3819 900 3509 
Q 900 3203 1167 2954 
Q 1434 2706 1791 2706 
Q 2019 2706 2222 2818 
Q 2425 2931 2539 3126 
Q 2653 3322 2653 3519 
Q 2653 3797 2428 4031 
Q 2203 4266 1775 4266 
z
M 1797 2291 
Q 1322 2291 1000 1983 
Q 678 1675 678 1266 
Q 678 1013 815 788 
Q 953 563 1200 441 
Q 1447 319 1772 319 
Q 2275 319 2572 616 
Q 2869 913 2869 1309 
Q 2869 1694 2555 1992 
Q 2241 2291 1797 2291 
z
" transform="scale(0.015625)"/>
        <path id="CenturyGothic-6c" d="M 422 4713 
L 859 4713 
L 859 0 
L 422 0 
L 422 4713 
z
" transform="scale(0.015625)"/>
       </defs>
       <use xlink:href="#CenturyGothic-31"/>
       <use xlink:href="#CenturyGothic-38" x="55.419922"/>
       <use xlink:href="#CenturyGothic-2d" x="110.839844"/>
       <use xlink:href="#CenturyGothic-4a" x="144.042969"/>
       <use xlink:href="#CenturyGothic-75" x="192.236328"/>
       <use xlink:href="#CenturyGothic-6c" x="253.027344"/>
      </g>
     </g>
    </g>
    <g id="xtick_8">
     <g id="line2d_8">
      <g>
       <use xlink:href="#m63c72e580d" x="193.777674" y="117.896182" style="fill: #262626; stroke: #262626; stroke-width: 0.5"/>
      </g>
     </g>
     <g id="text_8">
      <!-- 20-Ago -->
      <g style="fill: #262626" transform="translate(195.627206 150.950869) rotate(-90) scale(0.07 -0.07)">
       <defs>
        <path id="CenturyGothic-67" d="M 3416 3400 
L 3856 3400 
L 3856 691 
Q 3856 -25 3731 -356 
Q 3559 -825 3134 -1078 
Q 2709 -1331 2113 -1331 
Q 1675 -1331 1326 -1207 
Q 978 -1084 759 -876 
Q 541 -669 356 -269 
L 831 -269 
Q 1025 -606 1331 -768 
Q 1638 -931 2091 -931 
Q 2538 -931 2845 -764 
Q 3153 -597 3284 -344 
Q 3416 -91 3416 472 
L 3416 647 
Q 3169 334 2812 167 
Q 2456 0 2056 0 
Q 1588 0 1175 233 
Q 763 466 538 859 
Q 313 1253 313 1725 
Q 313 2197 547 2605 
Q 781 3013 1195 3250 
Q 1609 3488 2069 3488 
Q 2450 3488 2779 3330 
Q 3109 3172 3416 2809 
L 3416 3400 
z
M 2125 3066 
Q 1753 3066 1434 2886 
Q 1116 2706 934 2389 
Q 753 2072 753 1703 
Q 753 1144 1128 778 
Q 1503 413 2100 413 
Q 2703 413 3070 775 
Q 3438 1138 3438 1728 
Q 3438 2113 3269 2414 
Q 3100 2716 2790 2891 
Q 2481 3066 2125 3066 
z
" transform="scale(0.015625)"/>
        <path id="CenturyGothic-6f" d="M 2097 3488 
Q 2881 3488 3397 2919 
Q 3866 2400 3866 1691 
Q 3866 978 3370 445 
Q 2875 -88 2097 -88 
Q 1316 -88 820 445 
Q 325 978 325 1691 
Q 325 2397 794 2916 
Q 1309 3488 2097 3488 
z
M 2097 3059 
Q 1553 3059 1162 2656 
Q 772 2253 772 1681 
Q 772 1313 950 994 
Q 1128 675 1431 501 
Q 1734 328 2097 328 
Q 2459 328 2762 501 
Q 3066 675 3244 994 
Q 3422 1313 3422 1681 
Q 3422 2253 3030 2656 
Q 2638 3059 2097 3059 
z
" transform="scale(0.015625)"/>
       </defs>
       <use xlink:href="#CenturyGothic-32"/>
       <use xlink:href="#CenturyGothic-30" x="55.419922"/>
       <use xlink:href="#CenturyGothic-2d" x="110.839844"/>
       <use xlink:href="#CenturyGothic-41" x="144.042969"/>
       <use xlink:href="#CenturyGothic-67" x="218.017578"/>
       <use xlink:href="#CenturyGothic-6f" x="285.302734"/>
      </g>
     </g>
    </g>
    <g id="xtick_9">
     <g id="line2d_9">
      <g>
       <use xlink:href="#m63c72e580d" x="220.129916" y="117.896182" style="fill: #262626; stroke: #262626; stroke-width: 0.5"/>
      </g>
     </g>
     <g id="text_9">
      <!-- 23-Sep -->
      <g style="fill: #262626" transform="translate(222.027025 149.290557) rotate(-90) scale(0.07 -0.07)">
       <defs>
        <path id="CenturyGothic-53" d="M 84 856 
L 475 1091 
Q 888 331 1428 331 
Q 1659 331 1862 439 
Q 2066 547 2172 728 
Q 2278 909 2278 1113 
Q 2278 1344 2122 1566 
Q 1906 1872 1334 2303 
Q 759 2738 619 2931 
Q 375 3256 375 3634 
Q 375 3934 519 4181 
Q 663 4428 923 4570 
Q 1184 4713 1491 4713 
Q 1816 4713 2098 4552 
Q 2381 4391 2697 3959 
L 2322 3675 
Q 2063 4019 1880 4128 
Q 1697 4238 1481 4238 
Q 1203 4238 1026 4069 
Q 850 3900 850 3653 
Q 850 3503 912 3362 
Q 975 3222 1141 3056 
Q 1231 2969 1734 2597 
Q 2331 2156 2553 1812 
Q 2775 1469 2775 1122 
Q 2775 622 2395 253 
Q 2016 -116 1472 -116 
Q 1053 -116 712 107 
Q 372 331 84 856 
z
" transform="scale(0.015625)"/>
        <path id="CenturyGothic-70" d="M 494 3400 
L 928 3400 
L 928 2775 
Q 1188 3131 1525 3309 
Q 1863 3488 2278 3488 
Q 3003 3488 3518 2966 
Q 4034 2444 4034 1709 
Q 4034 959 3523 435 
Q 3013 -88 2291 -88 
Q 1884 -88 1543 81 
Q 1203 250 928 584 
L 928 -1244 
L 494 -1244 
L 494 3400 
z
M 2244 3066 
Q 1675 3066 1286 2669 
Q 897 2272 897 1681 
Q 897 1294 1070 984 
Q 1244 675 1567 494 
Q 1891 313 2250 313 
Q 2603 313 2914 495 
Q 3225 678 3409 1006 
Q 3594 1334 3594 1694 
Q 3594 2056 3411 2381 
Q 3228 2706 2918 2886 
Q 2609 3066 2244 3066 
z
" transform="scale(0.015625)"/>
       </defs>
       <use xlink:href="#CenturyGothic-32"/>
       <use xlink:href="#CenturyGothic-33" x="55.419922"/>
       <use xlink:href="#CenturyGothic-2d" x="110.839844"/>
       <use xlink:href="#CenturyGothic-53" x="144.042969"/>
       <use xlink:href="#CenturyGothic-65" x="193.847656"/>
       <use xlink:href="#CenturyGothic-70" x="258.837891"/>
      </g>
     </g>
    </g>
    <g id="xtick_10">
     <g id="line2d_10">
      <g>
       <use xlink:href="#m63c72e580d" x="246.482157" y="117.896182" style="fill: #262626; stroke: #262626; stroke-width: 0.5"/>
      </g>
     </g>
     <g id="text_10">
      <!-- 24-Oct -->
      <g style="fill: #262626" transform="translate(248.379266 149.465557) rotate(-90) scale(0.07 -0.07)">
       <defs>
        <path id="CenturyGothic-34" d="M 2725 4713 
L 2819 4713 
L 2819 1509 
L 3375 1509 
L 3375 1069 
L 2819 1069 
L 2819 0 
L 2359 0 
L 2359 1069 
L 163 1069 
L 2725 4713 
z
M 2359 1509 
L 2359 3425 
L 1006 1509 
L 2359 1509 
z
" transform="scale(0.015625)"/>
        <path id="CenturyGothic-4f" d="M 2750 4713 
Q 3794 4713 4497 4016 
Q 5200 3319 5200 2300 
Q 5200 1291 4498 587 
Q 3797 -116 2788 -116 
Q 1766 -116 1062 584 
Q 359 1284 359 2278 
Q 359 2941 679 3506 
Q 1000 4072 1553 4392 
Q 2106 4713 2750 4713 
z
M 2772 4263 
Q 2263 4263 1806 3997 
Q 1350 3731 1094 3281 
Q 838 2831 838 2278 
Q 838 1459 1405 895 
Q 1972 331 2772 331 
Q 3306 331 3761 590 
Q 4216 850 4470 1300 
Q 4725 1750 4725 2300 
Q 4725 2847 4470 3289 
Q 4216 3731 3753 3997 
Q 3291 4263 2772 4263 
z
" transform="scale(0.015625)"/>
        <path id="CenturyGothic-74" d="M 869 4663 
L 1309 4663 
L 1309 3400 
L 2003 3400 
L 2003 3025 
L 1309 3025 
L 1309 0 
L 869 0 
L 869 3025 
L 272 3025 
L 272 3400 
L 869 3400 
L 869 4663 
z
" transform="scale(0.015625)"/>
       </defs>
       <use xlink:href="#CenturyGothic-32"/>
       <use xlink:href="#CenturyGothic-34" x="55.419922"/>
       <use xlink:href="#CenturyGothic-2d" x="110.839844"/>
       <use xlink:href="#CenturyGothic-4f" x="144.042969"/>
       <use xlink:href="#CenturyGothic-63" x="230.957031"/>
       <use xlink:href="#CenturyGothic-74" x="295.654297"/>
      </g>
     </g>
    </g>
    <g id="xtick_11">
     <g id="line2d_11">
      <g>
       <use xlink:href="#m63c72e580d" x="272.834398" y="117.896182" style="fill: #262626; stroke: #262626; stroke-width: 0.5"/>
      </g>
     </g>
     <g id="text_11">
      <!-- 26-Nov -->
      <g style="fill: #262626" transform="translate(274.731508 150.120713) rotate(-90) scale(0.07 -0.07)">
       <defs>
        <path id="CenturyGothic-4e" d="M 563 0 
L 563 4597 
L 663 4597 
L 3719 1078 
L 3719 4597 
L 4172 4597 
L 4172 0 
L 4069 0 
L 1038 3475 
L 1038 0 
L 563 0 
z
" transform="scale(0.015625)"/>
        <path id="CenturyGothic-76" d="M 166 3400 
L 631 3400 
L 1769 925 
L 2897 3400 
L 3366 3400 
L 1809 0 
L 1731 0 
L 166 3400 
z
" transform="scale(0.015625)"/>
       </defs>
       <use xlink:href="#CenturyGothic-32"/>
       <use xlink:href="#CenturyGothic-36" x="55.419922"/>
       <use xlink:href="#CenturyGothic-2d" x="110.839844"/>
       <use xlink:href="#CenturyGothic-4e" x="144.042969"/>
       <use xlink:href="#CenturyGothic-6f" x="218.017578"/>
       <use xlink:href="#CenturyGothic-76" x="283.496094"/>
      </g>
     </g>
    </g>
    <g id="xtick_12">
     <g id="line2d_12">
      <g>
       <use xlink:href="#m63c72e580d" x="299.18664" y="117.896182" style="fill: #262626; stroke: #262626; stroke-width: 0.5"/>
      </g>
     </g>
     <g id="text_12">
      <!-- 31-Dic -->
      <g style="fill: #262626" transform="translate(301.083749 147.619307) rotate(-90) scale(0.07 -0.07)">
       <use xlink:href="#CenturyGothic-33"/>
       <use xlink:href="#CenturyGothic-31" x="55.419922"/>
       <use xlink:href="#CenturyGothic-2d" x="110.839844"/>
       <use xlink:href="#CenturyGothic-44" x="144.042969"/>
       <use xlink:href="#CenturyGothic-69" x="218.457031"/>
       <use xlink:href="#CenturyGothic-63" x="238.476562"/>
      </g>
     </g>
    </g>
   </g>
   <g id="matplotlib.axis_2">
    <g id="ytick_1">
     <g id="line2d_13">
      <defs>
       <path id="m57bb80a6cd" d="M 0 0 
L 6 0 
" style="stroke: #262626; stroke-width: 0.5"/>
      </defs>
      <g>
       <use xlink:href="#m57bb80a6cd" x="313.623085" y="117.442957" style="fill: #262626; stroke: #262626; stroke-width: 0.5"/>
      </g>
     </g>
     <g id="text_13">
      <!-- 3000 -->
      <g style="fill: #262626" transform="translate(323.123085 120.020379) scale(0.07 -0.07)">
       <use xlink:href="#CenturyGothic-33"/>
       <use xlink:href="#CenturyGothic-30" x="55.419922"/>
       <use xlink:href="#CenturyGothic-30" x="110.839844"/>
       <use xlink:href="#CenturyGothic-30" x="166.259766"/>
      </g>
     </g>
    </g>
    <g id="ytick_2">
     <g id="line2d_14">
      <g>
       <use xlink:href="#m57bb80a6cd" x="313.623085" y="95.90985" style="fill: #262626; stroke: #262626; stroke-width: 0.5"/>
      </g>
     </g>
     <g id="text_14">
      <!-- 4000 -->
      <g style="fill: #262626" transform="translate(323.123085 98.487272) scale(0.07 -0.07)">
       <use xlink:href="#CenturyGothic-34"/>
       <use xlink:href="#CenturyGothic-30" x="55.419922"/>
       <use xlink:href="#CenturyGothic-30" x="110.839844"/>
       <use xlink:href="#CenturyGothic-30" x="166.259766"/>
      </g>
     </g>
    </g>
    <g id="ytick_3">
     <g id="line2d_15">
      <g>
       <use xlink:href="#m57bb80a6cd" x="313.623085" y="74.376743" style="fill: #262626; stroke: #262626; stroke-width: 0.5"/>
      </g>
     </g>
     <g id="text_15">
      <!-- 5000 -->
      <g style="fill: #262626" transform="translate(323.123085 76.954165) scale(0.07 -0.07)">
       <defs>
        <path id="CenturyGothic-35" d="M 3147 4597 
L 3147 4159 
L 1509 4159 
L 1281 2906 
Q 1581 2994 1822 2994 
Q 2450 2994 2858 2573 
Q 3266 2153 3266 1497 
Q 3266 1044 3056 666 
Q 2847 288 2489 86 
Q 2131 -116 1663 -116 
Q 1103 -116 718 226 
Q 334 569 259 1113 
L 731 1113 
Q 784 847 911 681 
Q 1038 516 1248 414 
Q 1459 313 1691 313 
Q 2144 313 2469 656 
Q 2794 1000 2794 1516 
Q 2794 1981 2500 2272 
Q 2206 2563 1716 2563 
Q 1309 2563 731 2316 
L 1156 4597 
L 3147 4597 
z
" transform="scale(0.015625)"/>
       </defs>
       <use xlink:href="#CenturyGothic-35"/>
       <use xlink:href="#CenturyGothic-30" x="55.419922"/>
       <use xlink:href="#CenturyGothic-30" x="110.839844"/>
       <use xlink:href="#CenturyGothic-30" x="166.259766"/>
      </g>
     </g>
    </g>
    <g id="ytick_4">
     <g id="line2d_16">
      <g>
       <use xlink:href="#m57bb80a6cd" x="313.623085" y="52.843636" style="fill: #262626; stroke: #262626; stroke-width: 0.5"/>
      </g>
     </g>
     <g id="text_16">
      <!-- 6000 -->
      <g style="fill: #262626" transform="translate(323.123085 55.421058) scale(0.07 -0.07)">
       <use xlink:href="#CenturyGothic-36"/>
       <use xlink:href="#CenturyGothic-30" x="55.419922"/>
       <use xlink:href="#CenturyGothic-30" x="110.839844"/>
       <use xlink:href="#CenturyGothic-30" x="166.259766"/>
      </g>
     </g>
    </g>
    <g id="ytick_5">
     <g id="line2d_17">
      <g>
       <use xlink:href="#m57bb80a6cd" x="313.623085" y="31.310529" style="fill: #262626; stroke: #262626; stroke-width: 0.5"/>
      </g>
     </g>
     <g id="text_17">
      <!-- 7000 -->
      <g style="fill: #262626" transform="translate(323.123085 33.887951) scale(0.07 -0.07)">
       <defs>
        <path id="CenturyGothic-37" d="M 459 4597 
L 3375 4597 
L 916 -116 
L 538 78 
L 2663 4163 
L 459 4163 
L 459 4597 
z
" transform="scale(0.015625)"/>
       </defs>
       <use xlink:href="#CenturyGothic-37"/>
       <use xlink:href="#CenturyGothic-30" x="55.419922"/>
       <use xlink:href="#CenturyGothic-30" x="110.839844"/>
       <use xlink:href="#CenturyGothic-30" x="166.259766"/>
      </g>
     </g>
    </g>
    <g id="ytick_6">
     <g id="line2d_18">
      <g>
       <use xlink:href="#m57bb80a6cd" x="313.623085" y="9.777422" style="fill: #262626; stroke: #262626; stroke-width: 0.5"/>
      </g>
     </g>
     <g id="text_18">
      <!-- 8000 -->
      <g style="fill: #262626" transform="translate(323.123085 12.354844) scale(0.07 -0.07)">
       <use xlink:href="#CenturyGothic-38"/>
       <use xlink:href="#CenturyGothic-30" x="55.419922"/>
       <use xlink:href="#CenturyGothic-30" x="110.839844"/>
       <use xlink:href="#CenturyGothic-30" x="166.259766"/>
      </g>
     </g>
    </g>
   </g>
   <g id="PolyCollection_1">
    <defs>
     <path id="m8a3e68eaee" d="M 10.457734 -79.31332 
L 10.457734 -79.31332 
L 11.603484 -76.878064 
L 12.749234 -75.686135 
L 13.894983 -74.722554 
L 15.040733 -73.927291 
L 16.186482 -73.23745 
L 17.332232 -72.606756 
L 18.477982 -72.072992 
L 19.623731 -71.556683 
L 20.769481 -71.074876 
L 21.915231 -70.65191 
L 23.06098 -70.230914 
L 24.20673 -69.906351 
L 25.352479 -69.503965 
L 26.498229 -69.161902 
L 27.643979 -68.834011 
L 28.789728 -68.499658 
L 29.935478 -68.219425 
L 31.081228 -67.932747 
L 32.226977 -67.65209 
L 33.372727 -67.35212 
L 34.518476 -67.084335 
L 35.664226 -66.800989 
L 36.809976 -66.601149 
L 37.955725 -66.385778 
L 39.101475 -66.167879 
L 40.247225 -65.881815 
L 41.392974 -65.69775 
L 42.538724 -65.491715 
L 43.684473 -65.228004 
L 44.830223 -65.007354 
L 45.975973 -64.769197 
L 47.121722 -64.527595 
L 48.267472 -64.355493 
L 49.413222 -64.102122 
L 50.558971 -63.90517 
L 51.704721 -63.708494 
L 52.85047 -63.465569 
L 53.99622 -63.260353 
L 55.14197 -63.143605 
L 56.287719 -62.933142 
L 57.433469 -62.765323 
L 58.579219 -62.554308 
L 59.724968 -62.455616 
L 60.870718 -62.296032 
L 62.016467 -62.102441 
L 63.162217 -61.902219 
L 64.307967 -61.726342 
L 65.453716 -61.612183 
L 66.599466 -61.410126 
L 67.745216 -61.181761 
L 68.890965 -61.057494 
L 70.036715 -60.965748 
L 71.182464 -60.844456 
L 72.328214 -60.643226 
L 73.473964 -60.53616 
L 74.619713 -60.437715 
L 75.765463 -60.270139 
L 76.911213 -60.119309 
L 78.056962 -59.995012 
L 79.202712 -59.845728 
L 80.348461 -59.701087 
L 81.494211 -59.597294 
L 82.639961 -59.471484 
L 83.78571 -59.314165 
L 84.93146 -59.2074 
L 86.07721 -59.017303 
L 87.222959 -58.926486 
L 88.368709 -58.787213 
L 89.514458 -58.674123 
L 90.660208 -58.599115 
L 91.805958 -58.518469 
L 92.951707 -58.390607 
L 94.097457 -58.265478 
L 95.243207 -58.143195 
L 96.388956 -57.992259 
L 97.534706 -57.935379 
L 98.680455 -57.814479 
L 99.826205 -57.631533 
L 100.971955 -57.486175 
L 102.117704 -57.407272 
L 103.263454 -57.240329 
L 104.409204 -57.192191 
L 105.554953 -57.108301 
L 106.700703 -56.920242 
L 107.846452 -56.832531 
L 108.992202 -56.685571 
L 110.137952 -56.595365 
L 111.283701 -56.520573 
L 112.429451 -56.419739 
L 113.575201 -56.271422 
L 114.72095 -56.15755 
L 115.8667 -56.063405 
L 117.012449 -55.959196 
L 118.158199 -55.873153 
L 119.303949 -55.772384 
L 120.449698 -55.619046 
L 121.595448 -55.506579 
L 122.741198 -55.417696 
L 123.886947 -55.348653 
L 125.032697 -55.286748 
L 126.178446 -55.166988 
L 127.324196 -55.060463 
L 128.469946 -54.903317 
L 129.615695 -54.772767 
L 130.761445 -54.661754 
L 131.907195 -54.610439 
L 133.052944 -54.496498 
L 134.198694 -54.48747 
L 135.344443 -54.390171 
L 136.490193 -54.283137 
L 137.635943 -54.112012 
L 138.781692 -54.025215 
L 139.927442 -53.967254 
L 141.073192 -53.785517 
L 142.218941 -53.718594 
L 143.364691 -53.659328 
L 144.51044 -53.56029 
L 145.65619 -53.474356 
L 146.80194 -53.418337 
L 147.947689 -53.29778 
L 149.093439 -53.183482 
L 150.239189 -53.125562 
L 151.384938 -53.034765 
L 152.530688 -52.952466 
L 153.676437 -52.89603 
L 154.822187 -52.768692 
L 155.967937 -52.663582 
L 157.113686 -52.652518 
L 158.259436 -52.521778 
L 159.405186 -52.478098 
L 160.550935 -52.397312 
L 161.696685 -52.288438 
L 162.842434 -52.248072 
L 163.988184 -52.146235 
L 165.133934 -52.08721 
L 166.279683 -52.023094 
L 167.425433 -51.897597 
L 168.571183 -51.847115 
L 169.716932 -51.731259 
L 170.862682 -51.667004 
L 172.008431 -51.547271 
L 173.154181 -51.512639 
L 174.299931 -51.430047 
L 175.44568 -51.378436 
L 176.59143 -51.298284 
L 177.73718 -51.223417 
L 178.882929 -51.253077 
L 180.028679 -51.151637 
L 181.174428 -51.003529 
L 182.320178 -50.934233 
L 183.465928 -50.806966 
L 184.611677 -50.73573 
L 185.757427 -50.683713 
L 186.903177 -50.571338 
L 188.048926 -50.459821 
L 189.194676 -50.392238 
L 190.340425 -50.333844 
L 191.486175 -50.315306 
L 192.631925 -50.227622 
L 193.777674 -50.10715 
L 194.923424 -50.066966 
L 196.069174 -49.999873 
L 197.214923 -49.927738 
L 198.360673 -49.881661 
L 199.506422 -49.783383 
L 200.652172 -49.682886 
L 201.797922 -49.591859 
L 202.943671 -49.501602 
L 204.089421 -49.412178 
L 205.235171 -49.401364 
L 206.38092 -49.333295 
L 207.52667 -49.185992 
L 208.672419 -49.096292 
L 209.818169 -49.060562 
L 210.963919 -49.04948 
L 212.109668 -48.887085 
L 213.255418 -48.844101 
L 214.401168 -48.78981 
L 215.546917 -48.699407 
L 216.692667 -48.63112 
L 217.838416 -48.60675 
L 218.984166 -48.598256 
L 220.129916 -48.500186 
L 221.275665 -48.469673 
L 222.421415 -48.372073 
L 223.567165 -48.262918 
L 224.712914 -48.11067 
L 225.858664 -48.052347 
L 227.004413 -47.998786 
L 228.150163 -47.917515 
L 229.295913 -47.802689 
L 230.441662 -47.767875 
L 231.587412 -47.712117 
L 232.733162 -47.71674 
L 233.878911 -47.650667 
L 235.024661 -47.606977 
L 236.17041 -47.62001 
L 237.31616 -47.538924 
L 238.46191 -47.453971 
L 239.607659 -47.364002 
L 240.753409 -47.283132 
L 241.899159 -47.300719 
L 243.044908 -47.270477 
L 244.190658 -47.185483 
L 245.336407 -47.139316 
L 246.482157 -47.044103 
L 247.627907 -46.998746 
L 248.773656 -46.940192 
L 249.919406 -46.799442 
L 251.065156 -46.785799 
L 252.210905 -46.636541 
L 253.356655 -46.617111 
L 254.502404 -46.614842 
L 255.648154 -46.51475 
L 256.793904 -46.44611 
L 257.939653 -46.398671 
L 259.085403 -46.31863 
L 260.231153 -46.270322 
L 261.376902 -46.222088 
L 262.522652 -46.21557 
L 263.668401 -46.155957 
L 264.814151 -46.090815 
L 265.959901 -45.943581 
L 267.10565 -45.938558 
L 268.2514 -45.895341 
L 269.39715 -45.839393 
L 270.542899 -45.811345 
L 271.688649 -45.751017 
L 272.834398 -45.787067 
L 273.980148 -45.648135 
L 275.125898 -45.624458 
L 276.271647 -45.541901 
L 277.417397 -45.452703 
L 278.563147 -45.396295 
L 279.708896 -45.315306 
L 280.854646 -45.214759 
L 282.000395 -45.170527 
L 283.146145 -45.164348 
L 284.291895 -45.075437 
L 285.437644 -44.992754 
L 286.583394 -44.918436 
L 287.729144 -44.857173 
L 288.874893 -44.85928 
L 290.020643 -44.757741 
L 291.166392 -44.704203 
L 292.312142 -44.677091 
L 293.457892 -44.574072 
L 294.603641 -44.584173 
L 295.749391 -44.512491 
L 296.89514 -44.527803 
L 298.04089 -44.474099 
L 299.18664 -44.385619 
L 299.18664 -139.620133 
L 299.18664 -139.620133 
L 298.04089 -139.438263 
L 296.89514 -139.26163 
L 295.749391 -139.120363 
L 294.603641 -139.138337 
L 293.457892 -138.937974 
L 292.312142 -138.935781 
L 291.166392 -138.859827 
L 290.020643 -138.64804 
L 288.874893 -138.401818 
L 287.729144 -138.311805 
L 286.583394 -138.168779 
L 285.437644 -138.055811 
L 284.291895 -137.876181 
L 283.146145 -137.73152 
L 282.000395 -137.402736 
L 280.854646 -137.318713 
L 279.708896 -137.023452 
L 278.563147 -137.093346 
L 277.417397 -136.853638 
L 276.271647 -136.724254 
L 275.125898 -136.567416 
L 273.980148 -136.359888 
L 272.834398 -136.163672 
L 271.688649 -135.733346 
L 270.542899 -135.844204 
L 269.39715 -135.596639 
L 268.2514 -135.497812 
L 267.10565 -135.437051 
L 265.959901 -135.220077 
L 264.814151 -135.001112 
L 263.668401 -134.832915 
L 262.522652 -134.730472 
L 261.376902 -134.498715 
L 260.231153 -134.409962 
L 259.085403 -134.221973 
L 257.939653 -134.04014 
L 256.793904 -134.099006 
L 255.648154 -133.839846 
L 254.502404 -133.60742 
L 253.356655 -133.412902 
L 252.210905 -133.463979 
L 251.065156 -133.237249 
L 249.919406 -133.115978 
L 248.773656 -133.071318 
L 247.627907 -132.833041 
L 246.482157 -132.582238 
L 245.336407 -132.323713 
L 244.190658 -132.112317 
L 243.044908 -131.801742 
L 241.899159 -131.663456 
L 240.753409 -131.386826 
L 239.607659 -131.261166 
L 238.46191 -131.195631 
L 237.31616 -131.035068 
L 236.17041 -130.761126 
L 235.024661 -130.636622 
L 233.878911 -130.56295 
L 232.733162 -130.253845 
L 231.587412 -130.261485 
L 230.441662 -129.9731 
L 229.295913 -129.905632 
L 228.150163 -129.655138 
L 227.004413 -129.485382 
L 225.858664 -129.33808 
L 224.712914 -129.173977 
L 223.567165 -129.151067 
L 222.421415 -128.984443 
L 221.275665 -128.771604 
L 220.129916 -128.511874 
L 218.984166 -128.384938 
L 217.838416 -128.232521 
L 216.692667 -128.017334 
L 215.546917 -127.744199 
L 214.401168 -127.490967 
L 213.255418 -127.307426 
L 212.109668 -127.287795 
L 210.963919 -127.011666 
L 209.818169 -126.869709 
L 208.672419 -126.683803 
L 207.52667 -126.467237 
L 206.38092 -126.356776 
L 205.235171 -126.203812 
L 204.089421 -126.031728 
L 202.943671 -125.814309 
L 201.797922 -125.602373 
L 200.652172 -125.467521 
L 199.506422 -125.259715 
L 198.360673 -125.118427 
L 197.214923 -124.942976 
L 196.069174 -124.701051 
L 194.923424 -124.60898 
L 193.777674 -124.338381 
L 192.631925 -124.295373 
L 191.486175 -124.015668 
L 190.340425 -123.866068 
L 189.194676 -123.575878 
L 188.048926 -123.365839 
L 186.903177 -123.189161 
L 185.757427 -123.161331 
L 184.611677 -122.858002 
L 183.465928 -122.789352 
L 182.320178 -122.465281 
L 181.174428 -122.363765 
L 180.028679 -122.199585 
L 178.882929 -121.989632 
L 177.73718 -121.805123 
L 176.59143 -121.623281 
L 175.44568 -121.480824 
L 174.299931 -121.288019 
L 173.154181 -121.063294 
L 172.008431 -120.856183 
L 170.862682 -120.71651 
L 169.716932 -120.502509 
L 168.571183 -120.334434 
L 167.425433 -120.195041 
L 166.279683 -120.163559 
L 165.133934 -120.117054 
L 163.988184 -119.839431 
L 162.842434 -119.575319 
L 161.696685 -119.362999 
L 160.550935 -119.16952 
L 159.405186 -118.92098 
L 158.259436 -118.659976 
L 157.113686 -118.457617 
L 155.967937 -118.365513 
L 154.822187 -118.095941 
L 153.676437 -117.907836 
L 152.530688 -117.74231 
L 151.384938 -117.535109 
L 150.239189 -117.309819 
L 149.093439 -117.105975 
L 147.947689 -116.900187 
L 146.80194 -116.739949 
L 145.65619 -116.610681 
L 144.51044 -116.451757 
L 143.364691 -116.303183 
L 142.218941 -116.098151 
L 141.073192 -115.868395 
L 139.927442 -115.785838 
L 138.781692 -115.516584 
L 137.635943 -115.222138 
L 136.490193 -115.042089 
L 135.344443 -114.765895 
L 134.198694 -114.617808 
L 133.052944 -114.51174 
L 131.907195 -114.301981 
L 130.761445 -114.148029 
L 129.615695 -113.930207 
L 128.469946 -113.699313 
L 127.324196 -113.565316 
L 126.178446 -113.421643 
L 125.032697 -113.203225 
L 123.886947 -113.061582 
L 122.741198 -112.77637 
L 121.595448 -112.637242 
L 120.449698 -112.380535 
L 119.303949 -112.090663 
L 118.158199 -111.849368 
L 117.012449 -111.682031 
L 115.8667 -111.415441 
L 114.72095 -111.277048 
L 113.575201 -111.059086 
L 112.429451 -110.76033 
L 111.283701 -110.611131 
L 110.137952 -110.448249 
L 108.992202 -110.198544 
L 107.846452 -110.013743 
L 106.700703 -109.802523 
L 105.554953 -109.573926 
L 104.409204 -109.383756 
L 103.263454 -109.149067 
L 102.117704 -108.950968 
L 100.971955 -108.784855 
L 99.826205 -108.623816 
L 98.680455 -108.387345 
L 97.534706 -108.10418 
L 96.388956 -107.990498 
L 95.243207 -107.645638 
L 94.097457 -107.436171 
L 92.951707 -107.091345 
L 91.805958 -107.008027 
L 90.660208 -106.758727 
L 89.514458 -106.48903 
L 88.368709 -106.368399 
L 87.222959 -106.074996 
L 86.07721 -105.816095 
L 84.93146 -105.560352 
L 83.78571 -105.281144 
L 82.639961 -105.068132 
L 81.494211 -104.752597 
L 80.348461 -104.566011 
L 79.202712 -104.339418 
L 78.056962 -104.121049 
L 76.911213 -103.876753 
L 75.765463 -103.623806 
L 74.619713 -103.277237 
L 73.473964 -103.098666 
L 72.328214 -102.801521 
L 71.182464 -102.535608 
L 70.036715 -102.267546 
L 68.890965 -102.040202 
L 67.745216 -101.816326 
L 66.599466 -101.459993 
L 65.453716 -101.197841 
L 64.307967 -100.959059 
L 63.162217 -100.704999 
L 62.016467 -100.47706 
L 60.870718 -100.177955 
L 59.724968 -99.856929 
L 58.579219 -99.613364 
L 57.433469 -99.357777 
L 56.287719 -99.130565 
L 55.14197 -98.832105 
L 53.99622 -98.48799 
L 52.85047 -98.204216 
L 51.704721 -97.932525 
L 50.558971 -97.651353 
L 49.413222 -97.304703 
L 48.267472 -97.024672 
L 47.121722 -96.755963 
L 45.975973 -96.446201 
L 44.830223 -96.156158 
L 43.684473 -95.815553 
L 42.538724 -95.461873 
L 41.392974 -95.159023 
L 40.247225 -94.802531 
L 39.101475 -94.490355 
L 37.955725 -94.144278 
L 36.809976 -93.818261 
L 35.664226 -93.44381 
L 34.518476 -93.074338 
L 33.372727 -92.748301 
L 32.226977 -92.387541 
L 31.081228 -91.962977 
L 29.935478 -91.598979 
L 28.789728 -91.206911 
L 27.643979 -90.765982 
L 26.498229 -90.326785 
L 25.352479 -89.899698 
L 24.20673 -89.409342 
L 23.06098 -88.916451 
L 21.915231 -88.444642 
L 20.769481 -87.900268 
L 19.623731 -87.392872 
L 18.477982 -86.813404 
L 17.332232 -86.157525 
L 16.186482 -85.512975 
L 15.040733 -84.770903 
L 13.894983 -83.934483 
L 12.749234 -82.987443 
L 11.603484 -81.816729 
L 10.457734 -79.31332 
z
" style="stroke: #c6dbef; stroke-opacity: 0.8"/>
    </defs>
    <g clip-path="url(#p37c97684ae)">
     <use xlink:href="#m8a3e68eaee" x="0" y="158.646338" style="fill: #c6dbef; fill-opacity: 0.8; stroke: #c6dbef; stroke-opacity: 0.8"/>
    </g>
   </g>
   <g id="PolyCollection_2">
    <defs>
     <path id="m55e4ee873a" d="M 10.457734 -79.31332 
L 10.457734 -79.31332 
L 11.603484 -78.389129 
L 12.749234 -77.991248 
L 13.894983 -77.670996 
L 15.040733 -77.385977 
L 16.186482 -77.132429 
L 17.332232 -76.910605 
L 18.477982 -76.703489 
L 19.623731 -76.489891 
L 20.769481 -76.303289 
L 21.915231 -76.131755 
L 23.06098 -75.948423 
L 24.20673 -75.790595 
L 25.352479 -75.653727 
L 26.498229 -75.50267 
L 27.643979 -75.362193 
L 28.789728 -75.235607 
L 29.935478 -75.12076 
L 31.081228 -74.979456 
L 32.226977 -74.85305 
L 33.372727 -74.749022 
L 34.518476 -74.647865 
L 35.664226 -74.511634 
L 36.809976 -74.42823 
L 37.955725 -74.294659 
L 39.101475 -74.213788 
L 40.247225 -74.141301 
L 41.392974 -74.02663 
L 42.538724 -73.960539 
L 43.684473 -73.855117 
L 44.830223 -73.735347 
L 45.975973 -73.65921 
L 47.121722 -73.561041 
L 48.267472 -73.486123 
L 49.413222 -73.388853 
L 50.558971 -73.308207 
L 51.704721 -73.212047 
L 52.85047 -73.120886 
L 53.99622 -73.042168 
L 55.14197 -72.991263 
L 56.287719 -72.87572 
L 57.433469 -72.771533 
L 58.579219 -72.702822 
L 59.724968 -72.66558 
L 60.870718 -72.60517 
L 62.016467 -72.568663 
L 63.162217 -72.452691 
L 64.307967 -72.406273 
L 65.453716 -72.329977 
L 66.599466 -72.269128 
L 67.745216 -72.196016 
L 68.890965 -72.126302 
L 70.036715 -72.072362 
L 71.182464 -71.991874 
L 72.328214 -71.940105 
L 73.473964 -71.87222 
L 74.619713 -71.819629 
L 75.765463 -71.726724 
L 76.911213 -71.668671 
L 78.056962 -71.606512 
L 79.202712 -71.553142 
L 80.348461 -71.490402 
L 81.494211 -71.402904 
L 82.639961 -71.376599 
L 83.78571 -71.311387 
L 84.93146 -71.257874 
L 86.07721 -71.206392 
L 87.222959 -71.15456 
L 88.368709 -71.10548 
L 89.514458 -71.067613 
L 90.660208 -71.00824 
L 91.805958 -70.953922 
L 92.951707 -70.903654 
L 94.097457 -70.850494 
L 95.243207 -70.808199 
L 96.388956 -70.766295 
L 97.534706 -70.687904 
L 98.680455 -70.63898 
L 99.826205 -70.597221 
L 100.971955 -70.542089 
L 102.117704 -70.439859 
L 103.263454 -70.377246 
L 104.409204 -70.333699 
L 105.554953 -70.27232 
L 106.700703 -70.250621 
L 107.846452 -70.197634 
L 108.992202 -70.167714 
L 110.137952 -70.088419 
L 111.283701 -70.038774 
L 112.429451 -69.972896 
L 113.575201 -69.939139 
L 114.72095 -69.892502 
L 115.8667 -69.825692 
L 117.012449 -69.834694 
L 118.158199 -69.81236 
L 119.303949 -69.75675 
L 120.449698 -69.73589 
L 121.595448 -69.670057 
L 122.741198 -69.634546 
L 123.886947 -69.567362 
L 125.032697 -69.530746 
L 126.178446 -69.500859 
L 127.324196 -69.465121 
L 128.469946 -69.478703 
L 129.615695 -69.448558 
L 130.761445 -69.328111 
L 131.907195 -69.276811 
L 133.052944 -69.265042 
L 134.198694 -69.180112 
L 135.344443 -69.161625 
L 136.490193 -69.115019 
L 137.635943 -69.092889 
L 138.781692 -69.030241 
L 139.927442 -69.017054 
L 141.073192 -68.995254 
L 142.218941 -68.93131 
L 143.364691 -68.869183 
L 144.51044 -68.811409 
L 145.65619 -68.787855 
L 146.80194 -68.711387 
L 147.947689 -68.687288 
L 149.093439 -68.683136 
L 150.239189 -68.649394 
L 151.384938 -68.61154 
L 152.530688 -68.569687 
L 153.676437 -68.533426 
L 154.822187 -68.507554 
L 155.967937 -68.455435 
L 157.113686 -68.389158 
L 158.259436 -68.355287 
L 159.405186 -68.337814 
L 160.550935 -68.33067 
L 161.696685 -68.304806 
L 162.842434 -68.26052 
L 163.988184 -68.263386 
L 165.133934 -68.223094 
L 166.279683 -68.18543 
L 167.425433 -68.175739 
L 168.571183 -68.119471 
L 169.716932 -68.118077 
L 170.862682 -68.105295 
L 172.008431 -68.033078 
L 173.154181 -67.977582 
L 174.299931 -67.961281 
L 175.44568 -67.898571 
L 176.59143 -67.85393 
L 177.73718 -67.839864 
L 178.882929 -67.796451 
L 180.028679 -67.754778 
L 181.174428 -67.668679 
L 182.320178 -67.633778 
L 183.465928 -67.611142 
L 184.611677 -67.585034 
L 185.757427 -67.58732 
L 186.903177 -67.553493 
L 188.048926 -67.469598 
L 189.194676 -67.447564 
L 190.340425 -67.370121 
L 191.486175 -67.305472 
L 192.631925 -67.280762 
L 193.777674 -67.283796 
L 194.923424 -67.249053 
L 196.069174 -67.239396 
L 197.214923 -67.162751 
L 198.360673 -67.145309 
L 199.506422 -67.122606 
L 200.652172 -67.111345 
L 201.797922 -67.086804 
L 202.943671 -67.045493 
L 204.089421 -67.03272 
L 205.235171 -66.980638 
L 206.38092 -66.966993 
L 207.52667 -66.89376 
L 208.672419 -66.879932 
L 209.818169 -66.868459 
L 210.963919 -66.829339 
L 212.109668 -66.780588 
L 213.255418 -66.776693 
L 214.401168 -66.723931 
L 215.546917 -66.704792 
L 216.692667 -66.677036 
L 217.838416 -66.697066 
L 218.984166 -66.69311 
L 220.129916 -66.717004 
L 221.275665 -66.687331 
L 222.421415 -66.616816 
L 223.567165 -66.561453 
L 224.712914 -66.542723 
L 225.858664 -66.49852 
L 227.004413 -66.457526 
L 228.150163 -66.429475 
L 229.295913 -66.414202 
L 230.441662 -66.394167 
L 231.587412 -66.330881 
L 232.733162 -66.247925 
L 233.878911 -66.258709 
L 235.024661 -66.253588 
L 236.17041 -66.197815 
L 237.31616 -66.184555 
L 238.46191 -66.136709 
L 239.607659 -66.090136 
L 240.753409 -66.095027 
L 241.899159 -66.070421 
L 243.044908 -66.044278 
L 244.190658 -65.995951 
L 245.336407 -65.956018 
L 246.482157 -65.945812 
L 247.627907 -65.908398 
L 248.773656 -65.887714 
L 249.919406 -65.854716 
L 251.065156 -65.820161 
L 252.210905 -65.801796 
L 253.356655 -65.792492 
L 254.502404 -65.79 
L 255.648154 -65.739791 
L 256.793904 -65.710743 
L 257.939653 -65.669262 
L 259.085403 -65.624172 
L 260.231153 -65.598394 
L 261.376902 -65.554545 
L 262.522652 -65.566208 
L 263.668401 -65.531288 
L 264.814151 -65.504994 
L 265.959901 -65.537251 
L 267.10565 -65.481546 
L 268.2514 -65.460379 
L 269.39715 -65.423647 
L 270.542899 -65.424881 
L 271.688649 -65.416208 
L 272.834398 -65.369183 
L 273.980148 -65.375264 
L 275.125898 -65.324686 
L 276.271647 -65.299961 
L 277.417397 -65.293095 
L 278.563147 -65.244914 
L 279.708896 -65.264041 
L 280.854646 -65.233335 
L 282.000395 -65.178579 
L 283.146145 -65.1875 
L 284.291895 -65.136413 
L 285.437644 -65.124301 
L 286.583394 -65.125231 
L 287.729144 -65.104056 
L 288.874893 -65.112234 
L 290.020643 -65.103806 
L 291.166392 -65.058342 
L 292.312142 -65.036719 
L 293.457892 -65.063946 
L 294.603641 -64.991506 
L 295.749391 -65.026368 
L 296.89514 -64.94655 
L 298.04089 -64.957509 
L 299.18664 -64.956564 
L 299.18664 -102.725155 
L 299.18664 -102.725155 
L 298.04089 -102.619332 
L 296.89514 -102.61343 
L 295.749391 -102.517618 
L 294.603641 -102.473879 
L 293.457892 -102.435582 
L 292.312142 -102.353074 
L 291.166392 -102.279062 
L 290.020643 -102.278284 
L 288.874893 -102.158182 
L 287.729144 -102.127554 
L 286.583394 -102.076394 
L 285.437644 -102.000772 
L 284.291895 -101.931819 
L 283.146145 -101.921149 
L 282.000395 -101.829953 
L 280.854646 -101.840662 
L 279.708896 -101.811287 
L 278.563147 -101.767357 
L 277.417397 -101.669184 
L 276.271647 -101.557929 
L 275.125898 -101.494119 
L 273.980148 -101.411794 
L 272.834398 -101.401506 
L 271.688649 -101.328256 
L 270.542899 -101.279218 
L 269.39715 -101.163728 
L 268.2514 -101.168649 
L 267.10565 -101.127381 
L 265.959901 -101.050479 
L 264.814151 -100.966251 
L 263.668401 -100.926529 
L 262.522652 -100.856516 
L 261.376902 -100.750157 
L 260.231153 -100.72055 
L 259.085403 -100.681284 
L 257.939653 -100.631191 
L 256.793904 -100.534647 
L 255.648154 -100.510566 
L 254.502404 -100.434383 
L 253.356655 -100.41355 
L 252.210905 -100.305805 
L 251.065156 -100.256944 
L 249.919406 -100.191075 
L 248.773656 -100.063357 
L 247.627907 -100.040388 
L 246.482157 -99.99534 
L 245.336407 -99.88621 
L 244.190658 -99.87861 
L 243.044908 -99.794479 
L 241.899159 -99.736948 
L 240.753409 -99.745443 
L 239.607659 -99.691544 
L 238.46191 -99.652695 
L 237.31616 -99.542914 
L 236.17041 -99.515735 
L 235.024661 -99.416267 
L 233.878911 -99.35802 
L 232.733162 -99.302796 
L 231.587412 -99.218642 
L 230.441662 -99.134623 
L 229.295913 -99.114989 
L 228.150163 -99.068749 
L 227.004413 -98.931203 
L 225.858664 -98.880075 
L 224.712914 -98.839041 
L 223.567165 -98.756503 
L 222.421415 -98.756022 
L 221.275665 -98.665778 
L 220.129916 -98.631621 
L 218.984166 -98.655333 
L 217.838416 -98.553612 
L 216.692667 -98.511318 
L 215.546917 -98.396773 
L 214.401168 -98.361672 
L 213.255418 -98.284898 
L 212.109668 -98.226852 
L 210.963919 -98.191616 
L 209.818169 -98.094144 
L 208.672419 -97.956044 
L 207.52667 -97.924243 
L 206.38092 -97.811291 
L 205.235171 -97.730794 
L 204.089421 -97.697235 
L 202.943671 -97.59237 
L 201.797922 -97.514872 
L 200.652172 -97.41237 
L 199.506422 -97.373487 
L 198.360673 -97.340513 
L 197.214923 -97.230127 
L 196.069174 -97.179782 
L 194.923424 -97.189001 
L 193.777674 -97.121581 
L 192.631925 -97.091732 
L 191.486175 -97.03427 
L 190.340425 -96.894839 
L 189.194676 -96.864926 
L 188.048926 -96.799946 
L 186.903177 -96.687408 
L 185.757427 -96.548124 
L 184.611677 -96.482102 
L 183.465928 -96.405298 
L 182.320178 -96.375392 
L 181.174428 -96.286612 
L 180.028679 -96.263092 
L 178.882929 -96.213203 
L 177.73718 -96.123649 
L 176.59143 -96.056986 
L 175.44568 -96.001015 
L 174.299931 -95.939194 
L 173.154181 -95.870394 
L 172.008431 -95.777672 
L 170.862682 -95.741634 
L 169.716932 -95.701794 
L 168.571183 -95.652078 
L 167.425433 -95.614601 
L 166.279683 -95.54849 
L 165.133934 -95.533238 
L 163.988184 -95.417757 
L 162.842434 -95.335314 
L 161.696685 -95.324845 
L 160.550935 -95.210082 
L 159.405186 -95.115356 
L 158.259436 -95.042018 
L 157.113686 -94.94697 
L 155.967937 -94.896735 
L 154.822187 -94.801658 
L 153.676437 -94.697733 
L 152.530688 -94.64366 
L 151.384938 -94.593821 
L 150.239189 -94.559987 
L 149.093439 -94.476917 
L 147.947689 -94.415836 
L 146.80194 -94.363739 
L 145.65619 -94.270816 
L 144.51044 -94.224946 
L 143.364691 -94.181219 
L 142.218941 -94.108526 
L 141.073192 -94.033375 
L 139.927442 -94.00304 
L 138.781692 -93.918289 
L 137.635943 -93.853157 
L 136.490193 -93.75895 
L 135.344443 -93.672504 
L 134.198694 -93.586522 
L 133.052944 -93.549023 
L 131.907195 -93.461513 
L 130.761445 -93.3833 
L 129.615695 -93.333174 
L 128.469946 -93.169917 
L 127.324196 -93.134071 
L 126.178446 -93.060996 
L 125.032697 -92.979086 
L 123.886947 -92.891103 
L 122.741198 -92.807361 
L 121.595448 -92.759342 
L 120.449698 -92.688651 
L 119.303949 -92.555477 
L 118.158199 -92.54817 
L 117.012449 -92.424219 
L 115.8667 -92.34757 
L 114.72095 -92.225219 
L 113.575201 -92.147732 
L 112.429451 -92.064733 
L 111.283701 -92.029913 
L 110.137952 -91.919149 
L 108.992202 -91.82944 
L 107.846452 -91.759189 
L 106.700703 -91.672156 
L 105.554953 -91.600488 
L 104.409204 -91.525285 
L 103.263454 -91.475359 
L 102.117704 -91.366067 
L 100.971955 -91.284862 
L 99.826205 -91.200267 
L 98.680455 -91.08772 
L 97.534706 -90.974519 
L 96.388956 -90.896921 
L 95.243207 -90.793072 
L 94.097457 -90.699778 
L 92.951707 -90.618573 
L 91.805958 -90.528113 
L 90.660208 -90.449145 
L 89.514458 -90.326489 
L 88.368709 -90.251196 
L 87.222959 -90.185627 
L 86.07721 -90.057555 
L 84.93146 -89.954094 
L 83.78571 -89.890014 
L 82.639961 -89.788678 
L 81.494211 -89.687597 
L 80.348461 -89.613366 
L 79.202712 -89.497225 
L 78.056962 -89.430553 
L 76.911213 -89.361021 
L 75.765463 -89.254782 
L 74.619713 -89.147984 
L 73.473964 -89.023759 
L 72.328214 -88.941678 
L 71.182464 -88.851842 
L 70.036715 -88.77909 
L 68.890965 -88.633571 
L 67.745216 -88.537252 
L 66.599466 -88.42408 
L 65.453716 -88.309287 
L 64.307967 -88.190653 
L 63.162217 -88.101543 
L 62.016467 -87.976445 
L 60.870718 -87.862882 
L 59.724968 -87.756825 
L 58.579219 -87.631721 
L 57.433469 -87.510333 
L 56.287719 -87.399076 
L 55.14197 -87.275741 
L 53.99622 -87.175809 
L 52.85047 -87.051202 
L 51.704721 -86.961928 
L 50.558971 -86.83188 
L 49.413222 -86.708312 
L 48.267472 -86.565991 
L 47.121722 -86.470825 
L 45.975973 -86.334122 
L 44.830223 -86.207028 
L 43.684473 -86.072459 
L 42.538724 -85.963449 
L 41.392974 -85.813339 
L 40.247225 -85.713872 
L 39.101475 -85.555599 
L 37.955725 -85.418456 
L 36.809976 -85.238344 
L 35.664226 -85.100381 
L 34.518476 -84.938184 
L 33.372727 -84.796403 
L 32.226977 -84.667491 
L 31.081228 -84.506145 
L 29.935478 -84.347449 
L 28.789728 -84.16844 
L 27.643979 -83.992007 
L 26.498229 -83.802637 
L 25.352479 -83.641835 
L 24.20673 -83.432357 
L 23.06098 -83.241137 
L 21.915231 -83.020415 
L 20.769481 -82.83458 
L 19.623731 -82.596081 
L 18.477982 -82.336475 
L 17.332232 -82.101982 
L 16.186482 -81.81009 
L 15.040733 -81.52325 
L 13.894983 -81.178367 
L 12.749234 -80.804216 
L 11.603484 -80.335224 
L 10.457734 -79.31332 
z
" style="stroke: #6aaed6; stroke-opacity: 0.8"/>
    </defs>
    <g clip-path="url(#p37c97684ae)">
     <use xlink:href="#m55e4ee873a" x="0" y="158.646338" style="fill: #6aaed6; fill-opacity: 0.8; stroke: #6aaed6; stroke-opacity: 0.8"/>
    </g>
   </g>
   <g id="line2d_19">
    <path d="M 10.457734 79.333018 
L 16.186482 79.169872 
L 27.643979 78.993454 
L 37.955725 78.881701 
L 63.162217 78.639149 
L 94.097457 78.24776 
L 97.534706 78.263699 
L 103.263454 78.203339 
L 106.700703 78.113509 
L 114.72095 78.020229 
L 121.595448 78.031736 
L 125.032697 77.920072 
L 131.907195 77.937251 
L 136.490193 77.852017 
L 142.218941 77.806787 
L 145.65619 77.739724 
L 154.822187 77.760832 
L 161.696685 77.697972 
L 165.133934 77.733044 
L 188.048926 77.474764 
L 197.214923 77.342158 
L 208.672419 77.291153 
L 216.692667 77.233925 
L 225.858664 77.118416 
L 227.004413 77.041592 
L 229.295913 77.051868 
L 240.753409 76.935144 
L 257.939653 76.733413 
L 262.522652 76.781856 
L 267.10565 76.723992 
L 271.688649 76.643012 
L 275.125898 76.660778 
L 278.563147 76.52871 
L 280.854646 76.564359 
L 299.18664 76.334406 
L 299.18664 76.334406 
" clip-path="url(#p37c97684ae)" style="fill: none; stroke: #000000; stroke-width: 2; stroke-linecap: round"/>
   </g>
   <g id="line2d_20">
    <path d="M 10.457734 79.333018 
L 313.623085 79.333018 
" clip-path="url(#p37c97684ae)" style="fill: none; stroke-dasharray: 7.4,3.2; stroke-dashoffset: 0; stroke: #b3a369; stroke-width: 2"/>
   </g>
   <g id="patch_3">
    <path d="M 313.623085 117.896182 
L 313.623085 9.777422 
" style="fill: none; stroke: #262626; stroke-width: 0.5; stroke-linejoin: miter; stroke-linecap: square"/>
   </g>
   <g id="patch_4">
    <path d="M 10.457734 117.896182 
L 313.623085 117.896182 
" style="fill: none; stroke: #262626; stroke-width: 0.5; stroke-linejoin: miter; stroke-linecap: square"/>
   </g>
   <g id="text_19">
    <g id="patch_5">
     <path d="M 317.518634 83.990752 
L 377.942852 83.990752 
Q 379.342852 83.990752 379.342852 82.590752 
L 379.342852 76.075284 
Q 379.342852 74.675284 377.942852 74.675284 
L 317.518634 74.675284 
Q 316.118634 74.675284 316.118634 76.075284 
L 316.118634 82.590752 
Q 316.118634 83.990752 317.518634 83.990752 
z
" style="fill: #ffffff; opacity: 0.7"/>
    </g>
    <!-- Valor Inicial: 4,770 -->
    <g style="fill: #b3a369" transform="translate(317.518634 81.230127) scale(0.07 -0.07)">
     <defs>
      <path id="CenturyGothic-56" d="M 209 4597 
L 709 4597 
L 2231 1044 
L 3781 4597 
L 4281 4597 
L 2281 0 
L 2181 0 
L 209 4597 
z
" transform="scale(0.015625)"/>
      <path id="CenturyGothic-20" transform="scale(0.015625)"/>
      <path id="CenturyGothic-49" d="M 494 4597 
L 953 4597 
L 953 0 
L 494 0 
L 494 4597 
z
" transform="scale(0.015625)"/>
      <path id="CenturyGothic-3a" d="M 969 3488 
Q 1128 3488 1240 3375 
Q 1353 3263 1353 3100 
Q 1353 2938 1240 2825 
Q 1128 2713 969 2713 
Q 809 2713 696 2825 
Q 584 2938 584 3100 
Q 584 3259 696 3373 
Q 809 3488 969 3488 
z
M 969 688 
Q 1128 688 1240 575 
Q 1353 463 1353 300 
Q 1353 141 1240 26 
Q 1128 -88 969 -88 
Q 809 -88 696 26 
Q 584 141 584 300 
Q 584 463 696 575 
Q 809 688 969 688 
z
" transform="scale(0.015625)"/>
      <path id="CenturyGothic-2c" d="M 922 844 
L 1344 644 
L 709 -538 
L 400 -406 
L 922 844 
z
" transform="scale(0.015625)"/>
     </defs>
     <use xlink:href="#CenturyGothic-56"/>
     <use xlink:href="#CenturyGothic-61" x="70.214844"/>
     <use xlink:href="#CenturyGothic-6c" x="138.525391"/>
     <use xlink:href="#CenturyGothic-6f" x="158.544922"/>
     <use xlink:href="#CenturyGothic-72" x="224.023438"/>
     <use xlink:href="#CenturyGothic-20" x="254.101562"/>
     <use xlink:href="#CenturyGothic-49" x="281.787109"/>
     <use xlink:href="#CenturyGothic-6e" x="304.394531"/>
     <use xlink:href="#CenturyGothic-69" x="365.380859"/>
     <use xlink:href="#CenturyGothic-63" x="385.400391"/>
     <use xlink:href="#CenturyGothic-69" x="450.097656"/>
     <use xlink:href="#CenturyGothic-61" x="470.117188"/>
     <use xlink:href="#CenturyGothic-6c" x="538.427734"/>
     <use xlink:href="#CenturyGothic-3a" x="558.447266"/>
     <use xlink:href="#CenturyGothic-20" x="586.132812"/>
     <use xlink:href="#CenturyGothic-34" x="613.818359"/>
     <use xlink:href="#CenturyGothic-2c" x="669.238281"/>
     <use xlink:href="#CenturyGothic-37" x="696.923828"/>
     <use xlink:href="#CenturyGothic-37" x="752.34375"/>
     <use xlink:href="#CenturyGothic-30" x="807.763672"/>
    </g>
   </g>
  </g>
 </g>
 <defs>
  <clipPath id="p37c97684ae">
   <rect x="10.457734" y="9.777422" width="303.165351" height="108.11876"/>
  </clipPath>
 </defs>
</svg>
