<?xml version="1.0" encoding="utf-8" standalone="no"?>
<!DOCTYPE svg PUBLIC "-//W3C//DTD SVG 1.1//EN"
  "http://www.w3.org/Graphics/SVG/1.1/DTD/svg11.dtd">
<svg xmlns:xlink="http://www.w3.org/1999/xlink" width="385.142852pt" height="158.679151pt" viewBox="0 0 385.142852 158.679151" xmlns="http://www.w3.org/2000/svg" version="1.1">
 <metadata>
  <rdf:RDF xmlns:dc="http://purl.org/dc/elements/1.1/" xmlns:cc="http://creativecommons.org/ns#" xmlns:rdf="http://www.w3.org/1999/02/22-rdf-syntax-ns#">
   <cc:Work>
    <dc:type rdf:resource="http://purl.org/dc/dcmitype/StillImage"/>
    <dc:date>2025-05-26T07:59:37.240259</dc:date>
    <dc:format>image/svg+xml</dc:format>
    <dc:creator>
     <cc:Agent>
      <dc:title>Matplotlib v3.9.2, https://matplotlib.org/</dc:title>
     </cc:Agent>
    </dc:creator>
   </cc:Work>
  </rdf:RDF>
 </metadata>
 <defs>
  <style type="text/css">*{stroke-linejoin: round; stroke-linecap: butt}</style>
 </defs>
 <g id="figure_1">
  <g id="patch_1">
   <path d="M -0 158.679151 
L 385.142852 158.679151 
L 385.142852 0 
L -0 0 
z
" style="fill: #ffffff"/>
  </g>
  <g id="axes_1">
   <g id="patch_2">
    <path d="M 10.457734 117.928994 
L 313.623085 117.928994 
L 313.623085 11.250234 
L 10.457734 11.250234 
z
" style="fill: #ffffff"/>
   </g>
   <g id="matplotlib.axis_1">
    <g id="xtick_1">
     <g id="line2d_1">
      <defs>
       <path id="mafb37e275b" d="M 0 0 
L 0 5 
" style="stroke: #262626; stroke-width: 0.5"/>
      </defs>
      <g>
       <use xlink:href="#mafb37e275b" x="10.457734" y="117.928994" style="fill: #262626; stroke: #262626; stroke-width: 0.5"/>
      </g>
     </g>
     <g id="text_1">
      <!-- 29-Dic -->
      <g style="fill: #262626" transform="translate(12.354844 147.652119) rotate(-90) scale(0.07 -0.07)">
       <defs>
        <path id="CenturyGothic-32" d="M 741 3156 
L 300 3156 
Q 319 3838 755 4275 
Q 1191 4713 1831 4713 
Q 2466 4713 2858 4303 
Q 3250 3894 3250 3338 
Q 3250 2947 3062 2605 
Q 2875 2263 2334 1678 
L 1191 444 
L 3313 444 
L 3313 0 
L 191 0 
L 1947 1897 
Q 2481 2469 2642 2745 
Q 2803 3022 2803 3328 
Q 2803 3716 2514 3995 
Q 2225 4275 1806 4275 
Q 1366 4275 1073 3981 
Q 781 3688 741 3156 
z
" transform="scale(0.015625)"/>
        <path id="CenturyGothic-39" d="M 1228 -116 
L 850 128 
L 2091 2009 
Q 1841 1928 1622 1928 
Q 1075 1928 694 2323 
Q 313 2719 313 3297 
Q 313 3694 497 4012 
Q 681 4331 1020 4522 
Q 1359 4713 1747 4713 
Q 2128 4713 2451 4528 
Q 2775 4344 2959 4012 
Q 3144 3681 3144 3306 
Q 3144 3022 3030 2711 
Q 2916 2400 2622 1963 
L 1228 -116 
z
M 1728 2331 
Q 2131 2331 2414 2614 
Q 2697 2897 2697 3297 
Q 2697 3697 2414 3980 
Q 2131 4263 1728 4263 
Q 1328 4263 1045 3980 
Q 763 3697 763 3297 
Q 763 2897 1045 2614 
Q 1328 2331 1728 2331 
z
" transform="scale(0.015625)"/>
        <path id="CenturyGothic-2d" d="M 203 1919 
L 1922 1919 
L 1922 1538 
L 203 1538 
L 203 1919 
z
" transform="scale(0.015625)"/>
        <path id="CenturyGothic-44" d="M 559 0 
L 559 4597 
L 1513 4597 
Q 2544 4597 3009 4431 
Q 3678 4197 4054 3619 
Q 4431 3041 4431 2241 
Q 4431 1550 4132 1025 
Q 3834 500 3357 250 
Q 2881 0 2022 0 
L 559 0 
z
M 1000 434 
L 1531 434 
Q 2484 434 2853 553 
Q 3372 722 3669 1161 
Q 3966 1600 3966 2234 
Q 3966 2900 3644 3372 
Q 3322 3844 2747 4019 
Q 2316 4150 1325 4150 
L 1000 4150 
L 1000 434 
z
" transform="scale(0.015625)"/>
        <path id="CenturyGothic-69" d="M 641 4800 
Q 791 4800 897 4694 
Q 1003 4588 1003 4438 
Q 1003 4291 897 4184 
Q 791 4078 641 4078 
Q 494 4078 387 4184 
Q 281 4291 281 4438 
Q 281 4588 387 4694 
Q 494 4800 641 4800 
z
M 422 3400 
L 863 3400 
L 863 0 
L 422 0 
L 422 3400 
z
" transform="scale(0.015625)"/>
        <path id="CenturyGothic-63" d="M 3788 2694 
L 3441 2478 
Q 2991 3075 2213 3075 
Q 1591 3075 1180 2675 
Q 769 2275 769 1703 
Q 769 1331 958 1003 
Q 1147 675 1476 494 
Q 1806 313 2216 313 
Q 2966 313 3441 909 
L 3788 681 
Q 3544 316 3133 114 
Q 2722 -88 2197 -88 
Q 1391 -88 859 425 
Q 328 938 328 1672 
Q 328 2166 576 2589 
Q 825 3013 1259 3250 
Q 1694 3488 2231 3488 
Q 2569 3488 2883 3384 
Q 3197 3281 3415 3115 
Q 3634 2950 3788 2694 
z
" transform="scale(0.015625)"/>
       </defs>
       <use xlink:href="#CenturyGothic-32"/>
       <use xlink:href="#CenturyGothic-39" x="55.419922"/>
       <use xlink:href="#CenturyGothic-2d" x="110.839844"/>
       <use xlink:href="#CenturyGothic-44" x="144.042969"/>
       <use xlink:href="#CenturyGothic-69" x="218.457031"/>
       <use xlink:href="#CenturyGothic-63" x="238.476562"/>
      </g>
     </g>
    </g>
    <g id="xtick_2">
     <g id="line2d_2">
      <g>
       <use xlink:href="#mafb37e275b" x="35.664226" y="117.928994" style="fill: #262626; stroke: #262626; stroke-width: 0.5"/>
      </g>
     </g>
     <g id="text_2">
      <!-- 01-Feb -->
      <g style="fill: #262626" transform="translate(37.561335 149.230401) rotate(-90) scale(0.07 -0.07)">
       <defs>
        <path id="CenturyGothic-30" d="M 203 2297 
Q 203 3206 398 3703 
Q 594 4200 950 4456 
Q 1306 4713 1747 4713 
Q 2194 4713 2556 4455 
Q 2919 4197 3130 3681 
Q 3341 3166 3341 2297 
Q 3341 1431 3133 918 
Q 2925 406 2559 145 
Q 2194 -116 1747 -116 
Q 1306 -116 953 137 
Q 600 391 401 892 
Q 203 1394 203 2297 
z
M 638 2288 
Q 638 1509 777 1111 
Q 916 713 1187 506 
Q 1459 300 1763 300 
Q 2069 300 2334 501 
Q 2600 703 2738 1106 
Q 2909 1597 2909 2288 
Q 2909 2981 2756 3423 
Q 2603 3866 2333 4070 
Q 2063 4275 1763 4275 
Q 1456 4275 1187 4070 
Q 919 3866 778 3467 
Q 638 3069 638 2288 
z
" transform="scale(0.015625)"/>
        <path id="CenturyGothic-31" d="M 1184 4597 
L 2088 4597 
L 2088 0 
L 1631 0 
L 1631 4147 
L 909 4147 
L 1184 4597 
z
" transform="scale(0.015625)"/>
        <path id="CenturyGothic-46" d="M 559 4597 
L 2863 4597 
L 2863 4144 
L 1016 4144 
L 1016 2706 
L 2863 2706 
L 2863 2253 
L 1016 2253 
L 1016 0 
L 559 0 
L 559 4597 
z
" transform="scale(0.015625)"/>
        <path id="CenturyGothic-65" d="M 3350 1128 
L 3719 934 
Q 3538 578 3300 359 
Q 3063 141 2766 26 
Q 2469 -88 2094 -88 
Q 1263 -88 794 457 
Q 325 1003 325 1691 
Q 325 2338 722 2844 
Q 1225 3488 2069 3488 
Q 2938 3488 3456 2828 
Q 3825 2363 3831 1666 
L 775 1666 
Q 788 1072 1153 692 
Q 1519 313 2056 313 
Q 2316 313 2561 403 
Q 2806 494 2978 644 
Q 3150 794 3350 1128 
z
M 3350 2044 
Q 3263 2394 3095 2603 
Q 2928 2813 2653 2941 
Q 2378 3069 2075 3069 
Q 1575 3069 1216 2747 
Q 953 2513 819 2044 
L 3350 2044 
z
" transform="scale(0.015625)"/>
        <path id="CenturyGothic-62" d="M 516 0 
L 516 4713 
L 950 4713 
L 950 2816 
Q 1225 3153 1565 3320 
Q 1906 3488 2313 3488 
Q 3034 3488 3545 2964 
Q 4056 2441 4056 1694 
Q 4056 956 3540 434 
Q 3025 -88 2300 -88 
Q 1884 -88 1546 90 
Q 1209 269 950 625 
L 950 0 
L 516 0 
z
M 2266 334 
Q 2631 334 2940 514 
Q 3250 694 3433 1019 
Q 3616 1344 3616 1706 
Q 3616 2069 3431 2397 
Q 3247 2725 2936 2908 
Q 2625 3091 2272 3091 
Q 1913 3091 1589 2908 
Q 1266 2725 1092 2415 
Q 919 2106 919 1719 
Q 919 1128 1308 731 
Q 1697 334 2266 334 
z
" transform="scale(0.015625)"/>
       </defs>
       <use xlink:href="#CenturyGothic-30"/>
       <use xlink:href="#CenturyGothic-31" x="55.419922"/>
       <use xlink:href="#CenturyGothic-2d" x="110.839844"/>
       <use xlink:href="#CenturyGothic-46" x="144.042969"/>
       <use xlink:href="#CenturyGothic-65" x="192.529297"/>
       <use xlink:href="#CenturyGothic-62" x="257.519531"/>
      </g>
     </g>
    </g>
    <g id="xtick_3">
     <g id="line2d_3">
      <g>
       <use xlink:href="#mafb37e275b" x="62.016467" y="117.928994" style="fill: #262626; stroke: #262626; stroke-width: 0.5"/>
      </g>
     </g>
     <g id="text_3">
      <!-- 06-Mar -->
      <g style="fill: #262626" transform="translate(63.913577 149.831963) rotate(-90) scale(0.07 -0.07)">
       <defs>
        <path id="CenturyGothic-36" d="M 2347 4713 
L 2725 4466 
L 1484 2584 
Q 1734 2669 1953 2669 
Q 2500 2669 2881 2273 
Q 3263 1878 3263 1300 
Q 3263 903 3078 583 
Q 2894 263 2555 73 
Q 2216 -116 1825 -116 
Q 1447 -116 1123 67 
Q 800 250 615 581 
Q 431 913 431 1291 
Q 431 1572 545 1883 
Q 659 2194 953 2631 
L 2347 4713 
z
M 1844 2266 
Q 1444 2266 1161 1983 
Q 878 1700 878 1297 
Q 878 897 1161 614 
Q 1444 331 1844 331 
Q 2244 331 2526 614 
Q 2809 897 2809 1297 
Q 2809 1700 2526 1983 
Q 2244 2266 1844 2266 
z
" transform="scale(0.015625)"/>
        <path id="CenturyGothic-4d" d="M 350 0 
L 1003 4597 
L 1078 4597 
L 2947 825 
L 4797 4597 
L 4872 4597 
L 5531 0 
L 5078 0 
L 4628 3288 
L 3003 0 
L 2888 0 
L 1241 3313 
L 794 0 
L 350 0 
z
" transform="scale(0.015625)"/>
        <path id="CenturyGothic-61" d="M 3875 3400 
L 3875 0 
L 3444 0 
L 3444 584 
Q 3169 250 2826 81 
Q 2484 -88 2078 -88 
Q 1356 -88 845 435 
Q 334 959 334 1709 
Q 334 2444 850 2966 
Q 1366 3488 2091 3488 
Q 2509 3488 2848 3309 
Q 3188 3131 3444 2775 
L 3444 3400 
L 3875 3400 
z
M 2125 3066 
Q 1759 3066 1450 2886 
Q 1141 2706 958 2381 
Q 775 2056 775 1694 
Q 775 1334 959 1006 
Q 1144 678 1455 495 
Q 1766 313 2122 313 
Q 2481 313 2803 494 
Q 3125 675 3298 984 
Q 3472 1294 3472 1681 
Q 3472 2272 3083 2669 
Q 2694 3066 2125 3066 
z
" transform="scale(0.015625)"/>
        <path id="CenturyGothic-72" d="M 322 3400 
L 769 3400 
L 769 2903 
Q 969 3197 1191 3342 
Q 1413 3488 1653 3488 
Q 1834 3488 2041 3372 
L 1813 3003 
Q 1675 3063 1581 3063 
Q 1363 3063 1159 2883 
Q 956 2703 850 2325 
Q 769 2034 769 1150 
L 769 0 
L 322 0 
L 322 3400 
z
" transform="scale(0.015625)"/>
       </defs>
       <use xlink:href="#CenturyGothic-30"/>
       <use xlink:href="#CenturyGothic-36" x="55.419922"/>
       <use xlink:href="#CenturyGothic-2d" x="110.839844"/>
       <use xlink:href="#CenturyGothic-4d" x="144.042969"/>
       <use xlink:href="#CenturyGothic-61" x="235.9375"/>
       <use xlink:href="#CenturyGothic-72" x="304.248047"/>
      </g>
     </g>
    </g>
    <g id="xtick_4">
     <g id="line2d_4">
      <g>
       <use xlink:href="#mafb37e275b" x="88.368709" y="117.928994" style="fill: #262626; stroke: #262626; stroke-width: 0.5"/>
      </g>
     </g>
     <g id="text_4">
      <!-- 09-Abr -->
      <g style="fill: #262626" transform="translate(90.265818 148.570869) rotate(-90) scale(0.07 -0.07)">
       <defs>
        <path id="CenturyGothic-41" d="M 2438 4597 
L 4581 0 
L 4088 0 
L 3366 1513 
L 1384 1513 
L 666 0 
L 153 0 
L 2325 4597 
L 2438 4597 
z
M 2381 3622 
L 1591 1956 
L 3163 1956 
L 2381 3622 
z
" transform="scale(0.015625)"/>
       </defs>
       <use xlink:href="#CenturyGothic-30"/>
       <use xlink:href="#CenturyGothic-39" x="55.419922"/>
       <use xlink:href="#CenturyGothic-2d" x="110.839844"/>
       <use xlink:href="#CenturyGothic-41" x="144.042969"/>
       <use xlink:href="#CenturyGothic-62" x="218.017578"/>
       <use xlink:href="#CenturyGothic-72" x="286.230469"/>
      </g>
     </g>
    </g>
    <g id="xtick_5">
     <g id="line2d_5">
      <g>
       <use xlink:href="#mafb37e275b" x="114.72095" y="117.928994" style="fill: #262626; stroke: #262626; stroke-width: 0.5"/>
      </g>
     </g>
     <g id="text_5">
      <!-- 10-May -->
      <g style="fill: #262626" transform="translate(116.61806 151.479151) rotate(-90) scale(0.07 -0.07)">
       <defs>
        <path id="CenturyGothic-79" d="M 122 3400 
L 584 3400 
L 1753 781 
L 2888 3400 
L 3353 3400 
L 1325 -1244 
L 863 -1244 
L 1519 256 
L 122 3400 
z
" transform="scale(0.015625)"/>
       </defs>
       <use xlink:href="#CenturyGothic-31"/>
       <use xlink:href="#CenturyGothic-30" x="55.419922"/>
       <use xlink:href="#CenturyGothic-2d" x="110.839844"/>
       <use xlink:href="#CenturyGothic-4d" x="144.042969"/>
       <use xlink:href="#CenturyGothic-61" x="235.9375"/>
       <use xlink:href="#CenturyGothic-79" x="304.248047"/>
      </g>
     </g>
    </g>
    <g id="xtick_6">
     <g id="line2d_6">
      <g>
       <use xlink:href="#mafb37e275b" x="141.073192" y="117.928994" style="fill: #262626; stroke: #262626; stroke-width: 0.5"/>
      </g>
     </g>
     <g id="text_6">
      <!-- 13-Jun -->
      <g style="fill: #262626" transform="translate(142.970301 148.410088) rotate(-90) scale(0.07 -0.07)">
       <defs>
        <path id="CenturyGothic-33" d="M 847 3531 
L 378 3531 
Q 506 4100 868 4406 
Q 1231 4713 1725 4713 
Q 2084 4713 2395 4548 
Q 2706 4384 2876 4106 
Q 3047 3828 3047 3525 
Q 3047 2931 2456 2584 
Q 2788 2450 3000 2191 
Q 3300 1825 3300 1372 
Q 3300 981 3094 626 
Q 2888 272 2531 78 
Q 2175 -116 1734 -116 
Q 1141 -116 744 226 
Q 347 569 225 1231 
L 675 1231 
Q 794 784 1016 584 
Q 1300 331 1741 331 
Q 2241 331 2544 631 
Q 2847 931 2847 1334 
Q 2847 1603 2695 1837 
Q 2544 2072 2289 2190 
Q 2034 2309 1500 2338 
L 1500 2759 
Q 1816 2759 2075 2870 
Q 2334 2981 2451 3153 
Q 2569 3325 2569 3528 
Q 2569 3828 2330 4047 
Q 2091 4266 1725 4266 
Q 1428 4266 1212 4098 
Q 997 3931 847 3531 
z
" transform="scale(0.015625)"/>
        <path id="CenturyGothic-4a" d="M 2063 4597 
L 2525 4597 
L 2525 1494 
Q 2525 778 2414 498 
Q 2303 219 2043 51 
Q 1784 -116 1416 -116 
Q 1138 -116 867 -8 
Q 597 100 269 372 
L 513 738 
Q 872 484 1109 381 
Q 1266 313 1416 313 
Q 1613 313 1773 431 
Q 1934 550 1998 747 
Q 2063 944 2063 1509 
L 2063 4597 
z
" transform="scale(0.015625)"/>
        <path id="CenturyGothic-75" d="M 431 3400 
L 872 3400 
L 872 1813 
Q 872 1231 934 1013 
Q 1028 700 1292 519 
Q 1556 338 1922 338 
Q 2288 338 2542 514 
Q 2797 691 2894 978 
Q 2959 1175 2959 1813 
L 2959 3400 
L 3406 3400 
L 3406 1731 
Q 3406 1028 3242 672 
Q 3078 316 2748 114 
Q 2419 -88 1922 -88 
Q 1425 -88 1092 114 
Q 759 316 595 677 
Q 431 1038 431 1763 
L 431 3400 
z
" transform="scale(0.015625)"/>
        <path id="CenturyGothic-6e" d="M 488 3400 
L 925 3400 
L 925 2791 
Q 1188 3141 1506 3314 
Q 1825 3488 2200 3488 
Q 2581 3488 2876 3294 
Q 3172 3100 3312 2772 
Q 3453 2444 3453 1750 
L 3453 0 
L 3019 0 
L 3019 1622 
Q 3019 2209 2969 2406 
Q 2891 2744 2675 2914 
Q 2459 3084 2113 3084 
Q 1716 3084 1402 2821 
Q 1088 2559 988 2172 
Q 925 1919 925 1247 
L 925 0 
L 488 0 
L 488 3400 
z
" transform="scale(0.015625)"/>
       </defs>
       <use xlink:href="#CenturyGothic-31"/>
       <use xlink:href="#CenturyGothic-33" x="55.419922"/>
       <use xlink:href="#CenturyGothic-2d" x="110.839844"/>
       <use xlink:href="#CenturyGothic-4a" x="144.042969"/>
       <use xlink:href="#CenturyGothic-75" x="192.236328"/>
       <use xlink:href="#CenturyGothic-6e" x="253.027344"/>
      </g>
     </g>
    </g>
    <g id="xtick_7">
     <g id="line2d_7">
      <g>
       <use xlink:href="#mafb37e275b" x="167.425433" y="117.928994" style="fill: #262626; stroke: #262626; stroke-width: 0.5"/>
      </g>
     </g>
     <g id="text_7">
      <!-- 18-Jul -->
      <g style="fill: #262626" transform="translate(169.322542 145.542276) rotate(-90) scale(0.07 -0.07)">
       <defs>
        <path id="CenturyGothic-38" d="M 2459 2522 
Q 2925 2291 3126 1994 
Q 3328 1697 3328 1319 
Q 3328 788 2981 381 
Q 2556 -116 1766 -116 
Q 1003 -116 609 320 
Q 216 756 216 1281 
Q 216 1666 422 1973 
Q 628 2281 1109 2522 
Q 772 2697 603 2956 
Q 434 3216 434 3513 
Q 434 3813 614 4098 
Q 794 4384 1111 4548 
Q 1428 4713 1797 4713 
Q 2156 4713 2462 4547 
Q 2769 4381 2942 4097 
Q 3116 3813 3116 3500 
Q 3116 3188 2952 2944 
Q 2788 2700 2459 2522 
z
M 1775 4266 
Q 1397 4266 1148 4042 
Q 900 3819 900 3509 
Q 900 3203 1167 2954 
Q 1434 2706 1791 2706 
Q 2019 2706 2222 2818 
Q 2425 2931 2539 3126 
Q 2653 3322 2653 3519 
Q 2653 3797 2428 4031 
Q 2203 4266 1775 4266 
z
M 1797 2291 
Q 1322 2291 1000 1983 
Q 678 1675 678 1266 
Q 678 1013 815 788 
Q 953 563 1200 441 
Q 1447 319 1772 319 
Q 2275 319 2572 616 
Q 2869 913 2869 1309 
Q 2869 1694 2555 1992 
Q 2241 2291 1797 2291 
z
" transform="scale(0.015625)"/>
        <path id="CenturyGothic-6c" d="M 422 4713 
L 859 4713 
L 859 0 
L 422 0 
L 422 4713 
z
" transform="scale(0.015625)"/>
       </defs>
       <use xlink:href="#CenturyGothic-31"/>
       <use xlink:href="#CenturyGothic-38" x="55.419922"/>
       <use xlink:href="#CenturyGothic-2d" x="110.839844"/>
       <use xlink:href="#CenturyGothic-4a" x="144.042969"/>
       <use xlink:href="#CenturyGothic-75" x="192.236328"/>
       <use xlink:href="#CenturyGothic-6c" x="253.027344"/>
      </g>
     </g>
    </g>
    <g id="xtick_8">
     <g id="line2d_8">
      <g>
       <use xlink:href="#mafb37e275b" x="193.777674" y="117.928994" style="fill: #262626; stroke: #262626; stroke-width: 0.5"/>
      </g>
     </g>
     <g id="text_8">
      <!-- 20-Ago -->
      <g style="fill: #262626" transform="translate(195.627206 150.983682) rotate(-90) scale(0.07 -0.07)">
       <defs>
        <path id="CenturyGothic-67" d="M 3416 3400 
L 3856 3400 
L 3856 691 
Q 3856 -25 3731 -356 
Q 3559 -825 3134 -1078 
Q 2709 -1331 2113 -1331 
Q 1675 -1331 1326 -1207 
Q 978 -1084 759 -876 
Q 541 -669 356 -269 
L 831 -269 
Q 1025 -606 1331 -768 
Q 1638 -931 2091 -931 
Q 2538 -931 2845 -764 
Q 3153 -597 3284 -344 
Q 3416 -91 3416 472 
L 3416 647 
Q 3169 334 2812 167 
Q 2456 0 2056 0 
Q 1588 0 1175 233 
Q 763 466 538 859 
Q 313 1253 313 1725 
Q 313 2197 547 2605 
Q 781 3013 1195 3250 
Q 1609 3488 2069 3488 
Q 2450 3488 2779 3330 
Q 3109 3172 3416 2809 
L 3416 3400 
z
M 2125 3066 
Q 1753 3066 1434 2886 
Q 1116 2706 934 2389 
Q 753 2072 753 1703 
Q 753 1144 1128 778 
Q 1503 413 2100 413 
Q 2703 413 3070 775 
Q 3438 1138 3438 1728 
Q 3438 2113 3269 2414 
Q 3100 2716 2790 2891 
Q 2481 3066 2125 3066 
z
" transform="scale(0.015625)"/>
        <path id="CenturyGothic-6f" d="M 2097 3488 
Q 2881 3488 3397 2919 
Q 3866 2400 3866 1691 
Q 3866 978 3370 445 
Q 2875 -88 2097 -88 
Q 1316 -88 820 445 
Q 325 978 325 1691 
Q 325 2397 794 2916 
Q 1309 3488 2097 3488 
z
M 2097 3059 
Q 1553 3059 1162 2656 
Q 772 2253 772 1681 
Q 772 1313 950 994 
Q 1128 675 1431 501 
Q 1734 328 2097 328 
Q 2459 328 2762 501 
Q 3066 675 3244 994 
Q 3422 1313 3422 1681 
Q 3422 2253 3030 2656 
Q 2638 3059 2097 3059 
z
" transform="scale(0.015625)"/>
       </defs>
       <use xlink:href="#CenturyGothic-32"/>
       <use xlink:href="#CenturyGothic-30" x="55.419922"/>
       <use xlink:href="#CenturyGothic-2d" x="110.839844"/>
       <use xlink:href="#CenturyGothic-41" x="144.042969"/>
       <use xlink:href="#CenturyGothic-67" x="218.017578"/>
       <use xlink:href="#CenturyGothic-6f" x="285.302734"/>
      </g>
     </g>
    </g>
    <g id="xtick_9">
     <g id="line2d_9">
      <g>
       <use xlink:href="#mafb37e275b" x="220.129916" y="117.928994" style="fill: #262626; stroke: #262626; stroke-width: 0.5"/>
      </g>
     </g>
     <g id="text_9">
      <!-- 23-Sep -->
      <g style="fill: #262626" transform="translate(222.027025 149.323369) rotate(-90) scale(0.07 -0.07)">
       <defs>
        <path id="CenturyGothic-53" d="M 84 856 
L 475 1091 
Q 888 331 1428 331 
Q 1659 331 1862 439 
Q 2066 547 2172 728 
Q 2278 909 2278 1113 
Q 2278 1344 2122 1566 
Q 1906 1872 1334 2303 
Q 759 2738 619 2931 
Q 375 3256 375 3634 
Q 375 3934 519 4181 
Q 663 4428 923 4570 
Q 1184 4713 1491 4713 
Q 1816 4713 2098 4552 
Q 2381 4391 2697 3959 
L 2322 3675 
Q 2063 4019 1880 4128 
Q 1697 4238 1481 4238 
Q 1203 4238 1026 4069 
Q 850 3900 850 3653 
Q 850 3503 912 3362 
Q 975 3222 1141 3056 
Q 1231 2969 1734 2597 
Q 2331 2156 2553 1812 
Q 2775 1469 2775 1122 
Q 2775 622 2395 253 
Q 2016 -116 1472 -116 
Q 1053 -116 712 107 
Q 372 331 84 856 
z
" transform="scale(0.015625)"/>
        <path id="CenturyGothic-70" d="M 494 3400 
L 928 3400 
L 928 2775 
Q 1188 3131 1525 3309 
Q 1863 3488 2278 3488 
Q 3003 3488 3518 2966 
Q 4034 2444 4034 1709 
Q 4034 959 3523 435 
Q 3013 -88 2291 -88 
Q 1884 -88 1543 81 
Q 1203 250 928 584 
L 928 -1244 
L 494 -1244 
L 494 3400 
z
M 2244 3066 
Q 1675 3066 1286 2669 
Q 897 2272 897 1681 
Q 897 1294 1070 984 
Q 1244 675 1567 494 
Q 1891 313 2250 313 
Q 2603 313 2914 495 
Q 3225 678 3409 1006 
Q 3594 1334 3594 1694 
Q 3594 2056 3411 2381 
Q 3228 2706 2918 2886 
Q 2609 3066 2244 3066 
z
" transform="scale(0.015625)"/>
       </defs>
       <use xlink:href="#CenturyGothic-32"/>
       <use xlink:href="#CenturyGothic-33" x="55.419922"/>
       <use xlink:href="#CenturyGothic-2d" x="110.839844"/>
       <use xlink:href="#CenturyGothic-53" x="144.042969"/>
       <use xlink:href="#CenturyGothic-65" x="193.847656"/>
       <use xlink:href="#CenturyGothic-70" x="258.837891"/>
      </g>
     </g>
    </g>
    <g id="xtick_10">
     <g id="line2d_10">
      <g>
       <use xlink:href="#mafb37e275b" x="246.482157" y="117.928994" style="fill: #262626; stroke: #262626; stroke-width: 0.5"/>
      </g>
     </g>
     <g id="text_10">
      <!-- 24-Oct -->
      <g style="fill: #262626" transform="translate(248.379266 149.498369) rotate(-90) scale(0.07 -0.07)">
       <defs>
        <path id="CenturyGothic-34" d="M 2725 4713 
L 2819 4713 
L 2819 1509 
L 3375 1509 
L 3375 1069 
L 2819 1069 
L 2819 0 
L 2359 0 
L 2359 1069 
L 163 1069 
L 2725 4713 
z
M 2359 1509 
L 2359 3425 
L 1006 1509 
L 2359 1509 
z
" transform="scale(0.015625)"/>
        <path id="CenturyGothic-4f" d="M 2750 4713 
Q 3794 4713 4497 4016 
Q 5200 3319 5200 2300 
Q 5200 1291 4498 587 
Q 3797 -116 2788 -116 
Q 1766 -116 1062 584 
Q 359 1284 359 2278 
Q 359 2941 679 3506 
Q 1000 4072 1553 4392 
Q 2106 4713 2750 4713 
z
M 2772 4263 
Q 2263 4263 1806 3997 
Q 1350 3731 1094 3281 
Q 838 2831 838 2278 
Q 838 1459 1405 895 
Q 1972 331 2772 331 
Q 3306 331 3761 590 
Q 4216 850 4470 1300 
Q 4725 1750 4725 2300 
Q 4725 2847 4470 3289 
Q 4216 3731 3753 3997 
Q 3291 4263 2772 4263 
z
" transform="scale(0.015625)"/>
        <path id="CenturyGothic-74" d="M 869 4663 
L 1309 4663 
L 1309 3400 
L 2003 3400 
L 2003 3025 
L 1309 3025 
L 1309 0 
L 869 0 
L 869 3025 
L 272 3025 
L 272 3400 
L 869 3400 
L 869 4663 
z
" transform="scale(0.015625)"/>
       </defs>
       <use xlink:href="#CenturyGothic-32"/>
       <use xlink:href="#CenturyGothic-34" x="55.419922"/>
       <use xlink:href="#CenturyGothic-2d" x="110.839844"/>
       <use xlink:href="#CenturyGothic-4f" x="144.042969"/>
       <use xlink:href="#CenturyGothic-63" x="230.957031"/>
       <use xlink:href="#CenturyGothic-74" x="295.654297"/>
      </g>
     </g>
    </g>
    <g id="xtick_11">
     <g id="line2d_11">
      <g>
       <use xlink:href="#mafb37e275b" x="272.834398" y="117.928994" style="fill: #262626; stroke: #262626; stroke-width: 0.5"/>
      </g>
     </g>
     <g id="text_11">
      <!-- 26-Nov -->
      <g style="fill: #262626" transform="translate(274.731508 150.153526) rotate(-90) scale(0.07 -0.07)">
       <defs>
        <path id="CenturyGothic-4e" d="M 563 0 
L 563 4597 
L 663 4597 
L 3719 1078 
L 3719 4597 
L 4172 4597 
L 4172 0 
L 4069 0 
L 1038 3475 
L 1038 0 
L 563 0 
z
" transform="scale(0.015625)"/>
        <path id="CenturyGothic-76" d="M 166 3400 
L 631 3400 
L 1769 925 
L 2897 3400 
L 3366 3400 
L 1809 0 
L 1731 0 
L 166 3400 
z
" transform="scale(0.015625)"/>
       </defs>
       <use xlink:href="#CenturyGothic-32"/>
       <use xlink:href="#CenturyGothic-36" x="55.419922"/>
       <use xlink:href="#CenturyGothic-2d" x="110.839844"/>
       <use xlink:href="#CenturyGothic-4e" x="144.042969"/>
       <use xlink:href="#CenturyGothic-6f" x="218.017578"/>
       <use xlink:href="#CenturyGothic-76" x="283.496094"/>
      </g>
     </g>
    </g>
    <g id="xtick_12">
     <g id="line2d_12">
      <g>
       <use xlink:href="#mafb37e275b" x="299.18664" y="117.928994" style="fill: #262626; stroke: #262626; stroke-width: 0.5"/>
      </g>
     </g>
     <g id="text_12">
      <!-- 31-Dic -->
      <g style="fill: #262626" transform="translate(301.083749 147.652119) rotate(-90) scale(0.07 -0.07)">
       <use xlink:href="#CenturyGothic-33"/>
       <use xlink:href="#CenturyGothic-31" x="55.419922"/>
       <use xlink:href="#CenturyGothic-2d" x="110.839844"/>
       <use xlink:href="#CenturyGothic-44" x="144.042969"/>
       <use xlink:href="#CenturyGothic-69" x="218.457031"/>
       <use xlink:href="#CenturyGothic-63" x="238.476562"/>
      </g>
     </g>
    </g>
   </g>
   <g id="matplotlib.axis_2">
    <g id="ytick_1">
     <g id="line2d_13">
      <defs>
       <path id="m1f6553d4a1" d="M 0 0 
L 6 0 
" style="stroke: #262626; stroke-width: 1.25"/>
      </defs>
      <g>
       <use xlink:href="#m1f6553d4a1" x="313.623085" y="117.928994" style="fill: #262626; stroke: #262626; stroke-width: 1.25"/>
      </g>
     </g>
     <g id="text_13">
      <!-- 2,400 -->
      <g style="fill: #262626" transform="translate(323.123085 121.979229) scale(0.11 -0.11)">
       <defs>
        <path id="CenturyGothic-2c" d="M 922 844 
L 1344 644 
L 709 -538 
L 400 -406 
L 922 844 
z
" transform="scale(0.015625)"/>
       </defs>
       <use xlink:href="#CenturyGothic-32"/>
       <use xlink:href="#CenturyGothic-2c" x="55.419922"/>
       <use xlink:href="#CenturyGothic-34" x="83.105469"/>
       <use xlink:href="#CenturyGothic-30" x="138.525391"/>
       <use xlink:href="#CenturyGothic-30" x="193.945312"/>
      </g>
     </g>
    </g>
    <g id="ytick_2">
     <g id="line2d_14">
      <g>
       <use xlink:href="#m1f6553d4a1" x="313.623085" y="104.594149" style="fill: #262626; stroke: #262626; stroke-width: 1.25"/>
      </g>
     </g>
     <g id="text_14">
      <!-- 3,000 -->
      <g style="fill: #262626" transform="translate(323.123085 108.644384) scale(0.11 -0.11)">
       <use xlink:href="#CenturyGothic-33"/>
       <use xlink:href="#CenturyGothic-2c" x="55.419922"/>
       <use xlink:href="#CenturyGothic-30" x="83.105469"/>
       <use xlink:href="#CenturyGothic-30" x="138.525391"/>
       <use xlink:href="#CenturyGothic-30" x="193.945312"/>
      </g>
     </g>
    </g>
    <g id="ytick_3">
     <g id="line2d_15">
      <g>
       <use xlink:href="#m1f6553d4a1" x="313.623085" y="91.259304" style="fill: #262626; stroke: #262626; stroke-width: 1.25"/>
      </g>
     </g>
     <g id="text_15">
      <!-- 3,600 -->
      <g style="fill: #262626" transform="translate(323.123085 95.309539) scale(0.11 -0.11)">
       <use xlink:href="#CenturyGothic-33"/>
       <use xlink:href="#CenturyGothic-2c" x="55.419922"/>
       <use xlink:href="#CenturyGothic-36" x="83.105469"/>
       <use xlink:href="#CenturyGothic-30" x="138.525391"/>
       <use xlink:href="#CenturyGothic-30" x="193.945312"/>
      </g>
     </g>
    </g>
    <g id="ytick_4">
     <g id="line2d_16">
      <g>
       <use xlink:href="#m1f6553d4a1" x="313.623085" y="77.924459" style="fill: #262626; stroke: #262626; stroke-width: 1.25"/>
      </g>
     </g>
     <g id="text_16">
      <!-- 4,200 -->
      <g style="fill: #262626" transform="translate(323.123085 81.974694) scale(0.11 -0.11)">
       <use xlink:href="#CenturyGothic-34"/>
       <use xlink:href="#CenturyGothic-2c" x="55.419922"/>
       <use xlink:href="#CenturyGothic-32" x="83.105469"/>
       <use xlink:href="#CenturyGothic-30" x="138.525391"/>
       <use xlink:href="#CenturyGothic-30" x="193.945312"/>
      </g>
     </g>
    </g>
    <g id="ytick_5">
     <g id="line2d_17">
      <g>
       <use xlink:href="#m1f6553d4a1" x="313.623085" y="64.589614" style="fill: #262626; stroke: #262626; stroke-width: 1.25"/>
      </g>
     </g>
     <g id="text_17">
      <!-- 4,800 -->
      <g style="fill: #262626" transform="translate(323.123085 68.639849) scale(0.11 -0.11)">
       <use xlink:href="#CenturyGothic-34"/>
       <use xlink:href="#CenturyGothic-2c" x="55.419922"/>
       <use xlink:href="#CenturyGothic-38" x="83.105469"/>
       <use xlink:href="#CenturyGothic-30" x="138.525391"/>
       <use xlink:href="#CenturyGothic-30" x="193.945312"/>
      </g>
     </g>
    </g>
    <g id="ytick_6">
     <g id="line2d_18">
      <g>
       <use xlink:href="#m1f6553d4a1" x="313.623085" y="51.254769" style="fill: #262626; stroke: #262626; stroke-width: 1.25"/>
      </g>
     </g>
     <g id="text_18">
      <!-- 5,400 -->
      <g style="fill: #262626" transform="translate(323.123085 55.305004) scale(0.11 -0.11)">
       <defs>
        <path id="CenturyGothic-35" d="M 3147 4597 
L 3147 4159 
L 1509 4159 
L 1281 2906 
Q 1581 2994 1822 2994 
Q 2450 2994 2858 2573 
Q 3266 2153 3266 1497 
Q 3266 1044 3056 666 
Q 2847 288 2489 86 
Q 2131 -116 1663 -116 
Q 1103 -116 718 226 
Q 334 569 259 1113 
L 731 1113 
Q 784 847 911 681 
Q 1038 516 1248 414 
Q 1459 313 1691 313 
Q 2144 313 2469 656 
Q 2794 1000 2794 1516 
Q 2794 1981 2500 2272 
Q 2206 2563 1716 2563 
Q 1309 2563 731 2316 
L 1156 4597 
L 3147 4597 
z
" transform="scale(0.015625)"/>
       </defs>
       <use xlink:href="#CenturyGothic-35"/>
       <use xlink:href="#CenturyGothic-2c" x="55.419922"/>
       <use xlink:href="#CenturyGothic-34" x="83.105469"/>
       <use xlink:href="#CenturyGothic-30" x="138.525391"/>
       <use xlink:href="#CenturyGothic-30" x="193.945312"/>
      </g>
     </g>
    </g>
    <g id="ytick_7">
     <g id="line2d_19">
      <g>
       <use xlink:href="#m1f6553d4a1" x="313.623085" y="37.919924" style="fill: #262626; stroke: #262626; stroke-width: 1.25"/>
      </g>
     </g>
     <g id="text_19">
      <!-- 6,000 -->
      <g style="fill: #262626" transform="translate(323.123085 41.970159) scale(0.11 -0.11)">
       <use xlink:href="#CenturyGothic-36"/>
       <use xlink:href="#CenturyGothic-2c" x="55.419922"/>
       <use xlink:href="#CenturyGothic-30" x="83.105469"/>
       <use xlink:href="#CenturyGothic-30" x="138.525391"/>
       <use xlink:href="#CenturyGothic-30" x="193.945312"/>
      </g>
     </g>
    </g>
    <g id="ytick_8">
     <g id="line2d_20">
      <g>
       <use xlink:href="#m1f6553d4a1" x="313.623085" y="24.585079" style="fill: #262626; stroke: #262626; stroke-width: 1.25"/>
      </g>
     </g>
     <g id="text_20">
      <!-- 6,600 -->
      <g style="fill: #262626" transform="translate(323.123085 28.635314) scale(0.11 -0.11)">
       <use xlink:href="#CenturyGothic-36"/>
       <use xlink:href="#CenturyGothic-2c" x="55.419922"/>
       <use xlink:href="#CenturyGothic-36" x="83.105469"/>
       <use xlink:href="#CenturyGothic-30" x="138.525391"/>
       <use xlink:href="#CenturyGothic-30" x="193.945312"/>
      </g>
     </g>
    </g>
    <g id="ytick_9">
     <g id="line2d_21">
      <g>
       <use xlink:href="#m1f6553d4a1" x="313.623085" y="11.250234" style="fill: #262626; stroke: #262626; stroke-width: 1.25"/>
      </g>
     </g>
     <g id="text_21">
      <!-- 7,200 -->
      <g style="fill: #262626" transform="translate(323.123085 15.300469) scale(0.11 -0.11)">
       <defs>
        <path id="CenturyGothic-37" d="M 459 4597 
L 3375 4597 
L 916 -116 
L 538 78 
L 2663 4163 
L 459 4163 
L 459 4597 
z
" transform="scale(0.015625)"/>
       </defs>
       <use xlink:href="#CenturyGothic-37"/>
       <use xlink:href="#CenturyGothic-2c" x="55.419922"/>
       <use xlink:href="#CenturyGothic-32" x="83.105469"/>
       <use xlink:href="#CenturyGothic-30" x="138.525391"/>
       <use xlink:href="#CenturyGothic-30" x="193.945312"/>
      </g>
     </g>
    </g>
   </g>
   <g id="PolyCollection_1">
    <defs>
     <path id="m4261c8f711" d="M 10.457734 -93.419016 
L 10.457734 -93.419016 
L 11.603484 -91.894142 
L 12.749234 -91.22287 
L 13.894983 -90.706465 
L 15.040733 -90.297651 
L 16.186482 -89.901091 
L 17.332232 -89.540408 
L 18.477982 -89.213011 
L 19.623731 -88.924989 
L 20.769481 -88.614279 
L 21.915231 -88.34756 
L 23.06098 -88.105315 
L 24.20673 -87.869987 
L 25.352479 -87.646292 
L 26.498229 -87.438569 
L 27.643979 -87.227025 
L 28.789728 -87.036228 
L 29.935478 -86.845875 
L 31.081228 -86.649656 
L 32.226977 -86.457536 
L 33.372727 -86.280216 
L 34.518476 -86.113818 
L 35.664226 -85.932807 
L 36.809976 -85.746658 
L 37.955725 -85.601584 
L 39.101475 -85.467516 
L 40.247225 -85.302195 
L 41.392974 -85.110334 
L 42.538724 -84.983789 
L 43.684473 -84.824403 
L 44.830223 -84.698269 
L 45.975973 -84.575237 
L 47.121722 -84.447137 
L 48.267472 -84.289279 
L 49.413222 -84.171572 
L 50.558971 -84.010533 
L 51.704721 -83.953214 
L 52.85047 -83.818473 
L 53.99622 -83.724077 
L 55.14197 -83.547473 
L 56.287719 -83.44853 
L 57.433469 -83.342471 
L 58.579219 -83.211239 
L 59.724968 -83.093921 
L 60.870718 -82.97815 
L 62.016467 -82.812256 
L 63.162217 -82.721258 
L 64.307967 -82.564897 
L 65.453716 -82.526858 
L 66.599466 -82.374676 
L 67.745216 -82.248487 
L 68.890965 -82.226932 
L 70.036715 -82.101454 
L 71.182464 -82.004391 
L 72.328214 -81.886157 
L 73.473964 -81.844375 
L 74.619713 -81.760775 
L 75.765463 -81.623465 
L 76.911213 -81.560541 
L 78.056962 -81.44563 
L 79.202712 -81.371895 
L 80.348461 -81.267115 
L 81.494211 -81.152162 
L 82.639961 -81.060461 
L 83.78571 -80.95987 
L 84.93146 -80.913395 
L 86.07721 -80.821623 
L 87.222959 -80.697742 
L 88.368709 -80.572277 
L 89.514458 -80.510978 
L 90.660208 -80.411146 
L 91.805958 -80.393673 
L 92.951707 -80.322837 
L 94.097457 -80.269619 
L 95.243207 -80.16106 
L 96.388956 -80.101745 
L 97.534706 -80.012829 
L 98.680455 -79.932213 
L 99.826205 -79.796043 
L 100.971955 -79.74991 
L 102.117704 -79.606543 
L 103.263454 -79.564309 
L 104.409204 -79.524375 
L 105.554953 -79.485963 
L 106.700703 -79.376919 
L 107.846452 -79.316386 
L 108.992202 -79.338134 
L 110.137952 -79.242332 
L 111.283701 -79.11768 
L 112.429451 -79.024954 
L 113.575201 -78.924856 
L 114.72095 -78.861573 
L 115.8667 -78.850633 
L 117.012449 -78.726388 
L 118.158199 -78.603473 
L 119.303949 -78.549315 
L 120.449698 -78.544676 
L 121.595448 -78.465379 
L 122.741198 -78.395491 
L 123.886947 -78.326819 
L 125.032697 -78.293746 
L 126.178446 -78.240117 
L 127.324196 -78.174823 
L 128.469946 -78.091312 
L 129.615695 -78.052963 
L 130.761445 -77.91352 
L 131.907195 -77.854215 
L 133.052944 -77.813547 
L 134.198694 -77.734175 
L 135.344443 -77.723982 
L 136.490193 -77.694989 
L 137.635943 -77.603411 
L 138.781692 -77.544939 
L 139.927442 -77.504809 
L 141.073192 -77.38788 
L 142.218941 -77.34784 
L 143.364691 -77.291919 
L 144.51044 -77.218346 
L 145.65619 -77.198219 
L 146.80194 -77.158318 
L 147.947689 -77.081317 
L 149.093439 -76.994852 
L 150.239189 -76.94502 
L 151.384938 -76.85536 
L 152.530688 -76.840092 
L 153.676437 -76.775711 
L 154.822187 -76.609749 
L 155.967937 -76.564532 
L 157.113686 -76.594606 
L 158.259436 -76.545075 
L 159.405186 -76.467401 
L 160.550935 -76.458336 
L 161.696685 -76.374574 
L 162.842434 -76.276726 
L 163.988184 -76.305405 
L 165.133934 -76.325335 
L 166.279683 -76.236714 
L 167.425433 -76.17653 
L 168.571183 -76.087062 
L 169.716932 -76.057627 
L 170.862682 -76.007521 
L 172.008431 -75.943911 
L 173.154181 -75.900805 
L 174.299931 -75.866178 
L 175.44568 -75.828689 
L 176.59143 -75.758472 
L 177.73718 -75.731382 
L 178.882929 -75.681736 
L 180.028679 -75.63162 
L 181.174428 -75.533086 
L 182.320178 -75.50796 
L 183.465928 -75.513923 
L 184.611677 -75.464824 
L 185.757427 -75.449021 
L 186.903177 -75.416109 
L 188.048926 -75.370625 
L 189.194676 -75.317111 
L 190.340425 -75.252478 
L 191.486175 -75.211949 
L 192.631925 -75.12708 
L 193.777674 -75.112132 
L 194.923424 -75.069154 
L 196.069174 -74.983227 
L 197.214923 -74.871417 
L 198.360673 -74.873233 
L 199.506422 -74.783955 
L 200.652172 -74.7552 
L 201.797922 -74.732464 
L 202.943671 -74.710372 
L 204.089421 -74.712507 
L 205.235171 -74.672612 
L 206.38092 -74.592283 
L 207.52667 -74.642246 
L 208.672419 -74.546872 
L 209.818169 -74.53652 
L 210.963919 -74.486809 
L 212.109668 -74.46761 
L 213.255418 -74.429499 
L 214.401168 -74.399644 
L 215.546917 -74.348262 
L 216.692667 -74.295434 
L 217.838416 -74.234228 
L 218.984166 -74.166816 
L 220.129916 -74.170003 
L 221.275665 -74.153669 
L 222.421415 -74.05234 
L 223.567165 -73.996449 
L 224.712914 -74.004897 
L 225.858664 -74.011307 
L 227.004413 -73.912414 
L 228.150163 -73.908608 
L 229.295913 -73.790535 
L 230.441662 -73.758235 
L 231.587412 -73.728673 
L 232.733162 -73.753016 
L 233.878911 -73.663822 
L 235.024661 -73.593126 
L 236.17041 -73.531405 
L 237.31616 -73.542587 
L 238.46191 -73.512906 
L 239.607659 -73.461174 
L 240.753409 -73.33285 
L 241.899159 -73.37865 
L 243.044908 -73.342315 
L 244.190658 -73.348456 
L 245.336407 -73.329074 
L 246.482157 -73.30195 
L 247.627907 -73.229101 
L 248.773656 -73.169603 
L 249.919406 -73.158928 
L 251.065156 -73.145119 
L 252.210905 -73.038961 
L 253.356655 -73.020864 
L 254.502404 -72.971142 
L 255.648154 -72.854756 
L 256.793904 -72.833501 
L 257.939653 -72.844739 
L 259.085403 -72.815578 
L 260.231153 -72.701578 
L 261.376902 -72.676634 
L 262.522652 -72.66913 
L 263.668401 -72.644741 
L 264.814151 -72.596844 
L 265.959901 -72.601726 
L 267.10565 -72.552316 
L 268.2514 -72.521036 
L 269.39715 -72.501652 
L 270.542899 -72.440943 
L 271.688649 -72.426027 
L 272.834398 -72.383564 
L 273.980148 -72.345825 
L 275.125898 -72.357037 
L 276.271647 -72.334268 
L 277.417397 -72.329369 
L 278.563147 -72.330805 
L 279.708896 -72.330115 
L 280.854646 -72.325823 
L 282.000395 -72.306039 
L 283.146145 -72.235599 
L 284.291895 -72.214039 
L 285.437644 -72.210174 
L 286.583394 -72.138596 
L 287.729144 -72.072956 
L 288.874893 -72.047713 
L 290.020643 -72.05048 
L 291.166392 -71.998976 
L 292.312142 -71.985972 
L 293.457892 -71.92443 
L 294.603641 -71.907929 
L 295.749391 -71.811711 
L 296.89514 -71.750219 
L 298.04089 -71.724378 
L 299.18664 -71.680387 
L 299.18664 -121.216778 
L 299.18664 -121.216778 
L 298.04089 -121.160449 
L 296.89514 -121.054839 
L 295.749391 -120.968437 
L 294.603641 -120.899225 
L 293.457892 -120.825132 
L 292.312142 -120.737424 
L 291.166392 -120.695285 
L 290.020643 -120.637117 
L 288.874893 -120.591353 
L 287.729144 -120.528505 
L 286.583394 -120.461389 
L 285.437644 -120.352198 
L 284.291895 -120.279651 
L 283.146145 -120.212775 
L 282.000395 -120.104865 
L 280.854646 -120.013841 
L 279.708896 -119.922751 
L 278.563147 -119.842155 
L 277.417397 -119.781369 
L 276.271647 -119.698938 
L 275.125898 -119.607781 
L 273.980148 -119.529945 
L 272.834398 -119.439293 
L 271.688649 -119.374058 
L 270.542899 -119.282384 
L 269.39715 -119.196848 
L 268.2514 -119.145515 
L 267.10565 -119.077991 
L 265.959901 -118.994208 
L 264.814151 -118.910617 
L 263.668401 -118.820556 
L 262.522652 -118.71522 
L 261.376902 -118.65239 
L 260.231153 -118.561793 
L 259.085403 -118.457509 
L 257.939653 -118.377296 
L 256.793904 -118.310721 
L 255.648154 -118.232091 
L 254.502404 -118.167727 
L 253.356655 -118.097343 
L 252.210905 -118.023053 
L 251.065156 -117.954736 
L 249.919406 -117.88183 
L 248.773656 -117.8223 
L 247.627907 -117.725892 
L 246.482157 -117.651975 
L 245.336407 -117.545859 
L 244.190658 -117.471459 
L 243.044908 -117.414714 
L 241.899159 -117.361448 
L 240.753409 -117.225211 
L 239.607659 -117.147511 
L 238.46191 -117.055312 
L 237.31616 -116.960809 
L 236.17041 -116.920381 
L 235.024661 -116.835747 
L 233.878911 -116.747223 
L 232.733162 -116.664977 
L 231.587412 -116.604075 
L 230.441662 -116.53511 
L 229.295913 -116.439999 
L 228.150163 -116.342563 
L 227.004413 -116.265465 
L 225.858664 -116.179626 
L 224.712914 -116.108198 
L 223.567165 -116.012695 
L 222.421415 -115.958361 
L 221.275665 -115.883246 
L 220.129916 -115.800234 
L 218.984166 -115.711924 
L 217.838416 -115.620267 
L 216.692667 -115.540693 
L 215.546917 -115.431969 
L 214.401168 -115.382174 
L 213.255418 -115.306443 
L 212.109668 -115.183322 
L 210.963919 -115.159537 
L 209.818169 -115.060655 
L 208.672419 -114.993385 
L 207.52667 -114.892852 
L 206.38092 -114.827875 
L 205.235171 -114.743425 
L 204.089421 -114.666065 
L 202.943671 -114.585338 
L 201.797922 -114.51766 
L 200.652172 -114.417816 
L 199.506422 -114.372732 
L 198.360673 -114.269911 
L 197.214923 -114.174615 
L 196.069174 -114.110857 
L 194.923424 -113.993243 
L 193.777674 -113.891279 
L 192.631925 -113.825371 
L 191.486175 -113.754986 
L 190.340425 -113.672967 
L 189.194676 -113.564411 
L 188.048926 -113.445863 
L 186.903177 -113.372823 
L 185.757427 -113.298196 
L 184.611677 -113.195149 
L 183.465928 -113.129409 
L 182.320178 -113.025985 
L 181.174428 -112.939668 
L 180.028679 -112.886641 
L 178.882929 -112.820923 
L 177.73718 -112.718834 
L 176.59143 -112.67034 
L 175.44568 -112.576428 
L 174.299931 -112.501782 
L 173.154181 -112.421062 
L 172.008431 -112.323248 
L 170.862682 -112.235609 
L 169.716932 -112.13061 
L 168.571183 -112.06303 
L 167.425433 -111.999823 
L 166.279683 -111.896231 
L 165.133934 -111.811345 
L 163.988184 -111.725095 
L 162.842434 -111.616327 
L 161.696685 -111.545102 
L 160.550935 -111.476624 
L 159.405186 -111.365876 
L 158.259436 -111.298946 
L 157.113686 -111.194555 
L 155.967937 -111.089321 
L 154.822187 -111.037693 
L 153.676437 -110.926713 
L 152.530688 -110.826587 
L 151.384938 -110.754211 
L 150.239189 -110.666409 
L 149.093439 -110.576921 
L 147.947689 -110.504988 
L 146.80194 -110.437693 
L 145.65619 -110.358336 
L 144.51044 -110.248146 
L 143.364691 -110.202679 
L 142.218941 -110.117596 
L 141.073192 -110.016206 
L 139.927442 -109.966248 
L 138.781692 -109.876069 
L 137.635943 -109.764384 
L 136.490193 -109.663963 
L 135.344443 -109.557326 
L 134.198694 -109.482866 
L 133.052944 -109.377373 
L 131.907195 -109.271557 
L 130.761445 -109.185354 
L 129.615695 -109.089825 
L 128.469946 -108.985097 
L 127.324196 -108.910637 
L 126.178446 -108.827407 
L 125.032697 -108.734978 
L 123.886947 -108.623915 
L 122.741198 -108.556725 
L 121.595448 -108.407783 
L 120.449698 -108.309172 
L 119.303949 -108.234048 
L 118.158199 -108.169747 
L 117.012449 -108.100418 
L 115.8667 -108.020503 
L 114.72095 -107.910144 
L 113.575201 -107.843322 
L 112.429451 -107.727904 
L 111.283701 -107.626203 
L 110.137952 -107.53593 
L 108.992202 -107.434832 
L 107.846452 -107.349175 
L 106.700703 -107.255801 
L 105.554953 -107.187732 
L 104.409204 -107.111506 
L 103.263454 -107.036466 
L 102.117704 -106.933398 
L 100.971955 -106.838892 
L 99.826205 -106.715624 
L 98.680455 -106.627002 
L 97.534706 -106.537854 
L 96.388956 -106.451842 
L 95.243207 -106.379433 
L 94.097457 -106.29798 
L 92.951707 -106.184404 
L 91.805958 -106.068531 
L 90.660208 -105.978917 
L 89.514458 -105.898556 
L 88.368709 -105.795236 
L 87.222959 -105.679475 
L 86.07721 -105.567978 
L 84.93146 -105.476603 
L 83.78571 -105.359663 
L 82.639961 -105.26067 
L 81.494211 -105.153449 
L 80.348461 -105.028318 
L 79.202712 -104.970814 
L 78.056962 -104.86058 
L 76.911213 -104.750976 
L 75.765463 -104.657422 
L 74.619713 -104.526798 
L 73.473964 -104.422777 
L 72.328214 -104.300205 
L 71.182464 -104.18917 
L 70.036715 -104.098452 
L 68.890965 -103.987848 
L 67.745216 -103.873418 
L 66.599466 -103.743735 
L 65.453716 -103.627866 
L 64.307967 -103.535381 
L 63.162217 -103.420814 
L 62.016467 -103.319111 
L 60.870718 -103.21068 
L 59.724968 -103.095977 
L 58.579219 -102.961792 
L 57.433469 -102.859109 
L 56.287719 -102.718687 
L 55.14197 -102.610273 
L 53.99622 -102.482143 
L 52.85047 -102.378392 
L 51.704721 -102.248707 
L 50.558971 -102.128146 
L 49.413222 -102.020221 
L 48.267472 -101.893379 
L 47.121722 -101.731482 
L 45.975973 -101.602716 
L 44.830223 -101.489956 
L 43.684473 -101.349426 
L 42.538724 -101.223475 
L 41.392974 -101.091391 
L 40.247225 -100.94312 
L 39.101475 -100.79366 
L 37.955725 -100.648855 
L 36.809976 -100.500023 
L 35.664226 -100.373893 
L 34.518476 -100.201416 
L 33.372727 -100.038093 
L 32.226977 -99.872358 
L 31.081228 -99.696235 
L 29.935478 -99.530685 
L 28.789728 -99.34215 
L 27.643979 -99.187196 
L 26.498229 -98.99189 
L 25.352479 -98.808338 
L 24.20673 -98.589564 
L 23.06098 -98.393875 
L 21.915231 -98.155257 
L 20.769481 -97.928548 
L 19.623731 -97.693 
L 18.477982 -97.429528 
L 17.332232 -97.15869 
L 16.186482 -96.846057 
L 15.040733 -96.498815 
L 13.894983 -96.096387 
L 12.749234 -95.634619 
L 11.603484 -95.005679 
L 10.457734 -93.419016 
z
" style="stroke: #c6dbef; stroke-opacity: 0.8"/>
    </defs>
    <g clip-path="url(#p073f376a35)">
     <use xlink:href="#m4261c8f711" x="0" y="158.679151" style="fill: #c6dbef; fill-opacity: 0.8; stroke: #c6dbef; stroke-opacity: 0.8"/>
    </g>
   </g>
   <g id="PolyCollection_2">
    <defs>
     <path id="m7dc652b5c5" d="M 10.457734 -93.419016 
L 10.457734 -93.419016 
L 11.603484 -92.799998 
L 12.749234 -92.56726 
L 13.894983 -92.39189 
L 15.040733 -92.253368 
L 16.186482 -92.138418 
L 17.332232 -92.024864 
L 18.477982 -91.941773 
L 19.623731 -91.855687 
L 20.769481 -91.776167 
L 21.915231 -91.726414 
L 23.06098 -91.64364 
L 24.20673 -91.58625 
L 25.352479 -91.525503 
L 26.498229 -91.47698 
L 27.643979 -91.43462 
L 28.789728 -91.387463 
L 29.935478 -91.338939 
L 31.081228 -91.310344 
L 32.226977 -91.276034 
L 33.372727 -91.251024 
L 34.518476 -91.208376 
L 35.664226 -91.164476 
L 36.809976 -91.129591 
L 37.955725 -91.120193 
L 39.101475 -91.098724 
L 40.247225 -91.051118 
L 41.392974 -91.015578 
L 42.538724 -90.983745 
L 43.684473 -90.932651 
L 44.830223 -90.93527 
L 45.975973 -90.910068 
L 47.121722 -90.890326 
L 48.267472 -90.865765 
L 49.413222 -90.849408 
L 50.558971 -90.814665 
L 51.704721 -90.790981 
L 52.85047 -90.767228 
L 53.99622 -90.73107 
L 55.14197 -90.714074 
L 56.287719 -90.682607 
L 57.433469 -90.663024 
L 58.579219 -90.625023 
L 59.724968 -90.63743 
L 60.870718 -90.601485 
L 62.016467 -90.59279 
L 63.162217 -90.57542 
L 64.307967 -90.556244 
L 65.453716 -90.515249 
L 66.599466 -90.510096 
L 67.745216 -90.493543 
L 68.890965 -90.473754 
L 70.036715 -90.470733 
L 71.182464 -90.475602 
L 72.328214 -90.451183 
L 73.473964 -90.440688 
L 74.619713 -90.41263 
L 75.765463 -90.421814 
L 76.911213 -90.404355 
L 78.056962 -90.400133 
L 79.202712 -90.380297 
L 80.348461 -90.373581 
L 81.494211 -90.384427 
L 82.639961 -90.380077 
L 83.78571 -90.368692 
L 84.93146 -90.358734 
L 86.07721 -90.336816 
L 87.222959 -90.330241 
L 88.368709 -90.336013 
L 89.514458 -90.310228 
L 90.660208 -90.292873 
L 91.805958 -90.280065 
L 92.951707 -90.298919 
L 94.097457 -90.279167 
L 95.243207 -90.251758 
L 96.388956 -90.239416 
L 97.534706 -90.247426 
L 98.680455 -90.253262 
L 99.826205 -90.245618 
L 100.971955 -90.231984 
L 102.117704 -90.226822 
L 103.263454 -90.220445 
L 104.409204 -90.206339 
L 105.554953 -90.200401 
L 106.700703 -90.218166 
L 107.846452 -90.213731 
L 108.992202 -90.201125 
L 110.137952 -90.194396 
L 111.283701 -90.186673 
L 112.429451 -90.154553 
L 113.575201 -90.161456 
L 114.72095 -90.16496 
L 115.8667 -90.160662 
L 117.012449 -90.13826 
L 118.158199 -90.134223 
L 119.303949 -90.124311 
L 120.449698 -90.111675 
L 121.595448 -90.119351 
L 122.741198 -90.102215 
L 123.886947 -90.07674 
L 125.032697 -90.053221 
L 126.178446 -90.048926 
L 127.324196 -90.029179 
L 128.469946 -90.039111 
L 129.615695 -90.046314 
L 130.761445 -90.036153 
L 131.907195 -90.014555 
L 133.052944 -89.997397 
L 134.198694 -89.993041 
L 135.344443 -89.998045 
L 136.490193 -89.983672 
L 137.635943 -89.965052 
L 138.781692 -89.981841 
L 139.927442 -90.001174 
L 141.073192 -89.967447 
L 142.218941 -89.956373 
L 143.364691 -89.956213 
L 144.51044 -89.960784 
L 145.65619 -89.949625 
L 146.80194 -89.943538 
L 147.947689 -89.966391 
L 149.093439 -89.922774 
L 150.239189 -89.9066 
L 151.384938 -89.885897 
L 152.530688 -89.87985 
L 153.676437 -89.871857 
L 154.822187 -89.882474 
L 155.967937 -89.874075 
L 157.113686 -89.862415 
L 158.259436 -89.876233 
L 159.405186 -89.873818 
L 160.550935 -89.89215 
L 161.696685 -89.866791 
L 162.842434 -89.861858 
L 163.988184 -89.857336 
L 165.133934 -89.855413 
L 166.279683 -89.860509 
L 167.425433 -89.836144 
L 168.571183 -89.837018 
L 169.716932 -89.842404 
L 170.862682 -89.863595 
L 172.008431 -89.861294 
L 173.154181 -89.854711 
L 174.299931 -89.838254 
L 175.44568 -89.836313 
L 176.59143 -89.811509 
L 177.73718 -89.796067 
L 178.882929 -89.788235 
L 180.028679 -89.807846 
L 181.174428 -89.788011 
L 182.320178 -89.777528 
L 183.465928 -89.7196 
L 184.611677 -89.728624 
L 185.757427 -89.748125 
L 186.903177 -89.740156 
L 188.048926 -89.715788 
L 189.194676 -89.760889 
L 190.340425 -89.739953 
L 191.486175 -89.718549 
L 192.631925 -89.740546 
L 193.777674 -89.713792 
L 194.923424 -89.725427 
L 196.069174 -89.679612 
L 197.214923 -89.653538 
L 198.360673 -89.672436 
L 199.506422 -89.685527 
L 200.652172 -89.685904 
L 201.797922 -89.630077 
L 202.943671 -89.632281 
L 204.089421 -89.620838 
L 205.235171 -89.640813 
L 206.38092 -89.675976 
L 207.52667 -89.672959 
L 208.672419 -89.63985 
L 209.818169 -89.653323 
L 210.963919 -89.672409 
L 212.109668 -89.671676 
L 213.255418 -89.663913 
L 214.401168 -89.626323 
L 215.546917 -89.646325 
L 216.692667 -89.620164 
L 217.838416 -89.628929 
L 218.984166 -89.615054 
L 220.129916 -89.632171 
L 221.275665 -89.631565 
L 222.421415 -89.615764 
L 223.567165 -89.628788 
L 224.712914 -89.608492 
L 225.858664 -89.599185 
L 227.004413 -89.589376 
L 228.150163 -89.619261 
L 229.295913 -89.588578 
L 230.441662 -89.559224 
L 231.587412 -89.549914 
L 232.733162 -89.553559 
L 233.878911 -89.532894 
L 235.024661 -89.559495 
L 236.17041 -89.511822 
L 237.31616 -89.529771 
L 238.46191 -89.546785 
L 239.607659 -89.547876 
L 240.753409 -89.534382 
L 241.899159 -89.541893 
L 243.044908 -89.516304 
L 244.190658 -89.505937 
L 245.336407 -89.474453 
L 246.482157 -89.503449 
L 247.627907 -89.510313 
L 248.773656 -89.483432 
L 249.919406 -89.47888 
L 251.065156 -89.489785 
L 252.210905 -89.467434 
L 253.356655 -89.482372 
L 254.502404 -89.473449 
L 255.648154 -89.481582 
L 256.793904 -89.468973 
L 257.939653 -89.434788 
L 259.085403 -89.43084 
L 260.231153 -89.403288 
L 261.376902 -89.428344 
L 262.522652 -89.455945 
L 263.668401 -89.465326 
L 264.814151 -89.466284 
L 265.959901 -89.462977 
L 267.10565 -89.467192 
L 268.2514 -89.443902 
L 269.39715 -89.423241 
L 270.542899 -89.434914 
L 271.688649 -89.462655 
L 272.834398 -89.465008 
L 273.980148 -89.483057 
L 275.125898 -89.45782 
L 276.271647 -89.471958 
L 277.417397 -89.461085 
L 278.563147 -89.435037 
L 279.708896 -89.416384 
L 280.854646 -89.435974 
L 282.000395 -89.424717 
L 283.146145 -89.454481 
L 284.291895 -89.439474 
L 285.437644 -89.450334 
L 286.583394 -89.436697 
L 287.729144 -89.441613 
L 288.874893 -89.38705 
L 290.020643 -89.391373 
L 291.166392 -89.378907 
L 292.312142 -89.376671 
L 293.457892 -89.388085 
L 294.603641 -89.3642 
L 295.749391 -89.35471 
L 296.89514 -89.398868 
L 298.04089 -89.387718 
L 299.18664 -89.395367 
L 299.18664 -109.27095 
L 299.18664 -109.27095 
L 298.04089 -109.225436 
L 296.89514 -109.166342 
L 295.749391 -109.130612 
L 294.603641 -109.068752 
L 293.457892 -109.040356 
L 292.312142 -109.00602 
L 291.166392 -108.965526 
L 290.020643 -108.934153 
L 288.874893 -108.88833 
L 287.729144 -108.829937 
L 286.583394 -108.765284 
L 285.437644 -108.731233 
L 284.291895 -108.700125 
L 283.146145 -108.656609 
L 282.000395 -108.595296 
L 280.854646 -108.551254 
L 279.708896 -108.497364 
L 278.563147 -108.50194 
L 277.417397 -108.444792 
L 276.271647 -108.398635 
L 275.125898 -108.372957 
L 273.980148 -108.315062 
L 272.834398 -108.261268 
L 271.688649 -108.210714 
L 270.542899 -108.17485 
L 269.39715 -108.116778 
L 268.2514 -108.106573 
L 267.10565 -108.051202 
L 265.959901 -108.010898 
L 264.814151 -107.954086 
L 263.668401 -107.892935 
L 262.522652 -107.845368 
L 261.376902 -107.802514 
L 260.231153 -107.761441 
L 259.085403 -107.72532 
L 257.939653 -107.656146 
L 256.793904 -107.61787 
L 255.648154 -107.569874 
L 254.502404 -107.512911 
L 253.356655 -107.483313 
L 252.210905 -107.435229 
L 251.065156 -107.381416 
L 249.919406 -107.366948 
L 248.773656 -107.283414 
L 247.627907 -107.238127 
L 246.482157 -107.209823 
L 245.336407 -107.144571 
L 244.190658 -107.075873 
L 243.044908 -107.044924 
L 241.899159 -107.008759 
L 240.753409 -106.967446 
L 239.607659 -106.925071 
L 238.46191 -106.860865 
L 237.31616 -106.831855 
L 236.17041 -106.77571 
L 235.024661 -106.751656 
L 233.878911 -106.679493 
L 232.733162 -106.642609 
L 231.587412 -106.606527 
L 230.441662 -106.553792 
L 229.295913 -106.494806 
L 228.150163 -106.473003 
L 227.004413 -106.410218 
L 225.858664 -106.366751 
L 224.712914 -106.331551 
L 223.567165 -106.280199 
L 222.421415 -106.221252 
L 221.275665 -106.186664 
L 220.129916 -106.145184 
L 218.984166 -106.100894 
L 217.838416 -106.084068 
L 216.692667 -106.023266 
L 215.546917 -105.95966 
L 214.401168 -105.906432 
L 213.255418 -105.863403 
L 212.109668 -105.84204 
L 210.963919 -105.779741 
L 209.818169 -105.742009 
L 208.672419 -105.682866 
L 207.52667 -105.631941 
L 206.38092 -105.575132 
L 205.235171 -105.533756 
L 204.089421 -105.476703 
L 202.943671 -105.414623 
L 201.797922 -105.38394 
L 200.652172 -105.343518 
L 199.506422 -105.286219 
L 198.360673 -105.238283 
L 197.214923 -105.198473 
L 196.069174 -105.130045 
L 194.923424 -105.083238 
L 193.777674 -105.015022 
L 192.631925 -104.986162 
L 191.486175 -104.915964 
L 190.340425 -104.875968 
L 189.194676 -104.834015 
L 188.048926 -104.799318 
L 186.903177 -104.763527 
L 185.757427 -104.72503 
L 184.611677 -104.692601 
L 183.465928 -104.622027 
L 182.320178 -104.580356 
L 181.174428 -104.522394 
L 180.028679 -104.449468 
L 178.882929 -104.423139 
L 177.73718 -104.375463 
L 176.59143 -104.32178 
L 175.44568 -104.264675 
L 174.299931 -104.238304 
L 173.154181 -104.176861 
L 172.008431 -104.112604 
L 170.862682 -104.068185 
L 169.716932 -104.026497 
L 168.571183 -103.9794 
L 167.425433 -103.928012 
L 166.279683 -103.88131 
L 165.133934 -103.819842 
L 163.988184 -103.784423 
L 162.842434 -103.740312 
L 161.696685 -103.680721 
L 160.550935 -103.640241 
L 159.405186 -103.580692 
L 158.259436 -103.523406 
L 157.113686 -103.472714 
L 155.967937 -103.429406 
L 154.822187 -103.386638 
L 153.676437 -103.340193 
L 152.530688 -103.280332 
L 151.384938 -103.226359 
L 150.239189 -103.184337 
L 149.093439 -103.144657 
L 147.947689 -103.105852 
L 146.80194 -103.066252 
L 145.65619 -102.991173 
L 144.51044 -102.962618 
L 143.364691 -102.879771 
L 142.218941 -102.846408 
L 141.073192 -102.781234 
L 139.927442 -102.719887 
L 138.781692 -102.68166 
L 137.635943 -102.606063 
L 136.490193 -102.544451 
L 135.344443 -102.517776 
L 134.198694 -102.458601 
L 133.052944 -102.424781 
L 131.907195 -102.377258 
L 130.761445 -102.320716 
L 129.615695 -102.252617 
L 128.469946 -102.197056 
L 127.324196 -102.164385 
L 126.178446 -102.11333 
L 125.032697 -102.071153 
L 123.886947 -102.022275 
L 122.741198 -101.98878 
L 121.595448 -101.90103 
L 120.449698 -101.838215 
L 119.303949 -101.795651 
L 118.158199 -101.736236 
L 117.012449 -101.673926 
L 115.8667 -101.602093 
L 114.72095 -101.539846 
L 113.575201 -101.49506 
L 112.429451 -101.449067 
L 111.283701 -101.397722 
L 110.137952 -101.338525 
L 108.992202 -101.273735 
L 107.846452 -101.22512 
L 106.700703 -101.185728 
L 105.554953 -101.13072 
L 104.409204 -101.081365 
L 103.263454 -101.024016 
L 102.117704 -100.952262 
L 100.971955 -100.89713 
L 99.826205 -100.829708 
L 98.680455 -100.7796 
L 97.534706 -100.729006 
L 96.388956 -100.674678 
L 95.243207 -100.616926 
L 94.097457 -100.554065 
L 92.951707 -100.488194 
L 91.805958 -100.442537 
L 90.660208 -100.387214 
L 89.514458 -100.335819 
L 88.368709 -100.260327 
L 87.222959 -100.202337 
L 86.07721 -100.17247 
L 84.93146 -100.092579 
L 83.78571 -100.02228 
L 82.639961 -99.93772 
L 81.494211 -99.880789 
L 80.348461 -99.818608 
L 79.202712 -99.744592 
L 78.056962 -99.676831 
L 76.911213 -99.631116 
L 75.765463 -99.569431 
L 74.619713 -99.501812 
L 73.473964 -99.441369 
L 72.328214 -99.371096 
L 71.182464 -99.320686 
L 70.036715 -99.252122 
L 68.890965 -99.188634 
L 67.745216 -99.132647 
L 66.599466 -99.078744 
L 65.453716 -99.012412 
L 64.307967 -98.936776 
L 63.162217 -98.871761 
L 62.016467 -98.805984 
L 60.870718 -98.741769 
L 59.724968 -98.660828 
L 58.579219 -98.592575 
L 57.433469 -98.513527 
L 56.287719 -98.450231 
L 55.14197 -98.373012 
L 53.99622 -98.295869 
L 52.85047 -98.22117 
L 51.704721 -98.157481 
L 50.558971 -98.077424 
L 49.413222 -98.002033 
L 48.267472 -97.932244 
L 47.121722 -97.840759 
L 45.975973 -97.760044 
L 44.830223 -97.674764 
L 43.684473 -97.584608 
L 42.538724 -97.495737 
L 41.392974 -97.410895 
L 40.247225 -97.325516 
L 39.101475 -97.236974 
L 37.955725 -97.166444 
L 36.809976 -97.082598 
L 35.664226 -96.982461 
L 34.518476 -96.883622 
L 33.372727 -96.79998 
L 32.226977 -96.710546 
L 31.081228 -96.617126 
L 29.935478 -96.507568 
L 28.789728 -96.407289 
L 27.643979 -96.297013 
L 26.498229 -96.196937 
L 25.352479 -96.083818 
L 24.20673 -95.970355 
L 23.06098 -95.835442 
L 21.915231 -95.720902 
L 20.769481 -95.585138 
L 19.623731 -95.448855 
L 18.477982 -95.298929 
L 17.332232 -95.14985 
L 16.186482 -94.98434 
L 15.040733 -94.801401 
L 13.894983 -94.600741 
L 12.749234 -94.370306 
L 11.603484 -94.07648 
L 10.457734 -93.419016 
z
" style="stroke: #6aaed6; stroke-opacity: 0.8"/>
    </defs>
    <g clip-path="url(#p073f376a35)">
     <use xlink:href="#m7dc652b5c5" x="0" y="158.679151" style="fill: #6aaed6; fill-opacity: 0.8; stroke: #6aaed6; stroke-opacity: 0.8"/>
    </g>
   </g>
   <g id="line2d_22">
    <path d="M 10.457734 65.260135 
L 17.332232 65.038591 
L 28.789728 64.622716 
L 47.121722 64.051881 
L 71.182464 63.349497 
L 86.07721 62.965373 
L 104.409204 62.505234 
L 110.137952 62.360971 
L 128.469946 61.936938 
L 155.967937 61.339191 
L 161.696685 61.223839 
L 172.008431 61.063045 
L 181.174428 60.867641 
L 198.360673 60.547281 
L 207.52667 60.359677 
L 222.421415 60.034027 
L 232.733162 59.863903 
L 257.939653 59.420356 
L 265.959901 59.259601 
L 272.834398 59.124331 
L 292.312142 58.791733 
L 299.18664 58.668004 
L 299.18664 58.668004 
" clip-path="url(#p073f376a35)" style="fill: none; stroke: #000000; stroke-width: 2; stroke-linecap: round"/>
   </g>
   <g id="line2d_23">
    <path d="M 10.457734 65.260135 
L 313.623085 65.260135 
" clip-path="url(#p073f376a35)" style="fill: none; stroke-dasharray: 7.4,3.2; stroke-dashoffset: 0; stroke: #b3a369; stroke-width: 2"/>
   </g>
   <g id="patch_3">
    <path d="M 313.623085 117.928994 
L 313.623085 11.250234 
" style="fill: none; stroke: #262626; stroke-width: 0.5; stroke-linejoin: miter; stroke-linecap: square"/>
   </g>
   <g id="patch_4">
    <path d="M 10.457734 117.928994 
L 313.623085 117.928994 
" style="fill: none; stroke: #262626; stroke-width: 0.5; stroke-linejoin: miter; stroke-linecap: square"/>
   </g>
   <g id="text_22">
    <g id="patch_5">
     <path d="M 317.518634 69.917869 
L 377.942852 69.917869 
Q 379.342852 69.917869 379.342852 68.517869 
L 379.342852 62.0024 
Q 379.342852 60.6024 377.942852 60.6024 
L 317.518634 60.6024 
Q 316.118634 60.6024 316.118634 62.0024 
L 316.118634 68.517869 
Q 316.118634 69.917869 317.518634 69.917869 
z
" style="fill: #ffffff; opacity: 0.7"/>
    </g>
    <!-- Valor Inicial: 4,770 -->
    <g style="fill: #b3a369" transform="translate(317.518634 67.157244) scale(0.07 -0.07)">
     <defs>
      <path id="CenturyGothic-56" d="M 209 4597 
L 709 4597 
L 2231 1044 
L 3781 4597 
L 4281 4597 
L 2281 0 
L 2181 0 
L 209 4597 
z
" transform="scale(0.015625)"/>
      <path id="CenturyGothic-20" transform="scale(0.015625)"/>
      <path id="CenturyGothic-49" d="M 494 4597 
L 953 4597 
L 953 0 
L 494 0 
L 494 4597 
z
" transform="scale(0.015625)"/>
      <path id="CenturyGothic-3a" d="M 969 3488 
Q 1128 3488 1240 3375 
Q 1353 3263 1353 3100 
Q 1353 2938 1240 2825 
Q 1128 2713 969 2713 
Q 809 2713 696 2825 
Q 584 2938 584 3100 
Q 584 3259 696 3373 
Q 809 3488 969 3488 
z
M 969 688 
Q 1128 688 1240 575 
Q 1353 463 1353 300 
Q 1353 141 1240 26 
Q 1128 -88 969 -88 
Q 809 -88 696 26 
Q 584 141 584 300 
Q 584 463 696 575 
Q 809 688 969 688 
z
" transform="scale(0.015625)"/>
     </defs>
     <use xlink:href="#CenturyGothic-56"/>
     <use xlink:href="#CenturyGothic-61" x="70.214844"/>
     <use xlink:href="#CenturyGothic-6c" x="138.525391"/>
     <use xlink:href="#CenturyGothic-6f" x="158.544922"/>
     <use xlink:href="#CenturyGothic-72" x="224.023438"/>
     <use xlink:href="#CenturyGothic-20" x="254.101562"/>
     <use xlink:href="#CenturyGothic-49" x="281.787109"/>
     <use xlink:href="#CenturyGothic-6e" x="304.394531"/>
     <use xlink:href="#CenturyGothic-69" x="365.380859"/>
     <use xlink:href="#CenturyGothic-63" x="385.400391"/>
     <use xlink:href="#CenturyGothic-69" x="450.097656"/>
     <use xlink:href="#CenturyGothic-61" x="470.117188"/>
     <use xlink:href="#CenturyGothic-6c" x="538.427734"/>
     <use xlink:href="#CenturyGothic-3a" x="558.447266"/>
     <use xlink:href="#CenturyGothic-20" x="586.132812"/>
     <use xlink:href="#CenturyGothic-34" x="613.818359"/>
     <use xlink:href="#CenturyGothic-2c" x="669.238281"/>
     <use xlink:href="#CenturyGothic-37" x="696.923828"/>
     <use xlink:href="#CenturyGothic-37" x="752.34375"/>
     <use xlink:href="#CenturyGothic-30" x="807.763672"/>
    </g>
   </g>
  </g>
 </g>
 <defs>
  <clipPath id="p073f376a35">
   <rect x="10.457734" y="11.250234" width="303.165351" height="106.67876"/>
  </clipPath>
 </defs>
</svg>
